M48
; DRILL file {KiCad 7.0.1} date Wed Apr 12 20:57:32 2023
; FORMAT={-:-/ absolute / metric / decimal}
; #@! TF.CreationDate,2023-04-12T20:57:32-06:00
; #@! TF.GenerationSoftware,Kicad,Pcbnew,7.0.1
; #@! TF.FileFunction,MixedPlating,1,4
FMAT,2
METRIC
; #@! TA.AperFunction,Plated,PTH,ViaDrill
T1C0.300
; #@! TA.AperFunction,Plated,PTH,ViaDrill
T2C0.500
; #@! TA.AperFunction,Plated,PTH,ComponentDrill
T3C0.750
; #@! TA.AperFunction,Plated,PTH,ComponentDrill
T4C0.800
; #@! TA.AperFunction,Plated,PTH,ComponentDrill
T5C1.000
; #@! TA.AperFunction,NonPlated,NPTH,ComponentDrill
T6C1.600
%
G90
G05
T1
X6.25Y-82.0
X7.5Y-14.25
X8.108Y-33.35
X8.228Y-29.308
X8.383Y-78.007
X8.747Y-68.916
X8.75Y-24.0
X9.023Y-74.227
X9.579Y-38.978
X9.764Y-20.073
X10.313Y-85.346
X13.555Y-69.113
X13.787Y-24.142
X13.863Y-79.997
X13.988Y-83.392
X14.045Y-19.313
X14.218Y-59.975
X14.25Y-42.75
X14.996Y-73.403
X15.0Y-14.38
X15.25Y-36.25
X15.25Y-48.25
X17.5Y-17.75
X18.25Y-52.0
X18.38Y-69.824
X18.46Y-63.388
X18.497Y-8.577
X18.5Y-17.75
X18.5Y-36.25
X19.25Y-18.75
X19.397Y-74.869
X19.555Y-54.731
X20.24Y-80.073
X20.25Y-18.75
X20.25Y-33.0
X20.25Y-34.5
X20.25Y-58.25
X21.0Y-19.75
X21.5Y-48.0
X22.0Y-19.75
X22.0Y-22.0
X22.0Y-25.25
X22.75Y-30.75
X22.75Y-33.5
X22.75Y-35.0
X23.042Y-83.85
X23.25Y-23.75
X23.25Y-63.0
X23.25Y-64.0
X23.5Y-14.5
X23.5Y-29.5
X24.25Y-38.0
X24.5Y-53.0
X24.75Y-60.75
X25.0Y-35.5
X25.25Y-19.75
X25.25Y-20.75
X25.25Y-24.0
X26.0Y-10.0
X26.5Y-35.5
X27.5Y-41.5
X27.5Y-66.0
X28.0Y-57.75
X28.25Y-35.5
X28.5Y-29.5
X28.75Y-34.5
X29.129Y-84.639
X29.25Y-60.75
X29.25Y-63.75
X29.253Y-78.244
X29.365Y-49.393
X29.5Y-26.5
X31.0Y-24.5
X31.0Y-28.0
X31.0Y-65.75
X31.0Y-66.75
X32.25Y-53.5
X32.25Y-56.5
X33.0Y-36.25
X33.0Y-39.5
X33.321Y-34.346
X33.708Y-85.201
X33.75Y-49.0
X34.0Y-78.75
X34.043Y-45.132
X34.5Y-75.5
X35.383Y-38.91
X35.75Y-70.0
X36.25Y-33.0
X36.25Y-36.25
X36.25Y-39.5
X36.75Y-62.5
X36.75Y-63.5
X37.5Y-79.75
X38.0Y-22.0
X38.437Y-75.202
X39.0Y-22.0
X39.002Y-54.189
X39.458Y-64.686
X39.5Y-33.0
X39.5Y-36.25
X39.5Y-39.5
X39.75Y-21.0
X39.75Y-58.5
X39.75Y-88.25
X40.0Y-45.0
X40.25Y-69.5
X40.75Y-21.0
X41.5Y-20.0
X42.5Y-20.0
X42.5Y-85.201
X42.75Y-33.0
X42.75Y-36.25
X42.75Y-39.5
X43.215Y-70.053
X43.25Y-19.0
X43.462Y-64.539
X43.511Y-54.507
X43.705Y-58.161
X44.25Y-19.0
X44.405Y-24.704
X44.486Y-29.576
X45.0Y-18.0
X45.0Y-49.0
X45.05Y-39.669
X45.153Y-45.006
X46.0Y-18.0
X46.0Y-33.0
X46.0Y-36.25
X46.75Y-17.0
X47.75Y-17.0
X48.389Y-38.166
X48.479Y-20.312
X48.75Y-48.457
X48.798Y-43.839
X48.807Y-29.41
X48.906Y-59.194
X49.0Y-9.0
X49.464Y-33.422
X49.597Y-15.089
X50.145Y-53.896
X50.28Y-23.877
X53.268Y-59.559
X53.4Y-39.313
X53.7Y-44.5
X53.73Y-34.75
X53.932Y-24.106
X53.998Y-14.165
X54.0Y-9.25
X54.258Y-18.224
X54.401Y-30.207
X55.467Y-55.22
X55.5Y-50.0
X55.75Y-63.0
X58.29Y-60.123
X58.5Y-87.25
X58.75Y-74.553
X58.999Y-38.75
X59.426Y-18.994
X59.5Y-68.75
X59.924Y-15.214
X59.954Y-43.52
X60.401Y-28.232
X61.25Y-62.5
X63.51Y-9.375
X63.75Y-34.25
X63.75Y-73.089
X64.0Y-13.25
X64.0Y-79.14
X64.0Y-83.25
X64.75Y-68.75
X64.964Y-58.289
X64.985Y-25.417
X67.0Y-38.5
X68.0Y-84.932
X68.25Y-63.25
X68.636Y-73.266
X68.676Y-7.965
X69.0Y-69.277
X69.25Y-28.75
X69.5Y-58.75
X69.661Y-78.966
X70.0Y-18.25
X70.75Y-6.5
X73.0Y-36.5
X73.211Y-69.448
X73.25Y-44.5
X73.36Y-14.409
X73.562Y-59.153
X74.5Y-23.75
X77.0Y-43.5
X78.25Y-6.775
X78.5Y-23.0
X78.75Y-41.75
X79.0Y-60.0
X79.0Y-64.5
X79.512Y-15.375
X80.0Y-18.75
X80.032Y-84.224
X80.053Y-75.137
X80.095Y-78.844
X80.5Y-46.75
X80.5Y-50.0
X82.5Y-11.25
X82.5Y-14.25
X82.75Y-4.0
X82.75Y-9.5
X83.5Y-31.0
X83.504Y-64.648
X83.744Y-72.985
X83.75Y-54.0
X83.75Y-58.75
X84.091Y-69.25
X84.5Y-25.0
X84.577Y-78.604
X85.25Y-40.25
X85.444Y-83.522
X85.5Y-18.75
X85.5Y-42.0
X87.25Y-50.0
X87.75Y-19.45
X88.0Y-23.75
X88.0Y-38.75
X88.0Y-42.0
X88.0Y-45.25
X88.135Y-63.78
X88.149Y-20.289
X88.25Y-36.25
X88.278Y-68.921
X88.486Y-53.914
X88.542Y-59.575
X88.763Y-24.3
X89.317Y-8.486
X89.768Y-79.415
X89.81Y-13.877
X90.0Y-40.25
X90.0Y-43.5
X90.343Y-73.385
X90.75Y-19.2
X90.75Y-21.5
X91.75Y-23.25
X93.25Y-2.75
X93.25Y-3.75
X93.25Y-4.75
X93.25Y-5.75
X93.434Y-54.655
X93.802Y-79.243
X94.242Y-83.891
X94.25Y-2.75
X94.25Y-5.75
X94.359Y-58.968
X94.807Y-65.364
X95.219Y-44.777
X95.25Y-2.75
X95.25Y-5.75
X95.276Y-73.573
X95.343Y-38.677
X95.349Y-50.424
X95.354Y-35.015
X95.465Y-70.036
X96.25Y-2.75
X96.25Y-5.75
T2
X1.25Y-1.25
X1.25Y-3.75
X1.25Y-6.25
X1.25Y-8.75
X1.25Y-11.25
X1.25Y-13.75
X1.25Y-16.25
X1.25Y-18.75
X1.25Y-21.25
X1.25Y-23.75
X1.25Y-26.25
X1.25Y-28.75
X1.25Y-31.25
X1.25Y-33.75
X1.25Y-36.25
X1.25Y-38.75
X1.25Y-41.25
X1.25Y-43.75
X1.25Y-46.25
X1.25Y-48.75
X1.25Y-51.25
X1.25Y-53.75
X1.25Y-56.25
X1.25Y-58.75
X1.25Y-61.25
X1.25Y-63.75
X1.25Y-66.25
X1.25Y-68.75
X1.25Y-71.25
X1.25Y-73.75
X1.25Y-76.25
X1.25Y-78.75
X1.25Y-81.25
X1.25Y-83.75
X1.25Y-86.25
X1.25Y-88.75
X1.25Y-91.25
X1.25Y-93.75
X1.25Y-96.25
X1.25Y-98.75
X1.25Y-101.25
X1.25Y-103.75
X1.25Y-106.25
X1.25Y-108.75
X1.25Y-111.25
X1.25Y-113.75
X1.25Y-116.25
X1.25Y-118.75
X3.75Y-1.25
X3.75Y-88.75
X6.25Y-1.25
X6.25Y-88.75
X8.75Y-1.25
X8.75Y-88.75
X11.25Y-1.25
X11.25Y-88.75
X13.75Y-1.25
X13.75Y-88.75
X16.25Y-1.25
X16.25Y-88.75
X18.75Y-1.25
X21.25Y-1.25
X21.25Y-88.75
X22.75Y-69.0
X23.75Y-1.25
X23.75Y-88.75
X26.25Y-1.25
X26.25Y-88.75
X28.75Y-1.25
X28.75Y-88.75
X30.5Y-76.75
X31.25Y-1.25
X31.25Y-88.75
X31.25Y-91.25
X33.75Y-1.25
X33.75Y-91.25
X36.25Y-1.25
X36.25Y-91.25
X38.75Y-1.25
X38.75Y-91.25
X41.25Y-1.25
X41.25Y-91.25
X43.75Y-1.25
X43.75Y-91.25
X46.25Y-1.25
X46.25Y-91.25
X48.75Y-1.25
X48.75Y-91.25
X51.25Y-1.25
X51.25Y-91.25
X53.75Y-1.25
X53.75Y-91.25
X56.25Y-1.25
X56.25Y-91.25
X58.75Y-1.25
X58.75Y-91.25
X61.25Y-1.25
X61.25Y-91.25
X63.75Y-1.25
X63.75Y-91.25
X66.25Y-1.25
X66.25Y-91.25
X68.75Y-1.25
X68.75Y-91.25
X71.25Y-1.25
X71.25Y-91.25
X73.75Y-1.25
X73.75Y-91.25
X76.25Y-1.25
X76.25Y-91.25
X76.5Y-10.0
X78.75Y-1.25
X78.75Y-91.25
X81.25Y-1.25
X81.25Y-91.25
X82.25Y-28.25
X83.75Y-1.25
X83.75Y-91.25
X86.25Y-23.25
X86.25Y-91.25
X88.75Y-91.25
X91.25Y-91.25
X93.75Y-91.25
X96.25Y-91.25
X98.75Y-1.25
X98.75Y-3.75
X98.75Y-6.25
X98.75Y-8.75
X98.75Y-11.25
X98.75Y-13.75
X98.75Y-16.25
X98.75Y-18.75
X98.75Y-21.25
X98.75Y-23.75
X98.75Y-26.25
X98.75Y-28.75
X98.75Y-31.25
X98.75Y-33.75
X98.75Y-36.25
X98.75Y-38.75
X98.75Y-41.25
X98.75Y-43.75
X98.75Y-46.25
X98.75Y-48.75
X98.75Y-51.25
X98.75Y-53.75
X98.75Y-56.25
X98.75Y-58.75
X98.75Y-61.25
X98.75Y-63.75
X98.75Y-66.25
X98.75Y-68.75
X98.75Y-71.25
X98.75Y-73.75
X98.75Y-76.25
X98.75Y-78.75
X98.75Y-81.25
X98.75Y-83.75
X98.75Y-86.25
X98.75Y-88.75
X98.75Y-91.25
X98.75Y-93.75
X98.75Y-96.25
X98.75Y-98.75
X98.75Y-101.25
X98.75Y-103.75
X98.75Y-106.25
X98.75Y-108.75
X98.75Y-111.25
X98.75Y-113.75
X98.75Y-116.25
X98.75Y-118.75
T3
X69.0Y-87.41
X69.0Y-109.0
X75.35Y-83.6
X77.89Y-74.71
X88.05Y-83.6
T4
X61.5Y-76.94
X61.5Y-84.56
X61.5Y-87.44
X61.5Y-95.06
X61.5Y-101.38
X61.5Y-109.0
T5
X4.5Y-44.25
X4.5Y-53.25
X4.5Y-62.25
X6.25Y-4.75
X6.25Y-7.29
X8.79Y-4.75
X8.79Y-7.29
X11.33Y-4.75
X11.33Y-7.29
X13.87Y-4.75
X13.87Y-7.29
X16.41Y-4.75
X16.41Y-7.29
X18.75Y-101.5
X18.75Y-109.0
X20.5Y-43.0
X24.21Y-81.75
X24.75Y-4.75
X24.75Y-7.29
X26.75Y-81.75
X27.29Y-4.75
X27.29Y-7.29
X29.0Y-109.0
X29.29Y-81.75
X29.83Y-4.75
X29.83Y-7.29
X31.25Y-44.25
X32.37Y-4.75
X32.37Y-7.29
X34.91Y-4.75
X34.91Y-7.29
X36.5Y-109.0
X37.45Y-4.75
X37.45Y-7.29
X39.99Y-4.75
X39.99Y-7.29
X42.53Y-4.75
X42.53Y-7.29
X45.07Y-4.75
X45.07Y-7.29
X47.61Y-4.75
X47.61Y-7.29
X56.0Y-4.75
X58.54Y-4.75
X73.75Y-10.25
X74.75Y-39.0
X77.0Y-18.25
X80.5Y-55.0
X81.5Y-64.475
X81.5Y-67.015
X92.0Y-34.25
X92.25Y-29.5
T6
X91.5Y-3.5
X91.5Y-10.5
T0
M30
