%TF.GenerationSoftware,KiCad,Pcbnew,7.0.1*%
%TF.CreationDate,2023-04-12T20:57:29-06:00*%
%TF.ProjectId,Panoptes,50616e6f-7074-4657-932e-6b696361645f,3.0*%
%TF.SameCoordinates,PX16e3600PY1ba8140*%
%TF.FileFunction,Profile,NP*%
%FSLAX46Y46*%
G04 Gerber Fmt 4.6, Leading zero omitted, Abs format (unit mm)*
G04 Created by KiCad (PCBNEW 7.0.1) date 2023-04-12 20:57:29*
%MOMM*%
%LPD*%
G01*
G04 APERTURE LIST*
%TA.AperFunction,Profile*%
%ADD10C,0.100000*%
%TD*%
G04 APERTURE END LIST*
D10*
X17250000Y-101500000D02*
G75*
G03*
X20250000Y-101500000I1500000J0D01*
G01*
X63500000Y-83750000D02*
G75*
G03*
X63000000Y-83750000I-250000J0D01*
G01*
X29000000Y-110500000D02*
G75*
G03*
X29000000Y-111000000I0J-250000D01*
G01*
X29000000Y-110500000D02*
G75*
G03*
X29000000Y-107500000I0J1500000D01*
G01*
X63000000Y-87500000D02*
X63000000Y-83750000D01*
X60000000Y-101500000D02*
G75*
G03*
X63000000Y-101500000I1500000J0D01*
G01*
X60000000Y-87500000D02*
X60000000Y-83750000D01*
X0Y0D02*
X100000000Y0D01*
X100000000Y-120000000D01*
X0Y-120000000D01*
X0Y0D01*
X63000000Y-95000000D02*
G75*
G03*
X63500000Y-95000000I250000J0D01*
G01*
X59500000Y-95000000D02*
G75*
G03*
X60000000Y-95000000I250000J0D01*
G01*
X60000000Y-83750000D02*
G75*
G03*
X59500000Y-83750000I-250000J0D01*
G01*
X63500000Y-83750000D02*
X63500000Y-87500000D01*
X59500000Y-87500000D02*
G75*
G03*
X63500000Y-87500000I2000000J0D01*
G01*
X60000000Y-101500000D02*
G75*
G03*
X59500000Y-101500000I-250000J0D01*
G01*
X63500000Y-101500000D02*
G75*
G03*
X63000000Y-101500000I-250000J0D01*
G01*
X29000000Y-111000000D02*
G75*
G03*
X29000000Y-107000000I0J2000000D01*
G01*
X59500000Y-87500000D02*
X59500000Y-83750000D01*
X63500000Y-95000000D02*
G75*
G03*
X59500000Y-95000000I-2000000J0D01*
G01*
X60000000Y-87500000D02*
G75*
G03*
X63000000Y-87500000I1500000J0D01*
G01*
X63000000Y-95000000D02*
G75*
G03*
X60000000Y-95000000I-1500000J0D01*
G01*
X17250000Y-101500000D02*
G75*
G03*
X16750000Y-101500000I-250000J0D01*
G01*
X59500000Y-101500000D02*
G75*
G03*
X63500000Y-101500000I2000000J0D01*
G01*
X29000000Y-107000000D02*
G75*
G03*
X29000000Y-107500000I0J-250000D01*
G01*
X16750000Y-101500000D02*
G75*
G03*
X20750000Y-101500000I2000000J0D01*
G01*
X20750000Y-101500000D02*
G75*
G03*
X20250000Y-101500000I-250000J0D01*
G01*
M02*
