M48
; DRILL file {KiCad 7.0.0} date Mon 13 Mar 2023 03:22:41 PM MDT
; FORMAT={-:-/ absolute / metric / decimal}
; #@! TF.CreationDate,2023-03-13T15:22:41-06:00
; #@! TF.GenerationSoftware,Kicad,Pcbnew,7.0.0
; #@! TF.FileFunction,MixedPlating,1,4
FMAT,2
METRIC
; #@! TA.AperFunction,Plated,PTH,ViaDrill
T1C0.300
; #@! TA.AperFunction,Plated,PTH,ViaDrill
T2C0.500
; #@! TA.AperFunction,Plated,PTH,ComponentDrill
T3C0.600
; #@! TA.AperFunction,Plated,PTH,ComponentDrill
T4C0.610
; #@! TA.AperFunction,Plated,PTH,ComponentDrill
T5C1.000
; #@! TA.AperFunction,Plated,PTH,ComponentDrill
T6C4.000
%
G90
G05
T1
X0.5Y-0.5
X0.5Y-2.0
X0.5Y-3.5
X0.5Y-5.0
X0.5Y-6.5
X0.5Y-8.0
X0.5Y-9.5
X0.5Y-11.0
X0.5Y-12.5
X0.5Y-14.0
X0.5Y-15.5
X0.5Y-17.0
X0.5Y-18.5
X0.5Y-20.0
X0.5Y-21.5
X0.5Y-23.0
X0.5Y-24.5
X0.5Y-26.0
X0.5Y-27.5
X0.5Y-29.0
X0.5Y-30.5
X0.5Y-32.0
X0.5Y-33.5
X0.5Y-35.0
X0.5Y-36.5
X0.5Y-38.0
X0.5Y-39.5
X0.5Y-41.0
X0.5Y-42.5
X0.5Y-44.0
X0.5Y-45.5
X0.5Y-47.0
X0.5Y-48.5
X0.5Y-50.0
X0.5Y-51.5
X0.5Y-53.0
X0.5Y-54.5
X0.5Y-56.0
X0.5Y-57.5
X0.5Y-59.0
X0.5Y-60.5
X0.5Y-62.0
X0.5Y-63.5
X0.5Y-65.0
X0.5Y-66.5
X0.5Y-68.0
X0.5Y-69.5
X0.5Y-71.0
X0.5Y-72.5
X0.5Y-74.0
X0.5Y-75.5
X0.5Y-77.0
X0.5Y-78.5
X0.5Y-80.0
X0.5Y-81.5
X0.5Y-83.0
X0.5Y-84.5
X0.5Y-86.0
X0.5Y-87.5
X0.5Y-89.0
X0.5Y-90.5
X0.5Y-92.0
X0.5Y-93.5
X0.5Y-95.0
X0.5Y-96.5
X0.5Y-98.0
X0.5Y-99.5
X0.5Y-101.0
X0.5Y-102.5
X0.5Y-104.0
X2.0Y-0.5
X2.0Y-104.0
X3.5Y-0.5
X3.5Y-104.0
X4.3Y-78.398
X4.461Y-17.91
X4.473Y-60.303
X4.674Y-82.95
X4.84Y-91.155
X5.0Y-0.5
X5.0Y-104.0
X5.431Y-22.905
X5.566Y-70.767
X5.678Y-48.446
X5.792Y-36.204
X5.842Y-42.296
X6.487Y-30.845
X6.5Y-0.5
X6.5Y-104.0
X6.794Y-65.932
X7.218Y-53.364
X8.0Y-0.5
X8.0Y-104.0
X9.5Y-0.5
X9.5Y-104.0
X10.252Y-89.563
X10.364Y-64.633
X10.381Y-12.112
X10.383Y-17.626
X10.452Y-73.062
X10.682Y-59.125
X11.0Y-0.5
X11.0Y-104.0
X11.095Y-77.646
X11.506Y-42.586
X12.296Y-37.168
X12.327Y-101.656
X12.362Y-85.074
X12.5Y-0.5
X12.5Y-104.0
X14.0Y-0.5
X14.0Y-46.25
X14.0Y-47.25
X14.0Y-48.5
X14.0Y-50.0
X14.0Y-51.5
X14.0Y-53.0
X14.0Y-54.5
X14.0Y-56.0
X14.0Y-57.5
X14.0Y-59.0
X14.0Y-60.5
X14.0Y-62.0
X14.0Y-63.5
X14.0Y-65.0
X14.0Y-66.5
X14.0Y-68.0
X14.0Y-69.5
X14.0Y-71.0
X14.0Y-72.5
X14.0Y-74.0
X14.0Y-75.5
X14.0Y-77.0
X14.0Y-78.5
X14.0Y-80.0
X14.0Y-81.5
X14.0Y-83.0
X14.0Y-84.5
X14.0Y-86.0
X14.0Y-87.5
X14.0Y-89.0
X14.0Y-90.5
X14.0Y-92.0
X14.0Y-93.5
X14.0Y-95.0
X14.0Y-96.5
X14.0Y-98.0
X14.0Y-99.5
X14.0Y-101.0
X14.0Y-102.5
X14.0Y-104.0
X15.5Y-0.5
X15.5Y-46.25
X16.0Y-17.5
X16.813Y-36.935
X17.0Y-0.5
X17.0Y-46.25
X17.504Y-5.606
X17.762Y-42.169
X18.5Y-0.5
X18.5Y-46.25
X20.0Y-0.5
X20.0Y-46.25
X21.5Y-0.5
X21.5Y-46.25
X23.0Y-0.5
X23.0Y-46.25
X23.205Y-16.843
X24.5Y-0.5
X24.5Y-43.25
X24.5Y-44.75
X24.5Y-46.25
X24.847Y-6.085
X26.0Y-0.5
X26.0Y-22.5
X26.0Y-43.25
X26.0Y-44.75
X26.0Y-46.25
X27.5Y-0.5
X27.5Y-43.25
X27.5Y-44.75
X27.5Y-46.25
X28.686Y-6.252
X29.0Y-0.5
X29.0Y-19.5
X29.0Y-43.25
X29.0Y-44.75
X29.0Y-46.25
X29.5Y-25.75
X29.5Y-29.0
X30.5Y-0.5
X30.5Y-46.25
X31.14Y-36.303
X31.75Y-44.0
X32.0Y-0.5
X32.0Y-9.5
X32.0Y-36.0
X32.0Y-39.25
X32.0Y-41.0
X32.0Y-46.25
X33.5Y-0.5
X34.25Y-16.0
X35.0Y-0.5
X35.5Y-49.5
X35.941Y-5.879
X36.0Y-19.25
X36.0Y-22.5
X36.25Y-29.0
X36.5Y-0.5
X36.5Y-46.25
X36.662Y-34.438
X37.145Y-41.119
X37.25Y-17.25
X37.25Y-24.5
X38.0Y-0.5
X38.0Y-46.25
X39.0Y-19.25
X39.0Y-22.5
X39.5Y-0.5
X39.5Y-46.25
X39.5Y-48.5
X39.5Y-51.5
X39.5Y-53.0
X39.5Y-54.5
X39.5Y-56.0
X39.5Y-57.5
X39.5Y-59.0
X39.5Y-60.5
X39.5Y-62.0
X39.5Y-63.5
X39.5Y-65.0
X39.5Y-66.5
X39.5Y-68.0
X39.5Y-69.5
X39.5Y-71.0
X39.5Y-72.5
X39.5Y-74.0
X39.5Y-75.5
X39.5Y-77.0
X39.5Y-78.5
X39.5Y-80.0
X39.5Y-81.5
X39.5Y-83.0
X40.318Y-24.495
X41.0Y-0.5
X41.0Y-83.0
X41.591Y-41.993
X41.963Y-18.037
X42.192Y-58.871
X42.5Y-0.5
X42.5Y-83.0
X42.671Y-48.492
X42.703Y-54.814
X42.784Y-29.792
X42.906Y-66.783
X43.22Y-35.301
X44.0Y-0.5
X44.0Y-83.0
X45.5Y-0.5
X45.5Y-83.0
X46.75Y-41.0
X46.75Y-44.5
X46.75Y-48.0
X46.804Y-71.738
X47.0Y-0.5
X47.0Y-83.0
X47.231Y-60.252
X47.345Y-65.545
X47.63Y-34.51
X47.755Y-6.558
X47.77Y-54.305
X47.827Y-29.872
X48.5Y-0.5
X48.5Y-83.0
X48.826Y-16.802
X48.968Y-76.475
X49.0Y-47.0
X49.227Y-24.699
X50.0Y-0.5
X50.0Y-83.0
X51.5Y-0.5
X51.5Y-14.5
X51.5Y-83.0
X52.302Y-53.182
X52.395Y-77.421
X52.869Y-65.974
X53.0Y-0.5
X53.0Y-83.0
X53.5Y-15.5
X53.807Y-28.388
X54.195Y-72.068
X54.25Y-46.25
X54.452Y-35.936
X54.5Y-0.5
X54.5Y-22.5
X54.5Y-83.0
X55.5Y-18.5
X56.0Y-0.5
X56.0Y-83.0
X56.75Y-38.75
X57.5Y-0.5
X57.5Y-83.0
X57.75Y-69.25
X58.625Y-77.881
X59.0Y-0.5
X59.0Y-83.0
X59.218Y-64.737
X59.25Y-15.5
X59.25Y-17.0
X59.25Y-18.5
X59.25Y-20.0
X59.25Y-21.5
X59.42Y-60.669
X60.5Y-0.5
X60.5Y-83.0
X60.75Y-13.5
X60.75Y-17.0
X60.75Y-18.5
X60.75Y-20.0
X60.75Y-21.5
X61.0Y-73.0
X62.0Y-0.5
X62.0Y-83.0
X62.25Y-15.5
X62.25Y-17.0
X63.5Y-0.5
X63.5Y-44.0
X63.5Y-45.5
X63.5Y-83.0
X63.75Y-17.0
X63.75Y-54.5
X64.25Y-18.5
X65.0Y-0.5
X65.0Y-83.0
X65.224Y-71.294
X65.25Y-16.75
X65.5Y-45.25
X66.0Y-40.25
X66.342Y-78.558
X66.5Y-0.5
X66.5Y-83.0
X66.549Y-66.767
X66.754Y-59.95
X67.0Y-40.25
X67.5Y-35.5
X68.0Y-0.5
X68.0Y-83.0
X69.5Y-0.5
X69.5Y-83.0
X69.75Y-13.5
X70.563Y-24.716
X70.925Y-60.626
X70.964Y-67.124
X71.0Y-0.5
X71.0Y-83.0
X71.143Y-54.718
X71.229Y-18.175
X71.633Y-72.759
X71.75Y-43.0
X71.75Y-44.0
X71.765Y-76.809
X72.317Y-29.226
X72.5Y-0.5
X72.5Y-83.0
X72.867Y-4.722
X73.0Y-13.5
X73.5Y-51.75
X74.0Y-0.5
X74.0Y-83.0
X74.0Y-84.5
X74.0Y-86.0
X74.0Y-87.5
X74.0Y-89.0
X74.0Y-90.5
X74.0Y-92.0
X74.0Y-93.5
X74.0Y-95.0
X74.0Y-96.5
X74.0Y-98.0
X74.0Y-99.5
X74.0Y-101.0
X74.0Y-102.5
X74.0Y-104.0
X75.25Y-39.0
X75.5Y-0.5
X75.5Y-104.0
X76.25Y-39.0
X76.5Y-18.5
X76.75Y-51.75
X76.875Y-100.252
X77.0Y-0.5
X77.0Y-104.0
X77.032Y-60.976
X77.308Y-5.825
X77.444Y-88.848
X77.5Y-16.75
X77.943Y-78.828
X78.278Y-82.589
X78.5Y-0.5
X78.5Y-104.0
X78.669Y-67.201
X78.75Y-95.25
X78.924Y-31.073
X79.0Y-17.5
X79.0Y-19.0
X79.0Y-20.5
X79.0Y-22.0
X79.0Y-23.5
X79.0Y-25.0
X79.238Y-71.316
X80.0Y-0.5
X80.0Y-104.0
X80.5Y-17.5
X80.5Y-19.0
X80.5Y-20.5
X80.5Y-22.0
X80.5Y-23.5
X80.5Y-25.0
X80.5Y-48.0
X81.5Y-0.5
X81.5Y-104.0
X82.0Y-17.5
X82.0Y-19.0
X82.0Y-20.5
X82.0Y-22.0
X82.0Y-23.5
X82.0Y-25.0
X82.25Y-14.5
X82.25Y-52.25
X82.277Y-46.273
X82.432Y-4.947
X82.784Y-64.457
X83.0Y-0.5
X83.0Y-104.0
X83.5Y-17.5
X83.5Y-19.0
X83.5Y-20.5
X83.5Y-22.0
X83.5Y-23.5
X83.5Y-25.0
X83.648Y-55.011
X84.228Y-30.525
X84.445Y-72.308
X84.5Y-0.5
X84.5Y-104.0
X85.0Y-17.5
X85.0Y-19.0
X85.0Y-20.5
X85.0Y-22.0
X85.0Y-23.5
X85.0Y-25.0
X85.031Y-58.844
X85.235Y-36.004
X85.5Y-43.5
X86.0Y-0.5
X86.0Y-104.0
X87.5Y-0.5
X87.5Y-49.0
X87.5Y-52.25
X87.5Y-55.5
X87.5Y-58.75
X87.5Y-104.0
X88.347Y-12.788
X89.0Y-0.5
X89.0Y-40.25
X89.0Y-104.0
X89.25Y-46.0
X90.25Y-16.5
X90.25Y-17.5
X90.25Y-19.75
X90.25Y-20.75
X90.25Y-23.0
X90.25Y-24.0
X90.365Y-66.533
X90.5Y-0.5
X90.5Y-104.0
X90.75Y-31.25
X90.75Y-34.5
X90.75Y-46.0
X90.75Y-47.5
X90.75Y-49.0
X90.75Y-50.5
X90.75Y-52.0
X90.75Y-53.5
X90.75Y-55.0
X90.75Y-56.5
X90.75Y-58.0
X90.75Y-59.5
X90.75Y-61.0
X90.75Y-62.5
X91.241Y-71.268
X91.5Y-41.0
X91.5Y-44.25
X91.75Y-17.5
X92.0Y-0.5
X92.0Y-38.75
X92.0Y-104.0
X92.5Y-16.5
X92.5Y-36.0
X92.5Y-44.75
X93.25Y-35.0
X93.5Y-0.5
X93.5Y-38.75
X93.5Y-104.0
X94.0Y-36.0
X94.25Y-20.75
X94.25Y-52.25
X94.25Y-55.5
X94.25Y-58.75
X94.25Y-62.0
X94.962Y-70.402
X95.0Y-0.5
X95.0Y-20.0
X95.0Y-96.25
X95.0Y-104.0
X95.891Y-65.328
X96.034Y-41.594
X96.25Y-38.75
X96.5Y-0.5
X96.5Y-104.0
X96.75Y-24.0
X97.0Y-78.5
X97.5Y-23.25
X97.5Y-39.5
X97.5Y-44.5
X98.0Y-0.5
X98.0Y-104.0
X98.25Y-46.0
X98.5Y-74.25
X98.75Y-16.75
X99.25Y-47.0
X99.5Y-0.5
X99.5Y-17.5
X99.5Y-104.0
X100.0Y-85.25
X100.25Y-40.0
X100.694Y-64.276
X100.859Y-70.806
X101.0Y-0.5
X101.0Y-104.0
X101.25Y-20.0
X101.25Y-78.75
X101.75Y-38.0
X102.0Y-20.75
X102.5Y-0.5
X102.5Y-47.0
X102.5Y-104.0
X103.5Y-40.0
X104.0Y-0.5
X104.0Y-104.0
X104.5Y-84.25
X105.0Y-38.0
X105.0Y-76.25
X105.5Y-0.5
X105.5Y-104.0
X106.0Y-16.5
X106.0Y-17.5
X106.0Y-19.75
X106.0Y-20.75
X107.0Y-0.5
X107.0Y-104.0
X107.175Y-70.924
X107.412Y-89.636
X107.5Y-54.75
X107.75Y-44.75
X108.0Y-42.25
X108.097Y-96.131
X108.25Y-47.25
X108.418Y-10.455
X108.5Y-0.5
X108.5Y-104.0
X108.612Y-4.753
X108.75Y-62.5
X109.0Y-52.25
X109.0Y-57.25
X109.091Y-83.226
X109.237Y-77.502
X110.0Y-0.5
X110.0Y-19.25
X110.0Y-104.0
X110.25Y-60.0
X110.75Y-67.75
X111.0Y-17.5
X111.0Y-20.75
X111.5Y-0.5
X111.5Y-19.25
X111.5Y-104.0
X112.0Y-65.0
X112.321Y-77.286
X112.375Y-94.629
X112.546Y-84.42
X113.0Y-0.5
X113.0Y-104.0
X113.299Y-88.467
X114.021Y-70.907
X114.37Y-31.14
X114.5Y-0.5
X114.5Y-104.0
X114.59Y-35.365
X115.017Y-11.31
X115.237Y-24.022
X116.0Y-0.5
X116.0Y-104.0
X117.5Y-0.5
X117.5Y-104.0
X118.369Y-24.351
X118.697Y-17.348
X118.977Y-35.65
X119.0Y-0.5
X119.0Y-104.0
X119.333Y-88.377
X119.994Y-70.879
X120.095Y-76.65
X120.5Y-0.5
X120.5Y-104.0
X120.645Y-30.06
X120.969Y-82.811
X122.0Y-0.5
X122.0Y-104.0
X123.5Y-0.5
X123.5Y-104.0
X125.0Y-0.5
X125.0Y-2.0
X125.0Y-3.5
X125.0Y-5.0
X125.0Y-6.5
X125.0Y-8.0
X125.0Y-9.5
X125.0Y-11.0
X125.0Y-12.5
X125.0Y-14.0
X125.0Y-15.5
X125.0Y-17.0
X125.0Y-18.5
X125.0Y-20.0
X125.0Y-21.5
X125.0Y-23.0
X125.0Y-24.5
X125.0Y-26.0
X125.0Y-27.5
X125.0Y-29.0
X125.0Y-30.5
X125.0Y-32.0
X125.0Y-33.5
X125.0Y-35.0
X125.0Y-36.5
X125.0Y-38.0
X125.0Y-39.5
X125.0Y-41.0
X125.0Y-42.5
X125.0Y-44.0
X125.0Y-45.5
X125.0Y-47.0
X125.0Y-48.5
X125.0Y-50.0
X125.0Y-51.5
X125.0Y-53.0
X125.0Y-54.5
X125.0Y-56.0
X125.0Y-57.5
X125.0Y-59.0
X125.0Y-60.5
X125.0Y-62.0
X125.0Y-63.5
X125.0Y-65.0
X125.0Y-66.5
X125.0Y-68.0
X125.0Y-69.5
X125.0Y-71.0
X125.0Y-72.5
X125.0Y-74.0
X125.0Y-75.5
X125.0Y-77.0
X125.0Y-78.5
X125.0Y-80.0
X125.0Y-81.5
X125.0Y-83.0
X125.0Y-84.5
X125.0Y-86.0
X125.0Y-87.5
X125.0Y-89.0
X125.0Y-90.5
X125.0Y-92.0
X125.0Y-93.5
X125.0Y-95.0
X125.0Y-96.5
X125.0Y-98.0
X125.0Y-99.5
X125.0Y-101.0
X125.0Y-102.5
X125.0Y-104.0
T2
X50.25Y-47.0
X57.5Y-39.75
T3
X2.5Y-5.5
X2.5Y-99.0
X3.379Y-3.379
X3.379Y-7.621
X3.379Y-96.879
X3.379Y-101.121
X5.5Y-2.5
X5.5Y-8.5
X5.5Y-96.0
X5.5Y-102.0
X7.621Y-3.379
X7.621Y-7.621
X7.621Y-96.879
X7.621Y-101.121
X8.5Y-5.5
X8.5Y-99.0
X117.0Y-5.5
X117.0Y-99.0
X117.879Y-3.379
X117.879Y-7.621
X117.879Y-96.879
X117.879Y-101.121
X120.0Y-2.5
X120.0Y-8.5
X120.0Y-96.0
X120.0Y-102.0
X122.121Y-3.379
X122.121Y-7.621
X122.121Y-96.879
X122.121Y-101.121
X123.0Y-5.5
X123.0Y-99.0
T4
X43.302Y-69.39
X53.462Y-60.5
X56.002Y-69.39
X62.352Y-73.2
X62.352Y-94.79
T5
X37.63Y-4.75
X40.17Y-4.75
X42.71Y-4.75
X45.25Y-4.75
X56.0Y-4.75
X58.54Y-4.75
X64.21Y-4.75
X66.75Y-4.75
X91.75Y-4.71
X91.75Y-7.25
X94.29Y-4.71
X94.29Y-7.25
X96.83Y-4.71
X96.83Y-7.25
X99.37Y-4.71
X99.37Y-7.25
X101.91Y-4.71
X101.91Y-7.25
X104.45Y-4.71
X104.45Y-7.25
X118.25Y-40.88
X118.25Y-43.42
X118.25Y-45.96
X118.25Y-48.5
X118.25Y-51.04
X118.25Y-53.58
X118.25Y-56.12
X118.25Y-58.66
X118.25Y-61.2
X118.25Y-63.74
X118.25Y-66.28
X118.25Y-68.82
X120.79Y-40.88
X120.79Y-43.42
X120.79Y-45.96
X120.79Y-48.5
X120.79Y-51.04
X120.79Y-53.58
X120.79Y-56.12
X120.79Y-58.66
X120.79Y-61.2
X120.79Y-63.74
X120.79Y-66.28
X120.79Y-68.82
T6
X5.5Y-5.5
X5.5Y-99.0
X120.0Y-5.5
X120.0Y-99.0
T0
M30
