%TF.GenerationSoftware,KiCad,Pcbnew,7.0.1*%
%TF.CreationDate,2023-04-12T20:57:28-06:00*%
%TF.ProjectId,Panoptes,50616e6f-7074-4657-932e-6b696361645f,3.0*%
%TF.SameCoordinates,PX16e3600PY1ba8140*%
%TF.FileFunction,Copper,L2,Inr*%
%TF.FilePolarity,Positive*%
%FSLAX46Y46*%
G04 Gerber Fmt 4.6, Leading zero omitted, Abs format (unit mm)*
G04 Created by KiCad (PCBNEW 7.0.1) date 2023-04-12 20:57:28*
%MOMM*%
%LPD*%
G01*
G04 APERTURE LIST*
%TA.AperFunction,ComponentPad*%
%ADD10R,1.700000X1.700000*%
%TD*%
%TA.AperFunction,ComponentPad*%
%ADD11O,1.700000X1.700000*%
%TD*%
%TA.AperFunction,ComponentPad*%
%ADD12C,1.600000*%
%TD*%
%TA.AperFunction,ComponentPad*%
%ADD13O,1.600000X1.600000*%
%TD*%
%TA.AperFunction,ComponentPad*%
%ADD14C,2.000000*%
%TD*%
%TA.AperFunction,ComponentPad*%
%ADD15C,1.400000*%
%TD*%
%TA.AperFunction,ViaPad*%
%ADD16C,0.600000*%
%TD*%
%TA.AperFunction,ViaPad*%
%ADD17C,1.000000*%
%TD*%
%TA.AperFunction,ViaPad*%
%ADD18C,2.500000*%
%TD*%
G04 APERTURE END LIST*
D10*
%TO.N,/-IN*%
%TO.C,TP13*%
X31250000Y-44250000D03*
%TD*%
%TO.N,/A_out_3*%
%TO.C,TP12*%
X4500000Y-53250000D03*
%TD*%
%TO.N,/+IN*%
%TO.C,TP9*%
X20500000Y-43000000D03*
%TD*%
%TO.N,/NO*%
%TO.C,TP8*%
X80500000Y-55000000D03*
%TD*%
%TO.N,/B_out_4*%
%TO.C,TP7*%
X4500000Y-44250000D03*
%TD*%
%TO.N,/B_out_2*%
%TO.C,TP6*%
X4500000Y-62250000D03*
%TD*%
%TO.N,+5V*%
%TO.C,TP5*%
X77000000Y-18250000D03*
%TD*%
%TO.N,+3V3*%
%TO.C,TP4*%
X73750000Y-10250000D03*
%TD*%
%TO.N,-5V*%
%TO.C,TP3*%
X92250000Y-29500000D03*
%TD*%
%TO.N,/TR_pin*%
%TO.C,TP2*%
X92000000Y-34250000D03*
%TD*%
%TO.N,/Q_out*%
%TO.C,TP1*%
X74750000Y-39000000D03*
%TD*%
%TO.N,/~CONVST*%
%TO.C,J1*%
X16410000Y-7290000D03*
D11*
%TO.N,/BUSY*%
X16410000Y-4750000D03*
%TO.N,GND*%
X13870000Y-7290000D03*
X13870000Y-4750000D03*
%TO.N,/~RD*%
X11330000Y-7290000D03*
%TO.N,/~A_PWD*%
X11330000Y-4750000D03*
%TO.N,GND*%
X8790000Y-7290000D03*
X8790000Y-4750000D03*
%TO.N,/~CS*%
X6250000Y-7290000D03*
%TO.N,/~PWD_RST*%
X6250000Y-4750000D03*
%TD*%
D12*
%TO.N,/HV*%
%TO.C,R23*%
X61500000Y-109000000D03*
D13*
%TO.N,Net-(R23-Pad2)*%
X61500000Y-101380000D03*
%TD*%
D10*
%TO.N,+5V*%
%TO.C,J5*%
X81500000Y-64475000D03*
D11*
%TO.N,/HV_+5V*%
X81500000Y-67015000D03*
%TD*%
D12*
%TO.N,Net-(R24-Pad2)*%
%TO.C,R25*%
X61500000Y-84560000D03*
D13*
%TO.N,Net-(R25-Pad2)*%
X61500000Y-76940000D03*
%TD*%
D12*
%TO.N,Net-(R23-Pad2)*%
%TO.C,R24*%
X61500000Y-95060000D03*
D13*
%TO.N,Net-(R24-Pad2)*%
X61500000Y-87440000D03*
%TD*%
D14*
%TO.N,/Vbias*%
%TO.C,C36*%
X36500000Y-109000000D03*
%TO.N,Net-(C36-Pad2)*%
X29000000Y-109000000D03*
%TD*%
%TO.N,Net-(C36-Pad2)*%
%TO.C,C37*%
X18750000Y-109000000D03*
%TO.N,/NC*%
X18750000Y-101500000D03*
%TD*%
D10*
%TO.N,GND*%
%TO.C,J2*%
X47610000Y-7290000D03*
D11*
X47610000Y-4750000D03*
%TO.N,/DB5*%
X45070000Y-7290000D03*
%TO.N,/DB11*%
X45070000Y-4750000D03*
%TO.N,/DB4*%
X42530000Y-7290000D03*
%TO.N,/DB10*%
X42530000Y-4750000D03*
%TO.N,GND*%
X39990000Y-7290000D03*
X39990000Y-4750000D03*
%TO.N,/DB3*%
X37450000Y-7290000D03*
%TO.N,/DB9*%
X37450000Y-4750000D03*
%TO.N,/DB2*%
X34910000Y-7290000D03*
%TO.N,/DB8*%
X34910000Y-4750000D03*
%TO.N,GND*%
X32370000Y-7290000D03*
X32370000Y-4750000D03*
%TO.N,/DB1*%
X29830000Y-7290000D03*
%TO.N,/DB7*%
X29830000Y-4750000D03*
%TO.N,/DB0*%
X27290000Y-7290000D03*
%TO.N,/DB6*%
X27290000Y-4750000D03*
%TO.N,GND*%
X24750000Y-7290000D03*
X24750000Y-4750000D03*
%TD*%
D10*
%TO.N,/NO*%
%TO.C,J4*%
X29290000Y-81750000D03*
D11*
%TO.N,/COM*%
X26750000Y-81750000D03*
%TO.N,/NC*%
X24210000Y-81750000D03*
%TD*%
D15*
%TO.N,/HV_+5V*%
%TO.C,U8*%
X75350000Y-83600000D03*
%TO.N,GND*%
X88050000Y-83600000D03*
%TO.N,/Vprogram*%
X69000000Y-87410000D03*
%TO.N,/HV*%
X69000000Y-109000000D03*
%TO.N,GND*%
X77890000Y-74710000D03*
%TD*%
D10*
%TO.N,/TR*%
%TO.C,J6*%
X58540000Y-4750000D03*
D11*
%TO.N,GND*%
X56000000Y-4750000D03*
%TD*%
D16*
%TO.N,+5V*%
X33000000Y-36250000D03*
X36250000Y-36250000D03*
X39500000Y-36250000D03*
X20250000Y-34500000D03*
X46000000Y-36250000D03*
D17*
X86250000Y-23250000D03*
D16*
X85500000Y-42000000D03*
X24500000Y-53000000D03*
X88000000Y-38750000D03*
X88000000Y-45250000D03*
X88250000Y-36250000D03*
X24250000Y-38000000D03*
X78750000Y-41750000D03*
X42750000Y-36250000D03*
X24750000Y-60750000D03*
X88000000Y-42000000D03*
X20250000Y-33000000D03*
D18*
%TO.N,GND*%
X98750000Y-91250000D03*
D16*
X64963729Y-58288816D03*
X22000000Y-22000000D03*
X93801897Y-79242662D03*
D18*
X38750000Y-91250000D03*
D16*
X53400189Y-39312710D03*
D18*
X1250000Y-31250000D03*
X1250000Y-46250000D03*
X98750000Y-26250000D03*
D16*
X8107856Y-33349617D03*
X20250000Y-18750000D03*
X94250000Y-2750000D03*
D18*
X8750000Y-1250000D03*
X1250000Y-6250000D03*
X58750000Y-91250000D03*
X98750000Y-8750000D03*
D16*
X64000000Y-83250000D03*
X53998219Y-14165263D03*
D18*
X98750000Y-58750000D03*
D16*
X15250000Y-36250000D03*
X13988373Y-83391909D03*
X53730180Y-34750000D03*
X23250000Y-63000000D03*
D18*
X98750000Y-63750000D03*
D16*
X49000000Y-9000000D03*
X42750000Y-39500000D03*
D18*
X98750000Y-76250000D03*
X1250000Y-8750000D03*
D16*
X90000000Y-40250000D03*
D18*
X98750000Y-116250000D03*
D16*
X40750000Y-21000000D03*
X9578688Y-38977614D03*
X69500000Y-58750000D03*
D18*
X98750000Y-103750000D03*
D16*
X82750000Y-4000000D03*
X63750000Y-34250000D03*
X20250000Y-58250000D03*
X39000000Y-22000000D03*
D18*
X1250000Y-76250000D03*
X1250000Y-96250000D03*
D16*
X23500000Y-14500000D03*
D18*
X41250000Y-1250000D03*
D16*
X48388564Y-38165903D03*
D18*
X1250000Y-16250000D03*
D16*
X43705042Y-58160820D03*
X22750000Y-35000000D03*
X44405333Y-24704136D03*
X14044532Y-19312820D03*
D18*
X56250000Y-1250000D03*
D16*
X9023117Y-74227190D03*
D18*
X38750000Y-1250000D03*
X26250000Y-88750000D03*
X83750000Y-91250000D03*
D16*
X84090635Y-69250000D03*
X36750000Y-63500000D03*
D18*
X13750000Y-88750000D03*
D16*
X96250000Y-5750000D03*
D18*
X1250000Y-111250000D03*
D16*
X90750000Y-19200000D03*
D18*
X1250000Y-71250000D03*
D16*
X73211174Y-69447755D03*
X29364781Y-49393239D03*
X48906489Y-59193586D03*
D18*
X98750000Y-36250000D03*
X98750000Y-16250000D03*
D16*
X58290408Y-60122951D03*
D18*
X51250000Y-1250000D03*
D16*
X64000000Y-79139733D03*
X15250000Y-48250000D03*
D18*
X1250000Y-101250000D03*
X98750000Y-93750000D03*
X3750000Y-88750000D03*
D16*
X79000000Y-64500000D03*
D18*
X93750000Y-91250000D03*
X21250000Y-88750000D03*
X1250000Y-108750000D03*
X28750000Y-1250000D03*
D16*
X22000000Y-25250000D03*
D18*
X53750000Y-91250000D03*
X1250000Y-11250000D03*
D16*
X90750000Y-21500000D03*
D18*
X1250000Y-93750000D03*
D16*
X94250000Y-5750000D03*
D18*
X8750000Y-88750000D03*
X71250000Y-91250000D03*
D16*
X88000000Y-23750000D03*
X53267639Y-59559274D03*
D18*
X98750000Y-118750000D03*
D16*
X95465014Y-70036489D03*
D18*
X98750000Y-106250000D03*
D16*
X18496580Y-8577239D03*
D18*
X3750000Y-1250000D03*
D16*
X74500000Y-23750000D03*
X69661383Y-78965944D03*
D18*
X1250000Y-43750000D03*
D16*
X39750000Y-58500000D03*
X83503566Y-64647520D03*
X93434157Y-54655123D03*
X69000000Y-69276547D03*
D18*
X81250000Y-1250000D03*
D16*
X59953624Y-43519889D03*
X40000000Y-45000000D03*
X88486235Y-53913981D03*
D18*
X1250000Y-48750000D03*
D16*
X82750000Y-9500000D03*
D18*
X1250000Y-28750000D03*
D16*
X32250000Y-53500000D03*
X94241603Y-83890691D03*
D18*
X1250000Y-56250000D03*
X1250000Y-73750000D03*
D16*
X68675618Y-7965373D03*
D18*
X98750000Y-21250000D03*
X98750000Y-1250000D03*
X1250000Y-68750000D03*
X98750000Y-13750000D03*
D16*
X18459556Y-63388399D03*
D18*
X1250000Y-98750000D03*
D16*
X68636099Y-73265823D03*
X32250000Y-56500000D03*
X87250000Y-50000000D03*
X31000000Y-66750000D03*
D18*
X98750000Y-68750000D03*
D16*
X85500000Y-18750000D03*
D18*
X71250000Y-1250000D03*
X63750000Y-1250000D03*
D17*
X76500000Y-10000000D03*
D18*
X1250000Y-83750000D03*
D16*
X15000000Y-14379986D03*
X93250000Y-4750000D03*
X67000000Y-38500000D03*
X93250000Y-2750000D03*
X18250000Y-52000000D03*
D18*
X56250000Y-91250000D03*
D16*
X13554706Y-69113225D03*
D18*
X98750000Y-33750000D03*
D16*
X88542155Y-59575113D03*
D18*
X1250000Y-58750000D03*
X1250000Y-66250000D03*
X13750000Y-1250000D03*
X1250000Y-1250000D03*
D16*
X82500000Y-11250000D03*
D18*
X1250000Y-113750000D03*
D16*
X39500000Y-39500000D03*
D18*
X83750000Y-1250000D03*
D16*
X87750000Y-19450000D03*
D18*
X98750000Y-23750000D03*
D16*
X8382683Y-78006511D03*
D18*
X98750000Y-78750000D03*
D16*
X8747109Y-68915959D03*
X50280373Y-23877282D03*
D18*
X96250000Y-91250000D03*
D16*
X61250000Y-62500000D03*
X68000141Y-84931860D03*
D18*
X98750000Y-101250000D03*
X1250000Y-51250000D03*
D16*
X80032457Y-84223516D03*
D18*
X31250000Y-88750000D03*
D16*
X42500000Y-20000000D03*
D18*
X1250000Y-18750000D03*
D16*
X95348706Y-50424257D03*
X58500000Y-87250000D03*
D18*
X1250000Y-26250000D03*
X46250000Y-1250000D03*
X76250000Y-1250000D03*
D16*
X45000000Y-49000000D03*
D18*
X33750000Y-91250000D03*
D16*
X94359422Y-58967722D03*
D18*
X98750000Y-96250000D03*
D16*
X64985320Y-25417079D03*
X39500000Y-33000000D03*
X22750000Y-33500000D03*
X13863253Y-79997349D03*
X40250000Y-69500000D03*
X22000000Y-19750000D03*
X73250000Y-44500000D03*
X79000000Y-60000000D03*
D18*
X61250000Y-1250000D03*
D16*
X33708040Y-85201302D03*
X55750000Y-63000000D03*
X36250000Y-33000000D03*
D18*
X41250000Y-91250000D03*
X1250000Y-81250000D03*
D16*
X34043130Y-45131647D03*
X88149294Y-20288602D03*
X70000000Y-18250000D03*
D18*
X98750000Y-18750000D03*
D16*
X43510663Y-54506865D03*
X83500000Y-31000000D03*
X83743871Y-72985120D03*
X18380230Y-69823634D03*
D18*
X98750000Y-86250000D03*
X98750000Y-56250000D03*
X1250000Y-106250000D03*
X1250000Y-116250000D03*
D16*
X29129333Y-84639058D03*
D18*
X11250000Y-1250000D03*
D16*
X79511849Y-15374814D03*
D18*
X98750000Y-88750000D03*
X1250000Y-86250000D03*
D16*
X58998655Y-38750000D03*
D18*
X98750000Y-83750000D03*
X1250000Y-103750000D03*
D16*
X80000000Y-18750000D03*
X45050196Y-39669400D03*
X91750000Y-23250000D03*
X25000000Y-35500000D03*
X10312528Y-85346230D03*
X78250000Y-6775000D03*
D18*
X43750000Y-91250000D03*
X78750000Y-91250000D03*
D16*
X28500000Y-29500000D03*
X55466921Y-55220075D03*
D18*
X48750000Y-1250000D03*
X66250000Y-91250000D03*
D16*
X53699886Y-44500000D03*
X54400594Y-30206853D03*
X80500000Y-46750000D03*
D18*
X16250000Y-88750000D03*
D16*
X34500000Y-75500000D03*
X48478880Y-20311963D03*
X54258022Y-18224086D03*
D18*
X1250000Y-78750000D03*
X76250000Y-91250000D03*
D16*
X42500000Y-85201302D03*
X84500000Y-25000000D03*
X39458391Y-64686486D03*
D18*
X73750000Y-1250000D03*
X98750000Y-46250000D03*
D16*
X38437002Y-75202251D03*
X95219155Y-44777471D03*
X90343443Y-73385143D03*
X14250000Y-42750000D03*
D18*
X98750000Y-111250000D03*
D16*
X36250000Y-39500000D03*
X48807356Y-29410263D03*
D18*
X98750000Y-31250000D03*
D16*
X33321460Y-34346459D03*
D18*
X81250000Y-91250000D03*
X53750000Y-1250000D03*
X1250000Y-88750000D03*
D16*
X43214822Y-70052631D03*
X28750000Y-34500000D03*
X54000000Y-9250000D03*
D18*
X1250000Y-36250000D03*
D16*
X95250000Y-5750000D03*
D18*
X98750000Y-71250000D03*
X1250000Y-3750000D03*
D16*
X34000000Y-78750000D03*
X60400546Y-28231830D03*
X19397213Y-74868617D03*
X94807033Y-65363983D03*
X29500000Y-26500000D03*
X19554778Y-54730951D03*
X89316570Y-8485968D03*
X95250000Y-2750000D03*
D18*
X31250000Y-91250000D03*
D16*
X26500000Y-35500000D03*
X29252753Y-78243873D03*
X83750000Y-58750000D03*
D18*
X36250000Y-1250000D03*
X98750000Y-51250000D03*
D16*
X64000000Y-13250000D03*
X7500000Y-14250000D03*
X44250000Y-19000000D03*
D18*
X68750000Y-91250000D03*
X26250000Y-1250000D03*
X23750000Y-1250000D03*
D16*
X18500000Y-17750000D03*
X93250000Y-3750000D03*
X90000000Y-43500000D03*
D18*
X98750000Y-81250000D03*
D16*
X63750000Y-73088730D03*
X45152571Y-45005627D03*
X23042127Y-83850483D03*
X48750000Y-48456917D03*
D18*
X98750000Y-3750000D03*
D16*
X13787225Y-24142065D03*
D18*
X88750000Y-91250000D03*
D16*
X23500000Y-29500000D03*
D18*
X11250000Y-88750000D03*
D16*
X26000000Y-10000000D03*
X68250000Y-63250000D03*
D18*
X98750000Y-66250000D03*
D16*
X8227686Y-29307792D03*
X8750000Y-24000000D03*
D18*
X98750000Y-53750000D03*
D16*
X39750000Y-88250000D03*
D18*
X68750000Y-1250000D03*
D16*
X28250000Y-35500000D03*
D18*
X98750000Y-73750000D03*
D16*
X95276257Y-73573250D03*
D18*
X98750000Y-98750000D03*
D16*
X78500000Y-23000000D03*
D18*
X1250000Y-118750000D03*
X1250000Y-33750000D03*
D16*
X77000000Y-43500000D03*
X14218204Y-59975032D03*
X35383422Y-38910498D03*
X14995623Y-73403378D03*
X39002382Y-54188556D03*
X69250000Y-28750000D03*
X33750000Y-49000000D03*
X82500000Y-14250000D03*
D18*
X98750000Y-48750000D03*
X16250000Y-1250000D03*
X51250000Y-91250000D03*
D16*
X25250000Y-19750000D03*
X46000000Y-18000000D03*
D18*
X73750000Y-91250000D03*
D16*
X84577051Y-78603880D03*
X48798135Y-43838991D03*
X22750000Y-30750000D03*
X63510444Y-9374868D03*
D18*
X46250000Y-91250000D03*
D16*
X73562141Y-59152524D03*
D18*
X1250000Y-61250000D03*
X1250000Y-53750000D03*
X98750000Y-28750000D03*
X1250000Y-23750000D03*
X61250000Y-91250000D03*
D16*
X6250000Y-82000000D03*
X89809922Y-13876856D03*
D18*
X91250000Y-91250000D03*
X98750000Y-61250000D03*
D16*
X73359539Y-14409377D03*
X42750000Y-33000000D03*
D18*
X58750000Y-1250000D03*
X6250000Y-1250000D03*
D16*
X93250000Y-5750000D03*
D18*
X21250000Y-1250000D03*
X43750000Y-1250000D03*
D16*
X23250000Y-23750000D03*
X9763550Y-20072605D03*
X83750000Y-54000000D03*
X59500000Y-68750000D03*
X20239504Y-80072509D03*
X29250000Y-60750000D03*
D18*
X18750000Y-1250000D03*
D16*
X64750000Y-68750000D03*
X47750000Y-17000000D03*
D18*
X63750000Y-91250000D03*
D16*
X59924148Y-15213903D03*
D18*
X86250000Y-91250000D03*
X98750000Y-6250000D03*
D16*
X27500000Y-66000000D03*
D18*
X1250000Y-91250000D03*
X98750000Y-11250000D03*
D16*
X70750000Y-6500000D03*
X85250000Y-40250000D03*
X18500000Y-36250000D03*
X95353756Y-35014821D03*
D18*
X1250000Y-38750000D03*
D16*
X53931916Y-24105820D03*
X46000000Y-33000000D03*
D18*
X98750000Y-108750000D03*
D16*
X85444431Y-83521793D03*
X27500000Y-41500000D03*
X88277596Y-68920632D03*
D18*
X98750000Y-38750000D03*
D16*
X50144608Y-53896120D03*
X31000000Y-24500000D03*
X43462157Y-64539173D03*
X96250000Y-2750000D03*
X58750000Y-74553032D03*
D18*
X98750000Y-113750000D03*
X48750000Y-91250000D03*
D16*
X80053417Y-75136616D03*
X37500000Y-79750000D03*
D18*
X78750000Y-1250000D03*
D16*
X88134613Y-63779716D03*
X88763213Y-24300466D03*
X44485959Y-29576148D03*
D18*
X36250000Y-91250000D03*
D16*
X89768338Y-79415476D03*
D18*
X98750000Y-41250000D03*
X23750000Y-88750000D03*
D16*
X49464074Y-33421810D03*
D18*
X1250000Y-13750000D03*
D16*
X33000000Y-39500000D03*
D18*
X31250000Y-1250000D03*
D16*
X55500000Y-50000000D03*
X80095492Y-78843746D03*
D18*
X1250000Y-63750000D03*
X6250000Y-88750000D03*
D16*
X95343296Y-38676908D03*
X73000000Y-36500000D03*
D18*
X28750000Y-88750000D03*
X1250000Y-21250000D03*
X1250000Y-41250000D03*
D16*
X49596849Y-15088754D03*
X59425683Y-18993752D03*
D18*
X66250000Y-1250000D03*
X98750000Y-43750000D03*
X33750000Y-1250000D03*
D16*
X35750000Y-70000000D03*
X80500000Y-50000000D03*
%TO.N,+3V3*%
X25250000Y-24000000D03*
X25250000Y-20750000D03*
X31000000Y-28000000D03*
D17*
%TO.N,/A_out_1*%
X30500000Y-76750000D03*
X22750000Y-69000000D03*
D16*
%TO.N,-5V*%
X29250000Y-63750000D03*
X28000000Y-57750000D03*
D17*
X82250000Y-28250000D03*
D16*
%TO.N,/~PWD_RST*%
X17500000Y-17750000D03*
%TO.N,/~A_PWD*%
X19250000Y-18750000D03*
%TO.N,/BUSY*%
X21000000Y-19750000D03*
%TO.N,/DB6*%
X38000000Y-22000000D03*
%TO.N,/DB7*%
X39750000Y-21000000D03*
%TO.N,/DB8*%
X41500000Y-20000000D03*
%TO.N,/DB9*%
X43250000Y-19000000D03*
%TO.N,/DB10*%
X45000000Y-18000000D03*
%TO.N,/DB11*%
X46750000Y-17000000D03*
%TO.N,/B-2*%
X23250000Y-64000000D03*
X31000000Y-65750000D03*
%TO.N,Net-(C35-Pad2)*%
X21500000Y-48000000D03*
X36750000Y-62500000D03*
%TD*%
%TA.AperFunction,Conductor*%
%TO.N,GND*%
G36*
X99950000Y-13763D02*
G01*
X99986237Y-50000D01*
X99999500Y-99500D01*
X99999500Y-119900500D01*
X99986237Y-119950000D01*
X99950000Y-119986237D01*
X99900500Y-119999500D01*
X97599000Y-119999500D01*
X97549500Y-119986237D01*
X97513263Y-119950000D01*
X97500000Y-119900500D01*
X97500000Y-92500001D01*
X97500000Y-92500000D01*
X97499999Y-92500000D01*
X30099000Y-92500000D01*
X30049500Y-92486737D01*
X30013263Y-92450500D01*
X30000000Y-92401000D01*
X30000000Y-90000001D01*
X30000000Y-90000000D01*
X2500000Y-90000000D01*
X2500000Y-90000001D01*
X2500000Y-119900500D01*
X2486737Y-119950000D01*
X2450500Y-119986237D01*
X2401000Y-119999500D01*
X99500Y-119999500D01*
X50000Y-119986237D01*
X13763Y-119950000D01*
X500Y-119900500D01*
X500Y-87636838D01*
X59499500Y-87636838D01*
X59536764Y-87907963D01*
X59546362Y-87942218D01*
X59610602Y-88171492D01*
X59719635Y-88422511D01*
X59761013Y-88490554D01*
X59861834Y-88656349D01*
X60034543Y-88868635D01*
X60234560Y-89055439D01*
X60345192Y-89133531D01*
X60458143Y-89213260D01*
X60701136Y-89339169D01*
X60959010Y-89430818D01*
X60959013Y-89430819D01*
X61226960Y-89486499D01*
X61259817Y-89488746D01*
X61500000Y-89505175D01*
X61755558Y-89487694D01*
X61773039Y-89486499D01*
X62040986Y-89430819D01*
X62040987Y-89430818D01*
X62040990Y-89430818D01*
X62298864Y-89339169D01*
X62541857Y-89213260D01*
X62765442Y-89055437D01*
X62965454Y-88868638D01*
X63135072Y-88660151D01*
X63138165Y-88656349D01*
X63138165Y-88656347D01*
X63138168Y-88656345D01*
X63280365Y-88422511D01*
X63389398Y-88171492D01*
X63463235Y-87907965D01*
X63500500Y-87636838D01*
X63500500Y-87500000D01*
X63500500Y-87499500D01*
X63500500Y-87410000D01*
X68094540Y-87410000D01*
X68114326Y-87598256D01*
X68157148Y-87730049D01*
X68172821Y-87778284D01*
X68267468Y-87942218D01*
X68394126Y-88082886D01*
X68394129Y-88082888D01*
X68547270Y-88194151D01*
X68720197Y-88271144D01*
X68905354Y-88310500D01*
X69094644Y-88310500D01*
X69094646Y-88310500D01*
X69279803Y-88271144D01*
X69452730Y-88194151D01*
X69605871Y-88082888D01*
X69732533Y-87942216D01*
X69827179Y-87778284D01*
X69885674Y-87598256D01*
X69905460Y-87410000D01*
X69885674Y-87221744D01*
X69827179Y-87041716D01*
X69732533Y-86877784D01*
X69732532Y-86877783D01*
X69732531Y-86877781D01*
X69605873Y-86737113D01*
X69529300Y-86681480D01*
X69452730Y-86625849D01*
X69452728Y-86625848D01*
X69279804Y-86548856D01*
X69218083Y-86535737D01*
X69094646Y-86509500D01*
X68905354Y-86509500D01*
X68812775Y-86529177D01*
X68720195Y-86548856D01*
X68547271Y-86625848D01*
X68394126Y-86737113D01*
X68267468Y-86877781D01*
X68172821Y-87041715D01*
X68172821Y-87041716D01*
X68114326Y-87221744D01*
X68094540Y-87410000D01*
X63500500Y-87410000D01*
X63500500Y-84606880D01*
X87396672Y-84606880D01*
X87512819Y-84678796D01*
X87720200Y-84759137D01*
X87938802Y-84800000D01*
X88161198Y-84800000D01*
X88379799Y-84759137D01*
X88587178Y-84678798D01*
X88703326Y-84606880D01*
X88049999Y-83953553D01*
X87396672Y-84606880D01*
X63500500Y-84606880D01*
X63500500Y-83749901D01*
X63500500Y-83705830D01*
X63470286Y-83622818D01*
X63451139Y-83600000D01*
X74444540Y-83600000D01*
X74451336Y-83664666D01*
X74464326Y-83788255D01*
X74522821Y-83968284D01*
X74617468Y-84132218D01*
X74744126Y-84272886D01*
X74744129Y-84272888D01*
X74897270Y-84384151D01*
X75070197Y-84461144D01*
X75255354Y-84500500D01*
X75444644Y-84500500D01*
X75444646Y-84500500D01*
X75629803Y-84461144D01*
X75802730Y-84384151D01*
X75955871Y-84272888D01*
X76082533Y-84132216D01*
X76177179Y-83968284D01*
X76235674Y-83788256D01*
X76255460Y-83600000D01*
X76255460Y-83599999D01*
X86844859Y-83599999D01*
X86865379Y-83821445D01*
X86926239Y-84035348D01*
X87025366Y-84234422D01*
X87041138Y-84255307D01*
X87696445Y-83599999D01*
X88403553Y-83599999D01*
X89058861Y-84255307D01*
X89074631Y-84234424D01*
X89173760Y-84035348D01*
X89234620Y-83821445D01*
X89255140Y-83599999D01*
X89234620Y-83378554D01*
X89173760Y-83164651D01*
X89074633Y-82965577D01*
X89058861Y-82944691D01*
X88403553Y-83599999D01*
X87696445Y-83599999D01*
X87041137Y-82944691D01*
X87025367Y-82965575D01*
X86926239Y-83164651D01*
X86865379Y-83378554D01*
X86844859Y-83599999D01*
X76255460Y-83599999D01*
X76235674Y-83411744D01*
X76177179Y-83231716D01*
X76082533Y-83067784D01*
X76082532Y-83067783D01*
X76082531Y-83067781D01*
X75955873Y-82927113D01*
X75879300Y-82871480D01*
X75802730Y-82815849D01*
X75802728Y-82815848D01*
X75629804Y-82738856D01*
X75565707Y-82725232D01*
X75444646Y-82699500D01*
X75255354Y-82699500D01*
X75162775Y-82719178D01*
X75070195Y-82738856D01*
X74897271Y-82815848D01*
X74744126Y-82927113D01*
X74617468Y-83067781D01*
X74522821Y-83231715D01*
X74522821Y-83231716D01*
X74464326Y-83411744D01*
X74444540Y-83600000D01*
X63451139Y-83600000D01*
X63413502Y-83555145D01*
X63336998Y-83510976D01*
X63250000Y-83495636D01*
X63163001Y-83510976D01*
X63086497Y-83555145D01*
X63029715Y-83622816D01*
X63029714Y-83622817D01*
X63029714Y-83622818D01*
X62999500Y-83705830D01*
X62999500Y-83705832D01*
X62999500Y-87496107D01*
X62999195Y-87503876D01*
X62990057Y-87619969D01*
X62990024Y-87620375D01*
X62980937Y-87730040D01*
X62978540Y-87744976D01*
X62951566Y-87857332D01*
X62951272Y-87858524D01*
X62924300Y-87965032D01*
X62919793Y-87978615D01*
X62875573Y-88085372D01*
X62874771Y-88087253D01*
X62830662Y-88187814D01*
X62824411Y-88199775D01*
X62764052Y-88298271D01*
X62762520Y-88300691D01*
X62702472Y-88392601D01*
X62694873Y-88402748D01*
X62619880Y-88490554D01*
X62617437Y-88493310D01*
X62543070Y-88574094D01*
X62534528Y-88582324D01*
X62446733Y-88657307D01*
X62443245Y-88660151D01*
X62356627Y-88727569D01*
X62347547Y-88733856D01*
X62249105Y-88794181D01*
X62244496Y-88796837D01*
X62147984Y-88849066D01*
X62138753Y-88853462D01*
X62032077Y-88897650D01*
X62026334Y-88899822D01*
X61922572Y-88935442D01*
X61913540Y-88938070D01*
X61801276Y-88965023D01*
X61794459Y-88966409D01*
X61686239Y-88984468D01*
X61677712Y-88985513D01*
X61562617Y-88994572D01*
X61554849Y-88994877D01*
X61445151Y-88994877D01*
X61437383Y-88994572D01*
X61322286Y-88985513D01*
X61313759Y-88984468D01*
X61205539Y-88966409D01*
X61198722Y-88965023D01*
X61086458Y-88938070D01*
X61077426Y-88935442D01*
X60992754Y-88906375D01*
X60973656Y-88899819D01*
X60967942Y-88897658D01*
X60897882Y-88868638D01*
X60861245Y-88853462D01*
X60852014Y-88849066D01*
X60755502Y-88796837D01*
X60750910Y-88794191D01*
X60652439Y-88733848D01*
X60643371Y-88727569D01*
X60556753Y-88660151D01*
X60553285Y-88657323D01*
X60465456Y-88582311D01*
X60456933Y-88574099D01*
X60382546Y-88493294D01*
X60380133Y-88490571D01*
X60305121Y-88402743D01*
X60297530Y-88392607D01*
X60237455Y-88300655D01*
X60235988Y-88298338D01*
X60175575Y-88199752D01*
X60169344Y-88187831D01*
X60125212Y-88087218D01*
X60124425Y-88085372D01*
X60123396Y-88082888D01*
X60080203Y-87978611D01*
X60075700Y-87965038D01*
X60048686Y-87858363D01*
X60048474Y-87857503D01*
X60021456Y-87744968D01*
X60019062Y-87730049D01*
X60009958Y-87620183D01*
X60000804Y-87503874D01*
X60000500Y-87496109D01*
X60000500Y-87440000D01*
X60494658Y-87440000D01*
X60513975Y-87636130D01*
X60571185Y-87824727D01*
X60664088Y-87998536D01*
X60664090Y-87998538D01*
X60789117Y-88150883D01*
X60848692Y-88199775D01*
X60941463Y-88275911D01*
X61115272Y-88368814D01*
X61209570Y-88397418D01*
X61303868Y-88426024D01*
X61500000Y-88445341D01*
X61696132Y-88426024D01*
X61884727Y-88368814D01*
X62058538Y-88275910D01*
X62210883Y-88150883D01*
X62335910Y-87998538D01*
X62428814Y-87824727D01*
X62486024Y-87636132D01*
X62505341Y-87440000D01*
X62486024Y-87243868D01*
X62428814Y-87055273D01*
X62428814Y-87055272D01*
X62335911Y-86881463D01*
X62316900Y-86858298D01*
X62210883Y-86729117D01*
X62058538Y-86604090D01*
X62058539Y-86604090D01*
X62058536Y-86604088D01*
X61884727Y-86511185D01*
X61696130Y-86453975D01*
X61500000Y-86434658D01*
X61303869Y-86453975D01*
X61115272Y-86511185D01*
X60941463Y-86604088D01*
X60789117Y-86729117D01*
X60664088Y-86881463D01*
X60571185Y-87055272D01*
X60513975Y-87243869D01*
X60494658Y-87440000D01*
X60000500Y-87440000D01*
X60000500Y-84559999D01*
X60494658Y-84559999D01*
X60513975Y-84756130D01*
X60571185Y-84944727D01*
X60664088Y-85118536D01*
X60664090Y-85118538D01*
X60789117Y-85270883D01*
X60918298Y-85376900D01*
X60941463Y-85395911D01*
X61115272Y-85488814D01*
X61209570Y-85517419D01*
X61303868Y-85546024D01*
X61500000Y-85565341D01*
X61696132Y-85546024D01*
X61884727Y-85488814D01*
X62058538Y-85395910D01*
X62210883Y-85270883D01*
X62335910Y-85118538D01*
X62428814Y-84944727D01*
X62486024Y-84756132D01*
X62505341Y-84560000D01*
X62486024Y-84363868D01*
X62428814Y-84175273D01*
X62428814Y-84175272D01*
X62335911Y-84001463D01*
X62296592Y-83953553D01*
X62210883Y-83849117D01*
X62058538Y-83724090D01*
X62058539Y-83724090D01*
X62058536Y-83724088D01*
X61884727Y-83631185D01*
X61696130Y-83573975D01*
X61500000Y-83554658D01*
X61303869Y-83573975D01*
X61115272Y-83631185D01*
X60941463Y-83724088D01*
X60789117Y-83849117D01*
X60664088Y-84001463D01*
X60571185Y-84175272D01*
X60513975Y-84363869D01*
X60494658Y-84559999D01*
X60000500Y-84559999D01*
X60000500Y-83705832D01*
X60000500Y-83705830D01*
X59970286Y-83622818D01*
X59951139Y-83600000D01*
X59913502Y-83555145D01*
X59836998Y-83510976D01*
X59750000Y-83495636D01*
X59663001Y-83510976D01*
X59586497Y-83555145D01*
X59529715Y-83622816D01*
X59529714Y-83622817D01*
X59529714Y-83622818D01*
X59499500Y-83705830D01*
X59499500Y-83705832D01*
X59499500Y-87636838D01*
X500Y-87636838D01*
X500Y-81749999D01*
X23154416Y-81749999D01*
X23174699Y-81955933D01*
X23234767Y-82153952D01*
X23234768Y-82153954D01*
X23332315Y-82336450D01*
X23463590Y-82496410D01*
X23623550Y-82627685D01*
X23806046Y-82725232D01*
X24004066Y-82785300D01*
X24210000Y-82805583D01*
X24415934Y-82785300D01*
X24613954Y-82725232D01*
X24796450Y-82627685D01*
X24956410Y-82496410D01*
X25087685Y-82336450D01*
X25185232Y-82153954D01*
X25245300Y-81955934D01*
X25265583Y-81750000D01*
X25265583Y-81749999D01*
X25694416Y-81749999D01*
X25714699Y-81955933D01*
X25774767Y-82153952D01*
X25774768Y-82153954D01*
X25872315Y-82336450D01*
X26003590Y-82496410D01*
X26163550Y-82627685D01*
X26346046Y-82725232D01*
X26544066Y-82785300D01*
X26750000Y-82805583D01*
X26955934Y-82785300D01*
X27153954Y-82725232D01*
X27336450Y-82627685D01*
X27346123Y-82619747D01*
X28239500Y-82619747D01*
X28251133Y-82678231D01*
X28295447Y-82744552D01*
X28339762Y-82774162D01*
X28361769Y-82788867D01*
X28420252Y-82800500D01*
X30159747Y-82800500D01*
X30159748Y-82800500D01*
X30218231Y-82788867D01*
X30284552Y-82744552D01*
X30328867Y-82678231D01*
X30340500Y-82619748D01*
X30340500Y-82593118D01*
X87396672Y-82593118D01*
X88049999Y-83246445D01*
X88703326Y-82593118D01*
X88587180Y-82521203D01*
X88379799Y-82440862D01*
X88161198Y-82400000D01*
X87938802Y-82400000D01*
X87720200Y-82440862D01*
X87512819Y-82521203D01*
X87396672Y-82593118D01*
X30340500Y-82593118D01*
X30340500Y-80880252D01*
X30328867Y-80821769D01*
X30314162Y-80799761D01*
X30284552Y-80755447D01*
X30218231Y-80711133D01*
X30218230Y-80711132D01*
X30159748Y-80699500D01*
X28420252Y-80699500D01*
X28391010Y-80705316D01*
X28361768Y-80711133D01*
X28295447Y-80755447D01*
X28251133Y-80821768D01*
X28239500Y-80880253D01*
X28239500Y-82619747D01*
X27346123Y-82619747D01*
X27496410Y-82496410D01*
X27627685Y-82336450D01*
X27725232Y-82153954D01*
X27785300Y-81955934D01*
X27805583Y-81750000D01*
X27785300Y-81544066D01*
X27725232Y-81346046D01*
X27627685Y-81163550D01*
X27496410Y-81003590D01*
X27336450Y-80872315D01*
X27153954Y-80774768D01*
X27153953Y-80774767D01*
X27153952Y-80774767D01*
X26955933Y-80714699D01*
X26750000Y-80694416D01*
X26544066Y-80714699D01*
X26346047Y-80774767D01*
X26163549Y-80872315D01*
X26003590Y-81003590D01*
X25872315Y-81163549D01*
X25774767Y-81346047D01*
X25714699Y-81544066D01*
X25694416Y-81749999D01*
X25265583Y-81749999D01*
X25245300Y-81544066D01*
X25185232Y-81346046D01*
X25087685Y-81163550D01*
X24956410Y-81003590D01*
X24796450Y-80872315D01*
X24613954Y-80774768D01*
X24613953Y-80774767D01*
X24613952Y-80774767D01*
X24415933Y-80714699D01*
X24210000Y-80694416D01*
X24004066Y-80714699D01*
X23806047Y-80774767D01*
X23623549Y-80872315D01*
X23463590Y-81003590D01*
X23332315Y-81163549D01*
X23234767Y-81346047D01*
X23174699Y-81544066D01*
X23154416Y-81749999D01*
X500Y-81749999D01*
X500Y-76750000D01*
X29794354Y-76750000D01*
X29814859Y-76918870D01*
X29814860Y-76918872D01*
X29875182Y-77077930D01*
X29971817Y-77217929D01*
X29971818Y-77217930D01*
X30099145Y-77330733D01*
X30177864Y-77372048D01*
X30249775Y-77409790D01*
X30332359Y-77430144D01*
X30414943Y-77450500D01*
X30414944Y-77450500D01*
X30585056Y-77450500D01*
X30585057Y-77450500D01*
X30640112Y-77436929D01*
X30750225Y-77409790D01*
X30900852Y-77330734D01*
X30900851Y-77330734D01*
X30900854Y-77330733D01*
X30964517Y-77274331D01*
X31028183Y-77217929D01*
X31124818Y-77077930D01*
X31177128Y-76939999D01*
X60494658Y-76939999D01*
X60513975Y-77136130D01*
X60571185Y-77324727D01*
X60664088Y-77498536D01*
X60664090Y-77498538D01*
X60789117Y-77650883D01*
X60918298Y-77756900D01*
X60941463Y-77775911D01*
X61115272Y-77868814D01*
X61209570Y-77897418D01*
X61303868Y-77926024D01*
X61500000Y-77945341D01*
X61696132Y-77926024D01*
X61884727Y-77868814D01*
X62058538Y-77775910D01*
X62210883Y-77650883D01*
X62335910Y-77498538D01*
X62428814Y-77324727D01*
X62486024Y-77136132D01*
X62505341Y-76940000D01*
X62486024Y-76743868D01*
X62457418Y-76649570D01*
X62428814Y-76555272D01*
X62335911Y-76381463D01*
X62254341Y-76282071D01*
X62210883Y-76229117D01*
X62058538Y-76104090D01*
X62058539Y-76104090D01*
X62058536Y-76104088D01*
X61884727Y-76011185D01*
X61696130Y-75953975D01*
X61500000Y-75934658D01*
X61303869Y-75953975D01*
X61115272Y-76011185D01*
X60941463Y-76104088D01*
X60789117Y-76229117D01*
X60664088Y-76381463D01*
X60571185Y-76555272D01*
X60513975Y-76743869D01*
X60494658Y-76939999D01*
X31177128Y-76939999D01*
X31185140Y-76918872D01*
X31205645Y-76750000D01*
X31185140Y-76581128D01*
X31124818Y-76422070D01*
X31028183Y-76282071D01*
X31028181Y-76282069D01*
X30900854Y-76169266D01*
X30750223Y-76090209D01*
X30585057Y-76049500D01*
X30585056Y-76049500D01*
X30414944Y-76049500D01*
X30414943Y-76049500D01*
X30249776Y-76090209D01*
X30099145Y-76169266D01*
X29971818Y-76282069D01*
X29875182Y-76422070D01*
X29814859Y-76581129D01*
X29794354Y-76750000D01*
X500Y-76750000D01*
X500Y-75716880D01*
X77236672Y-75716880D01*
X77352819Y-75788796D01*
X77560200Y-75869137D01*
X77778802Y-75910000D01*
X78001198Y-75910000D01*
X78219799Y-75869137D01*
X78427178Y-75788798D01*
X78543326Y-75716880D01*
X77889999Y-75063553D01*
X77236672Y-75716880D01*
X500Y-75716880D01*
X500Y-74710000D01*
X76684859Y-74710000D01*
X76705379Y-74931445D01*
X76766239Y-75145348D01*
X76865366Y-75344422D01*
X76881138Y-75365307D01*
X77536445Y-74709999D01*
X78243553Y-74709999D01*
X78898861Y-75365307D01*
X78914631Y-75344424D01*
X79013760Y-75145348D01*
X79074620Y-74931445D01*
X79095140Y-74710000D01*
X79074620Y-74488554D01*
X79013760Y-74274651D01*
X78914633Y-74075577D01*
X78898861Y-74054691D01*
X78243553Y-74709999D01*
X77536445Y-74709999D01*
X76881137Y-74054691D01*
X76865367Y-74075575D01*
X76766239Y-74274651D01*
X76705379Y-74488554D01*
X76684859Y-74710000D01*
X500Y-74710000D01*
X500Y-73703118D01*
X77236672Y-73703118D01*
X77889999Y-74356445D01*
X78543326Y-73703118D01*
X78427180Y-73631203D01*
X78219799Y-73550862D01*
X78001198Y-73510000D01*
X77778802Y-73510000D01*
X77560200Y-73550862D01*
X77352819Y-73631203D01*
X77236672Y-73703118D01*
X500Y-73703118D01*
X500Y-69000000D01*
X22044354Y-69000000D01*
X22064859Y-69168870D01*
X22064860Y-69168872D01*
X22125182Y-69327930D01*
X22221817Y-69467929D01*
X22221818Y-69467930D01*
X22349145Y-69580733D01*
X22427864Y-69622048D01*
X22499775Y-69659790D01*
X22582359Y-69680144D01*
X22664943Y-69700500D01*
X22664944Y-69700500D01*
X22835056Y-69700500D01*
X22835057Y-69700500D01*
X22890112Y-69686930D01*
X23000225Y-69659790D01*
X23150852Y-69580734D01*
X23150851Y-69580734D01*
X23150854Y-69580733D01*
X23214517Y-69524331D01*
X23278183Y-69467929D01*
X23374818Y-69327930D01*
X23435140Y-69168872D01*
X23455645Y-69000000D01*
X23435140Y-68831128D01*
X23374818Y-68672070D01*
X23278183Y-68532071D01*
X23278181Y-68532069D01*
X23150854Y-68419266D01*
X23000223Y-68340209D01*
X22835057Y-68299500D01*
X22835056Y-68299500D01*
X22664944Y-68299500D01*
X22664943Y-68299500D01*
X22499776Y-68340209D01*
X22349145Y-68419266D01*
X22221818Y-68532069D01*
X22125182Y-68672070D01*
X22064859Y-68831129D01*
X22044354Y-69000000D01*
X500Y-69000000D01*
X500Y-67014999D01*
X80444416Y-67014999D01*
X80464699Y-67220933D01*
X80524767Y-67418952D01*
X80524768Y-67418954D01*
X80622315Y-67601450D01*
X80753590Y-67761410D01*
X80913550Y-67892685D01*
X81096046Y-67990232D01*
X81294066Y-68050300D01*
X81500000Y-68070583D01*
X81705934Y-68050300D01*
X81903954Y-67990232D01*
X82086450Y-67892685D01*
X82246410Y-67761410D01*
X82377685Y-67601450D01*
X82475232Y-67418954D01*
X82535300Y-67220934D01*
X82555583Y-67015000D01*
X82535300Y-66809066D01*
X82475232Y-66611046D01*
X82377685Y-66428550D01*
X82246410Y-66268590D01*
X82086450Y-66137315D01*
X81903954Y-66039768D01*
X81903953Y-66039767D01*
X81903952Y-66039767D01*
X81705933Y-65979699D01*
X81500000Y-65959416D01*
X81294066Y-65979699D01*
X81096047Y-66039767D01*
X80913549Y-66137315D01*
X80753590Y-66268590D01*
X80622315Y-66428549D01*
X80524767Y-66611047D01*
X80464699Y-66809066D01*
X80444416Y-67014999D01*
X500Y-67014999D01*
X500Y-65750000D01*
X30494352Y-65750000D01*
X30514834Y-65892455D01*
X30554677Y-65979699D01*
X30574623Y-66023373D01*
X30668872Y-66132143D01*
X30668874Y-66132145D01*
X30789945Y-66209952D01*
X30789947Y-66209953D01*
X30928039Y-66250500D01*
X31071961Y-66250500D01*
X31210053Y-66209953D01*
X31331128Y-66132143D01*
X31425377Y-66023373D01*
X31485165Y-65892457D01*
X31505647Y-65750000D01*
X31485165Y-65607543D01*
X31425377Y-65476627D01*
X31331128Y-65367857D01*
X31331127Y-65367856D01*
X31331125Y-65367854D01*
X31295170Y-65344747D01*
X80449500Y-65344747D01*
X80461133Y-65403231D01*
X80505447Y-65469552D01*
X80549761Y-65499162D01*
X80571769Y-65513867D01*
X80630252Y-65525500D01*
X82369747Y-65525500D01*
X82369748Y-65525500D01*
X82428231Y-65513867D01*
X82494552Y-65469552D01*
X82538867Y-65403231D01*
X82550500Y-65344748D01*
X82550500Y-63605252D01*
X82538867Y-63546769D01*
X82524162Y-63524762D01*
X82494552Y-63480447D01*
X82428231Y-63436133D01*
X82369748Y-63424500D01*
X80630252Y-63424500D01*
X80601010Y-63430316D01*
X80571768Y-63436133D01*
X80505447Y-63480447D01*
X80461133Y-63546768D01*
X80449500Y-63605253D01*
X80449500Y-65344747D01*
X31295170Y-65344747D01*
X31210054Y-65290047D01*
X31071961Y-65249500D01*
X30928039Y-65249500D01*
X30789945Y-65290047D01*
X30668874Y-65367854D01*
X30574622Y-65476628D01*
X30514834Y-65607544D01*
X30494352Y-65750000D01*
X500Y-65750000D01*
X500Y-64000000D01*
X22744352Y-64000000D01*
X22764834Y-64142455D01*
X22764835Y-64142457D01*
X22824623Y-64273373D01*
X22918872Y-64382143D01*
X22918874Y-64382145D01*
X23039945Y-64459952D01*
X23039947Y-64459953D01*
X23178039Y-64500500D01*
X23321961Y-64500500D01*
X23460053Y-64459953D01*
X23581128Y-64382143D01*
X23675377Y-64273373D01*
X23735165Y-64142457D01*
X23755647Y-64000000D01*
X23735165Y-63857543D01*
X23686051Y-63749999D01*
X28744352Y-63749999D01*
X28764834Y-63892455D01*
X28764835Y-63892457D01*
X28824623Y-64023373D01*
X28918872Y-64132143D01*
X28918874Y-64132145D01*
X29039945Y-64209952D01*
X29039947Y-64209953D01*
X29178039Y-64250500D01*
X29321961Y-64250500D01*
X29460053Y-64209953D01*
X29581128Y-64132143D01*
X29675377Y-64023373D01*
X29735165Y-63892457D01*
X29755647Y-63750000D01*
X29735165Y-63607543D01*
X29675377Y-63476627D01*
X29581128Y-63367857D01*
X29581127Y-63367856D01*
X29581125Y-63367854D01*
X29460054Y-63290047D01*
X29321961Y-63249500D01*
X29178039Y-63249500D01*
X29039945Y-63290047D01*
X28918874Y-63367854D01*
X28824622Y-63476628D01*
X28764834Y-63607544D01*
X28744352Y-63749999D01*
X23686051Y-63749999D01*
X23675377Y-63726627D01*
X23581128Y-63617857D01*
X23581127Y-63617856D01*
X23581125Y-63617854D01*
X23460054Y-63540047D01*
X23321961Y-63499500D01*
X23178039Y-63499500D01*
X23039945Y-63540047D01*
X22918874Y-63617854D01*
X22824622Y-63726628D01*
X22764834Y-63857544D01*
X22744352Y-64000000D01*
X500Y-64000000D01*
X500Y-63119747D01*
X3449500Y-63119747D01*
X3461133Y-63178231D01*
X3505447Y-63244552D01*
X3549762Y-63274162D01*
X3571769Y-63288867D01*
X3630252Y-63300500D01*
X5369747Y-63300500D01*
X5369748Y-63300500D01*
X5428231Y-63288867D01*
X5494552Y-63244552D01*
X5538867Y-63178231D01*
X5550500Y-63119748D01*
X5550500Y-62499999D01*
X36244352Y-62499999D01*
X36264834Y-62642455D01*
X36264835Y-62642457D01*
X36324623Y-62773373D01*
X36418872Y-62882143D01*
X36418874Y-62882145D01*
X36539945Y-62959952D01*
X36539947Y-62959953D01*
X36678039Y-63000500D01*
X36821961Y-63000500D01*
X36960053Y-62959953D01*
X37081128Y-62882143D01*
X37175377Y-62773373D01*
X37235165Y-62642457D01*
X37255647Y-62500000D01*
X37235165Y-62357543D01*
X37175377Y-62226627D01*
X37081128Y-62117857D01*
X37081127Y-62117856D01*
X37081125Y-62117854D01*
X36960054Y-62040047D01*
X36821961Y-61999500D01*
X36678039Y-61999500D01*
X36539945Y-62040047D01*
X36418874Y-62117854D01*
X36324622Y-62226628D01*
X36264834Y-62357544D01*
X36244352Y-62499999D01*
X5550500Y-62499999D01*
X5550500Y-61380252D01*
X5538867Y-61321769D01*
X5524162Y-61299762D01*
X5494552Y-61255447D01*
X5428231Y-61211133D01*
X5422294Y-61209952D01*
X5369748Y-61199500D01*
X3630252Y-61199500D01*
X3601010Y-61205316D01*
X3571768Y-61211133D01*
X3505447Y-61255447D01*
X3461133Y-61321768D01*
X3449500Y-61380253D01*
X3449500Y-63119747D01*
X500Y-63119747D01*
X500Y-60749999D01*
X24244352Y-60749999D01*
X24264834Y-60892455D01*
X24264835Y-60892457D01*
X24324623Y-61023373D01*
X24418872Y-61132143D01*
X24418874Y-61132145D01*
X24539945Y-61209952D01*
X24539947Y-61209953D01*
X24678039Y-61250500D01*
X24821961Y-61250500D01*
X24960053Y-61209953D01*
X25081128Y-61132143D01*
X25175377Y-61023373D01*
X25235165Y-60892457D01*
X25255647Y-60750000D01*
X25235165Y-60607543D01*
X25175377Y-60476627D01*
X25081128Y-60367857D01*
X25081127Y-60367856D01*
X25081125Y-60367854D01*
X24960054Y-60290047D01*
X24821961Y-60249500D01*
X24678039Y-60249500D01*
X24539945Y-60290047D01*
X24418874Y-60367854D01*
X24324622Y-60476628D01*
X24264834Y-60607544D01*
X24244352Y-60749999D01*
X500Y-60749999D01*
X500Y-57750000D01*
X27494352Y-57750000D01*
X27514834Y-57892455D01*
X27514835Y-57892457D01*
X27574623Y-58023373D01*
X27668872Y-58132143D01*
X27668874Y-58132145D01*
X27789945Y-58209952D01*
X27789947Y-58209953D01*
X27928039Y-58250500D01*
X28071961Y-58250500D01*
X28210053Y-58209953D01*
X28331128Y-58132143D01*
X28425377Y-58023373D01*
X28485165Y-57892457D01*
X28505647Y-57750000D01*
X28485165Y-57607543D01*
X28425377Y-57476627D01*
X28331128Y-57367857D01*
X28331127Y-57367856D01*
X28331125Y-57367854D01*
X28210054Y-57290047D01*
X28071961Y-57249500D01*
X27928039Y-57249500D01*
X27789945Y-57290047D01*
X27668874Y-57367854D01*
X27574622Y-57476628D01*
X27514834Y-57607544D01*
X27494352Y-57750000D01*
X500Y-57750000D01*
X500Y-55869747D01*
X79449500Y-55869747D01*
X79461133Y-55928231D01*
X79505447Y-55994552D01*
X79549761Y-56024162D01*
X79571769Y-56038867D01*
X79630252Y-56050500D01*
X81369747Y-56050500D01*
X81369748Y-56050500D01*
X81428231Y-56038867D01*
X81494552Y-55994552D01*
X81538867Y-55928231D01*
X81550500Y-55869748D01*
X81550500Y-54130252D01*
X81538867Y-54071769D01*
X81524162Y-54049761D01*
X81494552Y-54005447D01*
X81428231Y-53961133D01*
X81369748Y-53949500D01*
X79630252Y-53949500D01*
X79601010Y-53955316D01*
X79571768Y-53961133D01*
X79505447Y-54005447D01*
X79461133Y-54071768D01*
X79461132Y-54071769D01*
X79461133Y-54071769D01*
X79451590Y-54119748D01*
X79449500Y-54130253D01*
X79449500Y-55869747D01*
X500Y-55869747D01*
X500Y-54119748D01*
X3449500Y-54119748D01*
X3451590Y-54130253D01*
X3461133Y-54178231D01*
X3505447Y-54244552D01*
X3549762Y-54274162D01*
X3571769Y-54288867D01*
X3630252Y-54300500D01*
X5369747Y-54300500D01*
X5369748Y-54300500D01*
X5428231Y-54288867D01*
X5494552Y-54244552D01*
X5538867Y-54178231D01*
X5550500Y-54119748D01*
X5550500Y-53000000D01*
X23994352Y-53000000D01*
X24014834Y-53142455D01*
X24014835Y-53142457D01*
X24074623Y-53273373D01*
X24168872Y-53382143D01*
X24168874Y-53382145D01*
X24289945Y-53459952D01*
X24289947Y-53459953D01*
X24428039Y-53500500D01*
X24571961Y-53500500D01*
X24710053Y-53459953D01*
X24831128Y-53382143D01*
X24925377Y-53273373D01*
X24985165Y-53142457D01*
X25005647Y-53000000D01*
X24985165Y-52857543D01*
X24925377Y-52726627D01*
X24831128Y-52617857D01*
X24831127Y-52617856D01*
X24831125Y-52617854D01*
X24710054Y-52540047D01*
X24571961Y-52499500D01*
X24428039Y-52499500D01*
X24289945Y-52540047D01*
X24168874Y-52617854D01*
X24074622Y-52726628D01*
X24014834Y-52857544D01*
X23994352Y-53000000D01*
X5550500Y-53000000D01*
X5550500Y-52380252D01*
X5538867Y-52321769D01*
X5524162Y-52299762D01*
X5494552Y-52255447D01*
X5428231Y-52211133D01*
X5369748Y-52199500D01*
X3630252Y-52199500D01*
X3601010Y-52205316D01*
X3571768Y-52211133D01*
X3505447Y-52255447D01*
X3461133Y-52321768D01*
X3461132Y-52321769D01*
X3461133Y-52321769D01*
X3449500Y-52380252D01*
X3449500Y-54119748D01*
X500Y-54119748D01*
X500Y-48000000D01*
X20994352Y-48000000D01*
X21014834Y-48142455D01*
X21014835Y-48142457D01*
X21074623Y-48273373D01*
X21168872Y-48382143D01*
X21168874Y-48382145D01*
X21289945Y-48459952D01*
X21289947Y-48459953D01*
X21428039Y-48500500D01*
X21571961Y-48500500D01*
X21710053Y-48459953D01*
X21831128Y-48382143D01*
X21925377Y-48273373D01*
X21985165Y-48142457D01*
X22005647Y-48000000D01*
X21985165Y-47857543D01*
X21925377Y-47726627D01*
X21831128Y-47617857D01*
X21831127Y-47617856D01*
X21831125Y-47617854D01*
X21710054Y-47540047D01*
X21571961Y-47499500D01*
X21428039Y-47499500D01*
X21289945Y-47540047D01*
X21168874Y-47617854D01*
X21074622Y-47726628D01*
X21014834Y-47857544D01*
X20994352Y-48000000D01*
X500Y-48000000D01*
X500Y-45119747D01*
X3449500Y-45119747D01*
X3461133Y-45178231D01*
X3505447Y-45244552D01*
X3513601Y-45250000D01*
X3571769Y-45288867D01*
X3630252Y-45300500D01*
X5369747Y-45300500D01*
X5369748Y-45300500D01*
X5428231Y-45288867D01*
X5494552Y-45244552D01*
X5538867Y-45178231D01*
X5550500Y-45119748D01*
X5550500Y-45119747D01*
X30199500Y-45119747D01*
X30211133Y-45178231D01*
X30255447Y-45244552D01*
X30263601Y-45250000D01*
X30321769Y-45288867D01*
X30380252Y-45300500D01*
X32119747Y-45300500D01*
X32119748Y-45300500D01*
X32178231Y-45288867D01*
X32236399Y-45250000D01*
X87494352Y-45250000D01*
X87514834Y-45392455D01*
X87514835Y-45392457D01*
X87574623Y-45523373D01*
X87668872Y-45632143D01*
X87668874Y-45632145D01*
X87789945Y-45709952D01*
X87789947Y-45709953D01*
X87928039Y-45750500D01*
X88071961Y-45750500D01*
X88210053Y-45709953D01*
X88331128Y-45632143D01*
X88425377Y-45523373D01*
X88485165Y-45392457D01*
X88505647Y-45250000D01*
X88485165Y-45107543D01*
X88425377Y-44976627D01*
X88331128Y-44867857D01*
X88331127Y-44867856D01*
X88331125Y-44867854D01*
X88210054Y-44790047D01*
X88071961Y-44749500D01*
X87928039Y-44749500D01*
X87789945Y-44790047D01*
X87668874Y-44867854D01*
X87574622Y-44976628D01*
X87514834Y-45107544D01*
X87494352Y-45250000D01*
X32236399Y-45250000D01*
X32244552Y-45244552D01*
X32288867Y-45178231D01*
X32300500Y-45119748D01*
X32300500Y-43380252D01*
X32288867Y-43321769D01*
X32274162Y-43299761D01*
X32244552Y-43255447D01*
X32178231Y-43211133D01*
X32119748Y-43199500D01*
X30380252Y-43199500D01*
X30351010Y-43205316D01*
X30321768Y-43211133D01*
X30255447Y-43255447D01*
X30211133Y-43321768D01*
X30199500Y-43380253D01*
X30199500Y-45119747D01*
X5550500Y-45119747D01*
X5550500Y-43869747D01*
X19449500Y-43869747D01*
X19461133Y-43928231D01*
X19505447Y-43994552D01*
X19549761Y-44024162D01*
X19571769Y-44038867D01*
X19630252Y-44050500D01*
X21369747Y-44050500D01*
X21369748Y-44050500D01*
X21428231Y-44038867D01*
X21494552Y-43994552D01*
X21538867Y-43928231D01*
X21550500Y-43869748D01*
X21550500Y-42130252D01*
X21538867Y-42071769D01*
X21524162Y-42049761D01*
X21494552Y-42005447D01*
X21428231Y-41961133D01*
X21428230Y-41961132D01*
X21369748Y-41949500D01*
X19630252Y-41949500D01*
X19601010Y-41955316D01*
X19571768Y-41961133D01*
X19505447Y-42005447D01*
X19461133Y-42071768D01*
X19449500Y-42130253D01*
X19449500Y-43869747D01*
X5550500Y-43869747D01*
X5550500Y-43380252D01*
X5538867Y-43321769D01*
X5524162Y-43299761D01*
X5494552Y-43255447D01*
X5428231Y-43211133D01*
X5369748Y-43199500D01*
X3630252Y-43199500D01*
X3601010Y-43205316D01*
X3571768Y-43211133D01*
X3505447Y-43255447D01*
X3461133Y-43321768D01*
X3449500Y-43380253D01*
X3449500Y-45119747D01*
X500Y-45119747D01*
X500Y-41750000D01*
X78244352Y-41750000D01*
X78264834Y-41892455D01*
X78264835Y-41892457D01*
X78324623Y-42023373D01*
X78418872Y-42132143D01*
X78418874Y-42132145D01*
X78539945Y-42209952D01*
X78539947Y-42209953D01*
X78678039Y-42250500D01*
X78821961Y-42250500D01*
X78960053Y-42209953D01*
X79081128Y-42132143D01*
X79175377Y-42023373D01*
X79186052Y-41999999D01*
X84994352Y-41999999D01*
X85014834Y-42142455D01*
X85014835Y-42142457D01*
X85074623Y-42273373D01*
X85168872Y-42382143D01*
X85168874Y-42382145D01*
X85289945Y-42459952D01*
X85289947Y-42459953D01*
X85428039Y-42500500D01*
X85571961Y-42500500D01*
X85710053Y-42459953D01*
X85831128Y-42382143D01*
X85925377Y-42273373D01*
X85985165Y-42142457D01*
X86005647Y-42000000D01*
X86005647Y-41999999D01*
X87494352Y-41999999D01*
X87514834Y-42142455D01*
X87514835Y-42142457D01*
X87574623Y-42273373D01*
X87668872Y-42382143D01*
X87668874Y-42382145D01*
X87789945Y-42459952D01*
X87789947Y-42459953D01*
X87928039Y-42500500D01*
X88071961Y-42500500D01*
X88210053Y-42459953D01*
X88331128Y-42382143D01*
X88425377Y-42273373D01*
X88485165Y-42142457D01*
X88505647Y-42000000D01*
X88485165Y-41857543D01*
X88425377Y-41726627D01*
X88331128Y-41617857D01*
X88331127Y-41617856D01*
X88331125Y-41617854D01*
X88210054Y-41540047D01*
X88071961Y-41499500D01*
X87928039Y-41499500D01*
X87789945Y-41540047D01*
X87668874Y-41617854D01*
X87574622Y-41726628D01*
X87514834Y-41857544D01*
X87494352Y-41999999D01*
X86005647Y-41999999D01*
X85985165Y-41857543D01*
X85925377Y-41726627D01*
X85831128Y-41617857D01*
X85831127Y-41617856D01*
X85831125Y-41617854D01*
X85710054Y-41540047D01*
X85571961Y-41499500D01*
X85428039Y-41499500D01*
X85289945Y-41540047D01*
X85168874Y-41617854D01*
X85074622Y-41726628D01*
X85014834Y-41857544D01*
X84994352Y-41999999D01*
X79186052Y-41999999D01*
X79235165Y-41892457D01*
X79255647Y-41750000D01*
X79235165Y-41607543D01*
X79175377Y-41476627D01*
X79081128Y-41367857D01*
X79081127Y-41367856D01*
X79081125Y-41367854D01*
X78960054Y-41290047D01*
X78821961Y-41249500D01*
X78678039Y-41249500D01*
X78539945Y-41290047D01*
X78418874Y-41367854D01*
X78324622Y-41476628D01*
X78264834Y-41607544D01*
X78244352Y-41750000D01*
X500Y-41750000D01*
X500Y-39869747D01*
X73699500Y-39869747D01*
X73711133Y-39928231D01*
X73755447Y-39994552D01*
X73799761Y-40024162D01*
X73821769Y-40038867D01*
X73880252Y-40050500D01*
X75619747Y-40050500D01*
X75619748Y-40050500D01*
X75678231Y-40038867D01*
X75744552Y-39994552D01*
X75788867Y-39928231D01*
X75800500Y-39869748D01*
X75800500Y-38750000D01*
X87494352Y-38750000D01*
X87514834Y-38892455D01*
X87514835Y-38892457D01*
X87574623Y-39023373D01*
X87668872Y-39132143D01*
X87668874Y-39132145D01*
X87789945Y-39209952D01*
X87789947Y-39209953D01*
X87928039Y-39250500D01*
X88071961Y-39250500D01*
X88210053Y-39209953D01*
X88331128Y-39132143D01*
X88425377Y-39023373D01*
X88485165Y-38892457D01*
X88505647Y-38750000D01*
X88485165Y-38607543D01*
X88425377Y-38476627D01*
X88331128Y-38367857D01*
X88331127Y-38367856D01*
X88331125Y-38367854D01*
X88210054Y-38290047D01*
X88071961Y-38249500D01*
X87928039Y-38249500D01*
X87789945Y-38290047D01*
X87668874Y-38367854D01*
X87574622Y-38476628D01*
X87514834Y-38607544D01*
X87494352Y-38750000D01*
X75800500Y-38750000D01*
X75800500Y-38130252D01*
X75788867Y-38071769D01*
X75774162Y-38049761D01*
X75744552Y-38005447D01*
X75678231Y-37961133D01*
X75619748Y-37949500D01*
X73880252Y-37949500D01*
X73851010Y-37955316D01*
X73821768Y-37961133D01*
X73755447Y-38005447D01*
X73711133Y-38071768D01*
X73699500Y-38130253D01*
X73699500Y-39869747D01*
X500Y-39869747D01*
X500Y-38000000D01*
X23744352Y-38000000D01*
X23764834Y-38142455D01*
X23764835Y-38142457D01*
X23824623Y-38273373D01*
X23918872Y-38382143D01*
X23918874Y-38382145D01*
X24039945Y-38459952D01*
X24039947Y-38459953D01*
X24178039Y-38500500D01*
X24321961Y-38500500D01*
X24460053Y-38459953D01*
X24581128Y-38382143D01*
X24675377Y-38273373D01*
X24735165Y-38142457D01*
X24755647Y-38000000D01*
X24735165Y-37857543D01*
X24675377Y-37726627D01*
X24581128Y-37617857D01*
X24581127Y-37617856D01*
X24581125Y-37617854D01*
X24460054Y-37540047D01*
X24321961Y-37499500D01*
X24178039Y-37499500D01*
X24039945Y-37540047D01*
X23918874Y-37617854D01*
X23824622Y-37726628D01*
X23764834Y-37857544D01*
X23744352Y-38000000D01*
X500Y-38000000D01*
X500Y-36250000D01*
X32494352Y-36250000D01*
X32514834Y-36392455D01*
X32514835Y-36392457D01*
X32574623Y-36523373D01*
X32668872Y-36632143D01*
X32668874Y-36632145D01*
X32789945Y-36709952D01*
X32789947Y-36709953D01*
X32928039Y-36750500D01*
X33071961Y-36750500D01*
X33210053Y-36709953D01*
X33331128Y-36632143D01*
X33425377Y-36523373D01*
X33485165Y-36392457D01*
X33505647Y-36250000D01*
X35744352Y-36250000D01*
X35764834Y-36392455D01*
X35764835Y-36392457D01*
X35824623Y-36523373D01*
X35918872Y-36632143D01*
X35918874Y-36632145D01*
X36039945Y-36709952D01*
X36039947Y-36709953D01*
X36178039Y-36750500D01*
X36321961Y-36750500D01*
X36460053Y-36709953D01*
X36581128Y-36632143D01*
X36675377Y-36523373D01*
X36735165Y-36392457D01*
X36755647Y-36250000D01*
X38994352Y-36250000D01*
X39014834Y-36392455D01*
X39014835Y-36392457D01*
X39074623Y-36523373D01*
X39168872Y-36632143D01*
X39168874Y-36632145D01*
X39289945Y-36709952D01*
X39289947Y-36709953D01*
X39428039Y-36750500D01*
X39571961Y-36750500D01*
X39710053Y-36709953D01*
X39831128Y-36632143D01*
X39925377Y-36523373D01*
X39985165Y-36392457D01*
X40005647Y-36250000D01*
X42244352Y-36250000D01*
X42264834Y-36392455D01*
X42264835Y-36392457D01*
X42324623Y-36523373D01*
X42418872Y-36632143D01*
X42418874Y-36632145D01*
X42539945Y-36709952D01*
X42539947Y-36709953D01*
X42678039Y-36750500D01*
X42821961Y-36750500D01*
X42960053Y-36709953D01*
X43081128Y-36632143D01*
X43175377Y-36523373D01*
X43235165Y-36392457D01*
X43255647Y-36250000D01*
X45494352Y-36250000D01*
X45514834Y-36392455D01*
X45514835Y-36392457D01*
X45574623Y-36523373D01*
X45668872Y-36632143D01*
X45668874Y-36632145D01*
X45789945Y-36709952D01*
X45789947Y-36709953D01*
X45928039Y-36750500D01*
X46071961Y-36750500D01*
X46210053Y-36709953D01*
X46331128Y-36632143D01*
X46425377Y-36523373D01*
X46485165Y-36392457D01*
X46505647Y-36250000D01*
X87744352Y-36250000D01*
X87764834Y-36392455D01*
X87764835Y-36392457D01*
X87824623Y-36523373D01*
X87918872Y-36632143D01*
X87918874Y-36632145D01*
X88039945Y-36709952D01*
X88039947Y-36709953D01*
X88178039Y-36750500D01*
X88321961Y-36750500D01*
X88460053Y-36709953D01*
X88581128Y-36632143D01*
X88675377Y-36523373D01*
X88735165Y-36392457D01*
X88755647Y-36250000D01*
X88735165Y-36107543D01*
X88675377Y-35976627D01*
X88581128Y-35867857D01*
X88581127Y-35867856D01*
X88581125Y-35867854D01*
X88460054Y-35790047D01*
X88321961Y-35749500D01*
X88178039Y-35749500D01*
X88039945Y-35790047D01*
X87918874Y-35867854D01*
X87824622Y-35976628D01*
X87764834Y-36107544D01*
X87744352Y-36250000D01*
X46505647Y-36250000D01*
X46485165Y-36107543D01*
X46425377Y-35976627D01*
X46331128Y-35867857D01*
X46331127Y-35867856D01*
X46331125Y-35867854D01*
X46210054Y-35790047D01*
X46071961Y-35749500D01*
X45928039Y-35749500D01*
X45789945Y-35790047D01*
X45668874Y-35867854D01*
X45574622Y-35976628D01*
X45514834Y-36107544D01*
X45494352Y-36250000D01*
X43255647Y-36250000D01*
X43235165Y-36107543D01*
X43175377Y-35976627D01*
X43081128Y-35867857D01*
X43081127Y-35867856D01*
X43081125Y-35867854D01*
X42960054Y-35790047D01*
X42821961Y-35749500D01*
X42678039Y-35749500D01*
X42539945Y-35790047D01*
X42418874Y-35867854D01*
X42324622Y-35976628D01*
X42264834Y-36107544D01*
X42244352Y-36250000D01*
X40005647Y-36250000D01*
X39985165Y-36107543D01*
X39925377Y-35976627D01*
X39831128Y-35867857D01*
X39831127Y-35867856D01*
X39831125Y-35867854D01*
X39710054Y-35790047D01*
X39571961Y-35749500D01*
X39428039Y-35749500D01*
X39289945Y-35790047D01*
X39168874Y-35867854D01*
X39074622Y-35976628D01*
X39014834Y-36107544D01*
X38994352Y-36250000D01*
X36755647Y-36250000D01*
X36735165Y-36107543D01*
X36675377Y-35976627D01*
X36581128Y-35867857D01*
X36581127Y-35867856D01*
X36581125Y-35867854D01*
X36460054Y-35790047D01*
X36321961Y-35749500D01*
X36178039Y-35749500D01*
X36039945Y-35790047D01*
X35918874Y-35867854D01*
X35824622Y-35976628D01*
X35764834Y-36107544D01*
X35744352Y-36250000D01*
X33505647Y-36250000D01*
X33485165Y-36107543D01*
X33425377Y-35976627D01*
X33331128Y-35867857D01*
X33331127Y-35867856D01*
X33331125Y-35867854D01*
X33210054Y-35790047D01*
X33071961Y-35749500D01*
X32928039Y-35749500D01*
X32789945Y-35790047D01*
X32668874Y-35867854D01*
X32574622Y-35976628D01*
X32514834Y-36107544D01*
X32494352Y-36250000D01*
X500Y-36250000D01*
X500Y-35119747D01*
X90949500Y-35119747D01*
X90961133Y-35178231D01*
X91005447Y-35244552D01*
X91049762Y-35274162D01*
X91071769Y-35288867D01*
X91130252Y-35300500D01*
X92869747Y-35300500D01*
X92869748Y-35300500D01*
X92928231Y-35288867D01*
X92994552Y-35244552D01*
X93038867Y-35178231D01*
X93050500Y-35119748D01*
X93050500Y-33380252D01*
X93038867Y-33321769D01*
X93024162Y-33299762D01*
X92994552Y-33255447D01*
X92928231Y-33211133D01*
X92869748Y-33199500D01*
X91130252Y-33199500D01*
X91101010Y-33205316D01*
X91071768Y-33211133D01*
X91005447Y-33255447D01*
X90961133Y-33321768D01*
X90949500Y-33380253D01*
X90949500Y-35119747D01*
X500Y-35119747D01*
X500Y-34500000D01*
X19744352Y-34500000D01*
X19764834Y-34642455D01*
X19764835Y-34642457D01*
X19824623Y-34773373D01*
X19918872Y-34882143D01*
X19918874Y-34882145D01*
X20039945Y-34959952D01*
X20039947Y-34959953D01*
X20178039Y-35000500D01*
X20321961Y-35000500D01*
X20460053Y-34959953D01*
X20581128Y-34882143D01*
X20675377Y-34773373D01*
X20735165Y-34642457D01*
X20755647Y-34500000D01*
X20735165Y-34357543D01*
X20675377Y-34226627D01*
X20581128Y-34117857D01*
X20581127Y-34117856D01*
X20581125Y-34117854D01*
X20460054Y-34040047D01*
X20321961Y-33999500D01*
X20178039Y-33999500D01*
X20039945Y-34040047D01*
X19918874Y-34117854D01*
X19824622Y-34226628D01*
X19764834Y-34357544D01*
X19744352Y-34500000D01*
X500Y-34500000D01*
X500Y-32999999D01*
X19744352Y-32999999D01*
X19764834Y-33142455D01*
X19764835Y-33142457D01*
X19824623Y-33273373D01*
X19918872Y-33382143D01*
X19918874Y-33382145D01*
X20039945Y-33459952D01*
X20039947Y-33459953D01*
X20178039Y-33500500D01*
X20321961Y-33500500D01*
X20460053Y-33459953D01*
X20581128Y-33382143D01*
X20675377Y-33273373D01*
X20735165Y-33142457D01*
X20755647Y-33000000D01*
X20735165Y-32857543D01*
X20675377Y-32726627D01*
X20581128Y-32617857D01*
X20581127Y-32617856D01*
X20581125Y-32617854D01*
X20460054Y-32540047D01*
X20321961Y-32499500D01*
X20178039Y-32499500D01*
X20039945Y-32540047D01*
X19918874Y-32617854D01*
X19824622Y-32726628D01*
X19764834Y-32857544D01*
X19744352Y-32999999D01*
X500Y-32999999D01*
X500Y-30369747D01*
X91199500Y-30369747D01*
X91211133Y-30428231D01*
X91255447Y-30494552D01*
X91299762Y-30524162D01*
X91321769Y-30538867D01*
X91380252Y-30550500D01*
X93119747Y-30550500D01*
X93119748Y-30550500D01*
X93178231Y-30538867D01*
X93244552Y-30494552D01*
X93288867Y-30428231D01*
X93300500Y-30369748D01*
X93300500Y-28630252D01*
X93288867Y-28571769D01*
X93274162Y-28549762D01*
X93244552Y-28505447D01*
X93178231Y-28461133D01*
X93172294Y-28459952D01*
X93119748Y-28449500D01*
X91380252Y-28449500D01*
X91351010Y-28455316D01*
X91321768Y-28461133D01*
X91255447Y-28505447D01*
X91211133Y-28571768D01*
X91199500Y-28630253D01*
X91199500Y-30369747D01*
X500Y-30369747D01*
X500Y-28000000D01*
X30494352Y-28000000D01*
X30514834Y-28142455D01*
X30514835Y-28142457D01*
X30574623Y-28273373D01*
X30668872Y-28382143D01*
X30668874Y-28382145D01*
X30789945Y-28459952D01*
X30789947Y-28459953D01*
X30928039Y-28500500D01*
X31071961Y-28500500D01*
X31210053Y-28459953D01*
X31331128Y-28382143D01*
X31425377Y-28273373D01*
X31436052Y-28249999D01*
X81544354Y-28249999D01*
X81564859Y-28418870D01*
X81580439Y-28459952D01*
X81625182Y-28577930D01*
X81721817Y-28717929D01*
X81721818Y-28717930D01*
X81849145Y-28830733D01*
X81927864Y-28872048D01*
X81999775Y-28909790D01*
X82082359Y-28930144D01*
X82164943Y-28950500D01*
X82164944Y-28950500D01*
X82335056Y-28950500D01*
X82335057Y-28950500D01*
X82390112Y-28936930D01*
X82500225Y-28909790D01*
X82650852Y-28830734D01*
X82650851Y-28830734D01*
X82650854Y-28830733D01*
X82714517Y-28774331D01*
X82778183Y-28717929D01*
X82874818Y-28577930D01*
X82935140Y-28418872D01*
X82955645Y-28250000D01*
X82935140Y-28081128D01*
X82874818Y-27922070D01*
X82778183Y-27782071D01*
X82778181Y-27782069D01*
X82650854Y-27669266D01*
X82500223Y-27590209D01*
X82335057Y-27549500D01*
X82335056Y-27549500D01*
X82164944Y-27549500D01*
X82164943Y-27549500D01*
X81999776Y-27590209D01*
X81849145Y-27669266D01*
X81721818Y-27782069D01*
X81625182Y-27922070D01*
X81564859Y-28081129D01*
X81544354Y-28249999D01*
X31436052Y-28249999D01*
X31485165Y-28142457D01*
X31505647Y-28000000D01*
X31485165Y-27857543D01*
X31425377Y-27726627D01*
X31331128Y-27617857D01*
X31331127Y-27617856D01*
X31331125Y-27617854D01*
X31210054Y-27540047D01*
X31071961Y-27499500D01*
X30928039Y-27499500D01*
X30789945Y-27540047D01*
X30668874Y-27617854D01*
X30574622Y-27726628D01*
X30514834Y-27857544D01*
X30494352Y-28000000D01*
X500Y-28000000D01*
X500Y-24000000D01*
X24744352Y-24000000D01*
X24764834Y-24142455D01*
X24764835Y-24142457D01*
X24824623Y-24273373D01*
X24918872Y-24382143D01*
X24918874Y-24382145D01*
X25039945Y-24459952D01*
X25039947Y-24459953D01*
X25178039Y-24500500D01*
X25321961Y-24500500D01*
X25460053Y-24459953D01*
X25581128Y-24382143D01*
X25675377Y-24273373D01*
X25735165Y-24142457D01*
X25755647Y-24000000D01*
X25735165Y-23857543D01*
X25675377Y-23726627D01*
X25581128Y-23617857D01*
X25581127Y-23617856D01*
X25581125Y-23617854D01*
X25460054Y-23540047D01*
X25321961Y-23499500D01*
X25178039Y-23499500D01*
X25039945Y-23540047D01*
X24918874Y-23617854D01*
X24824622Y-23726628D01*
X24764834Y-23857544D01*
X24744352Y-24000000D01*
X500Y-24000000D01*
X500Y-23250000D01*
X85544354Y-23250000D01*
X85564859Y-23418870D01*
X85564860Y-23418872D01*
X85625182Y-23577930D01*
X85652740Y-23617854D01*
X85721818Y-23717930D01*
X85849145Y-23830733D01*
X85927864Y-23872048D01*
X85999775Y-23909790D01*
X86082359Y-23930145D01*
X86164943Y-23950500D01*
X86164944Y-23950500D01*
X86335056Y-23950500D01*
X86335057Y-23950500D01*
X86390112Y-23936929D01*
X86500225Y-23909790D01*
X86650852Y-23830734D01*
X86650851Y-23830734D01*
X86650854Y-23830733D01*
X86714517Y-23774331D01*
X86778183Y-23717929D01*
X86874818Y-23577930D01*
X86935140Y-23418872D01*
X86955645Y-23250000D01*
X86935140Y-23081128D01*
X86874818Y-22922070D01*
X86778183Y-22782071D01*
X86778181Y-22782069D01*
X86650854Y-22669266D01*
X86500223Y-22590209D01*
X86335057Y-22549500D01*
X86335056Y-22549500D01*
X86164944Y-22549500D01*
X86164943Y-22549500D01*
X85999776Y-22590209D01*
X85849145Y-22669266D01*
X85721818Y-22782069D01*
X85625182Y-22922070D01*
X85564859Y-23081129D01*
X85544354Y-23250000D01*
X500Y-23250000D01*
X500Y-22000000D01*
X37494352Y-22000000D01*
X37514834Y-22142455D01*
X37514835Y-22142457D01*
X37574623Y-22273373D01*
X37668872Y-22382143D01*
X37668874Y-22382145D01*
X37789945Y-22459952D01*
X37789947Y-22459953D01*
X37928039Y-22500500D01*
X38071961Y-22500500D01*
X38210053Y-22459953D01*
X38331128Y-22382143D01*
X38425377Y-22273373D01*
X38485165Y-22142457D01*
X38505647Y-22000000D01*
X38485165Y-21857543D01*
X38425377Y-21726627D01*
X38331128Y-21617857D01*
X38331127Y-21617856D01*
X38331125Y-21617854D01*
X38210054Y-21540047D01*
X38071961Y-21499500D01*
X37928039Y-21499500D01*
X37789945Y-21540047D01*
X37668874Y-21617854D01*
X37574622Y-21726628D01*
X37514834Y-21857544D01*
X37494352Y-22000000D01*
X500Y-22000000D01*
X500Y-20750000D01*
X24744352Y-20750000D01*
X24764834Y-20892455D01*
X24764835Y-20892457D01*
X24824623Y-21023373D01*
X24918872Y-21132143D01*
X24918874Y-21132145D01*
X25039945Y-21209952D01*
X25039947Y-21209953D01*
X25178039Y-21250500D01*
X25321961Y-21250500D01*
X25460053Y-21209953D01*
X25581128Y-21132143D01*
X25675377Y-21023373D01*
X25686051Y-21000000D01*
X39244352Y-21000000D01*
X39264834Y-21142455D01*
X39264835Y-21142457D01*
X39324623Y-21273373D01*
X39418872Y-21382143D01*
X39418874Y-21382145D01*
X39539945Y-21459952D01*
X39539947Y-21459953D01*
X39678039Y-21500500D01*
X39821961Y-21500500D01*
X39960053Y-21459953D01*
X40081128Y-21382143D01*
X40175377Y-21273373D01*
X40235165Y-21142457D01*
X40255647Y-21000000D01*
X40235165Y-20857543D01*
X40175377Y-20726627D01*
X40081128Y-20617857D01*
X40081127Y-20617856D01*
X40081125Y-20617854D01*
X39960054Y-20540047D01*
X39821961Y-20499500D01*
X39678039Y-20499500D01*
X39539945Y-20540047D01*
X39418874Y-20617854D01*
X39324622Y-20726628D01*
X39264834Y-20857544D01*
X39244352Y-21000000D01*
X25686051Y-21000000D01*
X25735165Y-20892457D01*
X25755647Y-20750000D01*
X25735165Y-20607543D01*
X25675377Y-20476627D01*
X25581128Y-20367857D01*
X25581127Y-20367856D01*
X25581125Y-20367854D01*
X25460054Y-20290047D01*
X25321961Y-20249500D01*
X25178039Y-20249500D01*
X25039945Y-20290047D01*
X24918874Y-20367854D01*
X24824622Y-20476628D01*
X24764834Y-20607544D01*
X24744352Y-20750000D01*
X500Y-20750000D01*
X500Y-19749999D01*
X20494352Y-19749999D01*
X20514834Y-19892455D01*
X20514835Y-19892457D01*
X20574623Y-20023373D01*
X20668872Y-20132143D01*
X20668874Y-20132145D01*
X20789945Y-20209952D01*
X20789947Y-20209953D01*
X20928039Y-20250500D01*
X21071961Y-20250500D01*
X21210053Y-20209953D01*
X21331128Y-20132143D01*
X21425377Y-20023373D01*
X21436051Y-20000000D01*
X40994352Y-20000000D01*
X41014834Y-20142455D01*
X41014835Y-20142457D01*
X41074623Y-20273373D01*
X41168872Y-20382143D01*
X41168874Y-20382145D01*
X41289945Y-20459952D01*
X41289947Y-20459953D01*
X41428039Y-20500500D01*
X41571961Y-20500500D01*
X41710053Y-20459953D01*
X41831128Y-20382143D01*
X41925377Y-20273373D01*
X41985165Y-20142457D01*
X42005647Y-20000000D01*
X41985165Y-19857543D01*
X41925377Y-19726627D01*
X41831128Y-19617857D01*
X41831127Y-19617856D01*
X41831125Y-19617854D01*
X41710054Y-19540047D01*
X41571961Y-19499500D01*
X41428039Y-19499500D01*
X41289945Y-19540047D01*
X41168874Y-19617854D01*
X41074622Y-19726628D01*
X41014834Y-19857544D01*
X40994352Y-20000000D01*
X21436051Y-20000000D01*
X21485165Y-19892457D01*
X21505647Y-19750000D01*
X21485165Y-19607543D01*
X21425377Y-19476627D01*
X21331128Y-19367857D01*
X21331127Y-19367856D01*
X21331125Y-19367854D01*
X21210054Y-19290047D01*
X21071961Y-19249500D01*
X20928039Y-19249500D01*
X20789945Y-19290047D01*
X20668874Y-19367854D01*
X20574622Y-19476628D01*
X20514834Y-19607544D01*
X20494352Y-19749999D01*
X500Y-19749999D01*
X500Y-18749999D01*
X18744352Y-18749999D01*
X18764834Y-18892455D01*
X18764835Y-18892457D01*
X18824623Y-19023373D01*
X18908131Y-19119747D01*
X18918874Y-19132145D01*
X18990586Y-19178231D01*
X19039947Y-19209953D01*
X19178039Y-19250500D01*
X19321961Y-19250500D01*
X19460053Y-19209953D01*
X19581128Y-19132143D01*
X19675377Y-19023373D01*
X19686052Y-18999999D01*
X42744352Y-18999999D01*
X42764834Y-19142455D01*
X42764835Y-19142457D01*
X42824623Y-19273373D01*
X42918872Y-19382143D01*
X42918874Y-19382145D01*
X43039945Y-19459952D01*
X43039947Y-19459953D01*
X43178039Y-19500500D01*
X43321961Y-19500500D01*
X43460053Y-19459953D01*
X43581128Y-19382143D01*
X43675377Y-19273373D01*
X43735165Y-19142457D01*
X43738430Y-19119747D01*
X75949500Y-19119747D01*
X75961133Y-19178231D01*
X76005447Y-19244552D01*
X76048578Y-19273371D01*
X76071769Y-19288867D01*
X76130252Y-19300500D01*
X77869747Y-19300500D01*
X77869748Y-19300500D01*
X77928231Y-19288867D01*
X77994552Y-19244552D01*
X78038867Y-19178231D01*
X78050500Y-19119748D01*
X78050500Y-17380252D01*
X78038867Y-17321769D01*
X78017671Y-17290047D01*
X77994552Y-17255447D01*
X77928231Y-17211133D01*
X77869748Y-17199500D01*
X76130252Y-17199500D01*
X76101010Y-17205316D01*
X76071768Y-17211133D01*
X76005447Y-17255447D01*
X75961133Y-17321768D01*
X75949500Y-17380253D01*
X75949500Y-19119747D01*
X43738430Y-19119747D01*
X43755647Y-19000000D01*
X43735165Y-18857543D01*
X43675377Y-18726627D01*
X43581128Y-18617857D01*
X43581127Y-18617856D01*
X43581125Y-18617854D01*
X43460054Y-18540047D01*
X43321961Y-18499500D01*
X43178039Y-18499500D01*
X43039945Y-18540047D01*
X42918874Y-18617854D01*
X42824622Y-18726628D01*
X42764834Y-18857544D01*
X42744352Y-18999999D01*
X19686052Y-18999999D01*
X19735165Y-18892457D01*
X19755647Y-18750000D01*
X19735165Y-18607543D01*
X19675377Y-18476627D01*
X19581128Y-18367857D01*
X19581127Y-18367856D01*
X19581125Y-18367854D01*
X19460054Y-18290047D01*
X19321961Y-18249500D01*
X19178039Y-18249500D01*
X19039945Y-18290047D01*
X18918874Y-18367854D01*
X18824622Y-18476628D01*
X18764834Y-18607544D01*
X18744352Y-18749999D01*
X500Y-18749999D01*
X500Y-17750000D01*
X16994352Y-17750000D01*
X17014834Y-17892455D01*
X17014835Y-17892457D01*
X17074623Y-18023373D01*
X17168872Y-18132143D01*
X17168874Y-18132145D01*
X17289945Y-18209952D01*
X17289947Y-18209953D01*
X17428039Y-18250500D01*
X17571961Y-18250500D01*
X17710053Y-18209953D01*
X17831128Y-18132143D01*
X17925377Y-18023373D01*
X17936052Y-17999999D01*
X44494352Y-17999999D01*
X44514834Y-18142455D01*
X44514835Y-18142457D01*
X44574623Y-18273373D01*
X44668872Y-18382143D01*
X44668874Y-18382145D01*
X44789945Y-18459952D01*
X44789947Y-18459953D01*
X44928039Y-18500500D01*
X45071961Y-18500500D01*
X45210053Y-18459953D01*
X45331128Y-18382143D01*
X45425377Y-18273373D01*
X45485165Y-18142457D01*
X45505647Y-18000000D01*
X45485165Y-17857543D01*
X45425377Y-17726627D01*
X45331128Y-17617857D01*
X45331127Y-17617856D01*
X45331125Y-17617854D01*
X45210054Y-17540047D01*
X45071961Y-17499500D01*
X44928039Y-17499500D01*
X44789945Y-17540047D01*
X44668874Y-17617854D01*
X44574622Y-17726628D01*
X44514834Y-17857544D01*
X44494352Y-17999999D01*
X17936052Y-17999999D01*
X17985165Y-17892457D01*
X18005647Y-17750000D01*
X17985165Y-17607543D01*
X17925377Y-17476627D01*
X17831128Y-17367857D01*
X17831127Y-17367856D01*
X17831125Y-17367854D01*
X17710054Y-17290047D01*
X17571961Y-17249500D01*
X17428039Y-17249500D01*
X17289945Y-17290047D01*
X17168874Y-17367854D01*
X17074622Y-17476628D01*
X17014834Y-17607544D01*
X16994352Y-17750000D01*
X500Y-17750000D01*
X500Y-16999999D01*
X46244352Y-16999999D01*
X46264834Y-17142455D01*
X46264835Y-17142457D01*
X46324623Y-17273373D01*
X46418872Y-17382143D01*
X46418874Y-17382145D01*
X46539945Y-17459952D01*
X46539947Y-17459953D01*
X46678039Y-17500500D01*
X46821961Y-17500500D01*
X46960053Y-17459953D01*
X47081128Y-17382143D01*
X47175377Y-17273373D01*
X47235165Y-17142457D01*
X47255647Y-17000000D01*
X47235165Y-16857543D01*
X47175377Y-16726627D01*
X47081128Y-16617857D01*
X47081127Y-16617856D01*
X47081125Y-16617854D01*
X46960054Y-16540047D01*
X46821961Y-16499500D01*
X46678039Y-16499500D01*
X46539945Y-16540047D01*
X46418874Y-16617854D01*
X46324622Y-16726628D01*
X46264834Y-16857544D01*
X46244352Y-16999999D01*
X500Y-16999999D01*
X500Y-11119747D01*
X72699500Y-11119747D01*
X72711133Y-11178231D01*
X72755447Y-11244552D01*
X72799761Y-11274162D01*
X72821769Y-11288867D01*
X72880252Y-11300500D01*
X74619747Y-11300500D01*
X74619748Y-11300500D01*
X74678231Y-11288867D01*
X74744552Y-11244552D01*
X74788867Y-11178231D01*
X74800500Y-11119748D01*
X74800500Y-10447395D01*
X90395745Y-10447395D01*
X90405746Y-10657332D01*
X90455294Y-10861574D01*
X90542604Y-11052754D01*
X90664510Y-11223948D01*
X90816622Y-11368986D01*
X90993431Y-11482615D01*
X91188539Y-11560724D01*
X91188541Y-11560724D01*
X91188543Y-11560725D01*
X91394915Y-11600500D01*
X91552422Y-11600500D01*
X91552425Y-11600500D01*
X91709218Y-11585528D01*
X91910875Y-11526316D01*
X92097682Y-11430011D01*
X92262886Y-11300092D01*
X92272614Y-11288866D01*
X92328862Y-11223952D01*
X92400519Y-11141256D01*
X92505604Y-10959244D01*
X92574344Y-10760633D01*
X92604254Y-10552602D01*
X92594254Y-10342670D01*
X92569193Y-10239367D01*
X92544705Y-10138425D01*
X92457395Y-9947245D01*
X92335489Y-9776051D01*
X92183377Y-9631013D01*
X92006568Y-9517384D01*
X91811460Y-9439275D01*
X91656677Y-9409443D01*
X91605085Y-9399500D01*
X91447575Y-9399500D01*
X91353499Y-9408483D01*
X91290780Y-9414472D01*
X91089124Y-9473683D01*
X90902317Y-9569989D01*
X90737112Y-9699908D01*
X90599483Y-9858740D01*
X90494395Y-10040758D01*
X90425655Y-10239369D01*
X90395745Y-10447395D01*
X74800500Y-10447395D01*
X74800500Y-9380252D01*
X74788867Y-9321769D01*
X74774162Y-9299762D01*
X74744552Y-9255447D01*
X74678231Y-9211133D01*
X74678230Y-9211132D01*
X74619748Y-9199500D01*
X72880252Y-9199500D01*
X72851010Y-9205316D01*
X72821768Y-9211133D01*
X72755447Y-9255447D01*
X72711133Y-9321768D01*
X72699500Y-9380253D01*
X72699500Y-11119747D01*
X500Y-11119747D01*
X500Y-7290000D01*
X5194416Y-7290000D01*
X5214699Y-7495933D01*
X5259970Y-7645171D01*
X5274768Y-7693954D01*
X5372315Y-7876450D01*
X5503590Y-8036410D01*
X5663550Y-8167685D01*
X5846046Y-8265232D01*
X6044066Y-8325300D01*
X6250000Y-8345583D01*
X6455934Y-8325300D01*
X6653954Y-8265232D01*
X6836450Y-8167685D01*
X6996410Y-8036410D01*
X7127685Y-7876450D01*
X7225232Y-7693954D01*
X7270819Y-7543671D01*
X7297409Y-7500598D01*
X7341815Y-7476299D01*
X7392428Y-7477127D01*
X7436016Y-7502866D01*
X7461183Y-7546787D01*
X7516570Y-7753495D01*
X7616398Y-7967576D01*
X7751887Y-8161074D01*
X7918925Y-8328112D01*
X8112423Y-8463601D01*
X8326504Y-8563429D01*
X8540000Y-8620636D01*
X9040000Y-8620636D01*
X9253495Y-8563429D01*
X9467576Y-8463601D01*
X9661074Y-8328112D01*
X9828112Y-8161074D01*
X9963601Y-7967576D01*
X10063429Y-7753495D01*
X10118816Y-7546787D01*
X10143983Y-7502866D01*
X10187570Y-7477127D01*
X10238184Y-7476299D01*
X10282590Y-7500598D01*
X10309180Y-7543672D01*
X10348553Y-7673467D01*
X10354768Y-7693954D01*
X10452315Y-7876450D01*
X10583590Y-8036410D01*
X10743550Y-8167685D01*
X10926046Y-8265232D01*
X11124066Y-8325300D01*
X11330000Y-8345583D01*
X11535934Y-8325300D01*
X11733954Y-8265232D01*
X11916450Y-8167685D01*
X12076410Y-8036410D01*
X12207685Y-7876450D01*
X12305232Y-7693954D01*
X12350819Y-7543671D01*
X12377409Y-7500598D01*
X12421815Y-7476299D01*
X12472428Y-7477127D01*
X12516016Y-7502866D01*
X12541183Y-7546787D01*
X12596570Y-7753495D01*
X12696398Y-7967576D01*
X12831887Y-8161074D01*
X12998925Y-8328112D01*
X13192423Y-8463601D01*
X13406504Y-8563429D01*
X13620000Y-8620636D01*
X13620000Y-3419364D01*
X14120000Y-3419364D01*
X14120000Y-8620636D01*
X14333495Y-8563429D01*
X14547576Y-8463601D01*
X14741074Y-8328112D01*
X14908112Y-8161074D01*
X15043601Y-7967576D01*
X15143429Y-7753495D01*
X15164873Y-7673467D01*
X15194256Y-7625519D01*
X15245013Y-7601309D01*
X15300767Y-7608649D01*
X15343528Y-7645171D01*
X15359500Y-7699090D01*
X15359500Y-8159747D01*
X15371133Y-8218231D01*
X15415447Y-8284552D01*
X15459761Y-8314162D01*
X15481769Y-8328867D01*
X15540252Y-8340500D01*
X17279747Y-8340500D01*
X17279748Y-8340500D01*
X17338231Y-8328867D01*
X17404552Y-8284552D01*
X17448867Y-8218231D01*
X17460500Y-8159748D01*
X17460500Y-7540000D01*
X23419364Y-7540000D01*
X23476570Y-7753495D01*
X23576398Y-7967576D01*
X23711887Y-8161074D01*
X23878925Y-8328112D01*
X24072423Y-8463601D01*
X24286504Y-8563429D01*
X24500000Y-8620636D01*
X24500000Y-7540001D01*
X24499999Y-7540000D01*
X23419364Y-7540000D01*
X17460500Y-7540000D01*
X17460500Y-6420252D01*
X17448867Y-6361769D01*
X17429392Y-6332623D01*
X17404552Y-6295447D01*
X17338231Y-6251133D01*
X17279748Y-6239500D01*
X15540252Y-6239500D01*
X15511010Y-6245316D01*
X15481768Y-6251133D01*
X15415447Y-6295447D01*
X15371133Y-6361768D01*
X15359500Y-6420253D01*
X15359500Y-6880910D01*
X15343528Y-6934829D01*
X15300767Y-6971351D01*
X15245013Y-6978691D01*
X15194256Y-6954481D01*
X15164873Y-6906533D01*
X15143429Y-6826504D01*
X15043601Y-6612424D01*
X14908112Y-6418925D01*
X14741074Y-6251887D01*
X14547581Y-6116401D01*
X14533263Y-6109725D01*
X14491606Y-6073193D01*
X14476102Y-6020000D01*
X14491606Y-5966807D01*
X14533263Y-5930275D01*
X14547581Y-5923598D01*
X14741074Y-5788112D01*
X14908112Y-5621074D01*
X15043601Y-5427576D01*
X15143429Y-5213495D01*
X15198816Y-5006787D01*
X15223983Y-4962866D01*
X15267570Y-4937127D01*
X15318184Y-4936299D01*
X15362590Y-4960598D01*
X15389180Y-5003672D01*
X15428553Y-5133467D01*
X15434768Y-5153954D01*
X15532315Y-5336450D01*
X15663590Y-5496410D01*
X15823550Y-5627685D01*
X16006046Y-5725232D01*
X16204066Y-5785300D01*
X16409999Y-5805583D01*
X16409999Y-5805582D01*
X16410000Y-5805583D01*
X16615934Y-5785300D01*
X16813954Y-5725232D01*
X16996450Y-5627685D01*
X17156410Y-5496410D01*
X17287685Y-5336450D01*
X17385232Y-5153954D01*
X17431933Y-5000000D01*
X23419364Y-5000000D01*
X23476570Y-5213495D01*
X23576398Y-5427576D01*
X23711887Y-5621074D01*
X23878925Y-5788112D01*
X24072418Y-5923598D01*
X24086737Y-5930275D01*
X24128393Y-5966807D01*
X24143898Y-6019999D01*
X24128394Y-6073192D01*
X24086738Y-6109724D01*
X24072422Y-6116399D01*
X23878925Y-6251887D01*
X23711887Y-6418925D01*
X23576398Y-6612424D01*
X23476570Y-6826505D01*
X23419364Y-7040000D01*
X24499999Y-7040000D01*
X24500000Y-7039999D01*
X24500000Y-5000001D01*
X24499999Y-5000000D01*
X23419364Y-5000000D01*
X17431933Y-5000000D01*
X17445300Y-4955934D01*
X17465583Y-4750000D01*
X17445300Y-4544066D01*
X17431933Y-4500000D01*
X23419364Y-4500000D01*
X24499999Y-4500000D01*
X24500000Y-4499999D01*
X24500000Y-3419364D01*
X25000000Y-3419364D01*
X25000000Y-8620636D01*
X25213495Y-8563429D01*
X25427576Y-8463601D01*
X25621074Y-8328112D01*
X25788112Y-8161074D01*
X25923601Y-7967576D01*
X26023429Y-7753495D01*
X26078816Y-7546787D01*
X26103983Y-7502866D01*
X26147570Y-7477127D01*
X26198184Y-7476299D01*
X26242590Y-7500598D01*
X26269180Y-7543672D01*
X26308553Y-7673467D01*
X26314768Y-7693954D01*
X26412315Y-7876450D01*
X26543590Y-8036410D01*
X26703550Y-8167685D01*
X26886046Y-8265232D01*
X27084066Y-8325300D01*
X27290000Y-8345583D01*
X27495934Y-8325300D01*
X27693954Y-8265232D01*
X27876450Y-8167685D01*
X28036410Y-8036410D01*
X28167685Y-7876450D01*
X28265232Y-7693954D01*
X28325300Y-7495934D01*
X28345583Y-7290000D01*
X28774416Y-7290000D01*
X28794699Y-7495933D01*
X28839970Y-7645171D01*
X28854768Y-7693954D01*
X28952315Y-7876450D01*
X29083590Y-8036410D01*
X29243550Y-8167685D01*
X29426046Y-8265232D01*
X29624066Y-8325300D01*
X29830000Y-8345583D01*
X30035934Y-8325300D01*
X30233954Y-8265232D01*
X30416450Y-8167685D01*
X30576410Y-8036410D01*
X30707685Y-7876450D01*
X30805232Y-7693954D01*
X30850819Y-7543671D01*
X30877409Y-7500598D01*
X30921815Y-7476299D01*
X30972428Y-7477127D01*
X31016016Y-7502866D01*
X31041183Y-7546787D01*
X31096570Y-7753495D01*
X31196398Y-7967576D01*
X31331887Y-8161074D01*
X31498925Y-8328112D01*
X31692423Y-8463601D01*
X31906504Y-8563429D01*
X32120000Y-8620636D01*
X32120000Y-3419364D01*
X32620000Y-3419364D01*
X32620000Y-8620636D01*
X32833495Y-8563429D01*
X33047576Y-8463601D01*
X33241074Y-8328112D01*
X33408112Y-8161074D01*
X33543601Y-7967576D01*
X33643429Y-7753495D01*
X33698816Y-7546787D01*
X33723983Y-7502866D01*
X33767570Y-7477127D01*
X33818184Y-7476299D01*
X33862590Y-7500598D01*
X33889180Y-7543672D01*
X33928553Y-7673467D01*
X33934768Y-7693954D01*
X34032315Y-7876450D01*
X34163590Y-8036410D01*
X34323550Y-8167685D01*
X34506046Y-8265232D01*
X34704066Y-8325300D01*
X34910000Y-8345583D01*
X35115934Y-8325300D01*
X35313954Y-8265232D01*
X35496450Y-8167685D01*
X35656410Y-8036410D01*
X35787685Y-7876450D01*
X35885232Y-7693954D01*
X35945300Y-7495934D01*
X35965583Y-7290000D01*
X36394416Y-7290000D01*
X36414699Y-7495933D01*
X36459970Y-7645171D01*
X36474768Y-7693954D01*
X36572315Y-7876450D01*
X36703590Y-8036410D01*
X36863550Y-8167685D01*
X37046046Y-8265232D01*
X37244066Y-8325300D01*
X37450000Y-8345583D01*
X37655934Y-8325300D01*
X37853954Y-8265232D01*
X38036450Y-8167685D01*
X38196410Y-8036410D01*
X38327685Y-7876450D01*
X38425232Y-7693954D01*
X38470819Y-7543671D01*
X38497409Y-7500598D01*
X38541815Y-7476299D01*
X38592428Y-7477127D01*
X38636016Y-7502866D01*
X38661183Y-7546787D01*
X38716570Y-7753495D01*
X38816398Y-7967576D01*
X38951887Y-8161074D01*
X39118925Y-8328112D01*
X39312423Y-8463601D01*
X39526504Y-8563429D01*
X39740000Y-8620636D01*
X39740000Y-3419364D01*
X40240000Y-3419364D01*
X40240000Y-8620636D01*
X40453495Y-8563429D01*
X40667576Y-8463601D01*
X40861074Y-8328112D01*
X41028112Y-8161074D01*
X41163601Y-7967576D01*
X41263429Y-7753495D01*
X41318816Y-7546787D01*
X41343983Y-7502866D01*
X41387570Y-7477127D01*
X41438184Y-7476299D01*
X41482590Y-7500598D01*
X41509180Y-7543672D01*
X41548553Y-7673467D01*
X41554768Y-7693954D01*
X41652315Y-7876450D01*
X41783590Y-8036410D01*
X41943550Y-8167685D01*
X42126046Y-8265232D01*
X42324066Y-8325300D01*
X42530000Y-8345583D01*
X42735934Y-8325300D01*
X42933954Y-8265232D01*
X43116450Y-8167685D01*
X43276410Y-8036410D01*
X43407685Y-7876450D01*
X43505232Y-7693954D01*
X43565300Y-7495934D01*
X43585583Y-7290000D01*
X44014416Y-7290000D01*
X44034699Y-7495933D01*
X44079970Y-7645171D01*
X44094768Y-7693954D01*
X44192315Y-7876450D01*
X44323590Y-8036410D01*
X44483550Y-8167685D01*
X44666046Y-8265232D01*
X44864066Y-8325300D01*
X45070000Y-8345583D01*
X45275934Y-8325300D01*
X45473954Y-8265232D01*
X45656450Y-8167685D01*
X45816410Y-8036410D01*
X45947685Y-7876450D01*
X46045232Y-7693954D01*
X46060030Y-7645171D01*
X46066263Y-7624625D01*
X46096704Y-7578083D01*
X46147436Y-7555297D01*
X46202447Y-7563457D01*
X46244379Y-7599988D01*
X46260000Y-7653363D01*
X46260000Y-8187826D01*
X46266401Y-8247376D01*
X46316646Y-8382089D01*
X46402811Y-8497188D01*
X46517910Y-8583353D01*
X46652623Y-8633598D01*
X46712174Y-8640000D01*
X47359999Y-8640000D01*
X47360000Y-8639999D01*
X47860000Y-8639999D01*
X47860001Y-8640000D01*
X48507826Y-8640000D01*
X48567376Y-8633598D01*
X48702089Y-8583353D01*
X48817188Y-8497188D01*
X48903353Y-8382089D01*
X48953598Y-8247376D01*
X48960000Y-8187826D01*
X48960000Y-7540001D01*
X48959999Y-7540000D01*
X47860001Y-7540000D01*
X47860000Y-7540001D01*
X47860000Y-8639999D01*
X47360000Y-8639999D01*
X47360000Y-7039999D01*
X47860000Y-7039999D01*
X47860001Y-7040000D01*
X48959999Y-7040000D01*
X48960000Y-7039999D01*
X48960000Y-6392174D01*
X48953598Y-6332623D01*
X48903353Y-6197910D01*
X48817188Y-6082811D01*
X48702089Y-5996646D01*
X48567376Y-5946401D01*
X48552266Y-5944777D01*
X48501420Y-5923980D01*
X48469489Y-5879279D01*
X48466304Y-5824437D01*
X48492847Y-5776340D01*
X48648110Y-5621077D01*
X48783601Y-5427576D01*
X48883429Y-5213495D01*
X48940636Y-5000000D01*
X54669364Y-5000000D01*
X54726570Y-5213495D01*
X54826398Y-5427576D01*
X54961887Y-5621074D01*
X55128925Y-5788112D01*
X55322423Y-5923601D01*
X55536504Y-6023429D01*
X55750000Y-6080636D01*
X55750000Y-5000001D01*
X55749999Y-5000000D01*
X54669364Y-5000000D01*
X48940636Y-5000000D01*
X47860001Y-5000000D01*
X47860000Y-5000001D01*
X47860000Y-7039999D01*
X47360000Y-7039999D01*
X47360000Y-3419364D01*
X47860000Y-3419364D01*
X47860000Y-4499999D01*
X47860001Y-4500000D01*
X48940636Y-4500000D01*
X54669364Y-4500000D01*
X55749999Y-4500000D01*
X55750000Y-4499999D01*
X55750000Y-3419364D01*
X56250000Y-3419364D01*
X56250000Y-6080636D01*
X56463495Y-6023429D01*
X56677576Y-5923601D01*
X56871074Y-5788112D01*
X57038112Y-5621074D01*
X57173601Y-5427576D01*
X57273429Y-5213495D01*
X57294873Y-5133467D01*
X57324256Y-5085519D01*
X57375013Y-5061309D01*
X57430767Y-5068649D01*
X57473528Y-5105171D01*
X57489500Y-5159090D01*
X57489500Y-5619748D01*
X57491079Y-5627684D01*
X57501133Y-5678231D01*
X57545447Y-5744552D01*
X57589761Y-5774162D01*
X57611769Y-5788867D01*
X57670252Y-5800500D01*
X59409747Y-5800500D01*
X59409748Y-5800500D01*
X59468231Y-5788867D01*
X59534552Y-5744552D01*
X59578867Y-5678231D01*
X59590500Y-5619748D01*
X59590500Y-3880252D01*
X59578867Y-3821769D01*
X59564162Y-3799762D01*
X59534552Y-3755447D01*
X59468231Y-3711133D01*
X59468230Y-3711132D01*
X59409748Y-3699500D01*
X57670252Y-3699500D01*
X57641010Y-3705316D01*
X57611768Y-3711133D01*
X57545447Y-3755447D01*
X57501133Y-3821768D01*
X57489500Y-3880253D01*
X57489500Y-4340910D01*
X57473528Y-4394829D01*
X57430767Y-4431351D01*
X57375013Y-4438691D01*
X57324256Y-4414481D01*
X57294873Y-4366533D01*
X57273429Y-4286504D01*
X57173601Y-4072424D01*
X57038112Y-3878925D01*
X56871074Y-3711887D01*
X56677576Y-3576398D01*
X56463495Y-3476570D01*
X56354613Y-3447395D01*
X90395745Y-3447395D01*
X90405746Y-3657332D01*
X90455294Y-3861574D01*
X90542604Y-4052754D01*
X90664510Y-4223948D01*
X90816622Y-4368986D01*
X90993431Y-4482615D01*
X91188539Y-4560724D01*
X91188541Y-4560724D01*
X91188543Y-4560725D01*
X91394915Y-4600500D01*
X91552422Y-4600500D01*
X91552425Y-4600500D01*
X91709218Y-4585528D01*
X91910875Y-4526316D01*
X92097682Y-4430011D01*
X92262886Y-4300092D01*
X92400519Y-4141256D01*
X92505604Y-3959244D01*
X92574344Y-3760633D01*
X92604254Y-3552602D01*
X92594254Y-3342670D01*
X92569193Y-3239367D01*
X92544705Y-3138425D01*
X92457395Y-2947245D01*
X92335489Y-2776051D01*
X92183377Y-2631013D01*
X92006568Y-2517384D01*
X91811460Y-2439275D01*
X91656678Y-2409443D01*
X91605085Y-2399500D01*
X91447575Y-2399500D01*
X91353499Y-2408483D01*
X91290780Y-2414472D01*
X91089124Y-2473683D01*
X90902317Y-2569989D01*
X90737112Y-2699908D01*
X90599483Y-2858740D01*
X90494395Y-3040758D01*
X90425655Y-3239369D01*
X90395745Y-3447395D01*
X56354613Y-3447395D01*
X56250000Y-3419364D01*
X55750000Y-3419364D01*
X55536505Y-3476570D01*
X55322424Y-3576398D01*
X55128925Y-3711887D01*
X54961887Y-3878925D01*
X54826398Y-4072424D01*
X54726570Y-4286505D01*
X54669364Y-4500000D01*
X48940636Y-4500000D01*
X48883429Y-4286505D01*
X48783601Y-4072424D01*
X48648112Y-3878925D01*
X48481074Y-3711887D01*
X48287576Y-3576398D01*
X48073495Y-3476570D01*
X47860000Y-3419364D01*
X47360000Y-3419364D01*
X47146505Y-3476570D01*
X46932424Y-3576398D01*
X46738925Y-3711887D01*
X46571887Y-3878925D01*
X46436398Y-4072424D01*
X46336570Y-4286505D01*
X46281183Y-4493212D01*
X46256016Y-4537133D01*
X46212428Y-4562872D01*
X46161815Y-4563700D01*
X46117409Y-4539401D01*
X46090819Y-4496327D01*
X46060030Y-4394829D01*
X46045232Y-4346046D01*
X45947685Y-4163550D01*
X45816410Y-4003590D01*
X45656450Y-3872315D01*
X45473954Y-3774768D01*
X45473953Y-3774767D01*
X45473952Y-3774767D01*
X45275933Y-3714699D01*
X45070000Y-3694416D01*
X44864066Y-3714699D01*
X44666047Y-3774767D01*
X44483549Y-3872315D01*
X44323590Y-4003590D01*
X44192315Y-4163549D01*
X44094767Y-4346047D01*
X44034699Y-4544066D01*
X44014416Y-4749999D01*
X44034699Y-4955933D01*
X44079970Y-5105171D01*
X44094768Y-5153954D01*
X44192315Y-5336450D01*
X44323590Y-5496410D01*
X44483550Y-5627685D01*
X44666046Y-5725232D01*
X44864066Y-5785300D01*
X45069999Y-5805583D01*
X45069999Y-5805582D01*
X45070000Y-5805583D01*
X45275934Y-5785300D01*
X45473954Y-5725232D01*
X45656450Y-5627685D01*
X45816410Y-5496410D01*
X45947685Y-5336450D01*
X46045232Y-5153954D01*
X46090819Y-5003671D01*
X46117409Y-4960598D01*
X46161815Y-4936299D01*
X46212428Y-4937127D01*
X46256016Y-4962866D01*
X46281183Y-5006787D01*
X46336570Y-5213495D01*
X46436398Y-5427576D01*
X46571887Y-5621074D01*
X46727153Y-5776340D01*
X46753695Y-5824437D01*
X46750510Y-5879279D01*
X46718579Y-5923980D01*
X46667734Y-5944777D01*
X46652623Y-5946401D01*
X46517910Y-5996646D01*
X46402811Y-6082811D01*
X46316646Y-6197910D01*
X46266401Y-6332623D01*
X46260000Y-6392174D01*
X46260000Y-6926637D01*
X46244379Y-6980012D01*
X46202447Y-7016543D01*
X46147436Y-7024703D01*
X46096704Y-7001917D01*
X46066263Y-6955375D01*
X46045232Y-6886047D01*
X46045232Y-6886046D01*
X45947685Y-6703550D01*
X45816410Y-6543590D01*
X45656450Y-6412315D01*
X45473954Y-6314768D01*
X45473953Y-6314767D01*
X45473952Y-6314767D01*
X45275933Y-6254699D01*
X45070000Y-6234416D01*
X44864066Y-6254699D01*
X44666047Y-6314767D01*
X44483549Y-6412315D01*
X44323590Y-6543590D01*
X44192315Y-6703549D01*
X44094767Y-6886047D01*
X44034699Y-7084066D01*
X44014416Y-7290000D01*
X43585583Y-7290000D01*
X43565300Y-7084066D01*
X43505232Y-6886046D01*
X43407685Y-6703550D01*
X43276410Y-6543590D01*
X43116450Y-6412315D01*
X42933954Y-6314768D01*
X42933953Y-6314767D01*
X42933952Y-6314767D01*
X42735933Y-6254699D01*
X42530000Y-6234416D01*
X42324066Y-6254699D01*
X42126047Y-6314767D01*
X41943549Y-6412315D01*
X41783590Y-6543590D01*
X41652315Y-6703549D01*
X41554766Y-6886047D01*
X41509180Y-7036327D01*
X41482590Y-7079401D01*
X41438183Y-7103700D01*
X41387570Y-7102872D01*
X41343983Y-7077133D01*
X41318816Y-7033212D01*
X41263429Y-6826504D01*
X41163601Y-6612424D01*
X41028112Y-6418925D01*
X40861074Y-6251887D01*
X40667581Y-6116401D01*
X40653263Y-6109725D01*
X40611606Y-6073193D01*
X40596102Y-6020000D01*
X40611606Y-5966807D01*
X40653263Y-5930275D01*
X40667581Y-5923598D01*
X40861074Y-5788112D01*
X41028112Y-5621074D01*
X41163601Y-5427576D01*
X41263429Y-5213495D01*
X41318816Y-5006787D01*
X41343983Y-4962866D01*
X41387570Y-4937127D01*
X41438184Y-4936299D01*
X41482590Y-4960598D01*
X41509180Y-5003672D01*
X41548553Y-5133467D01*
X41554768Y-5153954D01*
X41652315Y-5336450D01*
X41783590Y-5496410D01*
X41943550Y-5627685D01*
X42126046Y-5725232D01*
X42324066Y-5785300D01*
X42529999Y-5805583D01*
X42529999Y-5805582D01*
X42530000Y-5805583D01*
X42735934Y-5785300D01*
X42933954Y-5725232D01*
X43116450Y-5627685D01*
X43276410Y-5496410D01*
X43407685Y-5336450D01*
X43505232Y-5153954D01*
X43565300Y-4955934D01*
X43585583Y-4750000D01*
X43565300Y-4544066D01*
X43505232Y-4346046D01*
X43407685Y-4163550D01*
X43276410Y-4003590D01*
X43116450Y-3872315D01*
X42933954Y-3774768D01*
X42933953Y-3774767D01*
X42933952Y-3774767D01*
X42735933Y-3714699D01*
X42530000Y-3694416D01*
X42324066Y-3714699D01*
X42126047Y-3774767D01*
X41943549Y-3872315D01*
X41783590Y-4003590D01*
X41652315Y-4163549D01*
X41554766Y-4346047D01*
X41509180Y-4496327D01*
X41482590Y-4539401D01*
X41438183Y-4563700D01*
X41387570Y-4562872D01*
X41343983Y-4537133D01*
X41318816Y-4493212D01*
X41263429Y-4286504D01*
X41163601Y-4072424D01*
X41028112Y-3878925D01*
X40861074Y-3711887D01*
X40667576Y-3576398D01*
X40453495Y-3476570D01*
X40240000Y-3419364D01*
X39740000Y-3419364D01*
X39526505Y-3476570D01*
X39312424Y-3576398D01*
X39118925Y-3711887D01*
X38951887Y-3878925D01*
X38816398Y-4072424D01*
X38716570Y-4286505D01*
X38661183Y-4493212D01*
X38636016Y-4537133D01*
X38592428Y-4562872D01*
X38541815Y-4563700D01*
X38497409Y-4539401D01*
X38470819Y-4496327D01*
X38440030Y-4394829D01*
X38425232Y-4346046D01*
X38327685Y-4163550D01*
X38196410Y-4003590D01*
X38036450Y-3872315D01*
X37853954Y-3774768D01*
X37853953Y-3774767D01*
X37853952Y-3774767D01*
X37655933Y-3714699D01*
X37450000Y-3694416D01*
X37244066Y-3714699D01*
X37046047Y-3774767D01*
X36863549Y-3872315D01*
X36703590Y-4003590D01*
X36572315Y-4163549D01*
X36474767Y-4346047D01*
X36414699Y-4544066D01*
X36394416Y-4749999D01*
X36414699Y-4955933D01*
X36459970Y-5105171D01*
X36474768Y-5153954D01*
X36572315Y-5336450D01*
X36703590Y-5496410D01*
X36863550Y-5627685D01*
X37046046Y-5725232D01*
X37244066Y-5785300D01*
X37449999Y-5805583D01*
X37449999Y-5805582D01*
X37450000Y-5805583D01*
X37655934Y-5785300D01*
X37853954Y-5725232D01*
X38036450Y-5627685D01*
X38196410Y-5496410D01*
X38327685Y-5336450D01*
X38425232Y-5153954D01*
X38470819Y-5003671D01*
X38497409Y-4960598D01*
X38541815Y-4936299D01*
X38592428Y-4937127D01*
X38636016Y-4962866D01*
X38661183Y-5006787D01*
X38716570Y-5213495D01*
X38816398Y-5427576D01*
X38951887Y-5621074D01*
X39118925Y-5788112D01*
X39312418Y-5923598D01*
X39326737Y-5930275D01*
X39368393Y-5966807D01*
X39383898Y-6019999D01*
X39368394Y-6073192D01*
X39326738Y-6109724D01*
X39312422Y-6116399D01*
X39118925Y-6251887D01*
X38951887Y-6418925D01*
X38816398Y-6612424D01*
X38716570Y-6826505D01*
X38661183Y-7033212D01*
X38636016Y-7077133D01*
X38592428Y-7102872D01*
X38541815Y-7103700D01*
X38497409Y-7079401D01*
X38470819Y-7036327D01*
X38437545Y-6926637D01*
X38425232Y-6886046D01*
X38327685Y-6703550D01*
X38196410Y-6543590D01*
X38036450Y-6412315D01*
X37853954Y-6314768D01*
X37853953Y-6314767D01*
X37853952Y-6314767D01*
X37655933Y-6254699D01*
X37450000Y-6234416D01*
X37244066Y-6254699D01*
X37046047Y-6314767D01*
X36863549Y-6412315D01*
X36703590Y-6543590D01*
X36572315Y-6703549D01*
X36474767Y-6886047D01*
X36414699Y-7084066D01*
X36394416Y-7290000D01*
X35965583Y-7290000D01*
X35945300Y-7084066D01*
X35885232Y-6886046D01*
X35787685Y-6703550D01*
X35656410Y-6543590D01*
X35496450Y-6412315D01*
X35313954Y-6314768D01*
X35313953Y-6314767D01*
X35313952Y-6314767D01*
X35115933Y-6254699D01*
X34910000Y-6234416D01*
X34704066Y-6254699D01*
X34506047Y-6314767D01*
X34323549Y-6412315D01*
X34163590Y-6543590D01*
X34032315Y-6703549D01*
X33934766Y-6886047D01*
X33889180Y-7036327D01*
X33862590Y-7079401D01*
X33818183Y-7103700D01*
X33767570Y-7102872D01*
X33723983Y-7077133D01*
X33698816Y-7033212D01*
X33643429Y-6826504D01*
X33543601Y-6612424D01*
X33408112Y-6418925D01*
X33241074Y-6251887D01*
X33047581Y-6116401D01*
X33033263Y-6109725D01*
X32991606Y-6073193D01*
X32976102Y-6020000D01*
X32991606Y-5966807D01*
X33033263Y-5930275D01*
X33047581Y-5923598D01*
X33241074Y-5788112D01*
X33408112Y-5621074D01*
X33543601Y-5427576D01*
X33643429Y-5213495D01*
X33698816Y-5006787D01*
X33723983Y-4962866D01*
X33767570Y-4937127D01*
X33818184Y-4936299D01*
X33862590Y-4960598D01*
X33889180Y-5003672D01*
X33928553Y-5133467D01*
X33934768Y-5153954D01*
X34032315Y-5336450D01*
X34163590Y-5496410D01*
X34323550Y-5627685D01*
X34506046Y-5725232D01*
X34704066Y-5785300D01*
X34909999Y-5805583D01*
X34909999Y-5805582D01*
X34910000Y-5805583D01*
X35115934Y-5785300D01*
X35313954Y-5725232D01*
X35496450Y-5627685D01*
X35656410Y-5496410D01*
X35787685Y-5336450D01*
X35885232Y-5153954D01*
X35945300Y-4955934D01*
X35965583Y-4750000D01*
X35945300Y-4544066D01*
X35885232Y-4346046D01*
X35787685Y-4163550D01*
X35656410Y-4003590D01*
X35496450Y-3872315D01*
X35313954Y-3774768D01*
X35313953Y-3774767D01*
X35313952Y-3774767D01*
X35115933Y-3714699D01*
X34910000Y-3694416D01*
X34704066Y-3714699D01*
X34506047Y-3774767D01*
X34323549Y-3872315D01*
X34163590Y-4003590D01*
X34032315Y-4163549D01*
X33934766Y-4346047D01*
X33889180Y-4496327D01*
X33862590Y-4539401D01*
X33818183Y-4563700D01*
X33767570Y-4562872D01*
X33723983Y-4537133D01*
X33698816Y-4493212D01*
X33643429Y-4286504D01*
X33543601Y-4072424D01*
X33408112Y-3878925D01*
X33241074Y-3711887D01*
X33047576Y-3576398D01*
X32833495Y-3476570D01*
X32620000Y-3419364D01*
X32120000Y-3419364D01*
X31906505Y-3476570D01*
X31692424Y-3576398D01*
X31498925Y-3711887D01*
X31331887Y-3878925D01*
X31196398Y-4072424D01*
X31096570Y-4286505D01*
X31041183Y-4493212D01*
X31016016Y-4537133D01*
X30972428Y-4562872D01*
X30921815Y-4563700D01*
X30877409Y-4539401D01*
X30850819Y-4496327D01*
X30820030Y-4394829D01*
X30805232Y-4346046D01*
X30707685Y-4163550D01*
X30576410Y-4003590D01*
X30416450Y-3872315D01*
X30233954Y-3774768D01*
X30233953Y-3774767D01*
X30233952Y-3774767D01*
X30035933Y-3714699D01*
X29830000Y-3694416D01*
X29624066Y-3714699D01*
X29426047Y-3774767D01*
X29243549Y-3872315D01*
X29083590Y-4003590D01*
X28952315Y-4163549D01*
X28854767Y-4346047D01*
X28794699Y-4544066D01*
X28774416Y-4749999D01*
X28794699Y-4955933D01*
X28839970Y-5105171D01*
X28854768Y-5153954D01*
X28952315Y-5336450D01*
X29083590Y-5496410D01*
X29243550Y-5627685D01*
X29426046Y-5725232D01*
X29624066Y-5785300D01*
X29829999Y-5805583D01*
X29829999Y-5805582D01*
X29830000Y-5805583D01*
X30035934Y-5785300D01*
X30233954Y-5725232D01*
X30416450Y-5627685D01*
X30576410Y-5496410D01*
X30707685Y-5336450D01*
X30805232Y-5153954D01*
X30850819Y-5003671D01*
X30877409Y-4960598D01*
X30921815Y-4936299D01*
X30972428Y-4937127D01*
X31016016Y-4962866D01*
X31041183Y-5006787D01*
X31096570Y-5213495D01*
X31196398Y-5427576D01*
X31331887Y-5621074D01*
X31498925Y-5788112D01*
X31692418Y-5923598D01*
X31706737Y-5930275D01*
X31748393Y-5966807D01*
X31763898Y-6019999D01*
X31748394Y-6073192D01*
X31706738Y-6109724D01*
X31692422Y-6116399D01*
X31498925Y-6251887D01*
X31331887Y-6418925D01*
X31196398Y-6612424D01*
X31096570Y-6826505D01*
X31041183Y-7033212D01*
X31016016Y-7077133D01*
X30972428Y-7102872D01*
X30921815Y-7103700D01*
X30877409Y-7079401D01*
X30850819Y-7036327D01*
X30817545Y-6926637D01*
X30805232Y-6886046D01*
X30707685Y-6703550D01*
X30576410Y-6543590D01*
X30416450Y-6412315D01*
X30233954Y-6314768D01*
X30233953Y-6314767D01*
X30233952Y-6314767D01*
X30035933Y-6254699D01*
X29830000Y-6234416D01*
X29624066Y-6254699D01*
X29426047Y-6314767D01*
X29243549Y-6412315D01*
X29083590Y-6543590D01*
X28952315Y-6703549D01*
X28854767Y-6886047D01*
X28794699Y-7084066D01*
X28774416Y-7290000D01*
X28345583Y-7290000D01*
X28325300Y-7084066D01*
X28265232Y-6886046D01*
X28167685Y-6703550D01*
X28036410Y-6543590D01*
X27876450Y-6412315D01*
X27693954Y-6314768D01*
X27693953Y-6314767D01*
X27693952Y-6314767D01*
X27495933Y-6254699D01*
X27290000Y-6234416D01*
X27084066Y-6254699D01*
X26886047Y-6314767D01*
X26703549Y-6412315D01*
X26543590Y-6543590D01*
X26412315Y-6703549D01*
X26314766Y-6886047D01*
X26269180Y-7036327D01*
X26242590Y-7079401D01*
X26198183Y-7103700D01*
X26147570Y-7102872D01*
X26103983Y-7077133D01*
X26078816Y-7033212D01*
X26023429Y-6826504D01*
X25923601Y-6612424D01*
X25788112Y-6418925D01*
X25621074Y-6251887D01*
X25427581Y-6116401D01*
X25413263Y-6109725D01*
X25371606Y-6073193D01*
X25356102Y-6020000D01*
X25371606Y-5966807D01*
X25413263Y-5930275D01*
X25427581Y-5923598D01*
X25621074Y-5788112D01*
X25788112Y-5621074D01*
X25923601Y-5427576D01*
X26023429Y-5213495D01*
X26078816Y-5006787D01*
X26103983Y-4962866D01*
X26147570Y-4937127D01*
X26198184Y-4936299D01*
X26242590Y-4960598D01*
X26269180Y-5003672D01*
X26308553Y-5133467D01*
X26314768Y-5153954D01*
X26412315Y-5336450D01*
X26543590Y-5496410D01*
X26703550Y-5627685D01*
X26886046Y-5725232D01*
X27084066Y-5785300D01*
X27289999Y-5805583D01*
X27289999Y-5805582D01*
X27290000Y-5805583D01*
X27495934Y-5785300D01*
X27693954Y-5725232D01*
X27876450Y-5627685D01*
X28036410Y-5496410D01*
X28167685Y-5336450D01*
X28265232Y-5153954D01*
X28325300Y-4955934D01*
X28345583Y-4750000D01*
X28325300Y-4544066D01*
X28265232Y-4346046D01*
X28167685Y-4163550D01*
X28036410Y-4003590D01*
X27876450Y-3872315D01*
X27693954Y-3774768D01*
X27693953Y-3774767D01*
X27693952Y-3774767D01*
X27495933Y-3714699D01*
X27290000Y-3694416D01*
X27084066Y-3714699D01*
X26886047Y-3774767D01*
X26703549Y-3872315D01*
X26543590Y-4003590D01*
X26412315Y-4163549D01*
X26314766Y-4346047D01*
X26269180Y-4496327D01*
X26242590Y-4539401D01*
X26198183Y-4563700D01*
X26147570Y-4562872D01*
X26103983Y-4537133D01*
X26078816Y-4493212D01*
X26023429Y-4286504D01*
X25923601Y-4072424D01*
X25788112Y-3878925D01*
X25621074Y-3711887D01*
X25427576Y-3576398D01*
X25213495Y-3476570D01*
X25000000Y-3419364D01*
X24500000Y-3419364D01*
X24286505Y-3476570D01*
X24072424Y-3576398D01*
X23878925Y-3711887D01*
X23711887Y-3878925D01*
X23576398Y-4072424D01*
X23476570Y-4286505D01*
X23419364Y-4500000D01*
X17431933Y-4500000D01*
X17385232Y-4346046D01*
X17287685Y-4163550D01*
X17156410Y-4003590D01*
X16996450Y-3872315D01*
X16813954Y-3774768D01*
X16813953Y-3774767D01*
X16813952Y-3774767D01*
X16615933Y-3714699D01*
X16410000Y-3694416D01*
X16204066Y-3714699D01*
X16006047Y-3774767D01*
X15823549Y-3872315D01*
X15663590Y-4003590D01*
X15532315Y-4163549D01*
X15434766Y-4346047D01*
X15389180Y-4496327D01*
X15362590Y-4539401D01*
X15318183Y-4563700D01*
X15267570Y-4562872D01*
X15223983Y-4537133D01*
X15198816Y-4493212D01*
X15143429Y-4286504D01*
X15043601Y-4072424D01*
X14908112Y-3878925D01*
X14741074Y-3711887D01*
X14547576Y-3576398D01*
X14333495Y-3476570D01*
X14120000Y-3419364D01*
X13620000Y-3419364D01*
X13406505Y-3476570D01*
X13192424Y-3576398D01*
X12998925Y-3711887D01*
X12831887Y-3878925D01*
X12696398Y-4072424D01*
X12596570Y-4286505D01*
X12541183Y-4493212D01*
X12516016Y-4537133D01*
X12472428Y-4562872D01*
X12421815Y-4563700D01*
X12377409Y-4539401D01*
X12350819Y-4496327D01*
X12320030Y-4394829D01*
X12305232Y-4346046D01*
X12207685Y-4163550D01*
X12076410Y-4003590D01*
X11916450Y-3872315D01*
X11733954Y-3774768D01*
X11733953Y-3774767D01*
X11733952Y-3774767D01*
X11535933Y-3714699D01*
X11330000Y-3694416D01*
X11124066Y-3714699D01*
X10926047Y-3774767D01*
X10743549Y-3872315D01*
X10583590Y-4003590D01*
X10452315Y-4163549D01*
X10354766Y-4346047D01*
X10309180Y-4496327D01*
X10282590Y-4539401D01*
X10238183Y-4563700D01*
X10187570Y-4562872D01*
X10143983Y-4537133D01*
X10118816Y-4493212D01*
X10063429Y-4286504D01*
X9963601Y-4072424D01*
X9828112Y-3878925D01*
X9661074Y-3711887D01*
X9467576Y-3576398D01*
X9253495Y-3476570D01*
X9040000Y-3419364D01*
X9040000Y-8620636D01*
X8540000Y-8620636D01*
X8540000Y-3419364D01*
X8326505Y-3476570D01*
X8112424Y-3576398D01*
X7918925Y-3711887D01*
X7751887Y-3878925D01*
X7616398Y-4072424D01*
X7516570Y-4286505D01*
X7461183Y-4493212D01*
X7436016Y-4537133D01*
X7392428Y-4562872D01*
X7341815Y-4563700D01*
X7297409Y-4539401D01*
X7270819Y-4496327D01*
X7240030Y-4394829D01*
X7225232Y-4346046D01*
X7127685Y-4163550D01*
X6996410Y-4003590D01*
X6836450Y-3872315D01*
X6653954Y-3774768D01*
X6653953Y-3774767D01*
X6653952Y-3774767D01*
X6455933Y-3714699D01*
X6250000Y-3694416D01*
X6044066Y-3714699D01*
X5846047Y-3774767D01*
X5663549Y-3872315D01*
X5503590Y-4003590D01*
X5372315Y-4163549D01*
X5274767Y-4346047D01*
X5214699Y-4544066D01*
X5194416Y-4750000D01*
X5214699Y-4955933D01*
X5259970Y-5105171D01*
X5274768Y-5153954D01*
X5372315Y-5336450D01*
X5503590Y-5496410D01*
X5663550Y-5627685D01*
X5846046Y-5725232D01*
X6044066Y-5785300D01*
X6249999Y-5805583D01*
X6249999Y-5805582D01*
X6250000Y-5805583D01*
X6455934Y-5785300D01*
X6653954Y-5725232D01*
X6836450Y-5627685D01*
X6996410Y-5496410D01*
X7127685Y-5336450D01*
X7225232Y-5153954D01*
X7270819Y-5003671D01*
X7297409Y-4960598D01*
X7341815Y-4936299D01*
X7392428Y-4937127D01*
X7436016Y-4962866D01*
X7461183Y-5006787D01*
X7516570Y-5213495D01*
X7616398Y-5427576D01*
X7751887Y-5621074D01*
X7918925Y-5788112D01*
X8112418Y-5923598D01*
X8126737Y-5930275D01*
X8168393Y-5966807D01*
X8183898Y-6019999D01*
X8168394Y-6073192D01*
X8126738Y-6109724D01*
X8112422Y-6116399D01*
X7918925Y-6251887D01*
X7751887Y-6418925D01*
X7616398Y-6612424D01*
X7516570Y-6826505D01*
X7461183Y-7033212D01*
X7436016Y-7077133D01*
X7392428Y-7102872D01*
X7341815Y-7103700D01*
X7297409Y-7079401D01*
X7270819Y-7036327D01*
X7237545Y-6926637D01*
X7225232Y-6886046D01*
X7127685Y-6703550D01*
X6996410Y-6543590D01*
X6836450Y-6412315D01*
X6653954Y-6314768D01*
X6653953Y-6314767D01*
X6653952Y-6314767D01*
X6455933Y-6254699D01*
X6250000Y-6234416D01*
X6044066Y-6254699D01*
X5846047Y-6314767D01*
X5663549Y-6412315D01*
X5503590Y-6543590D01*
X5372315Y-6703549D01*
X5274767Y-6886047D01*
X5214699Y-7084066D01*
X5194416Y-7290000D01*
X500Y-7290000D01*
X500Y-99500D01*
X13763Y-50000D01*
X50000Y-13763D01*
X99500Y-500D01*
X99900500Y-500D01*
X99950000Y-13763D01*
G37*
%TD.AperFunction*%
%TD*%
M02*
