%TF.GenerationSoftware,KiCad,Pcbnew,7.0.0*%
%TF.CreationDate,2023-03-13T15:22:28-06:00*%
%TF.ProjectId,Panoptes,50616e6f-7074-4657-932e-6b696361645f,rev?*%
%TF.SameCoordinates,PX284af10PY30291a0*%
%TF.FileFunction,Soldermask,Bot*%
%TF.FilePolarity,Negative*%
%FSLAX46Y46*%
G04 Gerber Fmt 4.6, Leading zero omitted, Abs format (unit mm)*
G04 Created by KiCad (PCBNEW 7.0.0) date 2023-03-13 15:22:28*
%MOMM*%
%LPD*%
G01*
G04 APERTURE LIST*
%ADD10C,1.000000*%
%ADD11R,1.700000X1.700000*%
%ADD12O,1.700000X1.700000*%
%ADD13R,5.000000X5.000000*%
%ADD14C,0.900000*%
%ADD15C,8.000000*%
%ADD16C,1.270000*%
G04 APERTURE END LIST*
D10*
X116000000Y-104000000D02*
X116000000Y-99000000D01*
X9500000Y-99000000D02*
G75*
G03*
X5500000Y-95000000I-4000000J0D01*
G01*
X116000000Y-5500000D02*
G75*
G03*
X120000000Y-9500000I4000000J0D01*
G01*
X500000Y-95000000D02*
X5500000Y-95000000D01*
X116000000Y-5500000D02*
X116000000Y-500000D01*
X5500000Y-9500000D02*
X500000Y-9500000D01*
X9500000Y-500000D02*
X9500000Y-5500000D01*
X120000000Y-95000000D02*
X125000000Y-95000000D01*
X9500000Y-99000000D02*
X9500000Y-104000000D01*
X5500000Y-9500000D02*
G75*
G03*
X9500000Y-5500000I0J4000000D01*
G01*
X125000000Y-9500000D02*
X120000000Y-9500000D01*
X120000000Y-95000000D02*
G75*
G03*
X116000000Y-99000000I0J-4000000D01*
G01*
D11*
%TO.C,J6*%
X66749999Y-4749999D03*
D12*
X64209999Y-4749999D03*
%TD*%
D13*
%TO.C,J1*%
X26749999Y-101999999D03*
%TD*%
D11*
%TO.C,J2*%
X91749999Y-7249999D03*
D12*
X91749999Y-4709999D03*
X94289999Y-7249999D03*
X94289999Y-4709999D03*
X96829999Y-7249999D03*
X96829999Y-4709999D03*
X99369999Y-7249999D03*
X99369999Y-4709999D03*
X101909999Y-7249999D03*
X101909999Y-4709999D03*
X104449999Y-7249999D03*
X104449999Y-4709999D03*
%TD*%
D14*
%TO.C,H2*%
X117000000Y-5500000D03*
X117878680Y-3378680D03*
X117878680Y-7621320D03*
X120000000Y-2500000D03*
D15*
X120000000Y-5500000D03*
D14*
X120000000Y-8500000D03*
X122121320Y-3378680D03*
X122121320Y-7621320D03*
X123000000Y-5500000D03*
%TD*%
D11*
%TO.C,J5*%
X55999999Y-4749999D03*
D12*
X58539999Y-4749999D03*
%TD*%
D11*
%TO.C,J4*%
X45249999Y-4749999D03*
D12*
X42709999Y-4749999D03*
X40169999Y-4749999D03*
X37629999Y-4749999D03*
%TD*%
D14*
%TO.C,H4*%
X117000000Y-99000000D03*
X117878680Y-96878680D03*
X117878680Y-101121320D03*
X120000000Y-96000000D03*
D15*
X120000000Y-99000000D03*
D14*
X120000000Y-102000000D03*
X122121320Y-96878680D03*
X122121320Y-101121320D03*
X123000000Y-99000000D03*
%TD*%
%TO.C,H3*%
X2500000Y-99000000D03*
X3378680Y-96878680D03*
X3378680Y-101121320D03*
X5500000Y-96000000D03*
D15*
X5500000Y-99000000D03*
D14*
X5500000Y-102000000D03*
X7621320Y-96878680D03*
X7621320Y-101121320D03*
X8500000Y-99000000D03*
%TD*%
D11*
%TO.C,J3*%
X118249999Y-40879999D03*
D12*
X120789999Y-40879999D03*
X118249999Y-43419999D03*
X120789999Y-43419999D03*
X118249999Y-45959999D03*
X120789999Y-45959999D03*
X118249999Y-48499999D03*
X120789999Y-48499999D03*
X118249999Y-51039999D03*
X120789999Y-51039999D03*
X118249999Y-53579999D03*
X120789999Y-53579999D03*
X118249999Y-56119999D03*
X120789999Y-56119999D03*
X118249999Y-58659999D03*
X120789999Y-58659999D03*
X118249999Y-61199999D03*
X120789999Y-61199999D03*
X118249999Y-63739999D03*
X120789999Y-63739999D03*
X118249999Y-66279999D03*
X120789999Y-66279999D03*
X118249999Y-68819999D03*
X120789999Y-68819999D03*
%TD*%
D16*
%TO.C,U1*%
X56002500Y-69390000D03*
X43302500Y-69390000D03*
X62352500Y-73200000D03*
X62352500Y-94790000D03*
X53462500Y-60500000D03*
%TD*%
D14*
%TO.C,H1*%
X2500000Y-5500000D03*
X3378680Y-3378680D03*
X3378680Y-7621320D03*
X5500000Y-2500000D03*
D15*
X5500000Y-5500000D03*
D14*
X5500000Y-8500000D03*
X7621320Y-3378680D03*
X7621320Y-7621320D03*
X8500000Y-5500000D03*
%TD*%
G36*
X125408020Y-11342D02*
G01*
X125456359Y-43641D01*
X125488658Y-91980D01*
X125500000Y-149000D01*
X125500000Y-104351000D01*
X125488658Y-104408020D01*
X125456359Y-104456359D01*
X125408020Y-104488658D01*
X125351000Y-104500000D01*
X73649000Y-104500000D01*
X73591980Y-104488658D01*
X73543641Y-104456359D01*
X73511342Y-104408020D01*
X73500000Y-104351000D01*
X73500000Y-83514675D01*
X73497565Y-83502434D01*
X73485325Y-83500000D01*
X39149000Y-83500000D01*
X39091980Y-83488658D01*
X39043641Y-83456359D01*
X39011342Y-83408020D01*
X39000000Y-83351000D01*
X39000000Y-46764675D01*
X38997565Y-46752434D01*
X38985325Y-46750000D01*
X14514675Y-46750000D01*
X14502434Y-46752434D01*
X14500000Y-46764675D01*
X14500000Y-104351000D01*
X14488658Y-104408020D01*
X14456359Y-104456359D01*
X14408020Y-104488658D01*
X14351000Y-104500000D01*
X149000Y-104500000D01*
X91980Y-104488658D01*
X43641Y-104456359D01*
X11342Y-104408020D01*
X0Y-104351000D01*
X0Y-94985325D01*
X1000000Y-94985325D01*
X1002434Y-94997565D01*
X1014675Y-95000000D01*
X5478132Y-95000000D01*
X5520947Y-95006284D01*
X7955493Y-95736647D01*
X7996040Y-95755865D01*
X8029027Y-95786283D01*
X8979685Y-96974606D01*
X9007887Y-97031548D01*
X9495551Y-98982204D01*
X9500000Y-99018342D01*
X9500000Y-103485325D01*
X9502434Y-103497565D01*
X9514675Y-103500000D01*
X13485325Y-103500000D01*
X13497565Y-103497565D01*
X13500000Y-103485325D01*
X13500000Y-45899000D01*
X13511342Y-45841980D01*
X13543641Y-45793641D01*
X13591980Y-45761342D01*
X13649000Y-45750000D01*
X39851000Y-45750000D01*
X39908020Y-45761342D01*
X39956359Y-45793641D01*
X39988658Y-45841980D01*
X40000000Y-45899000D01*
X40000000Y-82485325D01*
X40002434Y-82497565D01*
X40014675Y-82500000D01*
X74351000Y-82500000D01*
X74408020Y-82511342D01*
X74456359Y-82543641D01*
X74488658Y-82591980D01*
X74500000Y-82649000D01*
X74500000Y-103485325D01*
X74502434Y-103497565D01*
X74514675Y-103500000D01*
X115985325Y-103500000D01*
X115997565Y-103497565D01*
X116000000Y-103485325D01*
X116000000Y-99021868D01*
X116006284Y-98979053D01*
X116735356Y-96548810D01*
X116756891Y-96504929D01*
X116791468Y-96470379D01*
X118471922Y-95270055D01*
X118534031Y-95244328D01*
X119987838Y-95002027D01*
X120012333Y-95000000D01*
X124485325Y-95000000D01*
X124497565Y-94997565D01*
X124500000Y-94985325D01*
X124500000Y-9514675D01*
X124497565Y-9502434D01*
X124485325Y-9500000D01*
X120016357Y-9500000D01*
X119984034Y-9496452D01*
X117799607Y-9011023D01*
X117754385Y-8992802D01*
X117717465Y-8960958D01*
X116521819Y-7526183D01*
X116491733Y-7466934D01*
X116004449Y-5517796D01*
X116000000Y-5481658D01*
X116000000Y-1014675D01*
X115997565Y-1002434D01*
X115985325Y-1000000D01*
X9514675Y-1000000D01*
X9502434Y-1002434D01*
X9500000Y-1014675D01*
X9500000Y-5479133D01*
X9494267Y-5520067D01*
X9005740Y-7229908D01*
X8988953Y-7267738D01*
X8347925Y-8297115D01*
X8296572Y-8347025D01*
X6771497Y-9237448D01*
X6725591Y-9254881D01*
X5514465Y-9497107D01*
X5485244Y-9500000D01*
X1014675Y-9500000D01*
X1002434Y-9502434D01*
X1000000Y-9514675D01*
X1000000Y-94985325D01*
X0Y-94985325D01*
X0Y-149000D01*
X11342Y-91980D01*
X43641Y-43641D01*
X91980Y-11342D01*
X149000Y0D01*
X125351000Y0D01*
X125408020Y-11342D01*
G37*
M02*
