%TF.GenerationSoftware,KiCad,Pcbnew,7.0.0*%
%TF.CreationDate,2023-03-13T15:22:28-06:00*%
%TF.ProjectId,Panoptes,50616e6f-7074-4657-932e-6b696361645f,rev?*%
%TF.SameCoordinates,PX284af10PY30291a0*%
%TF.FileFunction,Legend,Bot*%
%TF.FilePolarity,Positive*%
%FSLAX46Y46*%
G04 Gerber Fmt 4.6, Leading zero omitted, Abs format (unit mm)*
G04 Created by KiCad (PCBNEW 7.0.0) date 2023-03-13 15:22:28*
%MOMM*%
%LPD*%
G01*
G04 APERTURE LIST*
%ADD10C,0.300000*%
%ADD11C,0.200000*%
%ADD12C,1.270000*%
G04 APERTURE END LIST*
D10*
G36*
X94141863Y-100722693D02*
G01*
X94167106Y-100724450D01*
X94191674Y-100727379D01*
X94215566Y-100731480D01*
X94238782Y-100736752D01*
X94261323Y-100743196D01*
X94283188Y-100750811D01*
X94304378Y-100759598D01*
X94324893Y-100769557D01*
X94344732Y-100780687D01*
X94363895Y-100792989D01*
X94382383Y-100806462D01*
X94400196Y-100821107D01*
X94417333Y-100836924D01*
X94433795Y-100853912D01*
X94449581Y-100872072D01*
X94464596Y-100891242D01*
X94478134Y-100910283D01*
X94490196Y-100929195D01*
X94500780Y-100947978D01*
X94509888Y-100966633D01*
X94517518Y-100985158D01*
X94525395Y-101009659D01*
X94530647Y-101033931D01*
X94533272Y-101057973D01*
X94533600Y-101069909D01*
X94532544Y-101089916D01*
X94529376Y-101109820D01*
X94524095Y-101129620D01*
X94516702Y-101149318D01*
X94507196Y-101168913D01*
X94495579Y-101188405D01*
X94481849Y-101207793D01*
X94466006Y-101227079D01*
X94448051Y-101246262D01*
X94427984Y-101265341D01*
X94413433Y-101278004D01*
X94390399Y-101295987D01*
X94366361Y-101312202D01*
X94341318Y-101326647D01*
X94315270Y-101339324D01*
X94288218Y-101350232D01*
X94269625Y-101356521D01*
X94250585Y-101362024D01*
X94231099Y-101366741D01*
X94211167Y-101370672D01*
X94190788Y-101373817D01*
X94169962Y-101376175D01*
X94148690Y-101377747D01*
X94126972Y-101378533D01*
X94115945Y-101378632D01*
X94093830Y-101378241D01*
X94072180Y-101377067D01*
X94050996Y-101375111D01*
X94030277Y-101372373D01*
X94010024Y-101368852D01*
X93990236Y-101364550D01*
X93970914Y-101359464D01*
X93952058Y-101353597D01*
X93933667Y-101346947D01*
X93906954Y-101335505D01*
X93881289Y-101322303D01*
X93856671Y-101307341D01*
X93833100Y-101290618D01*
X93817969Y-101278492D01*
X93796581Y-101259539D01*
X93777297Y-101240413D01*
X93760116Y-101221116D01*
X93745039Y-101201647D01*
X93732066Y-101182007D01*
X93721197Y-101162194D01*
X93712432Y-101142210D01*
X93705770Y-101122055D01*
X93701212Y-101101727D01*
X93698757Y-101081228D01*
X93698290Y-101067466D01*
X93699938Y-101045336D01*
X93703831Y-101025267D01*
X93710013Y-101003719D01*
X93718486Y-100980692D01*
X93726912Y-100961206D01*
X93736804Y-100940774D01*
X93745184Y-100924829D01*
X93757580Y-100903549D01*
X93771563Y-100883185D01*
X93787133Y-100863737D01*
X93804291Y-100845205D01*
X93823037Y-100827589D01*
X93838138Y-100814978D01*
X93854132Y-100802883D01*
X93871019Y-100791302D01*
X93888799Y-100780237D01*
X93907230Y-100769848D01*
X93926254Y-100760482D01*
X93945870Y-100752137D01*
X93966079Y-100744814D01*
X93986880Y-100738513D01*
X94008274Y-100733233D01*
X94030260Y-100728976D01*
X94052839Y-100725740D01*
X94076010Y-100723526D01*
X94099774Y-100722334D01*
X94115945Y-100722107D01*
X94141863Y-100722693D01*
G37*
G36*
X99304940Y-101160061D02*
G01*
X99325866Y-101160874D01*
X99346415Y-101162229D01*
X99366586Y-101164125D01*
X99386379Y-101166564D01*
X99405795Y-101169545D01*
X99434210Y-101175031D01*
X99461774Y-101181738D01*
X99488489Y-101189663D01*
X99514353Y-101198808D01*
X99539368Y-101209172D01*
X99563532Y-101220755D01*
X99579169Y-101229155D01*
X99597144Y-101240283D01*
X99616242Y-101254237D01*
X99631595Y-101268238D01*
X99645076Y-101285102D01*
X99653989Y-101304864D01*
X99655861Y-101319036D01*
X99652236Y-101338299D01*
X99641359Y-101355177D01*
X99625371Y-101368327D01*
X99618736Y-101372281D01*
X99600838Y-101381097D01*
X99581337Y-101388737D01*
X99560233Y-101395202D01*
X99537526Y-101400491D01*
X99513216Y-101404605D01*
X99487303Y-101407544D01*
X99466817Y-101408977D01*
X99445429Y-101409748D01*
X99430669Y-101409895D01*
X99404848Y-101409383D01*
X99384932Y-101408329D01*
X99364543Y-101406699D01*
X99343681Y-101404493D01*
X99322348Y-101401713D01*
X99300542Y-101398357D01*
X99278264Y-101394425D01*
X99255513Y-101389919D01*
X99232291Y-101384837D01*
X99208596Y-101379180D01*
X99200593Y-101377166D01*
X99176753Y-101370732D01*
X99153412Y-101363886D01*
X99130568Y-101356627D01*
X99108223Y-101348956D01*
X99086376Y-101340873D01*
X99065026Y-101332378D01*
X99044175Y-101323471D01*
X99023822Y-101314152D01*
X99003967Y-101304420D01*
X98984609Y-101294276D01*
X98971981Y-101287285D01*
X98971981Y-101187145D01*
X98993005Y-101183833D01*
X99013823Y-101180734D01*
X99034435Y-101177849D01*
X99054841Y-101175177D01*
X99075040Y-101172720D01*
X99095034Y-101170476D01*
X99114821Y-101168446D01*
X99134403Y-101166629D01*
X99163389Y-101164305D01*
X99191911Y-101162462D01*
X99219969Y-101161099D01*
X99247564Y-101160218D01*
X99274695Y-101159817D01*
X99283635Y-101159790D01*
X99304940Y-101160061D01*
G37*
G36*
X95886398Y-100722536D02*
G01*
X95909535Y-100723824D01*
X95932179Y-100725971D01*
X95954330Y-100728976D01*
X95975990Y-100732840D01*
X95997157Y-100737563D01*
X96017832Y-100743144D01*
X96038014Y-100749584D01*
X96057704Y-100756883D01*
X96076902Y-100765040D01*
X96095608Y-100774056D01*
X96113821Y-100783931D01*
X96131542Y-100794664D01*
X96148771Y-100806256D01*
X96165507Y-100818707D01*
X96181751Y-100832016D01*
X96197190Y-100845829D01*
X96211633Y-100859913D01*
X96225079Y-100874268D01*
X96243382Y-100896309D01*
X96259443Y-100918959D01*
X96273263Y-100942219D01*
X96284843Y-100966088D01*
X96294181Y-100990568D01*
X96301277Y-101015656D01*
X96306133Y-101041355D01*
X96308748Y-101067663D01*
X96309246Y-101085540D01*
X96308112Y-101107660D01*
X96304712Y-101129504D01*
X96299045Y-101151074D01*
X96291111Y-101172369D01*
X96280910Y-101193389D01*
X96268442Y-101214134D01*
X96253707Y-101234605D01*
X96236706Y-101254801D01*
X96217437Y-101274722D01*
X96195902Y-101294368D01*
X96180286Y-101307313D01*
X96163876Y-101319735D01*
X96147008Y-101331355D01*
X96129682Y-101342175D01*
X96111898Y-101352192D01*
X96093656Y-101361409D01*
X96074956Y-101369824D01*
X96055798Y-101377437D01*
X96036182Y-101384249D01*
X96016109Y-101390260D01*
X95995577Y-101395469D01*
X95974587Y-101399877D01*
X95953140Y-101403483D01*
X95931234Y-101406288D01*
X95908871Y-101408292D01*
X95886049Y-101409494D01*
X95862770Y-101409895D01*
X95839315Y-101409494D01*
X95816333Y-101408292D01*
X95793825Y-101406288D01*
X95771789Y-101403483D01*
X95750227Y-101399877D01*
X95729139Y-101395469D01*
X95708523Y-101390260D01*
X95688381Y-101384249D01*
X95668711Y-101377437D01*
X95649515Y-101369824D01*
X95630793Y-101361409D01*
X95612543Y-101352192D01*
X95594767Y-101342175D01*
X95577464Y-101331355D01*
X95560634Y-101319735D01*
X95544277Y-101307313D01*
X95528602Y-101294364D01*
X95513938Y-101281286D01*
X95493838Y-101261425D01*
X95476013Y-101241272D01*
X95460464Y-101220827D01*
X95447191Y-101200090D01*
X95436193Y-101179061D01*
X95427470Y-101157741D01*
X95421023Y-101136128D01*
X95416851Y-101114224D01*
X95414955Y-101092027D01*
X95414829Y-101084563D01*
X95415687Y-101061842D01*
X95418263Y-101039472D01*
X95422557Y-101017454D01*
X95428567Y-100995789D01*
X95436295Y-100974475D01*
X95445741Y-100953514D01*
X95456903Y-100932904D01*
X95469783Y-100912647D01*
X95484380Y-100892742D01*
X95500695Y-100873188D01*
X95512526Y-100860348D01*
X95529522Y-100843608D01*
X95547170Y-100827948D01*
X95565471Y-100813368D01*
X95584425Y-100799868D01*
X95604031Y-100787448D01*
X95624290Y-100776108D01*
X95645201Y-100765847D01*
X95666765Y-100756667D01*
X95688982Y-100748567D01*
X95711851Y-100741547D01*
X95735372Y-100735607D01*
X95759547Y-100730747D01*
X95784374Y-100726967D01*
X95809853Y-100724267D01*
X95835985Y-100722647D01*
X95862770Y-100722107D01*
X95886398Y-100722536D01*
G37*
G36*
X90872432Y-100722588D02*
G01*
X90898171Y-100724030D01*
X90923242Y-100726435D01*
X90947642Y-100729801D01*
X90971373Y-100734128D01*
X90994434Y-100739418D01*
X91016825Y-100745669D01*
X91038546Y-100752882D01*
X91059598Y-100761056D01*
X91079980Y-100770192D01*
X91093196Y-100776817D01*
X91112457Y-100787473D01*
X91131040Y-100799108D01*
X91148944Y-100811722D01*
X91166171Y-100825315D01*
X91182719Y-100839886D01*
X91198588Y-100855437D01*
X91213780Y-100871966D01*
X91228292Y-100889474D01*
X91242127Y-100907961D01*
X91255283Y-100927427D01*
X91263677Y-100940949D01*
X90428367Y-100940949D01*
X90440809Y-100920830D01*
X90453955Y-100901690D01*
X90467805Y-100883530D01*
X90482359Y-100866348D01*
X90497618Y-100850145D01*
X90513581Y-100834920D01*
X90530247Y-100820675D01*
X90547618Y-100807409D01*
X90565693Y-100795121D01*
X90584472Y-100783813D01*
X90597383Y-100776817D01*
X90617331Y-100767040D01*
X90637975Y-100758224D01*
X90659314Y-100750370D01*
X90681349Y-100743478D01*
X90704079Y-100737548D01*
X90727505Y-100732579D01*
X90751626Y-100728572D01*
X90776443Y-100725526D01*
X90801956Y-100723443D01*
X90828163Y-100722321D01*
X90846022Y-100722107D01*
X90872432Y-100722588D01*
G37*
G36*
X101068562Y-100815896D02*
G01*
X100807711Y-100815896D01*
X100784988Y-100815610D01*
X100762862Y-100814751D01*
X100741330Y-100813320D01*
X100720394Y-100811317D01*
X100700053Y-100808741D01*
X100680307Y-100805592D01*
X100651805Y-100799796D01*
X100624643Y-100792712D01*
X100598820Y-100784340D01*
X100574337Y-100774680D01*
X100551193Y-100763732D01*
X100529388Y-100751496D01*
X100515596Y-100742623D01*
X100496303Y-100728536D01*
X100478908Y-100713932D01*
X100463411Y-100698814D01*
X100449811Y-100683181D01*
X100438109Y-100667032D01*
X100425458Y-100644699D01*
X100416180Y-100621450D01*
X100410276Y-100597286D01*
X100407746Y-100572205D01*
X100407641Y-100565792D01*
X100409007Y-100544275D01*
X100413106Y-100523446D01*
X100419937Y-100503304D01*
X100429501Y-100483848D01*
X100441797Y-100465080D01*
X100456825Y-100446998D01*
X100474586Y-100429603D01*
X100489700Y-100417008D01*
X100495080Y-100412896D01*
X100512044Y-100401110D01*
X100530331Y-100390484D01*
X100549940Y-100381018D01*
X100570871Y-100372710D01*
X100593125Y-100365562D01*
X100616701Y-100359572D01*
X100641600Y-100354742D01*
X100667821Y-100351072D01*
X100695364Y-100348560D01*
X100724229Y-100347208D01*
X100744207Y-100346950D01*
X101068562Y-100346950D01*
X101068562Y-100815896D01*
G37*
G36*
X102318163Y-102927186D02*
G01*
X79354830Y-102927186D01*
X79354830Y-101105568D01*
X80090544Y-101105568D01*
X80091223Y-101139362D01*
X80093261Y-101172231D01*
X80096658Y-101204177D01*
X80101413Y-101235200D01*
X80107526Y-101265299D01*
X80114999Y-101294475D01*
X80123830Y-101322727D01*
X80134019Y-101350055D01*
X80145567Y-101376460D01*
X80158474Y-101401942D01*
X80172739Y-101426500D01*
X80188363Y-101450134D01*
X80205346Y-101472845D01*
X80223687Y-101494632D01*
X80243386Y-101515496D01*
X80264445Y-101535436D01*
X80286904Y-101554305D01*
X80310805Y-101571958D01*
X80336149Y-101588392D01*
X80362936Y-101603610D01*
X80391165Y-101617610D01*
X80420836Y-101630393D01*
X80451951Y-101641958D01*
X80484508Y-101652306D01*
X80518507Y-101661436D01*
X80553949Y-101669349D01*
X80590833Y-101676045D01*
X80629160Y-101681523D01*
X80648865Y-101683806D01*
X80668930Y-101685784D01*
X80689356Y-101687458D01*
X80710142Y-101688828D01*
X80731289Y-101689893D01*
X80752797Y-101690654D01*
X80774665Y-101691110D01*
X80796894Y-101691263D01*
X80816518Y-101691140D01*
X80854994Y-101690163D01*
X80892440Y-101688210D01*
X80928855Y-101685279D01*
X80964240Y-101681371D01*
X80998594Y-101676486D01*
X81031918Y-101670624D01*
X81064211Y-101663785D01*
X81095474Y-101655969D01*
X81125707Y-101647177D01*
X81154909Y-101637407D01*
X81183081Y-101626660D01*
X81210223Y-101614937D01*
X81236334Y-101602236D01*
X81261414Y-101588558D01*
X81285465Y-101573904D01*
X81297103Y-101566210D01*
X81316222Y-101552470D01*
X81333459Y-101538361D01*
X81348817Y-101523882D01*
X81362293Y-101509035D01*
X81366245Y-101503684D01*
X82206664Y-101503684D01*
X82207549Y-101523300D01*
X82211146Y-101546660D01*
X82217510Y-101568733D01*
X82226640Y-101589517D01*
X82238538Y-101609014D01*
X82253202Y-101627222D01*
X82263328Y-101637529D01*
X82281921Y-101653009D01*
X82302588Y-101665865D01*
X82320616Y-101674261D01*
X82339973Y-101680978D01*
X82360657Y-101686015D01*
X82382669Y-101689374D01*
X82406010Y-101691053D01*
X82418178Y-101691263D01*
X82442190Y-101690423D01*
X82464890Y-101687904D01*
X82486276Y-101683706D01*
X82506350Y-101677829D01*
X82525111Y-101670273D01*
X82542559Y-101661038D01*
X82544049Y-101660000D01*
X83511898Y-101660000D01*
X84795150Y-101660000D01*
X84795150Y-101347369D01*
X84748172Y-101311261D01*
X84702372Y-101275968D01*
X84657749Y-101241488D01*
X84614303Y-101207822D01*
X84572035Y-101174970D01*
X84530944Y-101142932D01*
X84491030Y-101111707D01*
X84452294Y-101081297D01*
X84414735Y-101051700D01*
X84378353Y-101022917D01*
X84343149Y-100994948D01*
X84309122Y-100967792D01*
X84276272Y-100941451D01*
X84244599Y-100915923D01*
X84214104Y-100891209D01*
X84184787Y-100867309D01*
X84156646Y-100844223D01*
X84129683Y-100821951D01*
X84103897Y-100800492D01*
X84079289Y-100779848D01*
X84055858Y-100760017D01*
X84033604Y-100741000D01*
X84012528Y-100722796D01*
X83992629Y-100705407D01*
X83973907Y-100688831D01*
X83956362Y-100673069D01*
X83939995Y-100658122D01*
X83924805Y-100643987D01*
X83897958Y-100618161D01*
X83875819Y-100595589D01*
X83861590Y-100579638D01*
X83848760Y-100563841D01*
X83833831Y-100543020D01*
X83821390Y-100522473D01*
X83811437Y-100502201D01*
X83803972Y-100482203D01*
X83798996Y-100462481D01*
X83796507Y-100443033D01*
X83796196Y-100433412D01*
X83797601Y-100409827D01*
X83801814Y-100386945D01*
X83808836Y-100364764D01*
X83818667Y-100343286D01*
X83831306Y-100322510D01*
X83846755Y-100302437D01*
X83860184Y-100287842D01*
X83875194Y-100273643D01*
X83886078Y-100264396D01*
X83903458Y-100251214D01*
X83921895Y-100239329D01*
X83941389Y-100228740D01*
X83961938Y-100219448D01*
X83983543Y-100211452D01*
X84006205Y-100204753D01*
X84029923Y-100199350D01*
X84054697Y-100195245D01*
X84080527Y-100192435D01*
X84107413Y-100190923D01*
X84125924Y-100190635D01*
X84153779Y-100191429D01*
X84180741Y-100193812D01*
X84206810Y-100197783D01*
X84231987Y-100203343D01*
X84256270Y-100210491D01*
X84279660Y-100219228D01*
X84302157Y-100229554D01*
X84323761Y-100241468D01*
X84344472Y-100254970D01*
X84364290Y-100270061D01*
X84377006Y-100281004D01*
X84392839Y-100297250D01*
X84407670Y-100315761D01*
X84418813Y-100332202D01*
X84429316Y-100350093D01*
X84439177Y-100369434D01*
X84448397Y-100390225D01*
X84456976Y-100412466D01*
X84461025Y-100424131D01*
X84468685Y-100445277D01*
X84477374Y-100464019D01*
X84488815Y-100482845D01*
X84501657Y-100498400D01*
X84513782Y-100509127D01*
X84531612Y-100520240D01*
X84551395Y-100528178D01*
X84573133Y-100532941D01*
X84593756Y-100534504D01*
X84596824Y-100534528D01*
X84617890Y-100533069D01*
X84637857Y-100528690D01*
X84656725Y-100521391D01*
X84674494Y-100511173D01*
X84691163Y-100498035D01*
X84696475Y-100493007D01*
X84710752Y-100476755D01*
X84722075Y-100459508D01*
X84730444Y-100441264D01*
X84735860Y-100422024D01*
X84738321Y-100401788D01*
X84738485Y-100394822D01*
X84737295Y-100373282D01*
X84733722Y-100350430D01*
X84727769Y-100326266D01*
X84721741Y-100307281D01*
X84714374Y-100287557D01*
X84705667Y-100267095D01*
X84695621Y-100245894D01*
X84684235Y-100223956D01*
X84674308Y-100206266D01*
X84873307Y-100206266D01*
X84875626Y-100229502D01*
X84881100Y-100248261D01*
X84889794Y-100266472D01*
X84901708Y-100284134D01*
X84916842Y-100301248D01*
X84931267Y-100314544D01*
X84939253Y-100321060D01*
X84956300Y-100331148D01*
X84975935Y-100337823D01*
X84995839Y-100341994D01*
X85018963Y-100344902D01*
X85039781Y-100346318D01*
X85062660Y-100346925D01*
X85068702Y-100346950D01*
X85647069Y-101660000D01*
X85917690Y-101660000D01*
X86067925Y-101318060D01*
X88497871Y-101318060D01*
X88499043Y-101344121D01*
X88502559Y-101369368D01*
X88508420Y-101393798D01*
X88516624Y-101417413D01*
X88527173Y-101440212D01*
X88540066Y-101462195D01*
X88555303Y-101483363D01*
X88572884Y-101503715D01*
X88592810Y-101523251D01*
X88615079Y-101541971D01*
X88631228Y-101553998D01*
X88655549Y-101570620D01*
X88680763Y-101586169D01*
X88706870Y-101600647D01*
X88733871Y-101614051D01*
X88761764Y-101626384D01*
X88790550Y-101637644D01*
X88820230Y-101647831D01*
X88850802Y-101656946D01*
X88882267Y-101664989D01*
X88914626Y-101671960D01*
X88947877Y-101677858D01*
X88982021Y-101682684D01*
X89017059Y-101686437D01*
X89052989Y-101689118D01*
X89089813Y-101690726D01*
X89127529Y-101691263D01*
X89150268Y-101691121D01*
X89172689Y-101690696D01*
X89194793Y-101689987D01*
X89216579Y-101688996D01*
X89238047Y-101687721D01*
X89259197Y-101686162D01*
X89280030Y-101684320D01*
X89300545Y-101682195D01*
X89320742Y-101679787D01*
X89340622Y-101677095D01*
X89353698Y-101675143D01*
X89379321Y-101670998D01*
X89404409Y-101666380D01*
X89428963Y-101661289D01*
X89452983Y-101655725D01*
X89476468Y-101649688D01*
X89499419Y-101643177D01*
X89521836Y-101636193D01*
X89543719Y-101628736D01*
X89560872Y-101639911D01*
X89578993Y-101648829D01*
X89587683Y-101652184D01*
X89606895Y-101657244D01*
X89626430Y-101659725D01*
X89635554Y-101660000D01*
X89655506Y-101659022D01*
X89677717Y-101655266D01*
X89698039Y-101648695D01*
X89716472Y-101639307D01*
X89733015Y-101627102D01*
X89740579Y-101619944D01*
X89753859Y-101602850D01*
X89764392Y-101581979D01*
X89771071Y-101561700D01*
X89775841Y-101538798D01*
X89778284Y-101518587D01*
X89779505Y-101496696D01*
X89779658Y-101485122D01*
X89779658Y-101455812D01*
X90115247Y-101455812D01*
X90116690Y-101475745D01*
X90122019Y-101497524D01*
X90131276Y-101517713D01*
X90144459Y-101536312D01*
X90156280Y-101548625D01*
X90172545Y-101561249D01*
X90193741Y-101573721D01*
X90212873Y-101582974D01*
X90234779Y-101592142D01*
X90259459Y-101601224D01*
X90286912Y-101610220D01*
X90306755Y-101616169D01*
X90327830Y-101622081D01*
X90350138Y-101627954D01*
X90373679Y-101633789D01*
X90398453Y-101639586D01*
X90424459Y-101645345D01*
X90451016Y-101650905D01*
X90477444Y-101656107D01*
X90503742Y-101660950D01*
X90529911Y-101665434D01*
X90555949Y-101669559D01*
X90581858Y-101673326D01*
X90607637Y-101676734D01*
X90633286Y-101679783D01*
X90658806Y-101682474D01*
X90684196Y-101684805D01*
X90709456Y-101686778D01*
X90734586Y-101688393D01*
X90759587Y-101689648D01*
X90784457Y-101690545D01*
X90809198Y-101691083D01*
X90833810Y-101691263D01*
X90854775Y-101691088D01*
X90875476Y-101690562D01*
X90895914Y-101689687D01*
X90916089Y-101688461D01*
X90936001Y-101686886D01*
X90955649Y-101684960D01*
X90994155Y-101680058D01*
X91031608Y-101673755D01*
X91068008Y-101666052D01*
X91103355Y-101656948D01*
X91137648Y-101646444D01*
X91170888Y-101634539D01*
X91203074Y-101621234D01*
X91234208Y-101606527D01*
X91264288Y-101590421D01*
X91293314Y-101572914D01*
X91321288Y-101554006D01*
X91348208Y-101533697D01*
X91374075Y-101511988D01*
X91398623Y-101489196D01*
X91421588Y-101465758D01*
X91442969Y-101441675D01*
X91455898Y-101425526D01*
X91685729Y-101425526D01*
X91687274Y-101445344D01*
X91692984Y-101467163D01*
X91702902Y-101487579D01*
X91714752Y-101503963D01*
X91729692Y-101519316D01*
X91748591Y-101535161D01*
X91765449Y-101546844D01*
X91784609Y-101558356D01*
X91806070Y-101569696D01*
X91829832Y-101580865D01*
X91855895Y-101591861D01*
X91874549Y-101599097D01*
X91894226Y-101606257D01*
X91914926Y-101613340D01*
X91936648Y-101620346D01*
X91959393Y-101627277D01*
X91983161Y-101634131D01*
X91995429Y-101637529D01*
X92019977Y-101644036D01*
X92044041Y-101650123D01*
X92067620Y-101655790D01*
X92090714Y-101661038D01*
X92113324Y-101665865D01*
X92135449Y-101670273D01*
X92157089Y-101674261D01*
X92178244Y-101677829D01*
X92198915Y-101680978D01*
X92219102Y-101683706D01*
X92238803Y-101686015D01*
X92267447Y-101688691D01*
X92295000Y-101690423D01*
X92321463Y-101691210D01*
X92330041Y-101691263D01*
X92362320Y-101690852D01*
X92393575Y-101689622D01*
X92423808Y-101687570D01*
X92453018Y-101684699D01*
X92481205Y-101681006D01*
X92508369Y-101676494D01*
X92534511Y-101671160D01*
X92559630Y-101665006D01*
X92583726Y-101658032D01*
X92606799Y-101650237D01*
X92628850Y-101641622D01*
X92649877Y-101632186D01*
X92669882Y-101621930D01*
X92688865Y-101610853D01*
X92706824Y-101598956D01*
X92723761Y-101586238D01*
X92739614Y-101572923D01*
X92754444Y-101559234D01*
X92768251Y-101545171D01*
X92787045Y-101523375D01*
X92803537Y-101500738D01*
X92817728Y-101477259D01*
X92829617Y-101452939D01*
X92839206Y-101427777D01*
X92846493Y-101401774D01*
X92851479Y-101374929D01*
X92854164Y-101347243D01*
X92854675Y-101328318D01*
X92854675Y-101066489D01*
X93416922Y-101066489D01*
X93416949Y-101067466D01*
X93417861Y-101099949D01*
X93420677Y-101132672D01*
X93425371Y-101164658D01*
X93431943Y-101195908D01*
X93440392Y-101226421D01*
X93450719Y-101256197D01*
X93462924Y-101285237D01*
X93477006Y-101313541D01*
X93492966Y-101341108D01*
X93510803Y-101367938D01*
X93530518Y-101394032D01*
X93552110Y-101419390D01*
X93575581Y-101444011D01*
X93600928Y-101467895D01*
X93628154Y-101491043D01*
X93657257Y-101513454D01*
X93682551Y-101531200D01*
X93708243Y-101547800D01*
X93734331Y-101563256D01*
X93760816Y-101577568D01*
X93787698Y-101590734D01*
X93814977Y-101602755D01*
X93842653Y-101613632D01*
X93870725Y-101623363D01*
X93899195Y-101631950D01*
X93928061Y-101639392D01*
X93957325Y-101645688D01*
X93986985Y-101650840D01*
X94017042Y-101654848D01*
X94047496Y-101657710D01*
X94078347Y-101659427D01*
X94109595Y-101660000D01*
X94129907Y-101659656D01*
X94150175Y-101658626D01*
X94170401Y-101656908D01*
X94190584Y-101654504D01*
X94210724Y-101651413D01*
X94230821Y-101647635D01*
X94250875Y-101643170D01*
X94270887Y-101638018D01*
X94290855Y-101632179D01*
X94310780Y-101625653D01*
X94324040Y-101620921D01*
X94343811Y-101613250D01*
X94363556Y-101604892D01*
X94383275Y-101595848D01*
X94402969Y-101586116D01*
X94422636Y-101575698D01*
X94442278Y-101564592D01*
X94461895Y-101552800D01*
X94481485Y-101540321D01*
X94501050Y-101527154D01*
X94520589Y-101513301D01*
X94533600Y-101503684D01*
X94533600Y-101910104D01*
X94365073Y-101910104D01*
X94340473Y-101910707D01*
X94317720Y-101912516D01*
X94296815Y-101915531D01*
X94273280Y-101920995D01*
X94252631Y-101928344D01*
X94234869Y-101937577D01*
X94219993Y-101948695D01*
X94205218Y-101964191D01*
X94193500Y-101981370D01*
X94184839Y-102000232D01*
X94179234Y-102020777D01*
X94176687Y-102043005D01*
X94176517Y-102050788D01*
X94178046Y-102073560D01*
X94182631Y-102094614D01*
X94190273Y-102113952D01*
X94200972Y-102131571D01*
X94214728Y-102147474D01*
X94219993Y-102152393D01*
X94238191Y-102165674D01*
X94256530Y-102174642D01*
X94277756Y-102181702D01*
X94301868Y-102186854D01*
X94323235Y-102189602D01*
X94346450Y-102191128D01*
X94365073Y-102191472D01*
X94863328Y-102191472D01*
X94887936Y-102190861D01*
X94910711Y-102189030D01*
X94931655Y-102185976D01*
X94950767Y-102181702D01*
X94972081Y-102174642D01*
X94990533Y-102165674D01*
X95008897Y-102152393D01*
X95023506Y-102137063D01*
X95035092Y-102120016D01*
X95043656Y-102101251D01*
X95049197Y-102080769D01*
X95051716Y-102058569D01*
X95051884Y-102050788D01*
X95050338Y-102027999D01*
X95045701Y-102006893D01*
X95037973Y-101987470D01*
X95027154Y-101969730D01*
X95013244Y-101953673D01*
X95007920Y-101948695D01*
X94989441Y-101935580D01*
X94970999Y-101926724D01*
X94949790Y-101919752D01*
X94925814Y-101914664D01*
X94904641Y-101911951D01*
X94881698Y-101910443D01*
X94863328Y-101910104D01*
X94815457Y-101910104D01*
X94815457Y-101084075D01*
X95132972Y-101084075D01*
X95132986Y-101084563D01*
X95133762Y-101112570D01*
X95136132Y-101140901D01*
X95140082Y-101169070D01*
X95145612Y-101197075D01*
X95152722Y-101224918D01*
X95161411Y-101252597D01*
X95171681Y-101280113D01*
X95179405Y-101298366D01*
X95187832Y-101316547D01*
X95196960Y-101334655D01*
X95206791Y-101352691D01*
X95217324Y-101370654D01*
X95222854Y-101379609D01*
X95234434Y-101397211D01*
X95246705Y-101414360D01*
X95259668Y-101431054D01*
X95273320Y-101447295D01*
X95287664Y-101463081D01*
X95302698Y-101478413D01*
X95318423Y-101493290D01*
X95334839Y-101507714D01*
X95351946Y-101521684D01*
X95369743Y-101535199D01*
X95388231Y-101548260D01*
X95407410Y-101560867D01*
X95427279Y-101573020D01*
X95447839Y-101584719D01*
X95469091Y-101595964D01*
X95491032Y-101606755D01*
X95513319Y-101616988D01*
X95535729Y-101626561D01*
X95558260Y-101635474D01*
X95580914Y-101643727D01*
X95603689Y-101651319D01*
X95626587Y-101658252D01*
X95649607Y-101664524D01*
X95672749Y-101670136D01*
X95696013Y-101675087D01*
X95719399Y-101679379D01*
X95742908Y-101683010D01*
X95766538Y-101685981D01*
X95790291Y-101688292D01*
X95814166Y-101689942D01*
X95838162Y-101690932D01*
X95862281Y-101691263D01*
X95886274Y-101690938D01*
X95910138Y-101689965D01*
X95933871Y-101688343D01*
X95957475Y-101686072D01*
X95980949Y-101683153D01*
X96004293Y-101679585D01*
X96027508Y-101675368D01*
X96050593Y-101670502D01*
X96073548Y-101664987D01*
X96096373Y-101658824D01*
X96119068Y-101652012D01*
X96141634Y-101644551D01*
X96164070Y-101636442D01*
X96186376Y-101627683D01*
X96208553Y-101618276D01*
X96230600Y-101608220D01*
X96252255Y-101597546D01*
X96273258Y-101586406D01*
X96293609Y-101574801D01*
X96313306Y-101562730D01*
X96332352Y-101550193D01*
X96350744Y-101537191D01*
X96368484Y-101523723D01*
X96373889Y-101519316D01*
X96773307Y-101519316D01*
X96774836Y-101542105D01*
X96779421Y-101563211D01*
X96787063Y-101582634D01*
X96797762Y-101600374D01*
X96811518Y-101616431D01*
X96816782Y-101621409D01*
X96835129Y-101634524D01*
X96853541Y-101643380D01*
X96874790Y-101650352D01*
X96898878Y-101655440D01*
X96920192Y-101658153D01*
X96943323Y-101659660D01*
X96961863Y-101660000D01*
X97215875Y-101660000D01*
X97240368Y-101659397D01*
X97263045Y-101657588D01*
X97283905Y-101654573D01*
X97307425Y-101649108D01*
X97328107Y-101641760D01*
X97345950Y-101632526D01*
X97360956Y-101621409D01*
X97375564Y-101605913D01*
X97387151Y-101588734D01*
X97395714Y-101569872D01*
X97401256Y-101549327D01*
X97403774Y-101527099D01*
X97403942Y-101519316D01*
X97402448Y-101496544D01*
X97397966Y-101475489D01*
X97390496Y-101456152D01*
X97380037Y-101438532D01*
X97366590Y-101422630D01*
X97361444Y-101417711D01*
X97343859Y-101404430D01*
X97322976Y-101393897D01*
X97303055Y-101387218D01*
X97280844Y-101382448D01*
X97261427Y-101380006D01*
X97240544Y-101378784D01*
X97229553Y-101378632D01*
X97229553Y-100894542D01*
X97230324Y-100874354D01*
X97233456Y-100851072D01*
X97238996Y-100829961D01*
X97246946Y-100811020D01*
X97257305Y-100794250D01*
X97272916Y-100776991D01*
X97278890Y-100771933D01*
X97296025Y-100760255D01*
X97315191Y-100750134D01*
X97336386Y-100741570D01*
X97359612Y-100734563D01*
X97384868Y-100729114D01*
X97405143Y-100726048D01*
X97426560Y-100723859D01*
X97449118Y-100722545D01*
X97472819Y-100722107D01*
X97496755Y-100722672D01*
X97519958Y-100724366D01*
X97542428Y-100727190D01*
X97564166Y-100731144D01*
X97585170Y-100736227D01*
X97605443Y-100742440D01*
X97624982Y-100749783D01*
X97643789Y-100758255D01*
X97662725Y-100768422D01*
X97682898Y-100781092D01*
X97704308Y-100796265D01*
X97721176Y-100809288D01*
X97738740Y-100823720D01*
X97757000Y-100839559D01*
X97775955Y-100856807D01*
X97795605Y-100875463D01*
X97815951Y-100895527D01*
X97829902Y-100909685D01*
X97829902Y-101378632D01*
X97810243Y-101378859D01*
X97786127Y-101379871D01*
X97764409Y-101381691D01*
X97740631Y-101385104D01*
X97720598Y-101389782D01*
X97701501Y-101397063D01*
X97689706Y-101404521D01*
X97674021Y-101417642D01*
X97657356Y-101434536D01*
X97643959Y-101451979D01*
X97633829Y-101469970D01*
X97626967Y-101488510D01*
X97623045Y-101511483D01*
X97622784Y-101519316D01*
X97624312Y-101542105D01*
X97628898Y-101563211D01*
X97636540Y-101582634D01*
X97647239Y-101600374D01*
X97660995Y-101616431D01*
X97666259Y-101621409D01*
X97684440Y-101634524D01*
X97702739Y-101643380D01*
X97723900Y-101650352D01*
X97747924Y-101655440D01*
X97769204Y-101658153D01*
X97792315Y-101659660D01*
X97810851Y-101660000D01*
X98130809Y-101660000D01*
X98155302Y-101659397D01*
X98177978Y-101657588D01*
X98198838Y-101654573D01*
X98222359Y-101649108D01*
X98243040Y-101641760D01*
X98260884Y-101632526D01*
X98275889Y-101621409D01*
X98290664Y-101605913D01*
X98302382Y-101588734D01*
X98311043Y-101569872D01*
X98316647Y-101549327D01*
X98319195Y-101527099D01*
X98319364Y-101519316D01*
X98453698Y-101519316D01*
X98455226Y-101542105D01*
X98459812Y-101563211D01*
X98467454Y-101582634D01*
X98478153Y-101600374D01*
X98491909Y-101616431D01*
X98497173Y-101621409D01*
X98515520Y-101634524D01*
X98533931Y-101643380D01*
X98555181Y-101650352D01*
X98579269Y-101655440D01*
X98600583Y-101658153D01*
X98623713Y-101659660D01*
X98642254Y-101660000D01*
X98971981Y-101660000D01*
X98971981Y-101503684D01*
X98992050Y-101520857D01*
X99012505Y-101537206D01*
X99033346Y-101552731D01*
X99054574Y-101567431D01*
X99076188Y-101581308D01*
X99098188Y-101594359D01*
X99120575Y-101606587D01*
X99143348Y-101617990D01*
X99166508Y-101628568D01*
X99190054Y-101638323D01*
X99205966Y-101644368D01*
X99229665Y-101652749D01*
X99252952Y-101660305D01*
X99275827Y-101667037D01*
X99298290Y-101672944D01*
X99320340Y-101678028D01*
X99341979Y-101682287D01*
X99363205Y-101685721D01*
X99384019Y-101688332D01*
X99404421Y-101690118D01*
X99424411Y-101691079D01*
X99437508Y-101691263D01*
X99465568Y-101690824D01*
X99492959Y-101689507D01*
X99519683Y-101687313D01*
X99545738Y-101684241D01*
X99571126Y-101680291D01*
X99595846Y-101675463D01*
X99619898Y-101669758D01*
X99643283Y-101663175D01*
X99665999Y-101655714D01*
X99688048Y-101647375D01*
X99709429Y-101638159D01*
X99730142Y-101628065D01*
X99750187Y-101617093D01*
X99769564Y-101605243D01*
X99788273Y-101592516D01*
X99806315Y-101578911D01*
X99823410Y-101564712D01*
X99839402Y-101550327D01*
X99854291Y-101535754D01*
X99868078Y-101520995D01*
X99880761Y-101506048D01*
X99897719Y-101483278D01*
X99912194Y-101460087D01*
X99924188Y-101436475D01*
X99933701Y-101412442D01*
X99940732Y-101387989D01*
X99945281Y-101363115D01*
X99947349Y-101337820D01*
X99947487Y-101329295D01*
X99946781Y-101308628D01*
X99944663Y-101288147D01*
X99941133Y-101267854D01*
X99936191Y-101247748D01*
X99929837Y-101227829D01*
X99922071Y-101208097D01*
X99912893Y-101188552D01*
X99902302Y-101169193D01*
X99890300Y-101150022D01*
X99876886Y-101131038D01*
X99862060Y-101112241D01*
X99845821Y-101093631D01*
X99828171Y-101075208D01*
X99809108Y-101056972D01*
X99788634Y-101038922D01*
X99766748Y-101021060D01*
X99743617Y-101003788D01*
X99719410Y-100987629D01*
X99694127Y-100972586D01*
X99667768Y-100958656D01*
X99640333Y-100945841D01*
X99611821Y-100934140D01*
X99582234Y-100923554D01*
X99551570Y-100914082D01*
X99519830Y-100905724D01*
X99487013Y-100898481D01*
X99453121Y-100892352D01*
X99418152Y-100887337D01*
X99382107Y-100883437D01*
X99344986Y-100880651D01*
X99306789Y-100878980D01*
X99267515Y-100878422D01*
X99243171Y-100878663D01*
X99218130Y-100879384D01*
X99192395Y-100880586D01*
X99165964Y-100882269D01*
X99138837Y-100884433D01*
X99111015Y-100887078D01*
X99082497Y-100890203D01*
X99063099Y-100892554D01*
X99043391Y-100895119D01*
X99023375Y-100897897D01*
X99003049Y-100900889D01*
X98982415Y-100904095D01*
X98971981Y-100905778D01*
X98971981Y-100847159D01*
X98973888Y-100827181D01*
X98980930Y-100805696D01*
X98991097Y-100788843D01*
X99005076Y-100773433D01*
X99022867Y-100759466D01*
X99026203Y-100757278D01*
X99045545Y-100747146D01*
X99064470Y-100740276D01*
X99086463Y-100734506D01*
X99111525Y-100729835D01*
X99132334Y-100727053D01*
X99154870Y-100724889D01*
X99179132Y-100723343D01*
X99205119Y-100722416D01*
X99232833Y-100722107D01*
X99256933Y-100722511D01*
X99282338Y-100723721D01*
X99309048Y-100725739D01*
X99337063Y-100728564D01*
X99356465Y-100730896D01*
X99376448Y-100733586D01*
X99397010Y-100736636D01*
X99418152Y-100740044D01*
X99439874Y-100743810D01*
X99462177Y-100747936D01*
X99485059Y-100752420D01*
X99508522Y-100757263D01*
X99532564Y-100762464D01*
X99557187Y-100768025D01*
X99579579Y-100772809D01*
X99600350Y-100776783D01*
X99623133Y-100780481D01*
X99643580Y-100783011D01*
X99664484Y-100784487D01*
X99672470Y-100784633D01*
X99693101Y-100783225D01*
X99712495Y-100779000D01*
X99733559Y-100770512D01*
X99750275Y-100760185D01*
X99765753Y-100747042D01*
X99768213Y-100744577D01*
X99781494Y-100728784D01*
X99792027Y-100711444D01*
X99799812Y-100692559D01*
X99804849Y-100672129D01*
X99807139Y-100650153D01*
X99807292Y-100642484D01*
X99805956Y-100621456D01*
X99801401Y-100600529D01*
X99793614Y-100581912D01*
X99787293Y-100572142D01*
X100126273Y-100572142D01*
X100126767Y-100593920D01*
X100128248Y-100615476D01*
X100130717Y-100636808D01*
X100134173Y-100657917D01*
X100138616Y-100678803D01*
X100144047Y-100699465D01*
X100150466Y-100719904D01*
X100157872Y-100740120D01*
X100166265Y-100760112D01*
X100175646Y-100779882D01*
X100182449Y-100792937D01*
X100193966Y-100812332D01*
X100207270Y-100831680D01*
X100222360Y-100850983D01*
X100239235Y-100870240D01*
X100253064Y-100884653D01*
X100267898Y-100899040D01*
X100283736Y-100913401D01*
X100300578Y-100927737D01*
X100318426Y-100942046D01*
X100324598Y-100946810D01*
X100343321Y-100960672D01*
X100362122Y-100973864D01*
X100381000Y-100986386D01*
X100399955Y-100998239D01*
X100418987Y-101009421D01*
X100438097Y-101019934D01*
X100457284Y-101029778D01*
X100476548Y-101038951D01*
X100495889Y-101047455D01*
X100515308Y-101055289D01*
X100528297Y-101060139D01*
X100548298Y-101066774D01*
X100569467Y-101072756D01*
X100591804Y-101078085D01*
X100615308Y-101082762D01*
X100639981Y-101086786D01*
X100665821Y-101090158D01*
X100692829Y-101092877D01*
X100721004Y-101094944D01*
X100750348Y-101096358D01*
X100770559Y-101096938D01*
X100791289Y-101097228D01*
X100801849Y-101097264D01*
X101068562Y-101097264D01*
X101068562Y-101378632D01*
X100784263Y-101378632D01*
X100759770Y-101379242D01*
X100737094Y-101381074D01*
X100716234Y-101384127D01*
X100692714Y-101389661D01*
X100672032Y-101397103D01*
X100654188Y-101406453D01*
X100639183Y-101417711D01*
X100624408Y-101433041D01*
X100612690Y-101450088D01*
X100604029Y-101468853D01*
X100598425Y-101489335D01*
X100595878Y-101511534D01*
X100595708Y-101519316D01*
X100597236Y-101542105D01*
X100601822Y-101563211D01*
X100609464Y-101582634D01*
X100620163Y-101600374D01*
X100633918Y-101616431D01*
X100639183Y-101621409D01*
X100657530Y-101634524D01*
X100675941Y-101643380D01*
X100697191Y-101650352D01*
X100721279Y-101655440D01*
X100742593Y-101658153D01*
X100765723Y-101659660D01*
X100784263Y-101660000D01*
X101394382Y-101660000D01*
X101418875Y-101659397D01*
X101441551Y-101657588D01*
X101462411Y-101654573D01*
X101485931Y-101649108D01*
X101506613Y-101641760D01*
X101524457Y-101632526D01*
X101539462Y-101621409D01*
X101554071Y-101605913D01*
X101565657Y-101588734D01*
X101574221Y-101569872D01*
X101579762Y-101549327D01*
X101582281Y-101527099D01*
X101582449Y-101519316D01*
X101580903Y-101496544D01*
X101576267Y-101475489D01*
X101568539Y-101456152D01*
X101557719Y-101438532D01*
X101543809Y-101422630D01*
X101538485Y-101417711D01*
X101520024Y-101404430D01*
X101501622Y-101395462D01*
X101480478Y-101388401D01*
X101456590Y-101383249D01*
X101435505Y-101380502D01*
X101412664Y-101378975D01*
X101394382Y-101378632D01*
X101350418Y-101378632D01*
X101350418Y-100346950D01*
X101394382Y-100346950D01*
X101418875Y-100346347D01*
X101441551Y-100344538D01*
X101462411Y-100341523D01*
X101485931Y-100336059D01*
X101506613Y-100328710D01*
X101524457Y-100319477D01*
X101539462Y-100308360D01*
X101554071Y-100292864D01*
X101565657Y-100275684D01*
X101574221Y-100256822D01*
X101579762Y-100236277D01*
X101582281Y-100214049D01*
X101582449Y-100206266D01*
X101580938Y-100183494D01*
X101576404Y-100162440D01*
X101568848Y-100143103D01*
X101558269Y-100125483D01*
X101544668Y-100109580D01*
X101539462Y-100104661D01*
X101521115Y-100091380D01*
X101502704Y-100082412D01*
X101481454Y-100075352D01*
X101457367Y-100070200D01*
X101436053Y-100067452D01*
X101412922Y-100065926D01*
X101394382Y-100065582D01*
X100745673Y-100065582D01*
X100710418Y-100066158D01*
X100676094Y-100067887D01*
X100642702Y-100070769D01*
X100610240Y-100074802D01*
X100578710Y-100079989D01*
X100548111Y-100086328D01*
X100518443Y-100093819D01*
X100489706Y-100102463D01*
X100461901Y-100112259D01*
X100435027Y-100123208D01*
X100409083Y-100135310D01*
X100384071Y-100148564D01*
X100359991Y-100162970D01*
X100336841Y-100178529D01*
X100314622Y-100195241D01*
X100293335Y-100213105D01*
X100273105Y-100231738D01*
X100254180Y-100250879D01*
X100236560Y-100270527D01*
X100220245Y-100290683D01*
X100205236Y-100311346D01*
X100191532Y-100332517D01*
X100179133Y-100354195D01*
X100168039Y-100376381D01*
X100158250Y-100399075D01*
X100149766Y-100422276D01*
X100142588Y-100445985D01*
X100136714Y-100470201D01*
X100132146Y-100494925D01*
X100128883Y-100520156D01*
X100126926Y-100545895D01*
X100126431Y-100565792D01*
X100126273Y-100572142D01*
X99787293Y-100572142D01*
X99782883Y-100565325D01*
X99768149Y-100549994D01*
X99755024Y-100540390D01*
X99736799Y-100531095D01*
X99716800Y-100523171D01*
X99695602Y-100515895D01*
X99675078Y-100509491D01*
X99651953Y-100502777D01*
X99632319Y-100497568D01*
X99612615Y-100492564D01*
X99592843Y-100487767D01*
X99573002Y-100483176D01*
X99553092Y-100478791D01*
X99533114Y-100474613D01*
X99513067Y-100470640D01*
X99492951Y-100466873D01*
X99472767Y-100463313D01*
X99452514Y-100459958D01*
X99438974Y-100457836D01*
X99418821Y-100454781D01*
X99399029Y-100452026D01*
X99379597Y-100449572D01*
X99354249Y-100446767D01*
X99329542Y-100444496D01*
X99305477Y-100442759D01*
X99282052Y-100441557D01*
X99259269Y-100440889D01*
X99242602Y-100440739D01*
X99210271Y-100441153D01*
X99178855Y-100442395D01*
X99148355Y-100444466D01*
X99118771Y-100447364D01*
X99090103Y-100451091D01*
X99062351Y-100455646D01*
X99035515Y-100461029D01*
X99009595Y-100467240D01*
X98984590Y-100474279D01*
X98960502Y-100482146D01*
X98937329Y-100490841D01*
X98915073Y-100500365D01*
X98893732Y-100510717D01*
X98873307Y-100521897D01*
X98853798Y-100533904D01*
X98835205Y-100546741D01*
X98817637Y-100560294D01*
X98801202Y-100574455D01*
X98785901Y-100589222D01*
X98771733Y-100604596D01*
X98758698Y-100620576D01*
X98746797Y-100637164D01*
X98736029Y-100654358D01*
X98726395Y-100672159D01*
X98717894Y-100690567D01*
X98710527Y-100709582D01*
X98704293Y-100729203D01*
X98699193Y-100749432D01*
X98695226Y-100770267D01*
X98692392Y-100791709D01*
X98690692Y-100813757D01*
X98690125Y-100836413D01*
X98690125Y-101287285D01*
X98690125Y-101378632D01*
X98642254Y-101378632D01*
X98617761Y-101379242D01*
X98595084Y-101381074D01*
X98574224Y-101384127D01*
X98550704Y-101389661D01*
X98530022Y-101397103D01*
X98512178Y-101406453D01*
X98497173Y-101417711D01*
X98482398Y-101433041D01*
X98470681Y-101450088D01*
X98462019Y-101468853D01*
X98456415Y-101489335D01*
X98453868Y-101511534D01*
X98453698Y-101519316D01*
X98319364Y-101519316D01*
X98317046Y-101496063D01*
X98311572Y-101477263D01*
X98302878Y-101458988D01*
X98290964Y-101441237D01*
X98275830Y-101424011D01*
X98261404Y-101410608D01*
X98253419Y-101404033D01*
X98235287Y-101394135D01*
X98214015Y-101387587D01*
X98192248Y-101383494D01*
X98172189Y-101381112D01*
X98149780Y-101379525D01*
X98125020Y-101378731D01*
X98111758Y-101378632D01*
X98111758Y-100753370D01*
X98133374Y-100752767D01*
X98153524Y-100750958D01*
X98176650Y-100747001D01*
X98197487Y-100741160D01*
X98216034Y-100733434D01*
X98235269Y-100721676D01*
X98243649Y-100714780D01*
X98258092Y-100699284D01*
X98269547Y-100682105D01*
X98278013Y-100663243D01*
X98283491Y-100642698D01*
X98285981Y-100620470D01*
X98286147Y-100612686D01*
X98284636Y-100589914D01*
X98280102Y-100568860D01*
X98272546Y-100549523D01*
X98261967Y-100531903D01*
X98248366Y-100516000D01*
X98243161Y-100511081D01*
X98224814Y-100497800D01*
X98206403Y-100488832D01*
X98185153Y-100481772D01*
X98161065Y-100476620D01*
X98139751Y-100473872D01*
X98116620Y-100472346D01*
X98098080Y-100472002D01*
X97829902Y-100472002D01*
X97829902Y-100565792D01*
X97810477Y-100550648D01*
X97790548Y-100536482D01*
X97770116Y-100523293D01*
X97749180Y-100511081D01*
X97727740Y-100499846D01*
X97705796Y-100489588D01*
X97683348Y-100480307D01*
X97660397Y-100472002D01*
X97636950Y-100464675D01*
X97613014Y-100458325D01*
X97588590Y-100452951D01*
X97563677Y-100448555D01*
X97538276Y-100445136D01*
X97512386Y-100442693D01*
X97492648Y-100441502D01*
X97472636Y-100440861D01*
X97459141Y-100440739D01*
X97428286Y-100441306D01*
X97398248Y-100443006D01*
X97369027Y-100445840D01*
X97340622Y-100449807D01*
X97313034Y-100454907D01*
X97286263Y-100461141D01*
X97260308Y-100468508D01*
X97235170Y-100477009D01*
X97210849Y-100486644D01*
X97187345Y-100497411D01*
X97164657Y-100509312D01*
X97142786Y-100522347D01*
X97121731Y-100536515D01*
X97101493Y-100551816D01*
X97082072Y-100568251D01*
X97063468Y-100585819D01*
X97049508Y-100600571D01*
X97036448Y-100615884D01*
X97024290Y-100631758D01*
X97013032Y-100648193D01*
X97002674Y-100665189D01*
X96993217Y-100682746D01*
X96984661Y-100700864D01*
X96977006Y-100719542D01*
X96970251Y-100738782D01*
X96964397Y-100758583D01*
X96959443Y-100778945D01*
X96955390Y-100799868D01*
X96952238Y-100821352D01*
X96949986Y-100843396D01*
X96948635Y-100866002D01*
X96948185Y-100889169D01*
X96948185Y-101378632D01*
X96926570Y-101379242D01*
X96906420Y-101381074D01*
X96883293Y-101385081D01*
X96862456Y-101390997D01*
X96843909Y-101398820D01*
X96824675Y-101410727D01*
X96816294Y-101417711D01*
X96801685Y-101433041D01*
X96790099Y-101450088D01*
X96781535Y-101468853D01*
X96775994Y-101489335D01*
X96773475Y-101511534D01*
X96773307Y-101519316D01*
X96373889Y-101519316D01*
X96385572Y-101509790D01*
X96402007Y-101495391D01*
X96417789Y-101480527D01*
X96432919Y-101465197D01*
X96447396Y-101449401D01*
X96461220Y-101433140D01*
X96474392Y-101416413D01*
X96486912Y-101399221D01*
X96498778Y-101381563D01*
X96509899Y-101363561D01*
X96520302Y-101345461D01*
X96529988Y-101327261D01*
X96538956Y-101308961D01*
X96547207Y-101290563D01*
X96554740Y-101272066D01*
X96561556Y-101253469D01*
X96567655Y-101234773D01*
X96573036Y-101215977D01*
X96579762Y-101187599D01*
X96584874Y-101158996D01*
X96588372Y-101130171D01*
X96590255Y-101101122D01*
X96590614Y-101081632D01*
X96590249Y-101061751D01*
X96589156Y-101041920D01*
X96587333Y-101022138D01*
X96584782Y-101002406D01*
X96581502Y-100982724D01*
X96577493Y-100963091D01*
X96572755Y-100943507D01*
X96567288Y-100923974D01*
X96561093Y-100904490D01*
X96554168Y-100885055D01*
X96546514Y-100865670D01*
X96538132Y-100846335D01*
X96529021Y-100827049D01*
X96519180Y-100807813D01*
X96508611Y-100788627D01*
X96497313Y-100769490D01*
X96485330Y-100750632D01*
X96472705Y-100732281D01*
X96459440Y-100714438D01*
X96445533Y-100697103D01*
X96430986Y-100680275D01*
X96415797Y-100663954D01*
X96399967Y-100648141D01*
X96383496Y-100632836D01*
X96366383Y-100618039D01*
X96348630Y-100603748D01*
X96330235Y-100589966D01*
X96311200Y-100576691D01*
X96291523Y-100563923D01*
X96271205Y-100551664D01*
X96250246Y-100539911D01*
X96228646Y-100528667D01*
X96206664Y-100518019D01*
X96184560Y-100508059D01*
X96162334Y-100498785D01*
X96139986Y-100490198D01*
X96117515Y-100482299D01*
X96094923Y-100475086D01*
X96072208Y-100468560D01*
X96049371Y-100462721D01*
X96026413Y-100457569D01*
X96003332Y-100453104D01*
X95980129Y-100449326D01*
X95956803Y-100446235D01*
X95933356Y-100443830D01*
X95909787Y-100442113D01*
X95886095Y-100441083D01*
X95862281Y-100440739D01*
X95838340Y-100441090D01*
X95814509Y-100442144D01*
X95790789Y-100443899D01*
X95767179Y-100446357D01*
X95743681Y-100449517D01*
X95720292Y-100453379D01*
X95697015Y-100457943D01*
X95673848Y-100463210D01*
X95650792Y-100469178D01*
X95627846Y-100475849D01*
X95605012Y-100483222D01*
X95582288Y-100491297D01*
X95559674Y-100500075D01*
X95537171Y-100509555D01*
X95514779Y-100519737D01*
X95492498Y-100530621D01*
X95470554Y-100542098D01*
X95449297Y-100554060D01*
X95428727Y-100566507D01*
X95408845Y-100579439D01*
X95389649Y-100592855D01*
X95371140Y-100606756D01*
X95353317Y-100621141D01*
X95336182Y-100636011D01*
X95319734Y-100651366D01*
X95303973Y-100667206D01*
X95288898Y-100683530D01*
X95274511Y-100700339D01*
X95260811Y-100717632D01*
X95247797Y-100735411D01*
X95235470Y-100753673D01*
X95223831Y-100772421D01*
X95212828Y-100791384D01*
X95202536Y-100810416D01*
X95192953Y-100829517D01*
X95184080Y-100848686D01*
X95175917Y-100867924D01*
X95168464Y-100887230D01*
X95161720Y-100906606D01*
X95155687Y-100926050D01*
X95150363Y-100945562D01*
X95145749Y-100965144D01*
X95141845Y-100984794D01*
X95138651Y-101004513D01*
X95136167Y-101024300D01*
X95134392Y-101044156D01*
X95133327Y-101064081D01*
X95132972Y-101084075D01*
X94815457Y-101084075D01*
X94815457Y-100753370D01*
X94863328Y-100753370D01*
X94887936Y-100752767D01*
X94910711Y-100750958D01*
X94931655Y-100747943D01*
X94950767Y-100743722D01*
X94972081Y-100736751D01*
X94990533Y-100727894D01*
X95008897Y-100714780D01*
X95023506Y-100699284D01*
X95035092Y-100682105D01*
X95043656Y-100663243D01*
X95049197Y-100642698D01*
X95051716Y-100620470D01*
X95051884Y-100612686D01*
X95050372Y-100589914D01*
X95045839Y-100568860D01*
X95038282Y-100549523D01*
X95027704Y-100531903D01*
X95014102Y-100516000D01*
X95008897Y-100511081D01*
X94990533Y-100497800D01*
X94972081Y-100488832D01*
X94950767Y-100481772D01*
X94931655Y-100477498D01*
X94910711Y-100474445D01*
X94887936Y-100472613D01*
X94863328Y-100472002D01*
X94533600Y-100472002D01*
X94533600Y-100597055D01*
X94515039Y-100582573D01*
X94496357Y-100568805D01*
X94477555Y-100555748D01*
X94458633Y-100543405D01*
X94439591Y-100531775D01*
X94420428Y-100520857D01*
X94401145Y-100510651D01*
X94381742Y-100501159D01*
X94362219Y-100492379D01*
X94342576Y-100484312D01*
X94329413Y-100479330D01*
X94309491Y-100472433D01*
X94289474Y-100466215D01*
X94269362Y-100460675D01*
X94249157Y-100455814D01*
X94228856Y-100451630D01*
X94208462Y-100448126D01*
X94187972Y-100445299D01*
X94167389Y-100443151D01*
X94146711Y-100441681D01*
X94125938Y-100440890D01*
X94112037Y-100440739D01*
X94076284Y-100441481D01*
X94041199Y-100443708D01*
X94006782Y-100447420D01*
X93973032Y-100452616D01*
X93939951Y-100459296D01*
X93907537Y-100467461D01*
X93875791Y-100477110D01*
X93844713Y-100488244D01*
X93814303Y-100500863D01*
X93784561Y-100514966D01*
X93755487Y-100530554D01*
X93727080Y-100547626D01*
X93699341Y-100566183D01*
X93672270Y-100586224D01*
X93645867Y-100607750D01*
X93620132Y-100630760D01*
X93595525Y-100654730D01*
X93572505Y-100679135D01*
X93551072Y-100703976D01*
X93531228Y-100729251D01*
X93512971Y-100754961D01*
X93496301Y-100781107D01*
X93481219Y-100807687D01*
X93467725Y-100834703D01*
X93455818Y-100862154D01*
X93445498Y-100890039D01*
X93436767Y-100918360D01*
X93429623Y-100947116D01*
X93424066Y-100976307D01*
X93420097Y-101005932D01*
X93417716Y-101035993D01*
X93416922Y-101066489D01*
X92854675Y-101066489D01*
X92854675Y-100753370D01*
X92956280Y-100753370D01*
X92980887Y-100752759D01*
X93003663Y-100750928D01*
X93024607Y-100747875D01*
X93043719Y-100743600D01*
X93065033Y-100736540D01*
X93083485Y-100727572D01*
X93101849Y-100714291D01*
X93116458Y-100698795D01*
X93128044Y-100681616D01*
X93136608Y-100662754D01*
X93142149Y-100642209D01*
X93144668Y-100619981D01*
X93144836Y-100612198D01*
X93143324Y-100589741D01*
X93138790Y-100568898D01*
X93131234Y-100549670D01*
X93120655Y-100532056D01*
X93107054Y-100516056D01*
X93101849Y-100511081D01*
X93083485Y-100497800D01*
X93065033Y-100488832D01*
X93043719Y-100481772D01*
X93024607Y-100477498D01*
X93003663Y-100474445D01*
X92980887Y-100472613D01*
X92956280Y-100472002D01*
X92854675Y-100472002D01*
X92854675Y-100220432D01*
X92854064Y-100196183D01*
X92852233Y-100173751D01*
X92849180Y-100153136D01*
X92843646Y-100129921D01*
X92836204Y-100109544D01*
X92826854Y-100092006D01*
X92815596Y-100077306D01*
X92800100Y-100062697D01*
X92782921Y-100051111D01*
X92764059Y-100042547D01*
X92743514Y-100037006D01*
X92721286Y-100034487D01*
X92713503Y-100034319D01*
X92691046Y-100035830D01*
X92670203Y-100040364D01*
X92650975Y-100047920D01*
X92633360Y-100058499D01*
X92617361Y-100072100D01*
X92612386Y-100077306D01*
X92599105Y-100095286D01*
X92590137Y-100113392D01*
X92583077Y-100134337D01*
X92577925Y-100158119D01*
X92575177Y-100179189D01*
X92573651Y-100202075D01*
X92573307Y-100220432D01*
X92573307Y-100472002D01*
X92052581Y-100472002D01*
X92027982Y-100472613D01*
X92005229Y-100474445D01*
X91984323Y-100477498D01*
X91960789Y-100483031D01*
X91940140Y-100490473D01*
X91922378Y-100499823D01*
X91907501Y-100511081D01*
X91892726Y-100526577D01*
X91881009Y-100543756D01*
X91872347Y-100562618D01*
X91866743Y-100583163D01*
X91864196Y-100605391D01*
X91864026Y-100613175D01*
X91865554Y-100635632D01*
X91870140Y-100656474D01*
X91877782Y-100675703D01*
X91888481Y-100693317D01*
X91902237Y-100709317D01*
X91907501Y-100714291D01*
X91925699Y-100727572D01*
X91944039Y-100736540D01*
X91965265Y-100743600D01*
X91989377Y-100748752D01*
X92010744Y-100751500D01*
X92033958Y-100753027D01*
X92052581Y-100753370D01*
X92573307Y-100753370D01*
X92573307Y-101261395D01*
X92572401Y-101285528D01*
X92569682Y-101306943D01*
X92564026Y-101329050D01*
X92555760Y-101347243D01*
X92542817Y-101363518D01*
X92536182Y-101368862D01*
X92515951Y-101380683D01*
X92496572Y-101388697D01*
X92474354Y-101395429D01*
X92449296Y-101400879D01*
X92428639Y-101404125D01*
X92406385Y-101406649D01*
X92382535Y-101408452D01*
X92357086Y-101409534D01*
X92330041Y-101409895D01*
X92303240Y-101409544D01*
X92276690Y-101408490D01*
X92250391Y-101406735D01*
X92224345Y-101404277D01*
X92198551Y-101401117D01*
X92173008Y-101397255D01*
X92147718Y-101392691D01*
X92122679Y-101387424D01*
X92097892Y-101381456D01*
X92073357Y-101374785D01*
X92049074Y-101367412D01*
X92025043Y-101359337D01*
X92001264Y-101350559D01*
X91977736Y-101341079D01*
X91954461Y-101330898D01*
X91931437Y-101320013D01*
X91910335Y-101309881D01*
X91890689Y-101301466D01*
X91869033Y-101293635D01*
X91849473Y-101288277D01*
X91829300Y-101285152D01*
X91821528Y-101284842D01*
X91801509Y-101286285D01*
X91779414Y-101291615D01*
X91758673Y-101300871D01*
X91741975Y-101311931D01*
X91726273Y-101325875D01*
X91712494Y-101341881D01*
X91701566Y-101359123D01*
X91693489Y-101377601D01*
X91688263Y-101397316D01*
X91685887Y-101418268D01*
X91685729Y-101425526D01*
X91455898Y-101425526D01*
X91462766Y-101416947D01*
X91480979Y-101391575D01*
X91497608Y-101365557D01*
X91512654Y-101338895D01*
X91526116Y-101311587D01*
X91537994Y-101283635D01*
X91548289Y-101255037D01*
X91556999Y-101225795D01*
X91564126Y-101195908D01*
X91569669Y-101165375D01*
X91573629Y-101134198D01*
X91576005Y-101102376D01*
X91576796Y-101069909D01*
X91575942Y-101035450D01*
X91573377Y-101001803D01*
X91569103Y-100968970D01*
X91563119Y-100936949D01*
X91555425Y-100905741D01*
X91546022Y-100875346D01*
X91534909Y-100845764D01*
X91522086Y-100816995D01*
X91507554Y-100789039D01*
X91491311Y-100761896D01*
X91473360Y-100735565D01*
X91453698Y-100710047D01*
X91432327Y-100685343D01*
X91409246Y-100661451D01*
X91384455Y-100638372D01*
X91357955Y-100616106D01*
X91330279Y-100594870D01*
X91302084Y-100575004D01*
X91273370Y-100556508D01*
X91244138Y-100539383D01*
X91214386Y-100523627D01*
X91184115Y-100509242D01*
X91153325Y-100496226D01*
X91122016Y-100484581D01*
X91090188Y-100474305D01*
X91057841Y-100465400D01*
X91024976Y-100457865D01*
X90991591Y-100451700D01*
X90957687Y-100446904D01*
X90923264Y-100443479D01*
X90888322Y-100441424D01*
X90852861Y-100440739D01*
X90831537Y-100440961D01*
X90810431Y-100441625D01*
X90789543Y-100442731D01*
X90768872Y-100444281D01*
X90748418Y-100446273D01*
X90728182Y-100448708D01*
X90708164Y-100451585D01*
X90688363Y-100454905D01*
X90668780Y-100458668D01*
X90649414Y-100462874D01*
X90630266Y-100467522D01*
X90611335Y-100472613D01*
X90583347Y-100481079D01*
X90555848Y-100490542D01*
X90537787Y-100497404D01*
X90511508Y-100508018D01*
X90486525Y-100518796D01*
X90462839Y-100529737D01*
X90440449Y-100540841D01*
X90419356Y-100552108D01*
X90399559Y-100563538D01*
X90381059Y-100575131D01*
X90363856Y-100586888D01*
X90347949Y-100598808D01*
X90328757Y-100614954D01*
X90324319Y-100619036D01*
X90306031Y-100637200D01*
X90288352Y-100656154D01*
X90271284Y-100675897D01*
X90254824Y-100696431D01*
X90238975Y-100717754D01*
X90223735Y-100739868D01*
X90209105Y-100762771D01*
X90195084Y-100786465D01*
X90181673Y-100810948D01*
X90168872Y-100836222D01*
X90160676Y-100853510D01*
X90152820Y-100872098D01*
X90145736Y-100891228D01*
X90139424Y-100910899D01*
X90133886Y-100931110D01*
X90131626Y-100940949D01*
X90129120Y-100951863D01*
X90125128Y-100973156D01*
X90121908Y-100994991D01*
X90119460Y-101017366D01*
X90117786Y-101040282D01*
X90116884Y-101063740D01*
X90116713Y-101079678D01*
X90116713Y-101191053D01*
X91271981Y-101191053D01*
X91263141Y-101209132D01*
X91253108Y-101226550D01*
X91241881Y-101243307D01*
X91229460Y-101259403D01*
X91215846Y-101274838D01*
X91201038Y-101289611D01*
X91185037Y-101303723D01*
X91167842Y-101317174D01*
X91149454Y-101329964D01*
X91129872Y-101342093D01*
X91116154Y-101349811D01*
X91094485Y-101360549D01*
X91071424Y-101370230D01*
X91046972Y-101378855D01*
X91021129Y-101386425D01*
X90993895Y-101392938D01*
X90965270Y-101398394D01*
X90945413Y-101401446D01*
X90924939Y-101404027D01*
X90903846Y-101406140D01*
X90882135Y-101407783D01*
X90859806Y-101408956D01*
X90836859Y-101409660D01*
X90813293Y-101409895D01*
X90793290Y-101409635D01*
X90772482Y-101408857D01*
X90750868Y-101407559D01*
X90728449Y-101405743D01*
X90705225Y-101403407D01*
X90681196Y-101400553D01*
X90656362Y-101397179D01*
X90630722Y-101393286D01*
X90604277Y-101388875D01*
X90577026Y-101383944D01*
X90548971Y-101378494D01*
X90520110Y-101372526D01*
X90490444Y-101366038D01*
X90459973Y-101359031D01*
X90428697Y-101351506D01*
X90396615Y-101343461D01*
X90377136Y-101338572D01*
X90352968Y-101332802D01*
X90330860Y-101327886D01*
X90310813Y-101323826D01*
X90288652Y-101319952D01*
X90266310Y-101317067D01*
X90248604Y-101316106D01*
X90228007Y-101317514D01*
X90208716Y-101321738D01*
X90187859Y-101330227D01*
X90168778Y-101342549D01*
X90153838Y-101356161D01*
X90140723Y-101371720D01*
X90130322Y-101388722D01*
X90122634Y-101407166D01*
X90117659Y-101427053D01*
X90115398Y-101448382D01*
X90115247Y-101455812D01*
X89779658Y-101455812D01*
X89779658Y-101397194D01*
X89779047Y-101374472D01*
X89777215Y-101353444D01*
X89774162Y-101334111D01*
X89768628Y-101312327D01*
X89761187Y-101293191D01*
X89749738Y-101273722D01*
X89740579Y-101262861D01*
X89725083Y-101249082D01*
X89707904Y-101238154D01*
X89689042Y-101230077D01*
X89668497Y-101224850D01*
X89646269Y-101222475D01*
X89638485Y-101222316D01*
X89617054Y-101223392D01*
X89597212Y-101226617D01*
X89576482Y-101232937D01*
X89557828Y-101242066D01*
X89553489Y-101244787D01*
X89537124Y-101257823D01*
X89522714Y-101274951D01*
X89511708Y-101293293D01*
X89503465Y-101311508D01*
X89499755Y-101321479D01*
X89483223Y-101332020D01*
X89465867Y-101341904D01*
X89447686Y-101351132D01*
X89428681Y-101359703D01*
X89408851Y-101367618D01*
X89388197Y-101374877D01*
X89366719Y-101381479D01*
X89344417Y-101387424D01*
X89321275Y-101392691D01*
X89297278Y-101397255D01*
X89272426Y-101401117D01*
X89246720Y-101404277D01*
X89226879Y-101406186D01*
X89206557Y-101407700D01*
X89185754Y-101408820D01*
X89164471Y-101409544D01*
X89142707Y-101409873D01*
X89135345Y-101409895D01*
X89111501Y-101409683D01*
X89088328Y-101409048D01*
X89065827Y-101407989D01*
X89043998Y-101406506D01*
X89022841Y-101404600D01*
X89002355Y-101402270D01*
X88982540Y-101399516D01*
X88954079Y-101394592D01*
X88927128Y-101388714D01*
X88901688Y-101381884D01*
X88877760Y-101374100D01*
X88855343Y-101365363D01*
X88834438Y-101355673D01*
X88817173Y-101345495D01*
X88801545Y-101333360D01*
X88788596Y-101317346D01*
X88783635Y-101299009D01*
X88787118Y-101278265D01*
X88797567Y-101259205D01*
X88812067Y-101244207D01*
X88828059Y-101232653D01*
X88847606Y-101221958D01*
X88856420Y-101217920D01*
X88877043Y-101210020D01*
X88902520Y-101202441D01*
X88924814Y-101196967D01*
X88949839Y-101191673D01*
X88977594Y-101186560D01*
X88997614Y-101183251D01*
X89018848Y-101180023D01*
X89041295Y-101176874D01*
X89064956Y-101173806D01*
X89089831Y-101170818D01*
X89115919Y-101167910D01*
X89143221Y-101165082D01*
X89157327Y-101163698D01*
X89178325Y-101161621D01*
X89198884Y-101159422D01*
X89219003Y-101157099D01*
X89238683Y-101154653D01*
X89276721Y-101149393D01*
X89313001Y-101143640D01*
X89347521Y-101137394D01*
X89380282Y-101130657D01*
X89411284Y-101123427D01*
X89440526Y-101115704D01*
X89468009Y-101107490D01*
X89493733Y-101098783D01*
X89517698Y-101089584D01*
X89539903Y-101079892D01*
X89560348Y-101069708D01*
X89579035Y-101059032D01*
X89595962Y-101047864D01*
X89611130Y-101036203D01*
X89631470Y-101018231D01*
X89649810Y-100999487D01*
X89666149Y-100979969D01*
X89680487Y-100959679D01*
X89692825Y-100938616D01*
X89703162Y-100916780D01*
X89711498Y-100894171D01*
X89717834Y-100870790D01*
X89722168Y-100846636D01*
X89724503Y-100821708D01*
X89724947Y-100804661D01*
X89723822Y-100778603D01*
X89720448Y-100753370D01*
X89714823Y-100728961D01*
X89706950Y-100705376D01*
X89696826Y-100682616D01*
X89684452Y-100660680D01*
X89669829Y-100639568D01*
X89652957Y-100619281D01*
X89633834Y-100599818D01*
X89612462Y-100581179D01*
X89596964Y-100569211D01*
X89574929Y-100553654D01*
X89552054Y-100539100D01*
X89528339Y-100525551D01*
X89503785Y-100513005D01*
X89478392Y-100501462D01*
X89452158Y-100490923D01*
X89425086Y-100481388D01*
X89397173Y-100472857D01*
X89368421Y-100465330D01*
X89338830Y-100458806D01*
X89308399Y-100453285D01*
X89277128Y-100448769D01*
X89245018Y-100445256D01*
X89212068Y-100442747D01*
X89178278Y-100441241D01*
X89143649Y-100440739D01*
X89119462Y-100441014D01*
X89095503Y-100441838D01*
X89071773Y-100443212D01*
X89048272Y-100445136D01*
X89025001Y-100447609D01*
X89001958Y-100450631D01*
X88979144Y-100454203D01*
X88956559Y-100458325D01*
X88934089Y-100462897D01*
X88911863Y-100468064D01*
X88889881Y-100473826D01*
X88868143Y-100480184D01*
X88846650Y-100487138D01*
X88825401Y-100494686D01*
X88804396Y-100502830D01*
X88783635Y-100511570D01*
X88766240Y-100499291D01*
X88748185Y-100488529D01*
X88735275Y-100482260D01*
X88715934Y-100475248D01*
X88695662Y-100472042D01*
X88693265Y-100472002D01*
X88672320Y-100473496D01*
X88652713Y-100477979D01*
X88634447Y-100485449D01*
X88617520Y-100495908D01*
X88601932Y-100509354D01*
X88597034Y-100514501D01*
X88583919Y-100532464D01*
X88575063Y-100550529D01*
X88568091Y-100571409D01*
X88563003Y-100595104D01*
X88560290Y-100616086D01*
X88558782Y-100638869D01*
X88558443Y-100657138D01*
X88558443Y-100724549D01*
X88558787Y-100746241D01*
X88559817Y-100766132D01*
X88562071Y-100788462D01*
X88565399Y-100807977D01*
X88570808Y-100827681D01*
X88579073Y-100845546D01*
X88580425Y-100847648D01*
X88594939Y-100865520D01*
X88611003Y-100880363D01*
X88628618Y-100892177D01*
X88647783Y-100900961D01*
X88668498Y-100906717D01*
X88690764Y-100909443D01*
X88700104Y-100909685D01*
X88721746Y-100908283D01*
X88742219Y-100904076D01*
X88761523Y-100897063D01*
X88779659Y-100887246D01*
X88789497Y-100880376D01*
X88804881Y-100866428D01*
X88817694Y-100850657D01*
X88827935Y-100833062D01*
X88835606Y-100813645D01*
X88838834Y-100801730D01*
X88856160Y-100792144D01*
X88873700Y-100783168D01*
X88891453Y-100774802D01*
X88909420Y-100767048D01*
X88932180Y-100758213D01*
X88955273Y-100750332D01*
X88973988Y-100744715D01*
X88983426Y-100742135D01*
X89007101Y-100736365D01*
X89026282Y-100732453D01*
X89045676Y-100729168D01*
X89065284Y-100726508D01*
X89085106Y-100724474D01*
X89105142Y-100723065D01*
X89125391Y-100722283D01*
X89140718Y-100722107D01*
X89160910Y-100722294D01*
X89180576Y-100722855D01*
X89209086Y-100724398D01*
X89236412Y-100726782D01*
X89262553Y-100730008D01*
X89287508Y-100734075D01*
X89311279Y-100738984D01*
X89333865Y-100744734D01*
X89355266Y-100751325D01*
X89375481Y-100758759D01*
X89394512Y-100767033D01*
X89400593Y-100769979D01*
X89419186Y-100780725D01*
X89434956Y-100794846D01*
X89442925Y-100812797D01*
X89443091Y-100815896D01*
X89436280Y-100835259D01*
X89420575Y-100850930D01*
X89402055Y-100863011D01*
X89385450Y-100871584D01*
X89365151Y-100878877D01*
X89342410Y-100884902D01*
X89320406Y-100889687D01*
X89295012Y-100894442D01*
X89273743Y-100897989D01*
X89250567Y-100901518D01*
X89225486Y-100905030D01*
X89198498Y-100908524D01*
X89189078Y-100909685D01*
X89154695Y-100913965D01*
X89121644Y-100918257D01*
X89089925Y-100922560D01*
X89059538Y-100926874D01*
X89030483Y-100931200D01*
X89002759Y-100935537D01*
X88976368Y-100939886D01*
X88951308Y-100944246D01*
X88927580Y-100948617D01*
X88905184Y-100953000D01*
X88884120Y-100957395D01*
X88864388Y-100961801D01*
X88837287Y-100968431D01*
X88813183Y-100975087D01*
X88798778Y-100979539D01*
X88772339Y-100988918D01*
X88747058Y-100999105D01*
X88722937Y-101010099D01*
X88699974Y-101021900D01*
X88678171Y-101034508D01*
X88657528Y-101047923D01*
X88638043Y-101062145D01*
X88619718Y-101077175D01*
X88602552Y-101093012D01*
X88586545Y-101109655D01*
X88576517Y-101121200D01*
X88562462Y-101138784D01*
X88549790Y-101156548D01*
X88538500Y-101174493D01*
X88528592Y-101192618D01*
X88520067Y-101210923D01*
X88512924Y-101229409D01*
X88505551Y-101254337D01*
X88500636Y-101279586D01*
X88498178Y-101305155D01*
X88497871Y-101318060D01*
X86067925Y-101318060D01*
X86494591Y-100346950D01*
X86518214Y-100346538D01*
X86539746Y-100345301D01*
X86559186Y-100343241D01*
X86580545Y-100339505D01*
X86601863Y-100333323D01*
X86620787Y-100323766D01*
X86625017Y-100320572D01*
X86640473Y-100307566D01*
X86656895Y-100290793D01*
X86670097Y-100273448D01*
X86680079Y-100255531D01*
X86686841Y-100237041D01*
X86690705Y-100214097D01*
X86690963Y-100206266D01*
X86689434Y-100183494D01*
X86684849Y-100162440D01*
X86677207Y-100143103D01*
X86666508Y-100125483D01*
X86652752Y-100109580D01*
X86647487Y-100104661D01*
X86629306Y-100091380D01*
X86611007Y-100082412D01*
X86589846Y-100075352D01*
X86565822Y-100070200D01*
X86544543Y-100067452D01*
X86521431Y-100065926D01*
X86502896Y-100065582D01*
X86122365Y-100065582D01*
X86098109Y-100066193D01*
X86075654Y-100068025D01*
X86055000Y-100071078D01*
X86031716Y-100076611D01*
X86011246Y-100084053D01*
X85993591Y-100093403D01*
X85978750Y-100104661D01*
X85963976Y-100119991D01*
X85952258Y-100137038D01*
X85943597Y-100155803D01*
X85937992Y-100176285D01*
X85935445Y-100198485D01*
X85935275Y-100206266D01*
X85936786Y-100229055D01*
X85941320Y-100250161D01*
X85948876Y-100269584D01*
X85959455Y-100287324D01*
X85973056Y-100303381D01*
X85978262Y-100308360D01*
X85996277Y-100321474D01*
X86014464Y-100330330D01*
X86035537Y-100337302D01*
X86059496Y-100342390D01*
X86080741Y-100345103D01*
X86103834Y-100346611D01*
X86122365Y-100346950D01*
X86188311Y-100346950D01*
X85782868Y-101266769D01*
X85374982Y-100346950D01*
X85439462Y-100346950D01*
X85463955Y-100346347D01*
X85486632Y-100344538D01*
X85507491Y-100341523D01*
X85531012Y-100336059D01*
X85551694Y-100328710D01*
X85569537Y-100319477D01*
X85584542Y-100308360D01*
X85599151Y-100292864D01*
X85610737Y-100275684D01*
X85619301Y-100256822D01*
X85624842Y-100236277D01*
X85627361Y-100214049D01*
X85627529Y-100206266D01*
X85626018Y-100183494D01*
X85621484Y-100162440D01*
X85613928Y-100143103D01*
X85603349Y-100125483D01*
X85589748Y-100109580D01*
X85584542Y-100104661D01*
X85566196Y-100091380D01*
X85547784Y-100082412D01*
X85526535Y-100075352D01*
X85502447Y-100070200D01*
X85481133Y-100067452D01*
X85458002Y-100065926D01*
X85439462Y-100065582D01*
X85061863Y-100065582D01*
X85037263Y-100066193D01*
X85014510Y-100068025D01*
X84993604Y-100071078D01*
X84970070Y-100076611D01*
X84949421Y-100084053D01*
X84931659Y-100093403D01*
X84916782Y-100104661D01*
X84902008Y-100119991D01*
X84890290Y-100137038D01*
X84881629Y-100155803D01*
X84876024Y-100176285D01*
X84873477Y-100198485D01*
X84873307Y-100206266D01*
X84674308Y-100206266D01*
X84671509Y-100201278D01*
X84662281Y-100185750D01*
X84647379Y-100162653D01*
X84631249Y-100140441D01*
X84613891Y-100119113D01*
X84595305Y-100098669D01*
X84575492Y-100079110D01*
X84554450Y-100060436D01*
X84532181Y-100042646D01*
X84508683Y-100025740D01*
X84492336Y-100014961D01*
X84475443Y-100004575D01*
X84458005Y-99994582D01*
X84440020Y-99984982D01*
X84421603Y-99975813D01*
X84402987Y-99967236D01*
X84384173Y-99959251D01*
X84365160Y-99951857D01*
X84345949Y-99945054D01*
X84326539Y-99938843D01*
X84306931Y-99933224D01*
X84287124Y-99928196D01*
X84267119Y-99923759D01*
X84246916Y-99919914D01*
X84226514Y-99916661D01*
X84205914Y-99913999D01*
X84185115Y-99911929D01*
X84164118Y-99910450D01*
X84142922Y-99909563D01*
X84121528Y-99909267D01*
X84088624Y-99909889D01*
X84056468Y-99911755D01*
X84025059Y-99914865D01*
X83994399Y-99919220D01*
X83964487Y-99924818D01*
X83935323Y-99931661D01*
X83906907Y-99939748D01*
X83879239Y-99949078D01*
X83852319Y-99959653D01*
X83826147Y-99971472D01*
X83800722Y-99984536D01*
X83776046Y-99998843D01*
X83752118Y-100014394D01*
X83728938Y-100031190D01*
X83706506Y-100049229D01*
X83684822Y-100068513D01*
X83664177Y-100088621D01*
X83644865Y-100109256D01*
X83626884Y-100130417D01*
X83610236Y-100152105D01*
X83594919Y-100174320D01*
X83580934Y-100197061D01*
X83568281Y-100220329D01*
X83556960Y-100244124D01*
X83546971Y-100268445D01*
X83538314Y-100293293D01*
X83530989Y-100318667D01*
X83524995Y-100344569D01*
X83520334Y-100370996D01*
X83517004Y-100397951D01*
X83515006Y-100425432D01*
X83514340Y-100453440D01*
X83514769Y-100474905D01*
X83516057Y-100496070D01*
X83518204Y-100516934D01*
X83521209Y-100537498D01*
X83525073Y-100557761D01*
X83529796Y-100577723D01*
X83535377Y-100597385D01*
X83541817Y-100616747D01*
X83549116Y-100635808D01*
X83557273Y-100654568D01*
X83563189Y-100666908D01*
X83573546Y-100685863D01*
X83586298Y-100705909D01*
X83601446Y-100727045D01*
X83618990Y-100749271D01*
X83632017Y-100764695D01*
X83646109Y-100780603D01*
X83661265Y-100796996D01*
X83677487Y-100813874D01*
X83694773Y-100831236D01*
X83713123Y-100849083D01*
X83732539Y-100867414D01*
X83753019Y-100886231D01*
X83774564Y-100905531D01*
X83797173Y-100925317D01*
X83816507Y-100941914D01*
X83837992Y-100960076D01*
X83861630Y-100979802D01*
X83887421Y-101001093D01*
X83915364Y-101023949D01*
X83945459Y-101048370D01*
X83961314Y-101061167D01*
X83977707Y-101074355D01*
X83994638Y-101087934D01*
X84012107Y-101101905D01*
X84030114Y-101116266D01*
X84048659Y-101131019D01*
X84067743Y-101146163D01*
X84087364Y-101161698D01*
X84107524Y-101177625D01*
X84128222Y-101193942D01*
X84149457Y-101210651D01*
X84171231Y-101227751D01*
X84193543Y-101245242D01*
X84216393Y-101263124D01*
X84239781Y-101281397D01*
X84263708Y-101300062D01*
X84288172Y-101319118D01*
X84313174Y-101338564D01*
X84338715Y-101358403D01*
X84364794Y-101378632D01*
X83747836Y-101378632D01*
X83728991Y-101368007D01*
X83710559Y-101359581D01*
X83689575Y-101352528D01*
X83669152Y-101348468D01*
X83652093Y-101347369D01*
X83628858Y-101348863D01*
X83607511Y-101353345D01*
X83588054Y-101360815D01*
X83570485Y-101371274D01*
X83554806Y-101384721D01*
X83550000Y-101389867D01*
X83537051Y-101407916D01*
X83528307Y-101426184D01*
X83521423Y-101447386D01*
X83516400Y-101471522D01*
X83513721Y-101492943D01*
X83512232Y-101516241D01*
X83511898Y-101534947D01*
X83511898Y-101660000D01*
X82544049Y-101660000D01*
X82562523Y-101647132D01*
X82573517Y-101637529D01*
X82589700Y-101620093D01*
X82603141Y-101601370D01*
X82613838Y-101581358D01*
X82621793Y-101560058D01*
X82627004Y-101537471D01*
X82629473Y-101513595D01*
X82629692Y-101503684D01*
X82628815Y-101484068D01*
X82625249Y-101460708D01*
X82618940Y-101438635D01*
X82609888Y-101417851D01*
X82598094Y-101398354D01*
X82583556Y-101380146D01*
X82573517Y-101369839D01*
X82554783Y-101354359D01*
X82533999Y-101341503D01*
X82515894Y-101333107D01*
X82496477Y-101326390D01*
X82475747Y-101321353D01*
X82453704Y-101317995D01*
X82430348Y-101316315D01*
X82418178Y-101316106D01*
X82394174Y-101316945D01*
X82371497Y-101319464D01*
X82350149Y-101323662D01*
X82330129Y-101329539D01*
X82311436Y-101337095D01*
X82294072Y-101346331D01*
X82274235Y-101360236D01*
X82263328Y-101369839D01*
X82247004Y-101387275D01*
X82233447Y-101405998D01*
X82222656Y-101426010D01*
X82214632Y-101447310D01*
X82209375Y-101469897D01*
X82206885Y-101493773D01*
X82206664Y-101503684D01*
X81366245Y-101503684D01*
X81377337Y-101488663D01*
X81389038Y-101467635D01*
X81397396Y-101445951D01*
X81402410Y-101423611D01*
X81404082Y-101400614D01*
X81402605Y-101378981D01*
X81398174Y-101358413D01*
X81390790Y-101338910D01*
X81380451Y-101320471D01*
X81367159Y-101303098D01*
X81362072Y-101297543D01*
X81345769Y-101282602D01*
X81328367Y-101270753D01*
X81309865Y-101261994D01*
X81290265Y-101256327D01*
X81269565Y-101253751D01*
X81262421Y-101253579D01*
X81241080Y-101256127D01*
X81222155Y-101262367D01*
X81202646Y-101272350D01*
X81185942Y-101283530D01*
X81168834Y-101297309D01*
X81158374Y-101306824D01*
X81140547Y-101322524D01*
X81122481Y-101336649D01*
X81104177Y-101349200D01*
X81085635Y-101360176D01*
X81066854Y-101369579D01*
X81047835Y-101377407D01*
X81040160Y-101380097D01*
X81017407Y-101387081D01*
X80993113Y-101393134D01*
X80973880Y-101397062D01*
X80953780Y-101400467D01*
X80932813Y-101403347D01*
X80910978Y-101405705D01*
X80888277Y-101407538D01*
X80864708Y-101408847D01*
X80840272Y-101409633D01*
X80814968Y-101409895D01*
X80783608Y-101409605D01*
X80753518Y-101408735D01*
X80724699Y-101407284D01*
X80697151Y-101405254D01*
X80670874Y-101402644D01*
X80645868Y-101399453D01*
X80622133Y-101395683D01*
X80599668Y-101391332D01*
X80578474Y-101386402D01*
X80558551Y-101380891D01*
X80539899Y-101374800D01*
X80514304Y-101364576D01*
X80491568Y-101353047D01*
X80471691Y-101340213D01*
X80465701Y-101335645D01*
X80449027Y-101321028D01*
X80433993Y-101305019D01*
X80420599Y-101287620D01*
X80408846Y-101268829D01*
X80398732Y-101248648D01*
X80390258Y-101227075D01*
X80383425Y-101204112D01*
X80378231Y-101179757D01*
X80374678Y-101154011D01*
X80372765Y-101126875D01*
X80372400Y-101108011D01*
X80373190Y-101080280D01*
X80375560Y-101053691D01*
X80379510Y-101028245D01*
X80385040Y-101003940D01*
X80392149Y-100980778D01*
X80400839Y-100958757D01*
X80411109Y-100937879D01*
X80422958Y-100918142D01*
X80436388Y-100899548D01*
X80451397Y-100882096D01*
X80462281Y-100871095D01*
X80479589Y-100855643D01*
X80497807Y-100841712D01*
X80516936Y-100829300D01*
X80536974Y-100818407D01*
X80557923Y-100809035D01*
X80579781Y-100801182D01*
X80602550Y-100794850D01*
X80626229Y-100790037D01*
X80650819Y-100786744D01*
X80676318Y-100784971D01*
X80693824Y-100784633D01*
X80722774Y-100785522D01*
X80742489Y-100787102D01*
X80762536Y-100789472D01*
X80782915Y-100792632D01*
X80803626Y-100796581D01*
X80824669Y-100801321D01*
X80846044Y-100806851D01*
X80867751Y-100813171D01*
X80889790Y-100820281D01*
X80912161Y-100828180D01*
X80934864Y-100836870D01*
X80957899Y-100846350D01*
X80981266Y-100856619D01*
X81004966Y-100867679D01*
X81028997Y-100879529D01*
X81041137Y-100885750D01*
X81059833Y-100895076D01*
X81079884Y-100902930D01*
X81100763Y-100908189D01*
X81117829Y-100909685D01*
X81139840Y-100908140D01*
X81160442Y-100903503D01*
X81179636Y-100895775D01*
X81197422Y-100884956D01*
X81213799Y-100871045D01*
X81218946Y-100865722D01*
X81232724Y-100848325D01*
X81243652Y-100829108D01*
X81251730Y-100808071D01*
X81256956Y-100785213D01*
X81259134Y-100764775D01*
X81259490Y-100751905D01*
X81259490Y-99940530D01*
X80398290Y-99940530D01*
X80373804Y-99941140D01*
X80351151Y-99942972D01*
X80330329Y-99946025D01*
X80306878Y-99951559D01*
X80286289Y-99959001D01*
X80268563Y-99968351D01*
X80253698Y-99979609D01*
X80238923Y-99995105D01*
X80227205Y-100012284D01*
X80218544Y-100031146D01*
X80212940Y-100051691D01*
X80210393Y-100073919D01*
X80210223Y-100081702D01*
X80211751Y-100104159D01*
X80216337Y-100125002D01*
X80223979Y-100144230D01*
X80234678Y-100161844D01*
X80248433Y-100177844D01*
X80253698Y-100182819D01*
X80271879Y-100196099D01*
X80290178Y-100205068D01*
X80311339Y-100212128D01*
X80335363Y-100217280D01*
X80356643Y-100220028D01*
X80379754Y-100221554D01*
X80398290Y-100221898D01*
X80978122Y-100221898D01*
X80978122Y-100565792D01*
X80958636Y-100558220D01*
X80939379Y-100551137D01*
X80920351Y-100544542D01*
X80901552Y-100538436D01*
X80873783Y-100530193D01*
X80846529Y-100523049D01*
X80819790Y-100517004D01*
X80793566Y-100512058D01*
X80767858Y-100508211D01*
X80742665Y-100505464D01*
X80717987Y-100503815D01*
X80693824Y-100503265D01*
X80661685Y-100503924D01*
X80630237Y-100505899D01*
X80599479Y-100509190D01*
X80569412Y-100513798D01*
X80540037Y-100519723D01*
X80511351Y-100526965D01*
X80483357Y-100535523D01*
X80456053Y-100545397D01*
X80429440Y-100556589D01*
X80403518Y-100569096D01*
X80378287Y-100582921D01*
X80353746Y-100598062D01*
X80329896Y-100614520D01*
X80306737Y-100632294D01*
X80284268Y-100651385D01*
X80262491Y-100671793D01*
X80241669Y-100693179D01*
X80222191Y-100715329D01*
X80204056Y-100738242D01*
X80187264Y-100761919D01*
X80171816Y-100786358D01*
X80157711Y-100811561D01*
X80144949Y-100837527D01*
X80133531Y-100864256D01*
X80123456Y-100891749D01*
X80114724Y-100920005D01*
X80107336Y-100949024D01*
X80101290Y-100978806D01*
X80096589Y-101009352D01*
X80093230Y-101040661D01*
X80091215Y-101072733D01*
X80090544Y-101105568D01*
X79354830Y-101105568D01*
X79354830Y-99173553D01*
X102318163Y-99173553D01*
X102318163Y-102927186D01*
G37*
D11*
X113976190Y-100367380D02*
X113976190Y-101081666D01*
X113976190Y-101081666D02*
X114023809Y-101224523D01*
X114023809Y-101224523D02*
X114119047Y-101319761D01*
X114119047Y-101319761D02*
X114261904Y-101367380D01*
X114261904Y-101367380D02*
X114357142Y-101367380D01*
X113023809Y-101367380D02*
X113499999Y-101367380D01*
X113499999Y-101367380D02*
X113499999Y-100367380D01*
X112119047Y-101272142D02*
X112166666Y-101319761D01*
X112166666Y-101319761D02*
X112309523Y-101367380D01*
X112309523Y-101367380D02*
X112404761Y-101367380D01*
X112404761Y-101367380D02*
X112547618Y-101319761D01*
X112547618Y-101319761D02*
X112642856Y-101224523D01*
X112642856Y-101224523D02*
X112690475Y-101129285D01*
X112690475Y-101129285D02*
X112738094Y-100938809D01*
X112738094Y-100938809D02*
X112738094Y-100795952D01*
X112738094Y-100795952D02*
X112690475Y-100605476D01*
X112690475Y-100605476D02*
X112642856Y-100510238D01*
X112642856Y-100510238D02*
X112547618Y-100415000D01*
X112547618Y-100415000D02*
X112404761Y-100367380D01*
X112404761Y-100367380D02*
X112309523Y-100367380D01*
X112309523Y-100367380D02*
X112166666Y-100415000D01*
X112166666Y-100415000D02*
X112119047Y-100462619D01*
X111404761Y-100367380D02*
X111404761Y-101081666D01*
X111404761Y-101081666D02*
X111452380Y-101224523D01*
X111452380Y-101224523D02*
X111547618Y-101319761D01*
X111547618Y-101319761D02*
X111690475Y-101367380D01*
X111690475Y-101367380D02*
X111785713Y-101367380D01*
X110452380Y-101367380D02*
X110928570Y-101367380D01*
X110928570Y-101367380D02*
X110928570Y-100367380D01*
X109547618Y-101272142D02*
X109595237Y-101319761D01*
X109595237Y-101319761D02*
X109738094Y-101367380D01*
X109738094Y-101367380D02*
X109833332Y-101367380D01*
X109833332Y-101367380D02*
X109976189Y-101319761D01*
X109976189Y-101319761D02*
X110071427Y-101224523D01*
X110071427Y-101224523D02*
X110119046Y-101129285D01*
X110119046Y-101129285D02*
X110166665Y-100938809D01*
X110166665Y-100938809D02*
X110166665Y-100795952D01*
X110166665Y-100795952D02*
X110119046Y-100605476D01*
X110119046Y-100605476D02*
X110071427Y-100510238D01*
X110071427Y-100510238D02*
X109976189Y-100415000D01*
X109976189Y-100415000D02*
X109833332Y-100367380D01*
X109833332Y-100367380D02*
X109738094Y-100367380D01*
X109738094Y-100367380D02*
X109595237Y-100415000D01*
X109595237Y-100415000D02*
X109547618Y-100462619D01*
X108833332Y-100367380D02*
X108833332Y-101081666D01*
X108833332Y-101081666D02*
X108880951Y-101224523D01*
X108880951Y-101224523D02*
X108976189Y-101319761D01*
X108976189Y-101319761D02*
X109119046Y-101367380D01*
X109119046Y-101367380D02*
X109214284Y-101367380D01*
X107880951Y-101367380D02*
X108357141Y-101367380D01*
X108357141Y-101367380D02*
X108357141Y-100367380D01*
X106976189Y-101272142D02*
X107023808Y-101319761D01*
X107023808Y-101319761D02*
X107166665Y-101367380D01*
X107166665Y-101367380D02*
X107261903Y-101367380D01*
X107261903Y-101367380D02*
X107404760Y-101319761D01*
X107404760Y-101319761D02*
X107499998Y-101224523D01*
X107499998Y-101224523D02*
X107547617Y-101129285D01*
X107547617Y-101129285D02*
X107595236Y-100938809D01*
X107595236Y-100938809D02*
X107595236Y-100795952D01*
X107595236Y-100795952D02*
X107547617Y-100605476D01*
X107547617Y-100605476D02*
X107499998Y-100510238D01*
X107499998Y-100510238D02*
X107404760Y-100415000D01*
X107404760Y-100415000D02*
X107261903Y-100367380D01*
X107261903Y-100367380D02*
X107166665Y-100367380D01*
X107166665Y-100367380D02*
X107023808Y-100415000D01*
X107023808Y-100415000D02*
X106976189Y-100462619D01*
X106261903Y-100367380D02*
X106261903Y-101081666D01*
X106261903Y-101081666D02*
X106309522Y-101224523D01*
X106309522Y-101224523D02*
X106404760Y-101319761D01*
X106404760Y-101319761D02*
X106547617Y-101367380D01*
X106547617Y-101367380D02*
X106642855Y-101367380D01*
X105309522Y-101367380D02*
X105785712Y-101367380D01*
X105785712Y-101367380D02*
X105785712Y-100367380D01*
X104404760Y-101272142D02*
X104452379Y-101319761D01*
X104452379Y-101319761D02*
X104595236Y-101367380D01*
X104595236Y-101367380D02*
X104690474Y-101367380D01*
X104690474Y-101367380D02*
X104833331Y-101319761D01*
X104833331Y-101319761D02*
X104928569Y-101224523D01*
X104928569Y-101224523D02*
X104976188Y-101129285D01*
X104976188Y-101129285D02*
X105023807Y-100938809D01*
X105023807Y-100938809D02*
X105023807Y-100795952D01*
X105023807Y-100795952D02*
X104976188Y-100605476D01*
X104976188Y-100605476D02*
X104928569Y-100510238D01*
X104928569Y-100510238D02*
X104833331Y-100415000D01*
X104833331Y-100415000D02*
X104690474Y-100367380D01*
X104690474Y-100367380D02*
X104595236Y-100367380D01*
X104595236Y-100367380D02*
X104452379Y-100415000D01*
X104452379Y-100415000D02*
X104404760Y-100462619D01*
%TO.C,U1*%
G36*
X58406659Y-87462714D02*
G01*
X58406659Y-87011353D01*
X58711474Y-87011353D01*
X58711474Y-87044326D01*
X58711932Y-87062690D01*
X58713306Y-87079680D01*
X58715595Y-87095297D01*
X58719745Y-87112885D01*
X58725327Y-87128327D01*
X58732339Y-87141622D01*
X58740783Y-87152770D01*
X58752280Y-87163851D01*
X58765066Y-87172640D01*
X58779139Y-87179135D01*
X58794501Y-87183339D01*
X58811151Y-87185249D01*
X58816987Y-87185376D01*
X58834078Y-87184230D01*
X58849908Y-87180791D01*
X58864475Y-87175060D01*
X58877780Y-87167035D01*
X58889823Y-87156718D01*
X58893557Y-87152770D01*
X58903393Y-87139134D01*
X58910035Y-87125410D01*
X58915264Y-87109539D01*
X58919080Y-87091521D01*
X58921115Y-87075562D01*
X58922245Y-87058228D01*
X58922500Y-87044326D01*
X58922500Y-86785673D01*
X58922047Y-86767303D01*
X58920691Y-86750296D01*
X58918429Y-86734651D01*
X58914331Y-86717011D01*
X58908820Y-86701499D01*
X58901895Y-86688117D01*
X58893557Y-86676863D01*
X58881935Y-86665906D01*
X58869050Y-86657217D01*
X58854904Y-86650794D01*
X58839495Y-86646638D01*
X58822824Y-86644749D01*
X58816987Y-86644623D01*
X58799573Y-86646400D01*
X58782777Y-86651733D01*
X58769253Y-86658892D01*
X58756159Y-86668519D01*
X58743493Y-86680616D01*
X58733670Y-86692071D01*
X58731257Y-86695181D01*
X58723549Y-86708585D01*
X58718448Y-86724316D01*
X58715260Y-86740416D01*
X58713406Y-86755253D01*
X58712169Y-86771831D01*
X58711551Y-86790150D01*
X58711474Y-86799961D01*
X57937712Y-86799961D01*
X57937006Y-86783230D01*
X57934886Y-86767840D01*
X57930477Y-86751143D01*
X57924032Y-86736378D01*
X57915553Y-86723546D01*
X57908770Y-86716064D01*
X57897148Y-86706477D01*
X57884263Y-86698873D01*
X57870117Y-86693253D01*
X57854708Y-86689617D01*
X57838037Y-86687964D01*
X57832199Y-86687854D01*
X57815121Y-86688987D01*
X57799330Y-86692388D01*
X57784827Y-86698055D01*
X57771612Y-86705989D01*
X57759685Y-86716190D01*
X57755996Y-86720094D01*
X57746035Y-86733854D01*
X57739309Y-86747662D01*
X57734014Y-86763600D01*
X57730150Y-86781666D01*
X57728089Y-86797651D01*
X57726944Y-86814999D01*
X57726687Y-86828904D01*
X57726687Y-87044326D01*
X57727144Y-87062690D01*
X57728518Y-87079680D01*
X57730808Y-87095297D01*
X57734958Y-87112885D01*
X57740540Y-87128327D01*
X57747552Y-87141622D01*
X57755996Y-87152770D01*
X57767493Y-87163851D01*
X57780279Y-87172640D01*
X57794352Y-87179135D01*
X57809714Y-87183339D01*
X57826363Y-87185249D01*
X57832199Y-87185376D01*
X57849291Y-87184230D01*
X57865121Y-87180791D01*
X57879688Y-87175060D01*
X57892993Y-87167035D01*
X57905036Y-87156718D01*
X57908770Y-87152770D01*
X57918606Y-87139134D01*
X57925248Y-87125410D01*
X57930477Y-87109539D01*
X57934292Y-87091521D01*
X57936327Y-87075562D01*
X57937458Y-87058228D01*
X57937712Y-87044326D01*
X57937712Y-87011353D01*
X58195633Y-87011353D01*
X58195633Y-87462714D01*
X57937712Y-87462714D01*
X57937712Y-87429741D01*
X57937260Y-87411372D01*
X57935903Y-87394364D01*
X57933642Y-87378719D01*
X57929544Y-87361079D01*
X57924032Y-87345568D01*
X57917108Y-87332185D01*
X57908770Y-87320931D01*
X57897148Y-87309850D01*
X57884263Y-87301062D01*
X57870117Y-87294566D01*
X57854708Y-87290363D01*
X57838037Y-87288452D01*
X57832199Y-87288325D01*
X57815121Y-87289471D01*
X57799330Y-87292910D01*
X57784827Y-87298642D01*
X57771612Y-87306666D01*
X57759685Y-87316983D01*
X57755996Y-87320931D01*
X57746035Y-87334691D01*
X57739309Y-87348500D01*
X57734014Y-87364437D01*
X57730150Y-87382503D01*
X57728089Y-87398488D01*
X57726944Y-87415836D01*
X57726687Y-87429741D01*
X57726687Y-87645164D01*
X57727144Y-87663528D01*
X57728518Y-87680518D01*
X57730808Y-87696134D01*
X57734958Y-87713722D01*
X57740540Y-87729164D01*
X57747552Y-87742459D01*
X57755996Y-87753607D01*
X57767493Y-87764688D01*
X57780279Y-87773477D01*
X57794352Y-87779973D01*
X57809714Y-87784176D01*
X57826363Y-87786086D01*
X57832199Y-87786214D01*
X57849291Y-87785209D01*
X57865121Y-87782195D01*
X57879688Y-87777172D01*
X57892993Y-87770140D01*
X57905036Y-87761098D01*
X57908770Y-87757637D01*
X57918606Y-87746093D01*
X57926407Y-87732616D01*
X57932173Y-87717207D01*
X57935423Y-87702891D01*
X57937260Y-87687233D01*
X57937712Y-87673740D01*
X58711474Y-87673740D01*
X58711641Y-87688484D01*
X58712385Y-87706571D01*
X58713725Y-87722860D01*
X58716236Y-87740693D01*
X58719678Y-87755718D01*
X58725036Y-87770040D01*
X58730525Y-87778887D01*
X58740451Y-87790736D01*
X58753213Y-87803326D01*
X58766368Y-87813448D01*
X58779917Y-87821101D01*
X58793860Y-87826285D01*
X58811110Y-87829247D01*
X58816987Y-87829445D01*
X58834078Y-87828298D01*
X58849908Y-87824860D01*
X58864475Y-87819128D01*
X58877780Y-87811104D01*
X58889823Y-87800787D01*
X58893557Y-87796838D01*
X58903393Y-87783203D01*
X58910035Y-87769478D01*
X58915264Y-87753607D01*
X58919080Y-87735590D01*
X58921115Y-87719630D01*
X58922245Y-87702296D01*
X58922500Y-87688395D01*
X58922500Y-87429741D01*
X58922047Y-87411372D01*
X58920691Y-87394364D01*
X58918429Y-87378719D01*
X58914331Y-87361079D01*
X58908820Y-87345568D01*
X58901895Y-87332185D01*
X58893557Y-87320931D01*
X58881935Y-87309850D01*
X58869050Y-87301062D01*
X58854904Y-87294566D01*
X58839495Y-87290363D01*
X58822824Y-87288452D01*
X58816987Y-87288325D01*
X58799908Y-87289484D01*
X58784117Y-87292962D01*
X58769614Y-87298758D01*
X58756399Y-87306872D01*
X58744472Y-87317305D01*
X58740783Y-87321298D01*
X58730822Y-87335156D01*
X58724096Y-87348988D01*
X58718801Y-87364895D01*
X58714937Y-87382877D01*
X58712876Y-87398756D01*
X58711731Y-87415964D01*
X58711474Y-87429741D01*
X58711474Y-87462714D01*
X58406659Y-87462714D01*
G37*
G36*
X57937712Y-88597344D02*
G01*
X58711474Y-88597344D01*
X58711474Y-88810568D01*
X58711932Y-88828932D01*
X58713306Y-88845922D01*
X58715595Y-88861539D01*
X58719745Y-88879127D01*
X58725327Y-88894569D01*
X58732339Y-88907864D01*
X58740783Y-88919012D01*
X58752280Y-88930093D01*
X58765066Y-88938882D01*
X58779139Y-88945378D01*
X58794501Y-88949581D01*
X58811151Y-88951491D01*
X58816987Y-88951619D01*
X58834078Y-88950472D01*
X58849908Y-88947033D01*
X58864475Y-88941302D01*
X58877780Y-88933277D01*
X58889823Y-88922961D01*
X58893557Y-88919012D01*
X58903393Y-88905377D01*
X58910035Y-88891652D01*
X58915264Y-88875781D01*
X58919080Y-88857763D01*
X58921115Y-88841804D01*
X58922245Y-88824470D01*
X58922500Y-88810568D01*
X58922500Y-88172728D01*
X58922047Y-88154358D01*
X58920691Y-88137351D01*
X58918429Y-88121706D01*
X58914331Y-88104066D01*
X58908820Y-88088555D01*
X58901895Y-88075172D01*
X58893557Y-88063918D01*
X58881935Y-88052961D01*
X58869050Y-88044272D01*
X58854904Y-88037849D01*
X58839495Y-88033693D01*
X58822824Y-88031804D01*
X58816987Y-88031678D01*
X58799908Y-88032811D01*
X58784117Y-88036212D01*
X58769614Y-88041879D01*
X58756399Y-88049813D01*
X58744472Y-88060014D01*
X58740783Y-88063918D01*
X58730822Y-88077678D01*
X58724096Y-88091487D01*
X58718801Y-88107424D01*
X58714937Y-88125490D01*
X58712876Y-88141475D01*
X58711731Y-88158823D01*
X58711474Y-88172728D01*
X58711474Y-88385952D01*
X57937712Y-88385952D01*
X57937712Y-88172728D01*
X57937260Y-88154358D01*
X57935903Y-88137351D01*
X57933642Y-88121706D01*
X57929544Y-88104066D01*
X57924032Y-88088555D01*
X57917108Y-88075172D01*
X57908770Y-88063918D01*
X57897148Y-88052961D01*
X57884263Y-88044272D01*
X57870117Y-88037849D01*
X57854708Y-88033693D01*
X57838037Y-88031804D01*
X57832199Y-88031678D01*
X57815121Y-88032811D01*
X57799330Y-88036212D01*
X57784827Y-88041879D01*
X57771612Y-88049813D01*
X57759685Y-88060014D01*
X57755996Y-88063918D01*
X57746035Y-88077678D01*
X57739309Y-88091487D01*
X57734014Y-88107424D01*
X57730150Y-88125490D01*
X57728089Y-88141475D01*
X57726944Y-88158823D01*
X57726687Y-88172728D01*
X57726687Y-88810568D01*
X57727144Y-88828932D01*
X57728518Y-88845922D01*
X57730808Y-88861539D01*
X57734958Y-88879127D01*
X57740540Y-88894569D01*
X57747552Y-88907864D01*
X57755996Y-88919012D01*
X57767493Y-88930093D01*
X57780279Y-88938882D01*
X57794352Y-88945378D01*
X57809714Y-88949581D01*
X57826363Y-88951491D01*
X57832199Y-88951619D01*
X57849291Y-88950472D01*
X57865121Y-88947033D01*
X57879688Y-88941302D01*
X57892993Y-88933277D01*
X57905036Y-88922961D01*
X57908770Y-88919012D01*
X57918606Y-88905377D01*
X57925248Y-88891652D01*
X57930477Y-88875781D01*
X57934292Y-88857763D01*
X57936327Y-88841804D01*
X57937458Y-88824470D01*
X57937712Y-88810568D01*
X57937712Y-88597344D01*
G37*
G36*
X58547342Y-90284085D02*
G01*
X58818086Y-90284085D01*
X58827109Y-90266347D01*
X58835768Y-90248943D01*
X58844065Y-90231874D01*
X58851997Y-90215140D01*
X58859566Y-90198741D01*
X58866772Y-90182677D01*
X58873614Y-90166948D01*
X58880093Y-90151553D01*
X58886208Y-90136494D01*
X58891960Y-90121769D01*
X58897348Y-90107379D01*
X58902372Y-90093324D01*
X58909228Y-90072870D01*
X58915265Y-90053169D01*
X58918836Y-90040453D01*
X58923681Y-90021490D01*
X58928049Y-90002243D01*
X58931941Y-89982712D01*
X58935357Y-89962898D01*
X58938295Y-89942801D01*
X58940758Y-89922421D01*
X58942743Y-89901757D01*
X58944252Y-89880810D01*
X58945285Y-89859579D01*
X58945841Y-89838066D01*
X58945947Y-89823566D01*
X58945768Y-89803417D01*
X58945231Y-89783454D01*
X58944337Y-89763678D01*
X58943085Y-89744087D01*
X58941475Y-89724683D01*
X58939507Y-89705465D01*
X58937181Y-89686432D01*
X58934498Y-89667586D01*
X58931457Y-89648926D01*
X58928058Y-89630451D01*
X58924301Y-89612163D01*
X58920187Y-89594061D01*
X58915715Y-89576145D01*
X58910885Y-89558415D01*
X58905697Y-89540871D01*
X58900151Y-89523513D01*
X58893396Y-89503651D01*
X58886318Y-89484594D01*
X58878919Y-89466342D01*
X58871197Y-89448895D01*
X58863153Y-89432253D01*
X58854788Y-89416416D01*
X58846100Y-89401384D01*
X58837091Y-89387157D01*
X58827759Y-89373735D01*
X58818106Y-89361118D01*
X58811491Y-89353154D01*
X58800946Y-89341560D01*
X58789505Y-89330133D01*
X58777169Y-89318874D01*
X58763938Y-89307782D01*
X58749812Y-89296858D01*
X58734791Y-89286101D01*
X58718874Y-89275511D01*
X58702063Y-89265089D01*
X58684356Y-89254834D01*
X58665754Y-89244747D01*
X58652855Y-89238115D01*
X58639615Y-89231771D01*
X58626179Y-89225837D01*
X58612550Y-89220311D01*
X58598725Y-89215195D01*
X58584706Y-89210488D01*
X58570492Y-89206190D01*
X58556084Y-89202302D01*
X58541481Y-89198823D01*
X58526683Y-89195753D01*
X58511691Y-89193093D01*
X58496504Y-89190842D01*
X58481122Y-89189000D01*
X58465546Y-89187567D01*
X58449775Y-89186544D01*
X58433810Y-89185930D01*
X58417650Y-89185725D01*
X58273302Y-89185725D01*
X58248465Y-89186229D01*
X58223963Y-89187740D01*
X58199796Y-89190259D01*
X58175964Y-89193785D01*
X58152466Y-89198319D01*
X58129304Y-89203860D01*
X58106476Y-89210409D01*
X58083983Y-89217965D01*
X58061825Y-89226529D01*
X58040002Y-89236100D01*
X58018514Y-89246679D01*
X57997361Y-89258265D01*
X57976543Y-89270859D01*
X57956059Y-89284461D01*
X57935911Y-89299069D01*
X57916097Y-89314686D01*
X57903001Y-89325615D01*
X57890321Y-89336789D01*
X57878057Y-89348207D01*
X57866208Y-89359869D01*
X57854776Y-89371774D01*
X57843759Y-89383924D01*
X57833157Y-89396318D01*
X57822972Y-89408956D01*
X57813202Y-89421837D01*
X57803848Y-89434963D01*
X57794909Y-89448333D01*
X57786387Y-89461947D01*
X57778280Y-89475805D01*
X57770589Y-89489906D01*
X57763313Y-89504252D01*
X57756454Y-89518842D01*
X57750010Y-89533676D01*
X57743981Y-89548754D01*
X57738369Y-89564076D01*
X57733172Y-89579641D01*
X57728391Y-89595451D01*
X57724026Y-89611505D01*
X57720077Y-89627803D01*
X57716543Y-89644345D01*
X57713425Y-89661131D01*
X57710722Y-89678160D01*
X57708436Y-89695434D01*
X57706565Y-89712952D01*
X57705110Y-89730714D01*
X57704071Y-89748720D01*
X57703447Y-89766970D01*
X57703239Y-89785464D01*
X57703445Y-89801598D01*
X57704064Y-89817578D01*
X57705094Y-89833403D01*
X57706536Y-89849074D01*
X57708391Y-89864590D01*
X57710658Y-89879951D01*
X57713337Y-89895158D01*
X57716428Y-89910211D01*
X57719932Y-89925109D01*
X57723847Y-89939852D01*
X57726687Y-89949595D01*
X57731289Y-89964156D01*
X57736304Y-89978575D01*
X57741730Y-89992852D01*
X57747569Y-90006988D01*
X57753820Y-90020982D01*
X57760484Y-90034835D01*
X57767559Y-90048545D01*
X57775047Y-90062114D01*
X57782946Y-90075542D01*
X57791258Y-90088828D01*
X57797028Y-90097606D01*
X57784458Y-90105490D01*
X57769620Y-90115951D01*
X57756980Y-90126355D01*
X57746539Y-90136702D01*
X57736578Y-90149555D01*
X57729159Y-90164861D01*
X57726687Y-90180038D01*
X57727820Y-90196855D01*
X57731220Y-90212410D01*
X57736887Y-90226702D01*
X57744822Y-90239732D01*
X57755023Y-90251500D01*
X57758927Y-90255143D01*
X57772588Y-90264979D01*
X57786373Y-90271621D01*
X57802341Y-90276850D01*
X57816686Y-90280015D01*
X57832428Y-90282277D01*
X57849567Y-90283633D01*
X57868103Y-90284085D01*
X58006222Y-90284085D01*
X58024770Y-90283627D01*
X58041943Y-90282254D01*
X58057742Y-90279964D01*
X58072168Y-90276758D01*
X58088268Y-90271463D01*
X58102221Y-90264737D01*
X58116132Y-90254776D01*
X58127213Y-90243180D01*
X58136001Y-90230373D01*
X58142497Y-90216355D01*
X58146700Y-90201127D01*
X58148611Y-90184688D01*
X58148738Y-90178939D01*
X58147669Y-90163241D01*
X58144461Y-90148525D01*
X58139114Y-90134791D01*
X58131628Y-90122038D01*
X58126390Y-90115191D01*
X58115014Y-90104173D01*
X58102118Y-90096324D01*
X58088247Y-90090098D01*
X58071773Y-90084337D01*
X58059345Y-90080753D01*
X58043911Y-90076313D01*
X58027562Y-90070749D01*
X58013583Y-90064927D01*
X58000269Y-90057810D01*
X57989003Y-90049246D01*
X57978244Y-90037298D01*
X57969633Y-90025038D01*
X57961343Y-90010686D01*
X57953375Y-89994241D01*
X57947233Y-89979578D01*
X57941297Y-89963575D01*
X57936980Y-89950694D01*
X57931656Y-89932834D01*
X57927042Y-89914424D01*
X57923138Y-89895465D01*
X57920676Y-89880884D01*
X57918613Y-89865995D01*
X57916949Y-89850797D01*
X57915685Y-89835289D01*
X57914820Y-89819473D01*
X57914354Y-89803347D01*
X57914265Y-89792425D01*
X57914451Y-89776846D01*
X57915009Y-89761524D01*
X57915939Y-89746460D01*
X57917242Y-89731654D01*
X57919893Y-89709928D01*
X57923381Y-89688781D01*
X57927707Y-89668213D01*
X57932869Y-89648226D01*
X57938869Y-89628818D01*
X57945707Y-89609989D01*
X57953381Y-89591741D01*
X57961892Y-89574071D01*
X57971504Y-89557745D01*
X57982752Y-89541740D01*
X57992263Y-89529946D01*
X58002695Y-89518333D01*
X58014047Y-89506899D01*
X58026321Y-89495647D01*
X58039515Y-89484574D01*
X58053631Y-89473682D01*
X58068667Y-89462970D01*
X58084624Y-89452439D01*
X58101112Y-89442487D01*
X58117876Y-89433514D01*
X58134918Y-89425519D01*
X58152236Y-89418504D01*
X58169831Y-89412468D01*
X58187703Y-89407410D01*
X58205852Y-89403331D01*
X58224278Y-89400232D01*
X58242981Y-89398111D01*
X58261960Y-89396969D01*
X58274767Y-89396751D01*
X58415451Y-89396751D01*
X58434757Y-89397135D01*
X58453473Y-89398285D01*
X58471600Y-89400203D01*
X58489136Y-89402888D01*
X58506084Y-89406340D01*
X58522441Y-89410559D01*
X58538209Y-89415545D01*
X58553387Y-89421298D01*
X58567976Y-89427818D01*
X58581975Y-89435105D01*
X58595385Y-89443159D01*
X58608205Y-89451981D01*
X58620435Y-89461569D01*
X58632076Y-89471925D01*
X58643127Y-89483047D01*
X58653588Y-89494937D01*
X58663437Y-89507708D01*
X58672651Y-89521384D01*
X58681229Y-89535964D01*
X58689171Y-89551448D01*
X58696479Y-89567838D01*
X58703150Y-89585131D01*
X58709187Y-89603329D01*
X58714588Y-89622432D01*
X58719353Y-89642438D01*
X58723484Y-89663350D01*
X58726978Y-89685166D01*
X58729838Y-89707886D01*
X58732062Y-89731511D01*
X58733650Y-89756040D01*
X58734603Y-89781474D01*
X58734921Y-89807812D01*
X58734754Y-89825891D01*
X58734251Y-89843767D01*
X58733414Y-89861440D01*
X58732242Y-89878909D01*
X58730735Y-89896176D01*
X58728893Y-89913239D01*
X58726716Y-89930099D01*
X58724205Y-89946756D01*
X58721358Y-89963209D01*
X58718177Y-89979459D01*
X58714661Y-89995506D01*
X58710810Y-90011350D01*
X58706624Y-90026991D01*
X58702103Y-90042428D01*
X58697247Y-90057662D01*
X58692056Y-90072693D01*
X58547342Y-90072693D01*
X58547342Y-89857637D01*
X58546890Y-89839182D01*
X58545534Y-89822100D01*
X58543272Y-89806392D01*
X58540107Y-89792058D01*
X58534878Y-89776073D01*
X58528236Y-89762234D01*
X58518400Y-89748461D01*
X58506778Y-89737504D01*
X58493893Y-89728815D01*
X58479747Y-89722392D01*
X58464338Y-89718236D01*
X58447667Y-89716347D01*
X58441830Y-89716221D01*
X58424751Y-89717354D01*
X58408960Y-89720755D01*
X58394457Y-89726422D01*
X58381242Y-89734356D01*
X58369315Y-89744557D01*
X58365626Y-89748461D01*
X58355665Y-89762234D01*
X58348939Y-89776073D01*
X58343644Y-89792058D01*
X58340438Y-89806392D01*
X58338148Y-89822100D01*
X58336775Y-89839182D01*
X58336317Y-89857637D01*
X58336317Y-90232428D01*
X58336775Y-90250798D01*
X58338148Y-90267805D01*
X58340438Y-90283450D01*
X58344588Y-90301090D01*
X58350170Y-90316602D01*
X58357182Y-90329984D01*
X58365626Y-90341238D01*
X58377123Y-90352319D01*
X58389909Y-90361108D01*
X58403982Y-90367604D01*
X58419344Y-90371807D01*
X58435994Y-90373717D01*
X58441830Y-90373845D01*
X58458921Y-90373059D01*
X58474751Y-90370702D01*
X58489318Y-90366774D01*
X58504718Y-90360204D01*
X58518400Y-90351496D01*
X58529677Y-90340757D01*
X58538185Y-90327774D01*
X58543922Y-90312547D01*
X58546636Y-90297710D01*
X58547342Y-90284085D01*
G37*
G36*
X58406659Y-91243593D02*
G01*
X58406659Y-90792233D01*
X58711474Y-90792233D01*
X58711474Y-90825205D01*
X58711932Y-90843569D01*
X58713306Y-90860560D01*
X58715595Y-90876176D01*
X58719745Y-90893764D01*
X58725327Y-90909206D01*
X58732339Y-90922501D01*
X58740783Y-90933649D01*
X58752280Y-90944730D01*
X58765066Y-90953519D01*
X58779139Y-90960015D01*
X58794501Y-90964218D01*
X58811151Y-90966128D01*
X58816987Y-90966256D01*
X58834078Y-90965109D01*
X58849908Y-90961670D01*
X58864475Y-90955939D01*
X58877780Y-90947915D01*
X58889823Y-90937598D01*
X58893557Y-90933649D01*
X58903393Y-90920014D01*
X58910035Y-90906289D01*
X58915264Y-90890418D01*
X58919080Y-90872401D01*
X58921115Y-90856441D01*
X58922245Y-90839107D01*
X58922500Y-90825205D01*
X58922500Y-90566552D01*
X58922047Y-90548183D01*
X58920691Y-90531175D01*
X58918429Y-90515530D01*
X58914331Y-90497890D01*
X58908820Y-90482379D01*
X58901895Y-90468996D01*
X58893557Y-90457742D01*
X58881935Y-90446786D01*
X58869050Y-90438096D01*
X58854904Y-90431673D01*
X58839495Y-90427517D01*
X58822824Y-90425628D01*
X58816987Y-90425502D01*
X58799573Y-90427279D01*
X58782777Y-90432612D01*
X58769253Y-90439771D01*
X58756159Y-90449399D01*
X58743493Y-90461495D01*
X58733670Y-90472950D01*
X58731257Y-90476060D01*
X58723549Y-90489464D01*
X58718448Y-90505195D01*
X58715260Y-90521295D01*
X58713406Y-90536133D01*
X58712169Y-90552711D01*
X58711551Y-90571029D01*
X58711474Y-90580840D01*
X57937712Y-90580840D01*
X57937006Y-90564109D01*
X57934886Y-90548719D01*
X57930477Y-90532022D01*
X57924032Y-90517258D01*
X57915553Y-90504425D01*
X57908770Y-90496943D01*
X57897148Y-90487356D01*
X57884263Y-90479753D01*
X57870117Y-90474133D01*
X57854708Y-90470496D01*
X57838037Y-90468843D01*
X57832199Y-90468733D01*
X57815121Y-90469866D01*
X57799330Y-90473267D01*
X57784827Y-90478934D01*
X57771612Y-90486868D01*
X57759685Y-90497069D01*
X57755996Y-90500973D01*
X57746035Y-90514733D01*
X57739309Y-90528542D01*
X57734014Y-90544479D01*
X57730150Y-90562545D01*
X57728089Y-90578530D01*
X57726944Y-90595878D01*
X57726687Y-90609783D01*
X57726687Y-90825205D01*
X57727144Y-90843569D01*
X57728518Y-90860560D01*
X57730808Y-90876176D01*
X57734958Y-90893764D01*
X57740540Y-90909206D01*
X57747552Y-90922501D01*
X57755996Y-90933649D01*
X57767493Y-90944730D01*
X57780279Y-90953519D01*
X57794352Y-90960015D01*
X57809714Y-90964218D01*
X57826363Y-90966128D01*
X57832199Y-90966256D01*
X57849291Y-90965109D01*
X57865121Y-90961670D01*
X57879688Y-90955939D01*
X57892993Y-90947915D01*
X57905036Y-90937598D01*
X57908770Y-90933649D01*
X57918606Y-90920014D01*
X57925248Y-90906289D01*
X57930477Y-90890418D01*
X57934292Y-90872401D01*
X57936327Y-90856441D01*
X57937458Y-90839107D01*
X57937712Y-90825205D01*
X57937712Y-90792233D01*
X58195633Y-90792233D01*
X58195633Y-91243593D01*
X57937712Y-91243593D01*
X57937712Y-91210621D01*
X57937260Y-91192251D01*
X57935903Y-91175244D01*
X57933642Y-91159599D01*
X57929544Y-91141958D01*
X57924032Y-91126447D01*
X57917108Y-91113064D01*
X57908770Y-91101810D01*
X57897148Y-91090729D01*
X57884263Y-91081941D01*
X57870117Y-91075445D01*
X57854708Y-91071242D01*
X57838037Y-91069331D01*
X57832199Y-91069204D01*
X57815121Y-91070350D01*
X57799330Y-91073789D01*
X57784827Y-91079521D01*
X57771612Y-91087545D01*
X57759685Y-91097862D01*
X57755996Y-91101810D01*
X57746035Y-91115571D01*
X57739309Y-91129379D01*
X57734014Y-91145316D01*
X57730150Y-91163382D01*
X57728089Y-91179368D01*
X57726944Y-91196716D01*
X57726687Y-91210621D01*
X57726687Y-91426043D01*
X57727144Y-91444407D01*
X57728518Y-91461397D01*
X57730808Y-91477013D01*
X57734958Y-91494602D01*
X57740540Y-91510043D01*
X57747552Y-91523338D01*
X57755996Y-91534487D01*
X57767493Y-91545568D01*
X57780279Y-91554356D01*
X57794352Y-91560852D01*
X57809714Y-91565055D01*
X57826363Y-91566966D01*
X57832199Y-91567093D01*
X57849291Y-91566088D01*
X57865121Y-91563075D01*
X57879688Y-91558051D01*
X57892993Y-91551019D01*
X57905036Y-91541977D01*
X57908770Y-91538517D01*
X57918606Y-91526972D01*
X57926407Y-91513495D01*
X57932173Y-91498086D01*
X57935423Y-91483770D01*
X57937260Y-91468112D01*
X57937712Y-91454619D01*
X58711474Y-91454619D01*
X58711641Y-91469364D01*
X58712385Y-91487450D01*
X58713725Y-91503739D01*
X58716236Y-91521572D01*
X58719678Y-91536597D01*
X58725036Y-91550920D01*
X58730525Y-91559766D01*
X58740451Y-91571615D01*
X58753213Y-91584206D01*
X58766368Y-91594327D01*
X58779917Y-91601980D01*
X58793860Y-91607164D01*
X58811110Y-91610127D01*
X58816987Y-91610324D01*
X58834078Y-91609178D01*
X58849908Y-91605739D01*
X58864475Y-91600007D01*
X58877780Y-91591983D01*
X58889823Y-91581666D01*
X58893557Y-91577718D01*
X58903393Y-91564082D01*
X58910035Y-91550358D01*
X58915264Y-91534487D01*
X58919080Y-91516469D01*
X58921115Y-91500509D01*
X58922245Y-91483176D01*
X58922500Y-91469274D01*
X58922500Y-91210621D01*
X58922047Y-91192251D01*
X58920691Y-91175244D01*
X58918429Y-91159599D01*
X58914331Y-91141958D01*
X58908820Y-91126447D01*
X58901895Y-91113064D01*
X58893557Y-91101810D01*
X58881935Y-91090729D01*
X58869050Y-91081941D01*
X58854904Y-91075445D01*
X58839495Y-91071242D01*
X58822824Y-91069331D01*
X58816987Y-91069204D01*
X58799908Y-91070363D01*
X58784117Y-91073841D01*
X58769614Y-91079637D01*
X58756399Y-91087751D01*
X58744472Y-91098184D01*
X58740783Y-91102177D01*
X58730822Y-91116036D01*
X58724096Y-91129867D01*
X58718801Y-91145774D01*
X58714937Y-91163756D01*
X58712876Y-91179636D01*
X58711731Y-91196843D01*
X58711474Y-91210621D01*
X58711474Y-91243593D01*
X58406659Y-91243593D01*
G37*
G36*
X58627576Y-93532271D02*
G01*
X57937712Y-93838185D01*
X57937712Y-93789825D01*
X57937260Y-93771455D01*
X57935903Y-93754448D01*
X57933642Y-93738803D01*
X57929544Y-93721163D01*
X57924032Y-93705652D01*
X57917108Y-93692269D01*
X57908770Y-93681015D01*
X57897148Y-93670058D01*
X57884263Y-93661369D01*
X57870117Y-93654946D01*
X57854708Y-93650790D01*
X57838037Y-93648901D01*
X57832199Y-93648775D01*
X57815121Y-93649908D01*
X57799330Y-93653309D01*
X57784827Y-93658976D01*
X57771612Y-93666910D01*
X57759685Y-93677111D01*
X57755996Y-93681015D01*
X57746035Y-93694775D01*
X57739309Y-93708584D01*
X57734014Y-93724521D01*
X57730150Y-93742587D01*
X57728089Y-93758572D01*
X57726944Y-93775920D01*
X57726687Y-93789825D01*
X57726687Y-94073025D01*
X57727144Y-94091475D01*
X57728518Y-94108539D01*
X57730808Y-94124218D01*
X57734958Y-94141869D01*
X57740540Y-94157356D01*
X57747552Y-94170678D01*
X57755996Y-94181835D01*
X57767493Y-94192916D01*
X57780279Y-94201704D01*
X57794352Y-94208200D01*
X57809714Y-94212403D01*
X57826363Y-94214314D01*
X57832199Y-94214441D01*
X57849626Y-94212703D01*
X57863696Y-94208597D01*
X57877354Y-94202077D01*
X57890601Y-94193141D01*
X57903436Y-94181791D01*
X57913408Y-94170971D01*
X57918295Y-94164982D01*
X57925861Y-94152197D01*
X57930867Y-94137471D01*
X57933996Y-94122543D01*
X57936176Y-94105199D01*
X57937238Y-94089586D01*
X57937693Y-94072427D01*
X57937712Y-94067896D01*
X58922500Y-93634120D01*
X58922500Y-93431155D01*
X57937712Y-92998478D01*
X57937403Y-92980761D01*
X57936476Y-92964613D01*
X57934930Y-92950032D01*
X57932129Y-92934013D01*
X57927492Y-92918025D01*
X57920324Y-92903832D01*
X57917929Y-92900659D01*
X57908174Y-92889067D01*
X57895595Y-92876751D01*
X57882586Y-92866849D01*
X57869148Y-92859363D01*
X57855280Y-92854291D01*
X57838073Y-92851393D01*
X57832199Y-92851200D01*
X57815121Y-92852346D01*
X57799330Y-92855785D01*
X57784827Y-92861517D01*
X57771612Y-92869541D01*
X57759685Y-92879858D01*
X57755996Y-92883806D01*
X57746035Y-92897442D01*
X57739309Y-92911166D01*
X57734014Y-92927037D01*
X57730150Y-92945055D01*
X57728089Y-92961015D01*
X57726944Y-92978348D01*
X57726687Y-92992250D01*
X57726687Y-93277648D01*
X57727144Y-93295840D01*
X57728518Y-93312681D01*
X57730808Y-93328172D01*
X57734958Y-93345635D01*
X57740540Y-93360987D01*
X57747552Y-93374229D01*
X57755996Y-93385359D01*
X57767493Y-93396440D01*
X57780279Y-93405229D01*
X57794352Y-93411724D01*
X57809714Y-93415927D01*
X57826363Y-93417838D01*
X57832199Y-93417965D01*
X57849291Y-93416832D01*
X57865121Y-93413432D01*
X57879688Y-93407764D01*
X57892993Y-93399830D01*
X57905036Y-93389629D01*
X57908770Y-93385725D01*
X57918606Y-93372214D01*
X57925248Y-93358574D01*
X57930477Y-93342769D01*
X57934292Y-93324800D01*
X57936327Y-93308866D01*
X57937458Y-93291546D01*
X57937712Y-93277648D01*
X57937712Y-93228189D01*
X58627576Y-93532271D01*
G37*
G36*
X58343035Y-94202190D02*
G01*
X58360899Y-94202806D01*
X58378552Y-94203833D01*
X58395994Y-94205271D01*
X58413225Y-94207119D01*
X58430245Y-94209378D01*
X58447053Y-94212048D01*
X58463651Y-94215128D01*
X58480038Y-94218619D01*
X58496213Y-94222521D01*
X58512178Y-94226834D01*
X58527931Y-94231557D01*
X58543473Y-94236692D01*
X58558804Y-94242236D01*
X58573924Y-94248192D01*
X58588833Y-94254558D01*
X58603531Y-94261335D01*
X58618018Y-94268523D01*
X58632294Y-94276121D01*
X58646358Y-94284131D01*
X58660212Y-94292551D01*
X58673854Y-94301381D01*
X58687285Y-94310623D01*
X58700506Y-94320275D01*
X58713515Y-94330338D01*
X58726313Y-94340811D01*
X58738900Y-94351696D01*
X58751276Y-94362991D01*
X58763441Y-94374696D01*
X58775394Y-94386813D01*
X58787137Y-94399340D01*
X58798668Y-94412278D01*
X58816503Y-94433689D01*
X58833187Y-94455423D01*
X58848720Y-94477481D01*
X58863103Y-94499862D01*
X58876335Y-94522567D01*
X58888416Y-94545595D01*
X58899347Y-94568946D01*
X58909127Y-94592621D01*
X58917757Y-94616619D01*
X58925236Y-94640941D01*
X58931564Y-94665586D01*
X58936742Y-94690555D01*
X58940769Y-94715847D01*
X58943646Y-94741462D01*
X58945372Y-94767401D01*
X58945947Y-94793663D01*
X58945256Y-94822799D01*
X58943182Y-94851497D01*
X58939726Y-94879757D01*
X58934887Y-94907580D01*
X58928666Y-94934964D01*
X58921063Y-94961910D01*
X58912077Y-94988419D01*
X58901708Y-95014489D01*
X58889957Y-95040122D01*
X58876824Y-95065317D01*
X58862308Y-95090073D01*
X58846410Y-95114392D01*
X58837943Y-95126387D01*
X58829130Y-95138273D01*
X58819971Y-95150049D01*
X58810466Y-95161716D01*
X58800616Y-95173274D01*
X58790421Y-95184721D01*
X58779880Y-95196060D01*
X58768993Y-95207288D01*
X58757823Y-95218288D01*
X58746479Y-95228938D01*
X58734960Y-95239239D01*
X58723266Y-95249191D01*
X58711398Y-95258794D01*
X58699355Y-95268048D01*
X58687138Y-95276952D01*
X58674746Y-95285507D01*
X58662179Y-95293713D01*
X58649438Y-95301570D01*
X58636522Y-95309078D01*
X58623432Y-95316236D01*
X58610167Y-95323045D01*
X58596727Y-95329505D01*
X58583113Y-95335616D01*
X58569324Y-95341378D01*
X58555361Y-95346790D01*
X58541223Y-95351854D01*
X58526911Y-95356568D01*
X58512423Y-95360933D01*
X58497762Y-95364948D01*
X58482925Y-95368615D01*
X58467914Y-95371932D01*
X58452729Y-95374900D01*
X58437369Y-95377519D01*
X58421834Y-95379789D01*
X58406125Y-95381709D01*
X58390241Y-95383281D01*
X58374182Y-95384503D01*
X58357949Y-95385376D01*
X58341542Y-95385900D01*
X58324959Y-95386074D01*
X58308332Y-95385900D01*
X58291882Y-95385376D01*
X58275609Y-95384503D01*
X58259512Y-95383281D01*
X58243592Y-95381709D01*
X58227849Y-95379789D01*
X58212282Y-95377519D01*
X58196892Y-95374900D01*
X58181679Y-95371932D01*
X58166643Y-95368615D01*
X58151783Y-95364948D01*
X58137100Y-95360933D01*
X58122594Y-95356568D01*
X58108265Y-95351854D01*
X58094112Y-95346790D01*
X58080136Y-95341378D01*
X58066337Y-95335616D01*
X58052715Y-95329505D01*
X58039269Y-95323045D01*
X58026000Y-95316236D01*
X58012908Y-95309078D01*
X57999993Y-95301570D01*
X57987254Y-95293713D01*
X57974692Y-95285507D01*
X57962307Y-95276952D01*
X57950099Y-95268048D01*
X57938067Y-95258794D01*
X57926212Y-95249191D01*
X57914534Y-95239239D01*
X57903032Y-95228938D01*
X57891708Y-95218288D01*
X57880560Y-95207288D01*
X57869650Y-95196060D01*
X57859087Y-95184721D01*
X57848870Y-95173274D01*
X57839000Y-95161716D01*
X57829476Y-95150049D01*
X57820298Y-95138273D01*
X57811467Y-95126387D01*
X57802982Y-95114392D01*
X57787051Y-95090073D01*
X57772505Y-95065317D01*
X57759344Y-95040122D01*
X57747569Y-95014489D01*
X57737179Y-94988419D01*
X57728175Y-94961910D01*
X57720556Y-94934964D01*
X57714322Y-94907580D01*
X57709473Y-94879757D01*
X57706010Y-94851497D01*
X57703932Y-94822799D01*
X57703239Y-94793663D01*
X57914265Y-94793663D01*
X57914720Y-94812084D01*
X57916085Y-94830254D01*
X57918361Y-94848171D01*
X57921547Y-94865837D01*
X57925642Y-94883251D01*
X57930648Y-94900413D01*
X57936565Y-94917323D01*
X57943391Y-94933981D01*
X57951128Y-94950387D01*
X57959774Y-94966541D01*
X57969331Y-94982444D01*
X57979798Y-94998095D01*
X57991176Y-95013493D01*
X58003463Y-95028640D01*
X58016661Y-95043535D01*
X58030769Y-95058178D01*
X58045571Y-95072286D01*
X58060851Y-95085484D01*
X58076609Y-95097771D01*
X58092845Y-95109149D01*
X58109559Y-95119616D01*
X58126751Y-95129173D01*
X58144420Y-95137820D01*
X58162568Y-95145556D01*
X58181194Y-95152383D01*
X58200298Y-95158299D01*
X58219880Y-95163305D01*
X58239940Y-95167401D01*
X58260478Y-95170586D01*
X58281494Y-95172862D01*
X58302988Y-95174227D01*
X58324959Y-95174682D01*
X58346974Y-95174227D01*
X58368505Y-95172862D01*
X58389553Y-95170586D01*
X58410116Y-95167401D01*
X58430196Y-95163305D01*
X58449792Y-95158299D01*
X58468905Y-95152383D01*
X58487534Y-95145556D01*
X58505679Y-95137820D01*
X58523340Y-95129173D01*
X58540518Y-95119616D01*
X58557211Y-95109149D01*
X58573422Y-95097771D01*
X58589148Y-95085484D01*
X58604391Y-95072286D01*
X58619150Y-95058178D01*
X58633169Y-95043535D01*
X58646284Y-95028640D01*
X58658494Y-95013493D01*
X58669800Y-94998095D01*
X58680201Y-94982444D01*
X58689698Y-94966541D01*
X58698290Y-94950387D01*
X58705978Y-94933981D01*
X58712762Y-94917323D01*
X58718641Y-94900413D01*
X58723615Y-94883251D01*
X58727685Y-94865837D01*
X58730851Y-94848171D01*
X58733112Y-94830254D01*
X58734469Y-94812084D01*
X58734921Y-94793663D01*
X58734466Y-94775329D01*
X58733101Y-94757239D01*
X58730825Y-94739391D01*
X58727640Y-94721787D01*
X58723544Y-94704426D01*
X58718538Y-94687309D01*
X58712621Y-94670435D01*
X58705795Y-94653804D01*
X58698058Y-94637416D01*
X58689412Y-94621272D01*
X58679855Y-94605371D01*
X58669388Y-94589713D01*
X58658010Y-94574298D01*
X58645723Y-94559127D01*
X58632525Y-94544199D01*
X58618417Y-94529515D01*
X58603618Y-94515451D01*
X58588347Y-94502295D01*
X58572603Y-94490046D01*
X58556387Y-94478704D01*
X58539699Y-94468270D01*
X58522538Y-94458743D01*
X58504906Y-94450124D01*
X58486801Y-94442411D01*
X58468224Y-94435607D01*
X58449174Y-94429709D01*
X58429652Y-94424719D01*
X58409658Y-94420636D01*
X58389192Y-94417460D01*
X58368253Y-94415192D01*
X58346842Y-94413831D01*
X58324959Y-94413377D01*
X58303119Y-94413831D01*
X58281746Y-94415192D01*
X58260838Y-94417460D01*
X58240398Y-94420636D01*
X58220424Y-94424719D01*
X58200916Y-94429709D01*
X58181876Y-94435607D01*
X58163301Y-94442411D01*
X58145193Y-94450124D01*
X58127552Y-94458743D01*
X58110377Y-94468270D01*
X58093669Y-94478704D01*
X58077427Y-94490046D01*
X58061652Y-94502295D01*
X58046344Y-94515451D01*
X58031502Y-94529515D01*
X58017305Y-94544199D01*
X58004024Y-94559127D01*
X57991659Y-94574298D01*
X57980211Y-94589713D01*
X57969678Y-94605371D01*
X57960061Y-94621272D01*
X57951359Y-94637416D01*
X57943574Y-94653804D01*
X57936705Y-94670435D01*
X57930751Y-94687309D01*
X57925714Y-94704426D01*
X57921592Y-94721787D01*
X57918387Y-94739391D01*
X57916097Y-94757239D01*
X57914723Y-94775329D01*
X57914265Y-94793663D01*
X57703239Y-94793663D01*
X57703815Y-94767401D01*
X57705540Y-94741462D01*
X57708417Y-94715847D01*
X57712444Y-94690555D01*
X57717622Y-94665586D01*
X57723950Y-94640941D01*
X57731429Y-94616619D01*
X57740059Y-94592621D01*
X57749839Y-94568946D01*
X57760770Y-94545595D01*
X57772851Y-94522567D01*
X57786083Y-94499862D01*
X57800466Y-94477481D01*
X57815999Y-94455423D01*
X57832683Y-94433689D01*
X57850518Y-94412278D01*
X57862094Y-94399340D01*
X57873881Y-94386813D01*
X57885876Y-94374696D01*
X57898082Y-94362991D01*
X57910497Y-94351696D01*
X57923122Y-94340811D01*
X57935957Y-94330338D01*
X57949001Y-94320275D01*
X57962255Y-94310623D01*
X57975718Y-94301381D01*
X57989392Y-94292551D01*
X58003274Y-94284131D01*
X58017367Y-94276121D01*
X58031669Y-94268523D01*
X58046181Y-94261335D01*
X58060902Y-94254558D01*
X58075833Y-94248192D01*
X58090974Y-94242236D01*
X58106325Y-94236692D01*
X58121885Y-94231557D01*
X58137655Y-94226834D01*
X58153634Y-94222521D01*
X58169823Y-94218619D01*
X58186222Y-94215128D01*
X58202830Y-94212048D01*
X58219648Y-94209378D01*
X58236676Y-94207119D01*
X58253913Y-94205271D01*
X58271360Y-94203833D01*
X58289017Y-94202806D01*
X58306883Y-94202190D01*
X58324959Y-94201985D01*
X58343035Y-94202190D01*
G37*
G36*
X57937712Y-95965296D02*
G01*
X58711474Y-95965296D01*
X58711474Y-96420687D01*
X58500448Y-96420687D01*
X58482170Y-96421145D01*
X58465254Y-96422519D01*
X58449701Y-96424809D01*
X58432175Y-96428959D01*
X58416778Y-96434540D01*
X58403510Y-96441553D01*
X58392370Y-96449996D01*
X58381289Y-96461631D01*
X58372501Y-96474554D01*
X58366005Y-96488765D01*
X58361802Y-96504264D01*
X58359891Y-96521051D01*
X58359764Y-96526933D01*
X58360910Y-96543651D01*
X58364349Y-96559184D01*
X58370081Y-96573532D01*
X58378105Y-96586696D01*
X58388422Y-96598674D01*
X58392370Y-96602404D01*
X58405993Y-96612489D01*
X58419687Y-96619299D01*
X58435510Y-96624660D01*
X58453461Y-96628573D01*
X58469355Y-96630659D01*
X58486612Y-96631818D01*
X58500448Y-96632079D01*
X58922500Y-96632079D01*
X58922500Y-95631538D01*
X58922047Y-95613083D01*
X58920691Y-95596001D01*
X58918429Y-95580293D01*
X58915264Y-95565959D01*
X58910035Y-95549974D01*
X58903393Y-95536135D01*
X58893557Y-95522362D01*
X58881935Y-95511405D01*
X58869050Y-95502715D01*
X58854904Y-95496293D01*
X58839495Y-95492137D01*
X58822824Y-95490248D01*
X58816987Y-95490122D01*
X58799908Y-95491255D01*
X58784117Y-95494655D01*
X58769614Y-95500323D01*
X58756399Y-95508257D01*
X58744472Y-95518458D01*
X58740783Y-95522362D01*
X58730822Y-95536135D01*
X58724096Y-95549974D01*
X58718801Y-95565959D01*
X58715595Y-95580293D01*
X58713306Y-95596001D01*
X58711932Y-95613083D01*
X58711474Y-95631538D01*
X58711474Y-95753904D01*
X57937712Y-95753904D01*
X57937712Y-95631538D01*
X57937260Y-95613083D01*
X57935903Y-95596001D01*
X57933642Y-95580293D01*
X57930477Y-95565959D01*
X57925248Y-95549974D01*
X57918606Y-95536135D01*
X57908770Y-95522362D01*
X57897148Y-95511405D01*
X57884263Y-95502715D01*
X57870117Y-95496293D01*
X57854708Y-95492137D01*
X57838037Y-95490248D01*
X57832199Y-95490122D01*
X57815121Y-95491255D01*
X57799330Y-95494655D01*
X57784827Y-95500323D01*
X57771612Y-95508257D01*
X57759685Y-95518458D01*
X57755996Y-95522362D01*
X57746035Y-95536135D01*
X57739309Y-95549974D01*
X57734014Y-95565959D01*
X57730808Y-95580293D01*
X57728518Y-95596001D01*
X57727144Y-95613083D01*
X57726687Y-95631538D01*
X57726687Y-96088761D01*
X57727144Y-96107131D01*
X57728518Y-96124138D01*
X57730808Y-96139783D01*
X57734958Y-96157423D01*
X57740540Y-96172935D01*
X57747552Y-96186317D01*
X57755996Y-96197571D01*
X57767493Y-96208652D01*
X57780279Y-96217441D01*
X57794352Y-96223936D01*
X57809714Y-96228140D01*
X57826363Y-96230050D01*
X57832199Y-96230178D01*
X57849291Y-96229031D01*
X57865121Y-96225592D01*
X57879688Y-96219861D01*
X57892993Y-96211836D01*
X57905036Y-96201520D01*
X57908770Y-96197571D01*
X57918606Y-96183811D01*
X57925248Y-96170003D01*
X57930477Y-96154065D01*
X57934292Y-96135999D01*
X57936327Y-96120014D01*
X57937458Y-96102666D01*
X57937712Y-96088761D01*
X57937712Y-95965296D01*
G37*
G36*
X57937712Y-97416099D02*
G01*
X58711474Y-97416099D01*
X58711474Y-97558248D01*
X58711932Y-97576618D01*
X58713306Y-97593625D01*
X58715595Y-97609270D01*
X58719745Y-97626910D01*
X58725327Y-97642422D01*
X58732339Y-97655804D01*
X58740783Y-97667058D01*
X58752280Y-97678139D01*
X58765066Y-97686928D01*
X58779139Y-97693424D01*
X58794501Y-97697627D01*
X58811151Y-97699537D01*
X58816987Y-97699665D01*
X58834078Y-97698518D01*
X58849908Y-97695079D01*
X58864475Y-97689348D01*
X58877780Y-97681324D01*
X58889823Y-97671007D01*
X58893557Y-97667058D01*
X58903393Y-97653298D01*
X58910035Y-97639490D01*
X58915264Y-97623552D01*
X58919080Y-97605486D01*
X58921115Y-97589501D01*
X58922245Y-97572153D01*
X58922500Y-97558248D01*
X58922500Y-97063656D01*
X58922047Y-97045287D01*
X58920691Y-97028279D01*
X58918429Y-97012634D01*
X58914331Y-96994994D01*
X58908820Y-96979483D01*
X58901895Y-96966100D01*
X58893557Y-96954846D01*
X58881935Y-96943889D01*
X58869050Y-96935200D01*
X58854904Y-96928777D01*
X58839495Y-96924621D01*
X58822824Y-96922732D01*
X58816987Y-96922606D01*
X58799908Y-96923739D01*
X58784117Y-96927140D01*
X58769614Y-96932807D01*
X58756399Y-96940741D01*
X58744472Y-96950942D01*
X58740783Y-96954846D01*
X58730822Y-96968606D01*
X58724096Y-96982415D01*
X58718801Y-96998352D01*
X58714937Y-97016418D01*
X58712876Y-97032403D01*
X58711731Y-97049751D01*
X58711474Y-97063656D01*
X58711474Y-97205073D01*
X57937712Y-97205073D01*
X57937712Y-96976095D01*
X58148738Y-96976095D01*
X58167022Y-96975637D01*
X58183955Y-96974263D01*
X58199537Y-96971974D01*
X58217114Y-96967823D01*
X58232581Y-96962242D01*
X58245937Y-96955230D01*
X58257182Y-96946786D01*
X58268139Y-96935164D01*
X58276828Y-96922280D01*
X58283251Y-96908133D01*
X58287407Y-96892724D01*
X58289296Y-96876053D01*
X58289422Y-96870216D01*
X58288289Y-96853373D01*
X58284888Y-96837741D01*
X58279221Y-96823320D01*
X58271287Y-96810109D01*
X58261086Y-96798109D01*
X58257182Y-96794379D01*
X58243435Y-96784418D01*
X58229657Y-96777692D01*
X58213768Y-96772397D01*
X58195768Y-96768533D01*
X58179848Y-96766472D01*
X58162578Y-96765327D01*
X58148738Y-96765069D01*
X57726687Y-96765069D01*
X57726687Y-97859399D01*
X58148738Y-97859399D01*
X58167022Y-97858936D01*
X58183955Y-97857545D01*
X58199537Y-97855226D01*
X58217114Y-97851024D01*
X58232581Y-97845373D01*
X58245937Y-97838273D01*
X58257182Y-97829724D01*
X58268139Y-97818102D01*
X58276828Y-97805218D01*
X58283251Y-97791071D01*
X58287407Y-97775662D01*
X58289296Y-97758991D01*
X58289422Y-97753154D01*
X58288289Y-97736311D01*
X58284888Y-97720679D01*
X58279221Y-97706258D01*
X58271287Y-97693047D01*
X58261086Y-97681047D01*
X58257182Y-97677316D01*
X58243435Y-97667356D01*
X58229657Y-97660630D01*
X58213768Y-97655335D01*
X58195768Y-97651471D01*
X58179848Y-97649410D01*
X58162578Y-97648265D01*
X58148738Y-97648007D01*
X57937712Y-97648007D01*
X57937712Y-97416099D01*
G37*
G36*
X58822824Y-97893599D02*
G01*
X58839495Y-97895509D01*
X58854904Y-97899712D01*
X58869050Y-97906208D01*
X58881935Y-97914997D01*
X58893557Y-97926078D01*
X58901895Y-97937226D01*
X58908820Y-97950521D01*
X58914331Y-97965963D01*
X58918429Y-97983551D01*
X58920691Y-97999167D01*
X58922047Y-98016158D01*
X58922500Y-98034522D01*
X58922500Y-98318820D01*
X58922245Y-98332725D01*
X58921115Y-98350073D01*
X58919080Y-98366059D01*
X58915264Y-98384125D01*
X58910035Y-98400062D01*
X58903393Y-98413870D01*
X58893557Y-98427630D01*
X58889823Y-98431579D01*
X58877780Y-98441896D01*
X58864475Y-98449920D01*
X58849908Y-98455652D01*
X58834078Y-98459091D01*
X58816987Y-98460237D01*
X58811151Y-98460109D01*
X58794501Y-98458199D01*
X58779139Y-98453996D01*
X58765066Y-98447500D01*
X58752280Y-98438712D01*
X58740783Y-98427630D01*
X58732339Y-98416377D01*
X58725327Y-98402994D01*
X58719745Y-98387482D01*
X58715595Y-98369842D01*
X58713306Y-98354197D01*
X58711932Y-98337190D01*
X58711474Y-98318820D01*
X58711474Y-98267529D01*
X58570790Y-98318820D01*
X58570790Y-98832097D01*
X58711474Y-98882655D01*
X58711474Y-98830998D01*
X58711731Y-98817092D01*
X58712876Y-98799745D01*
X58714937Y-98783759D01*
X58718801Y-98765693D01*
X58724096Y-98749756D01*
X58730822Y-98735947D01*
X58740783Y-98722187D01*
X58744472Y-98718283D01*
X58756399Y-98708082D01*
X58769614Y-98700148D01*
X58784117Y-98694481D01*
X58799908Y-98691081D01*
X58816987Y-98689947D01*
X58822824Y-98690073D01*
X58839495Y-98691962D01*
X58854904Y-98696118D01*
X58869050Y-98702541D01*
X58881935Y-98711231D01*
X58893557Y-98722187D01*
X58901895Y-98733441D01*
X58908820Y-98746824D01*
X58914331Y-98762335D01*
X58918429Y-98779976D01*
X58920691Y-98795620D01*
X58922047Y-98812628D01*
X58922500Y-98830998D01*
X58922500Y-99115296D01*
X58922245Y-99129195D01*
X58921115Y-99146514D01*
X58919080Y-99162448D01*
X58915264Y-99180417D01*
X58910035Y-99196222D01*
X58903393Y-99209863D01*
X58893557Y-99223374D01*
X58889823Y-99227278D01*
X58877780Y-99237479D01*
X58864475Y-99245413D01*
X58849908Y-99251080D01*
X58834078Y-99254480D01*
X58816987Y-99255614D01*
X58811110Y-99255429D01*
X58793860Y-99252660D01*
X58779917Y-99247814D01*
X58766368Y-99240660D01*
X58753213Y-99231199D01*
X58740451Y-99219429D01*
X58730525Y-99208353D01*
X58728218Y-99205178D01*
X58721315Y-99190958D01*
X58716850Y-99174918D01*
X58714153Y-99158836D01*
X58712664Y-99144193D01*
X58711771Y-99127970D01*
X58711474Y-99110167D01*
X57726687Y-98689947D01*
X57726687Y-98574543D01*
X57996697Y-98574543D01*
X58359764Y-98744536D01*
X58359764Y-98403450D01*
X57996697Y-98574543D01*
X57726687Y-98574543D01*
X57726687Y-98233457D01*
X57726944Y-98219552D01*
X57728089Y-98202204D01*
X57730150Y-98186219D01*
X57734014Y-98168153D01*
X57739309Y-98152216D01*
X57746035Y-98138407D01*
X57755996Y-98124647D01*
X57759685Y-98120699D01*
X57771612Y-98110382D01*
X57784827Y-98102358D01*
X57799330Y-98096626D01*
X57815121Y-98093187D01*
X57832199Y-98092041D01*
X57838037Y-98092168D01*
X57854708Y-98094079D01*
X57870117Y-98098282D01*
X57884263Y-98104778D01*
X57897148Y-98113566D01*
X57908770Y-98124647D01*
X57917108Y-98135901D01*
X57924032Y-98149284D01*
X57929544Y-98164795D01*
X57933642Y-98182435D01*
X57935903Y-98198080D01*
X57937260Y-98215088D01*
X57937712Y-98233457D01*
X57937712Y-98371577D01*
X58711474Y-98039651D01*
X58711932Y-98020749D01*
X58713306Y-98003243D01*
X58715595Y-97987135D01*
X58718801Y-97972423D01*
X58724096Y-97955997D01*
X58730822Y-97941754D01*
X58740783Y-97927543D01*
X58744472Y-97923417D01*
X58756399Y-97912637D01*
X58769614Y-97904252D01*
X58784117Y-97898263D01*
X58799908Y-97894669D01*
X58816987Y-97893471D01*
X58822824Y-97893599D01*
G37*
G36*
X58547342Y-100366430D02*
G01*
X58818086Y-100366430D01*
X58827109Y-100348692D01*
X58835768Y-100331288D01*
X58844065Y-100314219D01*
X58851997Y-100297485D01*
X58859566Y-100281086D01*
X58866772Y-100265022D01*
X58873614Y-100249292D01*
X58880093Y-100233898D01*
X58886208Y-100218838D01*
X58891960Y-100204114D01*
X58897348Y-100189724D01*
X58902372Y-100175669D01*
X58909228Y-100155214D01*
X58915265Y-100135513D01*
X58918836Y-100122798D01*
X58923681Y-100103834D01*
X58928049Y-100084587D01*
X58931941Y-100065057D01*
X58935357Y-100045243D01*
X58938295Y-100025146D01*
X58940758Y-100004766D01*
X58942743Y-99984102D01*
X58944252Y-99963155D01*
X58945285Y-99941924D01*
X58945841Y-99920410D01*
X58945947Y-99905910D01*
X58945768Y-99885762D01*
X58945231Y-99865799D01*
X58944337Y-99846023D01*
X58943085Y-99826432D01*
X58941475Y-99807028D01*
X58939507Y-99787809D01*
X58937181Y-99768777D01*
X58934498Y-99749931D01*
X58931457Y-99731270D01*
X58928058Y-99712796D01*
X58924301Y-99694508D01*
X58920187Y-99676406D01*
X58915715Y-99658490D01*
X58910885Y-99640760D01*
X58905697Y-99623216D01*
X58900151Y-99605858D01*
X58893396Y-99585996D01*
X58886318Y-99566939D01*
X58878919Y-99548687D01*
X58871197Y-99531240D01*
X58863153Y-99514598D01*
X58854788Y-99498761D01*
X58846100Y-99483729D01*
X58837091Y-99469502D01*
X58827759Y-99456080D01*
X58818106Y-99443463D01*
X58811491Y-99435499D01*
X58800946Y-99423904D01*
X58789505Y-99412478D01*
X58777169Y-99401218D01*
X58763938Y-99390127D01*
X58749812Y-99379202D01*
X58734791Y-99368445D01*
X58718874Y-99357856D01*
X58702063Y-99347434D01*
X58684356Y-99337179D01*
X58665754Y-99327092D01*
X58652855Y-99320460D01*
X58639615Y-99314116D01*
X58626179Y-99308181D01*
X58612550Y-99302656D01*
X58598725Y-99297540D01*
X58584706Y-99292833D01*
X58570492Y-99288535D01*
X58556084Y-99284647D01*
X58541481Y-99281168D01*
X58526683Y-99278098D01*
X58511691Y-99275437D01*
X58496504Y-99273186D01*
X58481122Y-99271344D01*
X58465546Y-99269912D01*
X58449775Y-99268889D01*
X58433810Y-99268275D01*
X58417650Y-99268070D01*
X58273302Y-99268070D01*
X58248465Y-99268574D01*
X58223963Y-99270085D01*
X58199796Y-99272604D01*
X58175964Y-99276130D01*
X58152466Y-99280664D01*
X58129304Y-99286205D01*
X58106476Y-99292754D01*
X58083983Y-99300310D01*
X58061825Y-99308874D01*
X58040002Y-99318445D01*
X58018514Y-99329024D01*
X57997361Y-99340610D01*
X57976543Y-99353204D01*
X57956059Y-99366805D01*
X57935911Y-99381414D01*
X57916097Y-99397030D01*
X57903001Y-99407960D01*
X57890321Y-99419134D01*
X57878057Y-99430552D01*
X57866208Y-99442213D01*
X57854776Y-99454119D01*
X57843759Y-99466269D01*
X57833157Y-99478663D01*
X57822972Y-99491300D01*
X57813202Y-99504182D01*
X57803848Y-99517308D01*
X57794909Y-99530678D01*
X57786387Y-99544292D01*
X57778280Y-99558149D01*
X57770589Y-99572251D01*
X57763313Y-99586597D01*
X57756454Y-99601187D01*
X57750010Y-99616021D01*
X57743981Y-99631098D01*
X57738369Y-99646420D01*
X57733172Y-99661986D01*
X57728391Y-99677796D01*
X57724026Y-99693850D01*
X57720077Y-99710148D01*
X57716543Y-99726689D01*
X57713425Y-99743475D01*
X57710722Y-99760505D01*
X57708436Y-99777779D01*
X57706565Y-99795297D01*
X57705110Y-99813059D01*
X57704071Y-99831065D01*
X57703447Y-99849315D01*
X57703239Y-99867808D01*
X57703445Y-99883943D01*
X57704064Y-99899923D01*
X57705094Y-99915748D01*
X57706536Y-99931418D01*
X57708391Y-99946934D01*
X57710658Y-99962296D01*
X57713337Y-99977503D01*
X57716428Y-99992555D01*
X57719932Y-100007453D01*
X57723847Y-100022197D01*
X57726687Y-100031940D01*
X57731289Y-100046500D01*
X57736304Y-100060920D01*
X57741730Y-100075197D01*
X57747569Y-100089333D01*
X57753820Y-100103327D01*
X57760484Y-100117179D01*
X57767559Y-100130890D01*
X57775047Y-100144459D01*
X57782946Y-100157887D01*
X57791258Y-100171172D01*
X57797028Y-100179951D01*
X57784458Y-100187834D01*
X57769620Y-100198296D01*
X57756980Y-100208700D01*
X57746539Y-100219047D01*
X57736578Y-100231900D01*
X57729159Y-100247206D01*
X57726687Y-100262383D01*
X57727820Y-100279200D01*
X57731220Y-100294754D01*
X57736887Y-100309047D01*
X57744822Y-100322077D01*
X57755023Y-100333845D01*
X57758927Y-100337487D01*
X57772588Y-100347323D01*
X57786373Y-100353966D01*
X57802341Y-100359194D01*
X57816686Y-100362360D01*
X57832428Y-100364621D01*
X57849567Y-100365978D01*
X57868103Y-100366430D01*
X58006222Y-100366430D01*
X58024770Y-100365972D01*
X58041943Y-100364598D01*
X58057742Y-100362309D01*
X58072168Y-100359103D01*
X58088268Y-100353808D01*
X58102221Y-100347082D01*
X58116132Y-100337121D01*
X58127213Y-100325525D01*
X58136001Y-100312718D01*
X58142497Y-100298700D01*
X58146700Y-100283472D01*
X58148611Y-100267032D01*
X58148738Y-100261284D01*
X58147669Y-100245586D01*
X58144461Y-100230870D01*
X58139114Y-100217135D01*
X58131628Y-100204383D01*
X58126390Y-100197536D01*
X58115014Y-100186517D01*
X58102118Y-100178668D01*
X58088247Y-100172443D01*
X58071773Y-100166681D01*
X58059345Y-100163098D01*
X58043911Y-100158658D01*
X58027562Y-100153094D01*
X58013583Y-100147272D01*
X58000269Y-100140154D01*
X57989003Y-100131591D01*
X57978244Y-100119642D01*
X57969633Y-100107383D01*
X57961343Y-100093031D01*
X57953375Y-100076586D01*
X57947233Y-100061922D01*
X57941297Y-100045920D01*
X57936980Y-100033039D01*
X57931656Y-100015178D01*
X57927042Y-99996769D01*
X57923138Y-99977809D01*
X57920676Y-99963229D01*
X57918613Y-99948340D01*
X57916949Y-99933141D01*
X57915685Y-99917634D01*
X57914820Y-99901817D01*
X57914354Y-99885692D01*
X57914265Y-99874769D01*
X57914451Y-99859190D01*
X57915009Y-99843869D01*
X57915939Y-99828805D01*
X57917242Y-99813999D01*
X57919893Y-99792272D01*
X57923381Y-99771125D01*
X57927707Y-99750558D01*
X57932869Y-99730571D01*
X57938869Y-99711163D01*
X57945707Y-99692334D01*
X57953381Y-99674085D01*
X57961892Y-99656416D01*
X57971504Y-99640090D01*
X57982752Y-99624085D01*
X57992263Y-99612291D01*
X58002695Y-99600677D01*
X58014047Y-99589244D01*
X58026321Y-99577991D01*
X58039515Y-99566919D01*
X58053631Y-99556027D01*
X58068667Y-99545315D01*
X58084624Y-99534783D01*
X58101112Y-99524831D01*
X58117876Y-99515858D01*
X58134918Y-99507864D01*
X58152236Y-99500849D01*
X58169831Y-99494812D01*
X58187703Y-99489755D01*
X58205852Y-99485676D01*
X58224278Y-99482576D01*
X58242981Y-99480455D01*
X58261960Y-99479313D01*
X58274767Y-99479096D01*
X58415451Y-99479096D01*
X58434757Y-99479479D01*
X58453473Y-99480630D01*
X58471600Y-99482548D01*
X58489136Y-99485232D01*
X58506084Y-99488684D01*
X58522441Y-99492903D01*
X58538209Y-99497889D01*
X58553387Y-99503642D01*
X58567976Y-99510162D01*
X58581975Y-99517450D01*
X58595385Y-99525504D01*
X58608205Y-99534325D01*
X58620435Y-99543914D01*
X58632076Y-99554269D01*
X58643127Y-99565392D01*
X58653588Y-99577282D01*
X58663437Y-99590053D01*
X58672651Y-99603728D01*
X58681229Y-99618309D01*
X58689171Y-99633793D01*
X58696479Y-99650182D01*
X58703150Y-99667476D01*
X58709187Y-99685674D01*
X58714588Y-99704776D01*
X58719353Y-99724783D01*
X58723484Y-99745695D01*
X58726978Y-99767510D01*
X58729838Y-99790231D01*
X58732062Y-99813856D01*
X58733650Y-99838385D01*
X58734603Y-99863818D01*
X58734921Y-99890157D01*
X58734754Y-99908236D01*
X58734251Y-99926112D01*
X58733414Y-99943785D01*
X58732242Y-99961254D01*
X58730735Y-99978521D01*
X58728893Y-99995584D01*
X58726716Y-100012444D01*
X58724205Y-100029100D01*
X58721358Y-100045554D01*
X58718177Y-100061804D01*
X58714661Y-100077851D01*
X58710810Y-100093695D01*
X58706624Y-100109335D01*
X58702103Y-100124773D01*
X58697247Y-100140007D01*
X58692056Y-100155038D01*
X58547342Y-100155038D01*
X58547342Y-99939982D01*
X58546890Y-99921527D01*
X58545534Y-99904445D01*
X58543272Y-99888737D01*
X58540107Y-99874403D01*
X58534878Y-99858417D01*
X58528236Y-99844579D01*
X58518400Y-99830806D01*
X58506778Y-99819849D01*
X58493893Y-99811159D01*
X58479747Y-99804736D01*
X58464338Y-99800581D01*
X58447667Y-99798691D01*
X58441830Y-99798566D01*
X58424751Y-99799699D01*
X58408960Y-99803099D01*
X58394457Y-99808766D01*
X58381242Y-99816701D01*
X58369315Y-99826902D01*
X58365626Y-99830806D01*
X58355665Y-99844579D01*
X58348939Y-99858417D01*
X58343644Y-99874403D01*
X58340438Y-99888737D01*
X58338148Y-99904445D01*
X58336775Y-99921527D01*
X58336317Y-99939982D01*
X58336317Y-100314773D01*
X58336775Y-100333143D01*
X58338148Y-100350150D01*
X58340438Y-100365795D01*
X58344588Y-100383435D01*
X58350170Y-100398946D01*
X58357182Y-100412329D01*
X58365626Y-100423583D01*
X58377123Y-100434664D01*
X58389909Y-100443453D01*
X58403982Y-100449948D01*
X58419344Y-100454152D01*
X58435994Y-100456062D01*
X58441830Y-100456189D01*
X58458921Y-100455404D01*
X58474751Y-100453047D01*
X58489318Y-100449118D01*
X58504718Y-100442549D01*
X58518400Y-100433841D01*
X58529677Y-100423102D01*
X58538185Y-100410119D01*
X58543922Y-100394892D01*
X58546636Y-100380054D01*
X58547342Y-100366430D01*
G37*
G36*
X58406659Y-100877508D02*
G01*
X58711474Y-100877508D01*
X58711474Y-101416430D01*
X58594237Y-101416430D01*
X58575959Y-101416888D01*
X58559043Y-101418262D01*
X58543490Y-101420552D01*
X58525964Y-101424702D01*
X58510567Y-101430283D01*
X58497299Y-101437296D01*
X58486160Y-101445739D01*
X58475079Y-101457486D01*
X58466290Y-101470469D01*
X58459794Y-101484688D01*
X58455591Y-101500144D01*
X58453681Y-101516837D01*
X58453553Y-101522676D01*
X58454700Y-101539394D01*
X58458139Y-101554927D01*
X58463870Y-101569276D01*
X58471894Y-101582439D01*
X58482211Y-101594417D01*
X58486160Y-101598147D01*
X58499782Y-101608232D01*
X58513476Y-101615042D01*
X58529299Y-101620403D01*
X58547251Y-101624316D01*
X58563144Y-101626402D01*
X58580401Y-101627562D01*
X58594237Y-101627822D01*
X58922500Y-101627822D01*
X58922500Y-100633510D01*
X58922047Y-100615140D01*
X58920691Y-100598133D01*
X58918429Y-100582488D01*
X58914331Y-100564848D01*
X58908820Y-100549336D01*
X58901895Y-100535953D01*
X58893557Y-100524700D01*
X58881935Y-100513618D01*
X58869050Y-100504830D01*
X58854904Y-100498334D01*
X58839495Y-100494131D01*
X58822824Y-100492220D01*
X58816987Y-100492093D01*
X58799908Y-100493252D01*
X58784117Y-100496730D01*
X58769614Y-100502526D01*
X58756399Y-100510640D01*
X58744472Y-100521073D01*
X58740783Y-100525066D01*
X58730822Y-100538925D01*
X58724096Y-100552756D01*
X58718801Y-100568663D01*
X58714937Y-100586645D01*
X58712876Y-100602525D01*
X58711731Y-100619732D01*
X58711474Y-100633510D01*
X58711474Y-100666482D01*
X57937712Y-100666482D01*
X57937712Y-100633510D01*
X57937260Y-100615140D01*
X57935903Y-100598133D01*
X57933642Y-100582488D01*
X57929544Y-100564848D01*
X57924032Y-100549336D01*
X57917108Y-100535953D01*
X57908770Y-100524700D01*
X57897148Y-100513618D01*
X57884263Y-100504830D01*
X57870117Y-100498334D01*
X57854708Y-100494131D01*
X57838037Y-100492220D01*
X57832199Y-100492093D01*
X57815121Y-100493239D01*
X57799330Y-100496678D01*
X57784827Y-100502410D01*
X57771612Y-100510434D01*
X57759685Y-100520751D01*
X57755996Y-100524700D01*
X57746035Y-100538460D01*
X57739309Y-100552268D01*
X57734014Y-100568205D01*
X57730150Y-100586271D01*
X57728089Y-100602257D01*
X57726944Y-100619605D01*
X57726687Y-100633510D01*
X57727786Y-101581294D01*
X58054949Y-101581294D01*
X58073233Y-101580842D01*
X58090166Y-101579485D01*
X58105748Y-101577224D01*
X58123325Y-101573126D01*
X58138792Y-101567614D01*
X58152148Y-101560689D01*
X58163393Y-101552351D01*
X58174349Y-101540965D01*
X58183039Y-101528240D01*
X58189462Y-101514175D01*
X58193618Y-101498771D01*
X58195507Y-101482027D01*
X58195633Y-101476148D01*
X58194499Y-101459056D01*
X58191099Y-101443226D01*
X58185432Y-101428659D01*
X58177498Y-101415354D01*
X58167297Y-101403311D01*
X58163393Y-101399577D01*
X58149645Y-101389617D01*
X58135867Y-101382891D01*
X58119979Y-101377596D01*
X58101979Y-101373732D01*
X58086059Y-101371671D01*
X58068788Y-101370526D01*
X58054949Y-101370268D01*
X57937712Y-101370268D01*
X57937712Y-100877508D01*
X58195633Y-100877508D01*
X58195633Y-101063255D01*
X58177532Y-101063495D01*
X58161149Y-101064217D01*
X58146483Y-101065419D01*
X58130565Y-101067598D01*
X58115006Y-101071204D01*
X58100271Y-101077696D01*
X58098913Y-101078642D01*
X58086247Y-101089256D01*
X58075729Y-101101175D01*
X58067357Y-101114400D01*
X58061131Y-101128932D01*
X58057053Y-101144769D01*
X58055121Y-101161911D01*
X58054949Y-101169134D01*
X58056095Y-101185977D01*
X58059534Y-101201609D01*
X58065266Y-101216030D01*
X58073290Y-101229241D01*
X58083607Y-101241241D01*
X58087555Y-101244972D01*
X58101178Y-101254932D01*
X58114872Y-101261658D01*
X58130695Y-101266954D01*
X58148646Y-101270818D01*
X58164540Y-101272878D01*
X58181796Y-101274023D01*
X58195633Y-101274281D01*
X58406659Y-101274281D01*
X58424765Y-101274023D01*
X58441166Y-101273250D01*
X58455860Y-101271962D01*
X58471830Y-101269628D01*
X58487474Y-101265764D01*
X58500876Y-101259791D01*
X58503745Y-101257794D01*
X58516305Y-101246936D01*
X58526736Y-101234968D01*
X58535038Y-101221891D01*
X58541212Y-101207706D01*
X58545256Y-101192411D01*
X58547172Y-101176006D01*
X58547342Y-101169134D01*
X58546269Y-101151469D01*
X58543049Y-101135110D01*
X58537682Y-101120056D01*
X58530169Y-101106309D01*
X58520509Y-101093867D01*
X58508703Y-101082731D01*
X58503379Y-101078642D01*
X58489503Y-101071910D01*
X58474588Y-101068124D01*
X58459207Y-101065795D01*
X58441143Y-101064217D01*
X58424759Y-101063495D01*
X58406659Y-101063255D01*
X58406659Y-100877508D01*
G37*
D12*
X63876500Y-94790000D02*
G75*
G03*
X63876500Y-94790000I-1524000J0D01*
G01*
%TD*%
M02*
