%TF.GenerationSoftware,KiCad,Pcbnew,7.0.0*%
%TF.CreationDate,2023-03-13T15:22:28-06:00*%
%TF.ProjectId,Panoptes,50616e6f-7074-4657-932e-6b696361645f,rev?*%
%TF.SameCoordinates,PX284af10PY30291a0*%
%TF.FileFunction,Copper,L4,Bot*%
%TF.FilePolarity,Positive*%
%FSLAX46Y46*%
G04 Gerber Fmt 4.6, Leading zero omitted, Abs format (unit mm)*
G04 Created by KiCad (PCBNEW 7.0.0) date 2023-03-13 15:22:28*
%MOMM*%
%LPD*%
G01*
G04 APERTURE LIST*
%TA.AperFunction,NonConductor*%
%ADD10C,0.064152*%
%TD*%
%TA.AperFunction,ComponentPad*%
%ADD11R,1.700000X1.700000*%
%TD*%
%TA.AperFunction,ComponentPad*%
%ADD12O,1.700000X1.700000*%
%TD*%
%TA.AperFunction,SMDPad,CuDef*%
%ADD13R,5.000000X5.000000*%
%TD*%
%TA.AperFunction,ComponentPad*%
%ADD14C,0.900000*%
%TD*%
%TA.AperFunction,ComponentPad*%
%ADD15C,8.000000*%
%TD*%
%TA.AperFunction,ComponentPad*%
%ADD16C,1.270000*%
%TD*%
%TA.AperFunction,ViaPad*%
%ADD17C,0.600000*%
%TD*%
%TA.AperFunction,ViaPad*%
%ADD18C,1.000000*%
%TD*%
%TA.AperFunction,Conductor*%
%ADD19C,1.000000*%
%TD*%
%TA.AperFunction,Conductor*%
%ADD20C,0.500000*%
%TD*%
G04 APERTURE END LIST*
D10*
G36*
X79500000Y-86500070D02*
G01*
X79500000Y-86500075D01*
X79499997Y-86500071D01*
X79499998Y-86500071D01*
X79499999Y-86500071D01*
X79499999Y-86500070D01*
X79500000Y-86500070D01*
G37*
X79500000Y-86500070D02*
X79500000Y-86500075D01*
X79499997Y-86500071D01*
X79499998Y-86500071D01*
X79499999Y-86500071D01*
X79499999Y-86500070D01*
X79500000Y-86500070D01*
G36*
X89749988Y-97952631D02*
G01*
X89749999Y-98500000D01*
X79500003Y-98500000D01*
X79500002Y-95501455D01*
X79699217Y-95501455D01*
X79699522Y-95515332D01*
X79700438Y-95528886D01*
X79701964Y-95542114D01*
X79704101Y-95555019D01*
X79706848Y-95567600D01*
X79710205Y-95579856D01*
X79714173Y-95591788D01*
X79718751Y-95603396D01*
X79723940Y-95614680D01*
X79729738Y-95625639D01*
X79736147Y-95636274D01*
X79743166Y-95646584D01*
X79750795Y-95656570D01*
X79759034Y-95666231D01*
X79767883Y-95675568D01*
X79777342Y-95684580D01*
X79787212Y-95692858D01*
X79797901Y-95700602D01*
X79809411Y-95707811D01*
X79821742Y-95714486D01*
X79834892Y-95720627D01*
X79848863Y-95726234D01*
X79863654Y-95731307D01*
X79879266Y-95735845D01*
X79895698Y-95739850D01*
X79912949Y-95743320D01*
X79931021Y-95746257D01*
X79949914Y-95748659D01*
X79969626Y-95750528D01*
X79990158Y-95751863D01*
X80011511Y-95752663D01*
X80033684Y-95752930D01*
X80326651Y-95752930D01*
X80326651Y-97266598D01*
X80327023Y-97301845D01*
X80328138Y-97336177D01*
X80329997Y-97369594D01*
X80332600Y-97402095D01*
X80335947Y-97433681D01*
X80340038Y-97464352D01*
X80344872Y-97494107D01*
X80350451Y-97522947D01*
X80356774Y-97550871D01*
X80363841Y-97577880D01*
X80371652Y-97603973D01*
X80380208Y-97629151D01*
X80389508Y-97653413D01*
X80399552Y-97676759D01*
X80410342Y-97699190D01*
X80421875Y-97720705D01*
X80440700Y-97752929D01*
X80460554Y-97784295D01*
X80481439Y-97814803D01*
X80503354Y-97844453D01*
X80526299Y-97873244D01*
X80550273Y-97901177D01*
X80575278Y-97928252D01*
X80601314Y-97954469D01*
X80628379Y-97979827D01*
X80656474Y-98004328D01*
X80685600Y-98027969D01*
X80715755Y-98050753D01*
X80746941Y-98072678D01*
X80779157Y-98093745D01*
X80812403Y-98113953D01*
X80846679Y-98133303D01*
X80881280Y-98151630D01*
X80916109Y-98168776D01*
X80951167Y-98184738D01*
X80986454Y-98199519D01*
X81021970Y-98213116D01*
X81057714Y-98225532D01*
X81093688Y-98236765D01*
X81129890Y-98246815D01*
X81166320Y-98255683D01*
X81202980Y-98263369D01*
X81239868Y-98269872D01*
X81276986Y-98275193D01*
X81314332Y-98279332D01*
X81351906Y-98282288D01*
X81389710Y-98284061D01*
X81427743Y-98284653D01*
X81477992Y-98283356D01*
X81530472Y-98279465D01*
X81585184Y-98272980D01*
X81642127Y-98263901D01*
X81701302Y-98252228D01*
X81762709Y-98237962D01*
X81826347Y-98221101D01*
X81892216Y-98201647D01*
X81960317Y-98179598D01*
X82030650Y-98154956D01*
X82103214Y-98127720D01*
X82178010Y-98097890D01*
X82255038Y-98065466D01*
X82334297Y-98030448D01*
X82415789Y-97992836D01*
X82499512Y-97952631D01*
X82499512Y-97129880D01*
X82499245Y-97107706D01*
X82498444Y-97086352D01*
X82497109Y-97065818D01*
X82495240Y-97046105D01*
X82492837Y-97027212D01*
X82489900Y-97009139D01*
X82486429Y-96991887D01*
X82482424Y-96975454D01*
X82477886Y-96959842D01*
X82472813Y-96945051D01*
X82467206Y-96931079D01*
X82461065Y-96917928D01*
X82454390Y-96905597D01*
X82447181Y-96894086D01*
X82439438Y-96883395D01*
X82431161Y-96873525D01*
X82422150Y-96864065D01*
X82412814Y-96855216D01*
X82403153Y-96846977D01*
X82393169Y-96839348D01*
X82382861Y-96832329D01*
X82372228Y-96825921D01*
X82361271Y-96820122D01*
X82349990Y-96814934D01*
X82338385Y-96810356D01*
X82326455Y-96806388D01*
X82314201Y-96803030D01*
X82301622Y-96800283D01*
X82288719Y-96798147D01*
X82275491Y-96796620D01*
X82261939Y-96795704D01*
X82248062Y-96795399D01*
X82234490Y-96795704D01*
X82221242Y-96796620D01*
X82208320Y-96798147D01*
X82195721Y-96800283D01*
X82183447Y-96803030D01*
X82171498Y-96806388D01*
X82159872Y-96810356D01*
X82148572Y-96814934D01*
X82137595Y-96820122D01*
X82126943Y-96825921D01*
X82116615Y-96832329D01*
X82106611Y-96839348D01*
X82096932Y-96846977D01*
X82087576Y-96855216D01*
X82078545Y-96864065D01*
X82069838Y-96873525D01*
X82061265Y-96883394D01*
X82053244Y-96894084D01*
X82045777Y-96905594D01*
X82038863Y-96917924D01*
X82032502Y-96931075D01*
X82026694Y-96945046D01*
X82021439Y-96959838D01*
X82016738Y-96975450D01*
X82012589Y-96991882D01*
X82008994Y-97009135D01*
X82005951Y-97027208D01*
X82003462Y-97046102D01*
X82001526Y-97065815D01*
X82000143Y-97086350D01*
X81999313Y-97107704D01*
X81999037Y-97129880D01*
X81999037Y-97620600D01*
X81914539Y-97658938D01*
X81873464Y-97676190D01*
X81833171Y-97692165D01*
X81793660Y-97706861D01*
X81754932Y-97720279D01*
X81716986Y-97732419D01*
X81679822Y-97743282D01*
X81643440Y-97752866D01*
X81607840Y-97761172D01*
X81573022Y-97768201D01*
X81538986Y-97773951D01*
X81505732Y-97778424D01*
X81473260Y-97781619D01*
X81441570Y-97783536D01*
X81410661Y-97784175D01*
X81394447Y-97783946D01*
X81378156Y-97783259D01*
X81361789Y-97782115D01*
X81345346Y-97780513D01*
X81328827Y-97778453D01*
X81312232Y-97775936D01*
X81295561Y-97772960D01*
X81278813Y-97769527D01*
X81261990Y-97765636D01*
X81245091Y-97761287D01*
X81228115Y-97756480D01*
X81211064Y-97751215D01*
X81193937Y-97745492D01*
X81176733Y-97739311D01*
X81159454Y-97732672D01*
X81142099Y-97725574D01*
X81124971Y-97717857D01*
X81108377Y-97709969D01*
X81092318Y-97701910D01*
X81076793Y-97693680D01*
X81061802Y-97685278D01*
X81047345Y-97676704D01*
X81033422Y-97667960D01*
X81020034Y-97659043D01*
X81007179Y-97649955D01*
X80994859Y-97640695D01*
X80983072Y-97631264D01*
X80971820Y-97621660D01*
X80961101Y-97611884D01*
X80950917Y-97601937D01*
X80941266Y-97591817D01*
X80932149Y-97581525D01*
X80923490Y-97571157D01*
X80915213Y-97560808D01*
X80907317Y-97550480D01*
X80899802Y-97540170D01*
X80892669Y-97529881D01*
X80885917Y-97519611D01*
X80879546Y-97509360D01*
X80873557Y-97499128D01*
X80867949Y-97488915D01*
X80862723Y-97478721D01*
X80857878Y-97468547D01*
X80853414Y-97458390D01*
X80849332Y-97448253D01*
X80845632Y-97438134D01*
X80842312Y-97428033D01*
X80839375Y-97417950D01*
X80837897Y-97411980D01*
X80836514Y-97405056D01*
X80835226Y-97397178D01*
X80834034Y-97388348D01*
X80831936Y-97367826D01*
X80830220Y-97343490D01*
X80828884Y-97315340D01*
X80827931Y-97283375D01*
X80827358Y-97247595D01*
X80827168Y-97208000D01*
X80827168Y-95752920D01*
X81435089Y-95752920D01*
X81457273Y-95752653D01*
X81478655Y-95751852D01*
X81499236Y-95750517D01*
X81519015Y-95748648D01*
X81537993Y-95746245D01*
X81556170Y-95743309D01*
X81573545Y-95739838D01*
X81590119Y-95735833D01*
X81605892Y-95731294D01*
X81620863Y-95726221D01*
X81635034Y-95720615D01*
X81648403Y-95714474D01*
X81660972Y-95707799D01*
X81672740Y-95700591D01*
X81683707Y-95692848D01*
X81693873Y-95684571D01*
X81703037Y-95675559D01*
X81711609Y-95666221D01*
X81719590Y-95656560D01*
X81726980Y-95646574D01*
X81733779Y-95636263D01*
X81739987Y-95625629D01*
X81745603Y-95614670D01*
X81750628Y-95603386D01*
X81755062Y-95591779D01*
X81758905Y-95579847D01*
X81762157Y-95567590D01*
X81764817Y-95555010D01*
X81766886Y-95542105D01*
X81768364Y-95528876D01*
X81769251Y-95515324D01*
X81769547Y-95501455D01*
X82699707Y-95501455D01*
X82700012Y-95515332D01*
X82700928Y-95528886D01*
X82702455Y-95542114D01*
X82704591Y-95555019D01*
X82707338Y-95567600D01*
X82710696Y-95579856D01*
X82714664Y-95591788D01*
X82719242Y-95603396D01*
X82724430Y-95614680D01*
X82730229Y-95625639D01*
X82736637Y-95636274D01*
X82743656Y-95646584D01*
X82751285Y-95656570D01*
X82759524Y-95666231D01*
X82768373Y-95675568D01*
X82777832Y-95684580D01*
X82787702Y-95692858D01*
X82798392Y-95700602D01*
X82809902Y-95707811D01*
X82822232Y-95714486D01*
X82835383Y-95720627D01*
X82849354Y-95726234D01*
X82864145Y-95731307D01*
X82879756Y-95735845D01*
X82896188Y-95739850D01*
X82913440Y-95743320D01*
X82931512Y-95746257D01*
X82950404Y-95748659D01*
X82970116Y-95750528D01*
X82990649Y-95751863D01*
X83012001Y-95752663D01*
X83034174Y-95752930D01*
X83327141Y-95752930D01*
X83327141Y-97266598D01*
X83327513Y-97301845D01*
X83328629Y-97336177D01*
X83330488Y-97369594D01*
X83333091Y-97402095D01*
X83336437Y-97433681D01*
X83340528Y-97464352D01*
X83345363Y-97494107D01*
X83350941Y-97522947D01*
X83357264Y-97550871D01*
X83364331Y-97577880D01*
X83372142Y-97603973D01*
X83380698Y-97629151D01*
X83389998Y-97653413D01*
X83400043Y-97676759D01*
X83410832Y-97699190D01*
X83422366Y-97720705D01*
X83441190Y-97752929D01*
X83461045Y-97784295D01*
X83481929Y-97814803D01*
X83503844Y-97844453D01*
X83526789Y-97873244D01*
X83550764Y-97901177D01*
X83575769Y-97928252D01*
X83599979Y-97952631D01*
X83601804Y-97954469D01*
X83628870Y-97979827D01*
X83656966Y-98004328D01*
X83686091Y-98027969D01*
X83716247Y-98050753D01*
X83747434Y-98072678D01*
X83779650Y-98093745D01*
X83812897Y-98113953D01*
X83847174Y-98133303D01*
X83881774Y-98151630D01*
X83916604Y-98168776D01*
X83951662Y-98184738D01*
X83986948Y-98199519D01*
X84022464Y-98213116D01*
X84058208Y-98225532D01*
X84094182Y-98236765D01*
X84130384Y-98246815D01*
X84166815Y-98255683D01*
X84203474Y-98263369D01*
X84240362Y-98269872D01*
X84277480Y-98275193D01*
X84314826Y-98279332D01*
X84352400Y-98282288D01*
X84390204Y-98284061D01*
X84428236Y-98284653D01*
X84478485Y-98283356D01*
X84530965Y-98279465D01*
X84585677Y-98272980D01*
X84642620Y-98263901D01*
X84701795Y-98252228D01*
X84763202Y-98237962D01*
X84826840Y-98221101D01*
X84892710Y-98201647D01*
X84960811Y-98179598D01*
X85031144Y-98154956D01*
X85103708Y-98127720D01*
X85178505Y-98097890D01*
X85255533Y-98065466D01*
X85334792Y-98030448D01*
X85416283Y-97992836D01*
X85500006Y-97952631D01*
X85500006Y-97129880D01*
X85499739Y-97107706D01*
X85498938Y-97086352D01*
X85497603Y-97065818D01*
X85495734Y-97046105D01*
X85493332Y-97027212D01*
X85490395Y-97009139D01*
X85486924Y-96991887D01*
X85482919Y-96975454D01*
X85478380Y-96959842D01*
X85473307Y-96945051D01*
X85467700Y-96931079D01*
X85461559Y-96917928D01*
X85454884Y-96905597D01*
X85447676Y-96894086D01*
X85439933Y-96883395D01*
X85431656Y-96873525D01*
X85422644Y-96864065D01*
X85413308Y-96855216D01*
X85403648Y-96846977D01*
X85393664Y-96839348D01*
X85383355Y-96832329D01*
X85372723Y-96825921D01*
X85361766Y-96820122D01*
X85350484Y-96814934D01*
X85338879Y-96810356D01*
X85326949Y-96806388D01*
X85314695Y-96803030D01*
X85302116Y-96800283D01*
X85289213Y-96798147D01*
X85275985Y-96796620D01*
X85262433Y-96795704D01*
X85248557Y-96795399D01*
X85234984Y-96795704D01*
X85221737Y-96796620D01*
X85208814Y-96798147D01*
X85196215Y-96800283D01*
X85183941Y-96803030D01*
X85171991Y-96806388D01*
X85160366Y-96810356D01*
X85149065Y-96814934D01*
X85138089Y-96820122D01*
X85127436Y-96825921D01*
X85117108Y-96832329D01*
X85107105Y-96839348D01*
X85097425Y-96846977D01*
X85088070Y-96855216D01*
X85079039Y-96864065D01*
X85070331Y-96873525D01*
X85061758Y-96883394D01*
X85053738Y-96894084D01*
X85046271Y-96905594D01*
X85039356Y-96917924D01*
X85032995Y-96931075D01*
X85027188Y-96945046D01*
X85021933Y-96959838D01*
X85017231Y-96975450D01*
X85013082Y-96991882D01*
X85009487Y-97009135D01*
X85006445Y-97027208D01*
X85003955Y-97046102D01*
X85002019Y-97065815D01*
X85000636Y-97086350D01*
X84999807Y-97107704D01*
X84999530Y-97129880D01*
X84999530Y-97620600D01*
X84915033Y-97658938D01*
X84873958Y-97676190D01*
X84833665Y-97692165D01*
X84794154Y-97706861D01*
X84755426Y-97720279D01*
X84717480Y-97732419D01*
X84680316Y-97743282D01*
X84643934Y-97752866D01*
X84608334Y-97761172D01*
X84573516Y-97768201D01*
X84539481Y-97773951D01*
X84506227Y-97778424D01*
X84473755Y-97781619D01*
X84442065Y-97783536D01*
X84411156Y-97784175D01*
X84394941Y-97783946D01*
X84378650Y-97783259D01*
X84362283Y-97782115D01*
X84345840Y-97780513D01*
X84329321Y-97778453D01*
X84312726Y-97775936D01*
X84296054Y-97772960D01*
X84279307Y-97769527D01*
X84262484Y-97765636D01*
X84245584Y-97761287D01*
X84228609Y-97756480D01*
X84211558Y-97751215D01*
X84194431Y-97745492D01*
X84177228Y-97739311D01*
X84159949Y-97732672D01*
X84142594Y-97725574D01*
X84125466Y-97717857D01*
X84108872Y-97709969D01*
X84092812Y-97701910D01*
X84077287Y-97693680D01*
X84062296Y-97685278D01*
X84047839Y-97676704D01*
X84033916Y-97667960D01*
X84020528Y-97659043D01*
X84007673Y-97649955D01*
X83995353Y-97640695D01*
X83983567Y-97631264D01*
X83972314Y-97621660D01*
X83961596Y-97611884D01*
X83951412Y-97601937D01*
X83941761Y-97591817D01*
X83932644Y-97581525D01*
X83923985Y-97571157D01*
X83915707Y-97560808D01*
X83907811Y-97550480D01*
X83900296Y-97540170D01*
X83893162Y-97529881D01*
X83886410Y-97519611D01*
X83880040Y-97509360D01*
X83874050Y-97499128D01*
X83868443Y-97488915D01*
X83863216Y-97478721D01*
X83858371Y-97468547D01*
X83853908Y-97458390D01*
X83849826Y-97448253D01*
X83846125Y-97438134D01*
X83842806Y-97428033D01*
X83839868Y-97417950D01*
X83838390Y-97411980D01*
X83837008Y-97405056D01*
X83835720Y-97397178D01*
X83834528Y-97388348D01*
X83832430Y-97367826D01*
X83830714Y-97343490D01*
X83829378Y-97315340D01*
X83828424Y-97283375D01*
X83827852Y-97247595D01*
X83827661Y-97208000D01*
X83827661Y-95752920D01*
X84435584Y-95752920D01*
X84457767Y-95752653D01*
X84479149Y-95751852D01*
X84499730Y-95750517D01*
X84519509Y-95748648D01*
X84538486Y-95746245D01*
X84556663Y-95743309D01*
X84574038Y-95739838D01*
X84590612Y-95735833D01*
X84606385Y-95731294D01*
X84621356Y-95726221D01*
X84635527Y-95720615D01*
X84648897Y-95714474D01*
X84661465Y-95707799D01*
X84673233Y-95700591D01*
X84684200Y-95692848D01*
X84694366Y-95684571D01*
X84703530Y-95675559D01*
X84712102Y-95666221D01*
X84720084Y-95656560D01*
X84727474Y-95646574D01*
X84734272Y-95636263D01*
X84740480Y-95625629D01*
X84746097Y-95614670D01*
X84751122Y-95603386D01*
X84755556Y-95591779D01*
X84759399Y-95579847D01*
X84762650Y-95567590D01*
X84765311Y-95555010D01*
X84767380Y-95542105D01*
X84768858Y-95528876D01*
X84769745Y-95515324D01*
X84770040Y-95501446D01*
X84769745Y-95487579D01*
X84768858Y-95474055D01*
X84767380Y-95460874D01*
X84765311Y-95448037D01*
X84762650Y-95435544D01*
X84759399Y-95423394D01*
X84755556Y-95411587D01*
X84751122Y-95400124D01*
X84746097Y-95389005D01*
X84740480Y-95378230D01*
X84734272Y-95367798D01*
X84727474Y-95357710D01*
X84720084Y-95347965D01*
X84712102Y-95338565D01*
X84703530Y-95329508D01*
X84694366Y-95320795D01*
X84684202Y-95312222D01*
X84673235Y-95304202D01*
X84661468Y-95296734D01*
X84648899Y-95289820D01*
X84635528Y-95283460D01*
X84621357Y-95277652D01*
X84606384Y-95272397D01*
X84590610Y-95267695D01*
X84574034Y-95263547D01*
X84556658Y-95259952D01*
X84538481Y-95256909D01*
X84519503Y-95254420D01*
X84499724Y-95252484D01*
X84479145Y-95251102D01*
X84457765Y-95250272D01*
X84435584Y-95249995D01*
X84435579Y-95249996D01*
X84435575Y-95249997D01*
X84435566Y-95249999D01*
X84435562Y-95250000D01*
X84435557Y-95250001D01*
X84435555Y-95250002D01*
X84435553Y-95250003D01*
X84435551Y-95250003D01*
X84435549Y-95250004D01*
X83034174Y-95252455D01*
X83012000Y-95252722D01*
X82990647Y-95253523D01*
X82970115Y-95254858D01*
X82950403Y-95256727D01*
X82931512Y-95259130D01*
X82913441Y-95262067D01*
X82896190Y-95265538D01*
X82879760Y-95269543D01*
X82864149Y-95274081D01*
X82849359Y-95279154D01*
X82835389Y-95284761D01*
X82822238Y-95290902D01*
X82809907Y-95297577D01*
X82798396Y-95304786D01*
X82787705Y-95312529D01*
X82777832Y-95320806D01*
X82768373Y-95329522D01*
X82759524Y-95338583D01*
X82751285Y-95347986D01*
X82743656Y-95357733D01*
X82736637Y-95367823D01*
X82730229Y-95378256D01*
X82724430Y-95389032D01*
X82719242Y-95400152D01*
X82714664Y-95411614D01*
X82710696Y-95423420D01*
X82707338Y-95435569D01*
X82704591Y-95448060D01*
X82702455Y-95460895D01*
X82700928Y-95474072D01*
X82700012Y-95487592D01*
X82699707Y-95501455D01*
X81769547Y-95501455D01*
X81769547Y-95501446D01*
X81769251Y-95487579D01*
X81768364Y-95474055D01*
X81766886Y-95460874D01*
X81764817Y-95448037D01*
X81762157Y-95435544D01*
X81758905Y-95423394D01*
X81755062Y-95411587D01*
X81750628Y-95400124D01*
X81745603Y-95389005D01*
X81739987Y-95378230D01*
X81733779Y-95367798D01*
X81726980Y-95357710D01*
X81719590Y-95347965D01*
X81711609Y-95338565D01*
X81703037Y-95329508D01*
X81693873Y-95320795D01*
X81683708Y-95312222D01*
X81672742Y-95304202D01*
X81660974Y-95296734D01*
X81648405Y-95289820D01*
X81635034Y-95283460D01*
X81620863Y-95277652D01*
X81605890Y-95272397D01*
X81590115Y-95267695D01*
X81573540Y-95263547D01*
X81556164Y-95259952D01*
X81537987Y-95256909D01*
X81519009Y-95254420D01*
X81499230Y-95252484D01*
X81478650Y-95251102D01*
X81457270Y-95250272D01*
X81435089Y-95249995D01*
X81435087Y-95249996D01*
X81435085Y-95249996D01*
X81435082Y-95249997D01*
X81435074Y-95249999D01*
X81435070Y-95250000D01*
X81435068Y-95250001D01*
X81435066Y-95250001D01*
X81435064Y-95250002D01*
X81435063Y-95250003D01*
X81435061Y-95250003D01*
X81435059Y-95250004D01*
X80033684Y-95252455D01*
X80011510Y-95252722D01*
X79990157Y-95253523D01*
X79969625Y-95254858D01*
X79949913Y-95256727D01*
X79931021Y-95259130D01*
X79912950Y-95262067D01*
X79895700Y-95265538D01*
X79879269Y-95269543D01*
X79863659Y-95274081D01*
X79848869Y-95279154D01*
X79834898Y-95284761D01*
X79821748Y-95290902D01*
X79809417Y-95297577D01*
X79797906Y-95304786D01*
X79787214Y-95312529D01*
X79777342Y-95320806D01*
X79767883Y-95329522D01*
X79759034Y-95338583D01*
X79750795Y-95347986D01*
X79743166Y-95357733D01*
X79736147Y-95367823D01*
X79729738Y-95378256D01*
X79723940Y-95389032D01*
X79718751Y-95400152D01*
X79714173Y-95411614D01*
X79710205Y-95423420D01*
X79706848Y-95435569D01*
X79704101Y-95448060D01*
X79701964Y-95460895D01*
X79700438Y-95474072D01*
X79699522Y-95487592D01*
X79699217Y-95501455D01*
X79500002Y-95501455D01*
X79500000Y-86500075D01*
X79902054Y-87097671D01*
X80301899Y-87650591D01*
X80699958Y-88157937D01*
X81096659Y-88618814D01*
X81492430Y-89032328D01*
X81887699Y-89397584D01*
X82085278Y-89561836D01*
X82282893Y-89713688D01*
X82480595Y-89853029D01*
X82678439Y-89979746D01*
X82876477Y-90093728D01*
X83074765Y-90194862D01*
X83273354Y-90283038D01*
X83472298Y-90358144D01*
X83671652Y-90420066D01*
X83871467Y-90468695D01*
X84071798Y-90503918D01*
X84272699Y-90525622D01*
X84474222Y-90533697D01*
X84676421Y-90528031D01*
X84879349Y-90508511D01*
X85083060Y-90475026D01*
X85287608Y-90427465D01*
X85493046Y-90365714D01*
X85699426Y-90289664D01*
X85906804Y-90199201D01*
X85958650Y-90175340D01*
X86003731Y-90155872D01*
X86042080Y-90141070D01*
X86058741Y-90135505D01*
X86073732Y-90131210D01*
X86087057Y-90128219D01*
X86098720Y-90126567D01*
X86108725Y-90126289D01*
X86117077Y-90127417D01*
X86123780Y-90129988D01*
X86128838Y-90134035D01*
X86132255Y-90139593D01*
X86134035Y-90146696D01*
X86134183Y-90155378D01*
X86132703Y-90165675D01*
X86129599Y-90177620D01*
X86124875Y-90191247D01*
X86118536Y-90206592D01*
X86110585Y-90223689D01*
X86089866Y-90263274D01*
X86062752Y-90310279D01*
X86029278Y-90364978D01*
X85989475Y-90427648D01*
X85943379Y-90498562D01*
X85826936Y-90682785D01*
X85711200Y-90878707D01*
X85596657Y-91085132D01*
X85483798Y-91300866D01*
X85373109Y-91524713D01*
X85265080Y-91755480D01*
X85160199Y-91991970D01*
X85058954Y-92232988D01*
X84961834Y-92477341D01*
X84869327Y-92723833D01*
X84781921Y-92971268D01*
X84700106Y-93218453D01*
X84624368Y-93464191D01*
X84555197Y-93707288D01*
X84493081Y-93946550D01*
X84438509Y-94180780D01*
X84404648Y-94341241D01*
X84378813Y-94480836D01*
X84361905Y-94600308D01*
X84357080Y-94652731D01*
X84354823Y-94700401D01*
X84355247Y-94743412D01*
X84358464Y-94781856D01*
X84364587Y-94815827D01*
X84373729Y-94845417D01*
X84386001Y-94870719D01*
X84401516Y-94891825D01*
X84420387Y-94908829D01*
X84442725Y-94921824D01*
X84468644Y-94930901D01*
X84498255Y-94936155D01*
X84531671Y-94937678D01*
X84569004Y-94935562D01*
X84610367Y-94929901D01*
X84655872Y-94920787D01*
X84705632Y-94908313D01*
X84759759Y-94892572D01*
X84881562Y-94851660D01*
X85022182Y-94798795D01*
X85182516Y-94734717D01*
X85363466Y-94660170D01*
X85499270Y-94590311D01*
X85635612Y-94512071D01*
X85772276Y-94425655D01*
X85909045Y-94331268D01*
X86045705Y-94229114D01*
X86182040Y-94119399D01*
X86317834Y-94002326D01*
X86452871Y-93878101D01*
X86586935Y-93746929D01*
X86719812Y-93609013D01*
X86851285Y-93464559D01*
X86981138Y-93313771D01*
X87109156Y-93156854D01*
X87235123Y-92994013D01*
X87358824Y-92825453D01*
X87480043Y-92651377D01*
X87540027Y-92564060D01*
X87595958Y-92484792D01*
X87646612Y-92415151D01*
X87690765Y-92356715D01*
X87727195Y-92311063D01*
X87754677Y-92279773D01*
X87764681Y-92270008D01*
X87771989Y-92264424D01*
X87774584Y-92263263D01*
X87776449Y-92263221D01*
X87777562Y-92264324D01*
X87777907Y-92266595D01*
X87775148Y-92294114D01*
X87767578Y-92351416D01*
X87740094Y-92541302D01*
X87699634Y-92808128D01*
X87650381Y-93123765D01*
X87610842Y-93419855D01*
X87579098Y-93752164D01*
X87537959Y-94494313D01*
X87524889Y-95287962D01*
X87537812Y-96070858D01*
X87574654Y-96780751D01*
X87633338Y-97355390D01*
X87670222Y-97572535D01*
X87711789Y-97732523D01*
X87757779Y-97827571D01*
X87782352Y-97848312D01*
X87807933Y-97849899D01*
X87831409Y-97840120D01*
X87857382Y-97825020D01*
X87885730Y-97804732D01*
X87916328Y-97779389D01*
X87983776Y-97714077D01*
X88058735Y-97630153D01*
X88140214Y-97528687D01*
X88227221Y-97410748D01*
X88318764Y-97277406D01*
X88413850Y-97129731D01*
X88511489Y-96968792D01*
X88610688Y-96795659D01*
X88710456Y-96611403D01*
X88809800Y-96417092D01*
X88907729Y-96213796D01*
X89003251Y-96002585D01*
X89095375Y-95784528D01*
X89183107Y-95560696D01*
X89410961Y-94966732D01*
X89501543Y-94740604D01*
X89577524Y-94559430D01*
X89639627Y-94421497D01*
X89688575Y-94325093D01*
X89708342Y-94291930D01*
X89725090Y-94268506D01*
X89738911Y-94254609D01*
X89749895Y-94250025D01*
X89749908Y-94250025D01*
X89749988Y-97952631D01*
G37*
X89749988Y-97952631D02*
X89749999Y-98500000D01*
X79500003Y-98500000D01*
X79500002Y-95501455D01*
X79699217Y-95501455D01*
X79699522Y-95515332D01*
X79700438Y-95528886D01*
X79701964Y-95542114D01*
X79704101Y-95555019D01*
X79706848Y-95567600D01*
X79710205Y-95579856D01*
X79714173Y-95591788D01*
X79718751Y-95603396D01*
X79723940Y-95614680D01*
X79729738Y-95625639D01*
X79736147Y-95636274D01*
X79743166Y-95646584D01*
X79750795Y-95656570D01*
X79759034Y-95666231D01*
X79767883Y-95675568D01*
X79777342Y-95684580D01*
X79787212Y-95692858D01*
X79797901Y-95700602D01*
X79809411Y-95707811D01*
X79821742Y-95714486D01*
X79834892Y-95720627D01*
X79848863Y-95726234D01*
X79863654Y-95731307D01*
X79879266Y-95735845D01*
X79895698Y-95739850D01*
X79912949Y-95743320D01*
X79931021Y-95746257D01*
X79949914Y-95748659D01*
X79969626Y-95750528D01*
X79990158Y-95751863D01*
X80011511Y-95752663D01*
X80033684Y-95752930D01*
X80326651Y-95752930D01*
X80326651Y-97266598D01*
X80327023Y-97301845D01*
X80328138Y-97336177D01*
X80329997Y-97369594D01*
X80332600Y-97402095D01*
X80335947Y-97433681D01*
X80340038Y-97464352D01*
X80344872Y-97494107D01*
X80350451Y-97522947D01*
X80356774Y-97550871D01*
X80363841Y-97577880D01*
X80371652Y-97603973D01*
X80380208Y-97629151D01*
X80389508Y-97653413D01*
X80399552Y-97676759D01*
X80410342Y-97699190D01*
X80421875Y-97720705D01*
X80440700Y-97752929D01*
X80460554Y-97784295D01*
X80481439Y-97814803D01*
X80503354Y-97844453D01*
X80526299Y-97873244D01*
X80550273Y-97901177D01*
X80575278Y-97928252D01*
X80601314Y-97954469D01*
X80628379Y-97979827D01*
X80656474Y-98004328D01*
X80685600Y-98027969D01*
X80715755Y-98050753D01*
X80746941Y-98072678D01*
X80779157Y-98093745D01*
X80812403Y-98113953D01*
X80846679Y-98133303D01*
X80881280Y-98151630D01*
X80916109Y-98168776D01*
X80951167Y-98184738D01*
X80986454Y-98199519D01*
X81021970Y-98213116D01*
X81057714Y-98225532D01*
X81093688Y-98236765D01*
X81129890Y-98246815D01*
X81166320Y-98255683D01*
X81202980Y-98263369D01*
X81239868Y-98269872D01*
X81276986Y-98275193D01*
X81314332Y-98279332D01*
X81351906Y-98282288D01*
X81389710Y-98284061D01*
X81427743Y-98284653D01*
X81477992Y-98283356D01*
X81530472Y-98279465D01*
X81585184Y-98272980D01*
X81642127Y-98263901D01*
X81701302Y-98252228D01*
X81762709Y-98237962D01*
X81826347Y-98221101D01*
X81892216Y-98201647D01*
X81960317Y-98179598D01*
X82030650Y-98154956D01*
X82103214Y-98127720D01*
X82178010Y-98097890D01*
X82255038Y-98065466D01*
X82334297Y-98030448D01*
X82415789Y-97992836D01*
X82499512Y-97952631D01*
X82499512Y-97129880D01*
X82499245Y-97107706D01*
X82498444Y-97086352D01*
X82497109Y-97065818D01*
X82495240Y-97046105D01*
X82492837Y-97027212D01*
X82489900Y-97009139D01*
X82486429Y-96991887D01*
X82482424Y-96975454D01*
X82477886Y-96959842D01*
X82472813Y-96945051D01*
X82467206Y-96931079D01*
X82461065Y-96917928D01*
X82454390Y-96905597D01*
X82447181Y-96894086D01*
X82439438Y-96883395D01*
X82431161Y-96873525D01*
X82422150Y-96864065D01*
X82412814Y-96855216D01*
X82403153Y-96846977D01*
X82393169Y-96839348D01*
X82382861Y-96832329D01*
X82372228Y-96825921D01*
X82361271Y-96820122D01*
X82349990Y-96814934D01*
X82338385Y-96810356D01*
X82326455Y-96806388D01*
X82314201Y-96803030D01*
X82301622Y-96800283D01*
X82288719Y-96798147D01*
X82275491Y-96796620D01*
X82261939Y-96795704D01*
X82248062Y-96795399D01*
X82234490Y-96795704D01*
X82221242Y-96796620D01*
X82208320Y-96798147D01*
X82195721Y-96800283D01*
X82183447Y-96803030D01*
X82171498Y-96806388D01*
X82159872Y-96810356D01*
X82148572Y-96814934D01*
X82137595Y-96820122D01*
X82126943Y-96825921D01*
X82116615Y-96832329D01*
X82106611Y-96839348D01*
X82096932Y-96846977D01*
X82087576Y-96855216D01*
X82078545Y-96864065D01*
X82069838Y-96873525D01*
X82061265Y-96883394D01*
X82053244Y-96894084D01*
X82045777Y-96905594D01*
X82038863Y-96917924D01*
X82032502Y-96931075D01*
X82026694Y-96945046D01*
X82021439Y-96959838D01*
X82016738Y-96975450D01*
X82012589Y-96991882D01*
X82008994Y-97009135D01*
X82005951Y-97027208D01*
X82003462Y-97046102D01*
X82001526Y-97065815D01*
X82000143Y-97086350D01*
X81999313Y-97107704D01*
X81999037Y-97129880D01*
X81999037Y-97620600D01*
X81914539Y-97658938D01*
X81873464Y-97676190D01*
X81833171Y-97692165D01*
X81793660Y-97706861D01*
X81754932Y-97720279D01*
X81716986Y-97732419D01*
X81679822Y-97743282D01*
X81643440Y-97752866D01*
X81607840Y-97761172D01*
X81573022Y-97768201D01*
X81538986Y-97773951D01*
X81505732Y-97778424D01*
X81473260Y-97781619D01*
X81441570Y-97783536D01*
X81410661Y-97784175D01*
X81394447Y-97783946D01*
X81378156Y-97783259D01*
X81361789Y-97782115D01*
X81345346Y-97780513D01*
X81328827Y-97778453D01*
X81312232Y-97775936D01*
X81295561Y-97772960D01*
X81278813Y-97769527D01*
X81261990Y-97765636D01*
X81245091Y-97761287D01*
X81228115Y-97756480D01*
X81211064Y-97751215D01*
X81193937Y-97745492D01*
X81176733Y-97739311D01*
X81159454Y-97732672D01*
X81142099Y-97725574D01*
X81124971Y-97717857D01*
X81108377Y-97709969D01*
X81092318Y-97701910D01*
X81076793Y-97693680D01*
X81061802Y-97685278D01*
X81047345Y-97676704D01*
X81033422Y-97667960D01*
X81020034Y-97659043D01*
X81007179Y-97649955D01*
X80994859Y-97640695D01*
X80983072Y-97631264D01*
X80971820Y-97621660D01*
X80961101Y-97611884D01*
X80950917Y-97601937D01*
X80941266Y-97591817D01*
X80932149Y-97581525D01*
X80923490Y-97571157D01*
X80915213Y-97560808D01*
X80907317Y-97550480D01*
X80899802Y-97540170D01*
X80892669Y-97529881D01*
X80885917Y-97519611D01*
X80879546Y-97509360D01*
X80873557Y-97499128D01*
X80867949Y-97488915D01*
X80862723Y-97478721D01*
X80857878Y-97468547D01*
X80853414Y-97458390D01*
X80849332Y-97448253D01*
X80845632Y-97438134D01*
X80842312Y-97428033D01*
X80839375Y-97417950D01*
X80837897Y-97411980D01*
X80836514Y-97405056D01*
X80835226Y-97397178D01*
X80834034Y-97388348D01*
X80831936Y-97367826D01*
X80830220Y-97343490D01*
X80828884Y-97315340D01*
X80827931Y-97283375D01*
X80827358Y-97247595D01*
X80827168Y-97208000D01*
X80827168Y-95752920D01*
X81435089Y-95752920D01*
X81457273Y-95752653D01*
X81478655Y-95751852D01*
X81499236Y-95750517D01*
X81519015Y-95748648D01*
X81537993Y-95746245D01*
X81556170Y-95743309D01*
X81573545Y-95739838D01*
X81590119Y-95735833D01*
X81605892Y-95731294D01*
X81620863Y-95726221D01*
X81635034Y-95720615D01*
X81648403Y-95714474D01*
X81660972Y-95707799D01*
X81672740Y-95700591D01*
X81683707Y-95692848D01*
X81693873Y-95684571D01*
X81703037Y-95675559D01*
X81711609Y-95666221D01*
X81719590Y-95656560D01*
X81726980Y-95646574D01*
X81733779Y-95636263D01*
X81739987Y-95625629D01*
X81745603Y-95614670D01*
X81750628Y-95603386D01*
X81755062Y-95591779D01*
X81758905Y-95579847D01*
X81762157Y-95567590D01*
X81764817Y-95555010D01*
X81766886Y-95542105D01*
X81768364Y-95528876D01*
X81769251Y-95515324D01*
X81769547Y-95501455D01*
X82699707Y-95501455D01*
X82700012Y-95515332D01*
X82700928Y-95528886D01*
X82702455Y-95542114D01*
X82704591Y-95555019D01*
X82707338Y-95567600D01*
X82710696Y-95579856D01*
X82714664Y-95591788D01*
X82719242Y-95603396D01*
X82724430Y-95614680D01*
X82730229Y-95625639D01*
X82736637Y-95636274D01*
X82743656Y-95646584D01*
X82751285Y-95656570D01*
X82759524Y-95666231D01*
X82768373Y-95675568D01*
X82777832Y-95684580D01*
X82787702Y-95692858D01*
X82798392Y-95700602D01*
X82809902Y-95707811D01*
X82822232Y-95714486D01*
X82835383Y-95720627D01*
X82849354Y-95726234D01*
X82864145Y-95731307D01*
X82879756Y-95735845D01*
X82896188Y-95739850D01*
X82913440Y-95743320D01*
X82931512Y-95746257D01*
X82950404Y-95748659D01*
X82970116Y-95750528D01*
X82990649Y-95751863D01*
X83012001Y-95752663D01*
X83034174Y-95752930D01*
X83327141Y-95752930D01*
X83327141Y-97266598D01*
X83327513Y-97301845D01*
X83328629Y-97336177D01*
X83330488Y-97369594D01*
X83333091Y-97402095D01*
X83336437Y-97433681D01*
X83340528Y-97464352D01*
X83345363Y-97494107D01*
X83350941Y-97522947D01*
X83357264Y-97550871D01*
X83364331Y-97577880D01*
X83372142Y-97603973D01*
X83380698Y-97629151D01*
X83389998Y-97653413D01*
X83400043Y-97676759D01*
X83410832Y-97699190D01*
X83422366Y-97720705D01*
X83441190Y-97752929D01*
X83461045Y-97784295D01*
X83481929Y-97814803D01*
X83503844Y-97844453D01*
X83526789Y-97873244D01*
X83550764Y-97901177D01*
X83575769Y-97928252D01*
X83599979Y-97952631D01*
X83601804Y-97954469D01*
X83628870Y-97979827D01*
X83656966Y-98004328D01*
X83686091Y-98027969D01*
X83716247Y-98050753D01*
X83747434Y-98072678D01*
X83779650Y-98093745D01*
X83812897Y-98113953D01*
X83847174Y-98133303D01*
X83881774Y-98151630D01*
X83916604Y-98168776D01*
X83951662Y-98184738D01*
X83986948Y-98199519D01*
X84022464Y-98213116D01*
X84058208Y-98225532D01*
X84094182Y-98236765D01*
X84130384Y-98246815D01*
X84166815Y-98255683D01*
X84203474Y-98263369D01*
X84240362Y-98269872D01*
X84277480Y-98275193D01*
X84314826Y-98279332D01*
X84352400Y-98282288D01*
X84390204Y-98284061D01*
X84428236Y-98284653D01*
X84478485Y-98283356D01*
X84530965Y-98279465D01*
X84585677Y-98272980D01*
X84642620Y-98263901D01*
X84701795Y-98252228D01*
X84763202Y-98237962D01*
X84826840Y-98221101D01*
X84892710Y-98201647D01*
X84960811Y-98179598D01*
X85031144Y-98154956D01*
X85103708Y-98127720D01*
X85178505Y-98097890D01*
X85255533Y-98065466D01*
X85334792Y-98030448D01*
X85416283Y-97992836D01*
X85500006Y-97952631D01*
X85500006Y-97129880D01*
X85499739Y-97107706D01*
X85498938Y-97086352D01*
X85497603Y-97065818D01*
X85495734Y-97046105D01*
X85493332Y-97027212D01*
X85490395Y-97009139D01*
X85486924Y-96991887D01*
X85482919Y-96975454D01*
X85478380Y-96959842D01*
X85473307Y-96945051D01*
X85467700Y-96931079D01*
X85461559Y-96917928D01*
X85454884Y-96905597D01*
X85447676Y-96894086D01*
X85439933Y-96883395D01*
X85431656Y-96873525D01*
X85422644Y-96864065D01*
X85413308Y-96855216D01*
X85403648Y-96846977D01*
X85393664Y-96839348D01*
X85383355Y-96832329D01*
X85372723Y-96825921D01*
X85361766Y-96820122D01*
X85350484Y-96814934D01*
X85338879Y-96810356D01*
X85326949Y-96806388D01*
X85314695Y-96803030D01*
X85302116Y-96800283D01*
X85289213Y-96798147D01*
X85275985Y-96796620D01*
X85262433Y-96795704D01*
X85248557Y-96795399D01*
X85234984Y-96795704D01*
X85221737Y-96796620D01*
X85208814Y-96798147D01*
X85196215Y-96800283D01*
X85183941Y-96803030D01*
X85171991Y-96806388D01*
X85160366Y-96810356D01*
X85149065Y-96814934D01*
X85138089Y-96820122D01*
X85127436Y-96825921D01*
X85117108Y-96832329D01*
X85107105Y-96839348D01*
X85097425Y-96846977D01*
X85088070Y-96855216D01*
X85079039Y-96864065D01*
X85070331Y-96873525D01*
X85061758Y-96883394D01*
X85053738Y-96894084D01*
X85046271Y-96905594D01*
X85039356Y-96917924D01*
X85032995Y-96931075D01*
X85027188Y-96945046D01*
X85021933Y-96959838D01*
X85017231Y-96975450D01*
X85013082Y-96991882D01*
X85009487Y-97009135D01*
X85006445Y-97027208D01*
X85003955Y-97046102D01*
X85002019Y-97065815D01*
X85000636Y-97086350D01*
X84999807Y-97107704D01*
X84999530Y-97129880D01*
X84999530Y-97620600D01*
X84915033Y-97658938D01*
X84873958Y-97676190D01*
X84833665Y-97692165D01*
X84794154Y-97706861D01*
X84755426Y-97720279D01*
X84717480Y-97732419D01*
X84680316Y-97743282D01*
X84643934Y-97752866D01*
X84608334Y-97761172D01*
X84573516Y-97768201D01*
X84539481Y-97773951D01*
X84506227Y-97778424D01*
X84473755Y-97781619D01*
X84442065Y-97783536D01*
X84411156Y-97784175D01*
X84394941Y-97783946D01*
X84378650Y-97783259D01*
X84362283Y-97782115D01*
X84345840Y-97780513D01*
X84329321Y-97778453D01*
X84312726Y-97775936D01*
X84296054Y-97772960D01*
X84279307Y-97769527D01*
X84262484Y-97765636D01*
X84245584Y-97761287D01*
X84228609Y-97756480D01*
X84211558Y-97751215D01*
X84194431Y-97745492D01*
X84177228Y-97739311D01*
X84159949Y-97732672D01*
X84142594Y-97725574D01*
X84125466Y-97717857D01*
X84108872Y-97709969D01*
X84092812Y-97701910D01*
X84077287Y-97693680D01*
X84062296Y-97685278D01*
X84047839Y-97676704D01*
X84033916Y-97667960D01*
X84020528Y-97659043D01*
X84007673Y-97649955D01*
X83995353Y-97640695D01*
X83983567Y-97631264D01*
X83972314Y-97621660D01*
X83961596Y-97611884D01*
X83951412Y-97601937D01*
X83941761Y-97591817D01*
X83932644Y-97581525D01*
X83923985Y-97571157D01*
X83915707Y-97560808D01*
X83907811Y-97550480D01*
X83900296Y-97540170D01*
X83893162Y-97529881D01*
X83886410Y-97519611D01*
X83880040Y-97509360D01*
X83874050Y-97499128D01*
X83868443Y-97488915D01*
X83863216Y-97478721D01*
X83858371Y-97468547D01*
X83853908Y-97458390D01*
X83849826Y-97448253D01*
X83846125Y-97438134D01*
X83842806Y-97428033D01*
X83839868Y-97417950D01*
X83838390Y-97411980D01*
X83837008Y-97405056D01*
X83835720Y-97397178D01*
X83834528Y-97388348D01*
X83832430Y-97367826D01*
X83830714Y-97343490D01*
X83829378Y-97315340D01*
X83828424Y-97283375D01*
X83827852Y-97247595D01*
X83827661Y-97208000D01*
X83827661Y-95752920D01*
X84435584Y-95752920D01*
X84457767Y-95752653D01*
X84479149Y-95751852D01*
X84499730Y-95750517D01*
X84519509Y-95748648D01*
X84538486Y-95746245D01*
X84556663Y-95743309D01*
X84574038Y-95739838D01*
X84590612Y-95735833D01*
X84606385Y-95731294D01*
X84621356Y-95726221D01*
X84635527Y-95720615D01*
X84648897Y-95714474D01*
X84661465Y-95707799D01*
X84673233Y-95700591D01*
X84684200Y-95692848D01*
X84694366Y-95684571D01*
X84703530Y-95675559D01*
X84712102Y-95666221D01*
X84720084Y-95656560D01*
X84727474Y-95646574D01*
X84734272Y-95636263D01*
X84740480Y-95625629D01*
X84746097Y-95614670D01*
X84751122Y-95603386D01*
X84755556Y-95591779D01*
X84759399Y-95579847D01*
X84762650Y-95567590D01*
X84765311Y-95555010D01*
X84767380Y-95542105D01*
X84768858Y-95528876D01*
X84769745Y-95515324D01*
X84770040Y-95501446D01*
X84769745Y-95487579D01*
X84768858Y-95474055D01*
X84767380Y-95460874D01*
X84765311Y-95448037D01*
X84762650Y-95435544D01*
X84759399Y-95423394D01*
X84755556Y-95411587D01*
X84751122Y-95400124D01*
X84746097Y-95389005D01*
X84740480Y-95378230D01*
X84734272Y-95367798D01*
X84727474Y-95357710D01*
X84720084Y-95347965D01*
X84712102Y-95338565D01*
X84703530Y-95329508D01*
X84694366Y-95320795D01*
X84684202Y-95312222D01*
X84673235Y-95304202D01*
X84661468Y-95296734D01*
X84648899Y-95289820D01*
X84635528Y-95283460D01*
X84621357Y-95277652D01*
X84606384Y-95272397D01*
X84590610Y-95267695D01*
X84574034Y-95263547D01*
X84556658Y-95259952D01*
X84538481Y-95256909D01*
X84519503Y-95254420D01*
X84499724Y-95252484D01*
X84479145Y-95251102D01*
X84457765Y-95250272D01*
X84435584Y-95249995D01*
X84435579Y-95249996D01*
X84435575Y-95249997D01*
X84435566Y-95249999D01*
X84435562Y-95250000D01*
X84435557Y-95250001D01*
X84435555Y-95250002D01*
X84435553Y-95250003D01*
X84435551Y-95250003D01*
X84435549Y-95250004D01*
X83034174Y-95252455D01*
X83012000Y-95252722D01*
X82990647Y-95253523D01*
X82970115Y-95254858D01*
X82950403Y-95256727D01*
X82931512Y-95259130D01*
X82913441Y-95262067D01*
X82896190Y-95265538D01*
X82879760Y-95269543D01*
X82864149Y-95274081D01*
X82849359Y-95279154D01*
X82835389Y-95284761D01*
X82822238Y-95290902D01*
X82809907Y-95297577D01*
X82798396Y-95304786D01*
X82787705Y-95312529D01*
X82777832Y-95320806D01*
X82768373Y-95329522D01*
X82759524Y-95338583D01*
X82751285Y-95347986D01*
X82743656Y-95357733D01*
X82736637Y-95367823D01*
X82730229Y-95378256D01*
X82724430Y-95389032D01*
X82719242Y-95400152D01*
X82714664Y-95411614D01*
X82710696Y-95423420D01*
X82707338Y-95435569D01*
X82704591Y-95448060D01*
X82702455Y-95460895D01*
X82700928Y-95474072D01*
X82700012Y-95487592D01*
X82699707Y-95501455D01*
X81769547Y-95501455D01*
X81769547Y-95501446D01*
X81769251Y-95487579D01*
X81768364Y-95474055D01*
X81766886Y-95460874D01*
X81764817Y-95448037D01*
X81762157Y-95435544D01*
X81758905Y-95423394D01*
X81755062Y-95411587D01*
X81750628Y-95400124D01*
X81745603Y-95389005D01*
X81739987Y-95378230D01*
X81733779Y-95367798D01*
X81726980Y-95357710D01*
X81719590Y-95347965D01*
X81711609Y-95338565D01*
X81703037Y-95329508D01*
X81693873Y-95320795D01*
X81683708Y-95312222D01*
X81672742Y-95304202D01*
X81660974Y-95296734D01*
X81648405Y-95289820D01*
X81635034Y-95283460D01*
X81620863Y-95277652D01*
X81605890Y-95272397D01*
X81590115Y-95267695D01*
X81573540Y-95263547D01*
X81556164Y-95259952D01*
X81537987Y-95256909D01*
X81519009Y-95254420D01*
X81499230Y-95252484D01*
X81478650Y-95251102D01*
X81457270Y-95250272D01*
X81435089Y-95249995D01*
X81435087Y-95249996D01*
X81435085Y-95249996D01*
X81435082Y-95249997D01*
X81435074Y-95249999D01*
X81435070Y-95250000D01*
X81435068Y-95250001D01*
X81435066Y-95250001D01*
X81435064Y-95250002D01*
X81435063Y-95250003D01*
X81435061Y-95250003D01*
X81435059Y-95250004D01*
X80033684Y-95252455D01*
X80011510Y-95252722D01*
X79990157Y-95253523D01*
X79969625Y-95254858D01*
X79949913Y-95256727D01*
X79931021Y-95259130D01*
X79912950Y-95262067D01*
X79895700Y-95265538D01*
X79879269Y-95269543D01*
X79863659Y-95274081D01*
X79848869Y-95279154D01*
X79834898Y-95284761D01*
X79821748Y-95290902D01*
X79809417Y-95297577D01*
X79797906Y-95304786D01*
X79787214Y-95312529D01*
X79777342Y-95320806D01*
X79767883Y-95329522D01*
X79759034Y-95338583D01*
X79750795Y-95347986D01*
X79743166Y-95357733D01*
X79736147Y-95367823D01*
X79729738Y-95378256D01*
X79723940Y-95389032D01*
X79718751Y-95400152D01*
X79714173Y-95411614D01*
X79710205Y-95423420D01*
X79706848Y-95435569D01*
X79704101Y-95448060D01*
X79701964Y-95460895D01*
X79700438Y-95474072D01*
X79699522Y-95487592D01*
X79699217Y-95501455D01*
X79500002Y-95501455D01*
X79500000Y-86500075D01*
X79902054Y-87097671D01*
X80301899Y-87650591D01*
X80699958Y-88157937D01*
X81096659Y-88618814D01*
X81492430Y-89032328D01*
X81887699Y-89397584D01*
X82085278Y-89561836D01*
X82282893Y-89713688D01*
X82480595Y-89853029D01*
X82678439Y-89979746D01*
X82876477Y-90093728D01*
X83074765Y-90194862D01*
X83273354Y-90283038D01*
X83472298Y-90358144D01*
X83671652Y-90420066D01*
X83871467Y-90468695D01*
X84071798Y-90503918D01*
X84272699Y-90525622D01*
X84474222Y-90533697D01*
X84676421Y-90528031D01*
X84879349Y-90508511D01*
X85083060Y-90475026D01*
X85287608Y-90427465D01*
X85493046Y-90365714D01*
X85699426Y-90289664D01*
X85906804Y-90199201D01*
X85958650Y-90175340D01*
X86003731Y-90155872D01*
X86042080Y-90141070D01*
X86058741Y-90135505D01*
X86073732Y-90131210D01*
X86087057Y-90128219D01*
X86098720Y-90126567D01*
X86108725Y-90126289D01*
X86117077Y-90127417D01*
X86123780Y-90129988D01*
X86128838Y-90134035D01*
X86132255Y-90139593D01*
X86134035Y-90146696D01*
X86134183Y-90155378D01*
X86132703Y-90165675D01*
X86129599Y-90177620D01*
X86124875Y-90191247D01*
X86118536Y-90206592D01*
X86110585Y-90223689D01*
X86089866Y-90263274D01*
X86062752Y-90310279D01*
X86029278Y-90364978D01*
X85989475Y-90427648D01*
X85943379Y-90498562D01*
X85826936Y-90682785D01*
X85711200Y-90878707D01*
X85596657Y-91085132D01*
X85483798Y-91300866D01*
X85373109Y-91524713D01*
X85265080Y-91755480D01*
X85160199Y-91991970D01*
X85058954Y-92232988D01*
X84961834Y-92477341D01*
X84869327Y-92723833D01*
X84781921Y-92971268D01*
X84700106Y-93218453D01*
X84624368Y-93464191D01*
X84555197Y-93707288D01*
X84493081Y-93946550D01*
X84438509Y-94180780D01*
X84404648Y-94341241D01*
X84378813Y-94480836D01*
X84361905Y-94600308D01*
X84357080Y-94652731D01*
X84354823Y-94700401D01*
X84355247Y-94743412D01*
X84358464Y-94781856D01*
X84364587Y-94815827D01*
X84373729Y-94845417D01*
X84386001Y-94870719D01*
X84401516Y-94891825D01*
X84420387Y-94908829D01*
X84442725Y-94921824D01*
X84468644Y-94930901D01*
X84498255Y-94936155D01*
X84531671Y-94937678D01*
X84569004Y-94935562D01*
X84610367Y-94929901D01*
X84655872Y-94920787D01*
X84705632Y-94908313D01*
X84759759Y-94892572D01*
X84881562Y-94851660D01*
X85022182Y-94798795D01*
X85182516Y-94734717D01*
X85363466Y-94660170D01*
X85499270Y-94590311D01*
X85635612Y-94512071D01*
X85772276Y-94425655D01*
X85909045Y-94331268D01*
X86045705Y-94229114D01*
X86182040Y-94119399D01*
X86317834Y-94002326D01*
X86452871Y-93878101D01*
X86586935Y-93746929D01*
X86719812Y-93609013D01*
X86851285Y-93464559D01*
X86981138Y-93313771D01*
X87109156Y-93156854D01*
X87235123Y-92994013D01*
X87358824Y-92825453D01*
X87480043Y-92651377D01*
X87540027Y-92564060D01*
X87595958Y-92484792D01*
X87646612Y-92415151D01*
X87690765Y-92356715D01*
X87727195Y-92311063D01*
X87754677Y-92279773D01*
X87764681Y-92270008D01*
X87771989Y-92264424D01*
X87774584Y-92263263D01*
X87776449Y-92263221D01*
X87777562Y-92264324D01*
X87777907Y-92266595D01*
X87775148Y-92294114D01*
X87767578Y-92351416D01*
X87740094Y-92541302D01*
X87699634Y-92808128D01*
X87650381Y-93123765D01*
X87610842Y-93419855D01*
X87579098Y-93752164D01*
X87537959Y-94494313D01*
X87524889Y-95287962D01*
X87537812Y-96070858D01*
X87574654Y-96780751D01*
X87633338Y-97355390D01*
X87670222Y-97572535D01*
X87711789Y-97732523D01*
X87757779Y-97827571D01*
X87782352Y-97848312D01*
X87807933Y-97849899D01*
X87831409Y-97840120D01*
X87857382Y-97825020D01*
X87885730Y-97804732D01*
X87916328Y-97779389D01*
X87983776Y-97714077D01*
X88058735Y-97630153D01*
X88140214Y-97528687D01*
X88227221Y-97410748D01*
X88318764Y-97277406D01*
X88413850Y-97129731D01*
X88511489Y-96968792D01*
X88610688Y-96795659D01*
X88710456Y-96611403D01*
X88809800Y-96417092D01*
X88907729Y-96213796D01*
X89003251Y-96002585D01*
X89095375Y-95784528D01*
X89183107Y-95560696D01*
X89410961Y-94966732D01*
X89501543Y-94740604D01*
X89577524Y-94559430D01*
X89639627Y-94421497D01*
X89688575Y-94325093D01*
X89708342Y-94291930D01*
X89725090Y-94268506D01*
X89738911Y-94254609D01*
X89749895Y-94250025D01*
X89749908Y-94250025D01*
X89749988Y-97952631D01*
G36*
X89749995Y-73500225D02*
G01*
X89749995Y-74600106D01*
X89733365Y-74600564D01*
X89688235Y-74599574D01*
X89657214Y-74597431D01*
X89621746Y-74593597D01*
X89582723Y-74587632D01*
X89541037Y-74579091D01*
X89497582Y-74567532D01*
X89475470Y-74560483D01*
X89453249Y-74552513D01*
X89431033Y-74543568D01*
X89408932Y-74533591D01*
X89387058Y-74522528D01*
X89365522Y-74510323D01*
X89344436Y-74496921D01*
X89323912Y-74482266D01*
X89304062Y-74466304D01*
X89284996Y-74448979D01*
X89266826Y-74430235D01*
X89249664Y-74410017D01*
X89233622Y-74388270D01*
X89218810Y-74364939D01*
X89178141Y-74298312D01*
X89136629Y-74235607D01*
X89094348Y-74176832D01*
X89051372Y-74121995D01*
X89007776Y-74071104D01*
X88963635Y-74024167D01*
X88919023Y-73981193D01*
X88874014Y-73942189D01*
X88828683Y-73907163D01*
X88783104Y-73876123D01*
X88737353Y-73849079D01*
X88691502Y-73826037D01*
X88645628Y-73807005D01*
X88599804Y-73791993D01*
X88554104Y-73781008D01*
X88508604Y-73774057D01*
X88463378Y-73771150D01*
X88418500Y-73772295D01*
X88374045Y-73777498D01*
X88330086Y-73786769D01*
X88286700Y-73800116D01*
X88243959Y-73817546D01*
X88201940Y-73839068D01*
X88160715Y-73864690D01*
X88120360Y-73894419D01*
X88080949Y-73928265D01*
X88042556Y-73966235D01*
X88005257Y-74008337D01*
X87969125Y-74054579D01*
X87934235Y-74104970D01*
X87900662Y-74159517D01*
X87868479Y-74218229D01*
X87846592Y-74265722D01*
X87827836Y-74317249D01*
X87812133Y-74372488D01*
X87799405Y-74431122D01*
X87782558Y-74557291D01*
X87776669Y-74693202D01*
X87781112Y-74836296D01*
X87795258Y-74984019D01*
X87818481Y-75133814D01*
X87850154Y-75283123D01*
X87889651Y-75429393D01*
X87936343Y-75570065D01*
X87989605Y-75702584D01*
X88048809Y-75824393D01*
X88113328Y-75932936D01*
X88147385Y-75981434D01*
X88182536Y-76025657D01*
X88218702Y-76065286D01*
X88255805Y-76100000D01*
X88293767Y-76129481D01*
X88332509Y-76153408D01*
X88378255Y-76178655D01*
X88418947Y-76202857D01*
X88437515Y-76214825D01*
X88454959Y-76226841D01*
X88471325Y-76239009D01*
X88486660Y-76251432D01*
X88501011Y-76264213D01*
X88514424Y-76277455D01*
X88526945Y-76291262D01*
X88538621Y-76305736D01*
X88549499Y-76320982D01*
X88559625Y-76337101D01*
X88569045Y-76354198D01*
X88577806Y-76372376D01*
X88585955Y-76391737D01*
X88593538Y-76412385D01*
X88600601Y-76434423D01*
X88607190Y-76457954D01*
X88613354Y-76483082D01*
X88619137Y-76509910D01*
X88624586Y-76538540D01*
X88629748Y-76569077D01*
X88639397Y-76636281D01*
X88648455Y-76712348D01*
X88657294Y-76798103D01*
X88666286Y-76894371D01*
X88676960Y-76994804D01*
X88690762Y-77092784D01*
X88707933Y-77188661D01*
X88728715Y-77282781D01*
X88753351Y-77375495D01*
X88782083Y-77467151D01*
X88815153Y-77558098D01*
X88852804Y-77648683D01*
X88895278Y-77739257D01*
X88942817Y-77830167D01*
X88995664Y-77921762D01*
X89054060Y-78014390D01*
X89118248Y-78108401D01*
X89188471Y-78204143D01*
X89264970Y-78301964D01*
X89347988Y-78402214D01*
X89749993Y-78875092D01*
X89749993Y-80500071D01*
X89729933Y-80499377D01*
X89710502Y-80497284D01*
X89691654Y-80493743D01*
X89673344Y-80488704D01*
X89655525Y-80482117D01*
X89638152Y-80473932D01*
X89621178Y-80464101D01*
X89604557Y-80452572D01*
X89588243Y-80439296D01*
X89572191Y-80424223D01*
X89556353Y-80407304D01*
X89540685Y-80388489D01*
X89525139Y-80367727D01*
X89509671Y-80344970D01*
X89494234Y-80320167D01*
X89478781Y-80293269D01*
X89463267Y-80264225D01*
X89447646Y-80232987D01*
X89431872Y-80199504D01*
X89415899Y-80163726D01*
X89399680Y-80125604D01*
X89383170Y-80085088D01*
X89349091Y-79996675D01*
X89313294Y-79898087D01*
X89275411Y-79788928D01*
X89235073Y-79668799D01*
X89191912Y-79537301D01*
X89147006Y-79395387D01*
X89108256Y-79266445D01*
X89044281Y-79037677D01*
X88935804Y-78627999D01*
X88871515Y-78407883D01*
X88832530Y-78285430D01*
X88787336Y-78151447D01*
X88734695Y-78003482D01*
X88673372Y-77839087D01*
X88602130Y-77655810D01*
X88519731Y-77451201D01*
X88389125Y-77144854D01*
X88243643Y-76835281D01*
X88083027Y-76524869D01*
X87907017Y-76216008D01*
X87715354Y-75911086D01*
X87507781Y-75612492D01*
X87284038Y-75322614D01*
X87043866Y-75043842D01*
X86787007Y-74778564D01*
X86513201Y-74529169D01*
X86222190Y-74298046D01*
X86070152Y-74190083D01*
X85913716Y-74087583D01*
X85752849Y-73990846D01*
X85587518Y-73900169D01*
X85417693Y-73815852D01*
X85243339Y-73738193D01*
X85064426Y-73667490D01*
X84880920Y-73604043D01*
X84692789Y-73548150D01*
X84500001Y-73500108D01*
X89749995Y-73500225D01*
G37*
X89749995Y-73500225D02*
X89749995Y-74600106D01*
X89733365Y-74600564D01*
X89688235Y-74599574D01*
X89657214Y-74597431D01*
X89621746Y-74593597D01*
X89582723Y-74587632D01*
X89541037Y-74579091D01*
X89497582Y-74567532D01*
X89475470Y-74560483D01*
X89453249Y-74552513D01*
X89431033Y-74543568D01*
X89408932Y-74533591D01*
X89387058Y-74522528D01*
X89365522Y-74510323D01*
X89344436Y-74496921D01*
X89323912Y-74482266D01*
X89304062Y-74466304D01*
X89284996Y-74448979D01*
X89266826Y-74430235D01*
X89249664Y-74410017D01*
X89233622Y-74388270D01*
X89218810Y-74364939D01*
X89178141Y-74298312D01*
X89136629Y-74235607D01*
X89094348Y-74176832D01*
X89051372Y-74121995D01*
X89007776Y-74071104D01*
X88963635Y-74024167D01*
X88919023Y-73981193D01*
X88874014Y-73942189D01*
X88828683Y-73907163D01*
X88783104Y-73876123D01*
X88737353Y-73849079D01*
X88691502Y-73826037D01*
X88645628Y-73807005D01*
X88599804Y-73791993D01*
X88554104Y-73781008D01*
X88508604Y-73774057D01*
X88463378Y-73771150D01*
X88418500Y-73772295D01*
X88374045Y-73777498D01*
X88330086Y-73786769D01*
X88286700Y-73800116D01*
X88243959Y-73817546D01*
X88201940Y-73839068D01*
X88160715Y-73864690D01*
X88120360Y-73894419D01*
X88080949Y-73928265D01*
X88042556Y-73966235D01*
X88005257Y-74008337D01*
X87969125Y-74054579D01*
X87934235Y-74104970D01*
X87900662Y-74159517D01*
X87868479Y-74218229D01*
X87846592Y-74265722D01*
X87827836Y-74317249D01*
X87812133Y-74372488D01*
X87799405Y-74431122D01*
X87782558Y-74557291D01*
X87776669Y-74693202D01*
X87781112Y-74836296D01*
X87795258Y-74984019D01*
X87818481Y-75133814D01*
X87850154Y-75283123D01*
X87889651Y-75429393D01*
X87936343Y-75570065D01*
X87989605Y-75702584D01*
X88048809Y-75824393D01*
X88113328Y-75932936D01*
X88147385Y-75981434D01*
X88182536Y-76025657D01*
X88218702Y-76065286D01*
X88255805Y-76100000D01*
X88293767Y-76129481D01*
X88332509Y-76153408D01*
X88378255Y-76178655D01*
X88418947Y-76202857D01*
X88437515Y-76214825D01*
X88454959Y-76226841D01*
X88471325Y-76239009D01*
X88486660Y-76251432D01*
X88501011Y-76264213D01*
X88514424Y-76277455D01*
X88526945Y-76291262D01*
X88538621Y-76305736D01*
X88549499Y-76320982D01*
X88559625Y-76337101D01*
X88569045Y-76354198D01*
X88577806Y-76372376D01*
X88585955Y-76391737D01*
X88593538Y-76412385D01*
X88600601Y-76434423D01*
X88607190Y-76457954D01*
X88613354Y-76483082D01*
X88619137Y-76509910D01*
X88624586Y-76538540D01*
X88629748Y-76569077D01*
X88639397Y-76636281D01*
X88648455Y-76712348D01*
X88657294Y-76798103D01*
X88666286Y-76894371D01*
X88676960Y-76994804D01*
X88690762Y-77092784D01*
X88707933Y-77188661D01*
X88728715Y-77282781D01*
X88753351Y-77375495D01*
X88782083Y-77467151D01*
X88815153Y-77558098D01*
X88852804Y-77648683D01*
X88895278Y-77739257D01*
X88942817Y-77830167D01*
X88995664Y-77921762D01*
X89054060Y-78014390D01*
X89118248Y-78108401D01*
X89188471Y-78204143D01*
X89264970Y-78301964D01*
X89347988Y-78402214D01*
X89749993Y-78875092D01*
X89749993Y-80500071D01*
X89729933Y-80499377D01*
X89710502Y-80497284D01*
X89691654Y-80493743D01*
X89673344Y-80488704D01*
X89655525Y-80482117D01*
X89638152Y-80473932D01*
X89621178Y-80464101D01*
X89604557Y-80452572D01*
X89588243Y-80439296D01*
X89572191Y-80424223D01*
X89556353Y-80407304D01*
X89540685Y-80388489D01*
X89525139Y-80367727D01*
X89509671Y-80344970D01*
X89494234Y-80320167D01*
X89478781Y-80293269D01*
X89463267Y-80264225D01*
X89447646Y-80232987D01*
X89431872Y-80199504D01*
X89415899Y-80163726D01*
X89399680Y-80125604D01*
X89383170Y-80085088D01*
X89349091Y-79996675D01*
X89313294Y-79898087D01*
X89275411Y-79788928D01*
X89235073Y-79668799D01*
X89191912Y-79537301D01*
X89147006Y-79395387D01*
X89108256Y-79266445D01*
X89044281Y-79037677D01*
X88935804Y-78627999D01*
X88871515Y-78407883D01*
X88832530Y-78285430D01*
X88787336Y-78151447D01*
X88734695Y-78003482D01*
X88673372Y-77839087D01*
X88602130Y-77655810D01*
X88519731Y-77451201D01*
X88389125Y-77144854D01*
X88243643Y-76835281D01*
X88083027Y-76524869D01*
X87907017Y-76216008D01*
X87715354Y-75911086D01*
X87507781Y-75612492D01*
X87284038Y-75322614D01*
X87043866Y-75043842D01*
X86787007Y-74778564D01*
X86513201Y-74529169D01*
X86222190Y-74298046D01*
X86070152Y-74190083D01*
X85913716Y-74087583D01*
X85752849Y-73990846D01*
X85587518Y-73900169D01*
X85417693Y-73815852D01*
X85243339Y-73738193D01*
X85064426Y-73667490D01*
X84880920Y-73604043D01*
X84692789Y-73548150D01*
X84500001Y-73500108D01*
X89749995Y-73500225D01*
G36*
X90702947Y-74025170D02*
G01*
X90755944Y-74032800D01*
X90810154Y-74044444D01*
X90865736Y-74060118D01*
X90922845Y-74079835D01*
X90981641Y-74103609D01*
X91042278Y-74131456D01*
X91104915Y-74163388D01*
X91169710Y-74199421D01*
X91236818Y-74239569D01*
X91306397Y-74283846D01*
X91378604Y-74332266D01*
X91453597Y-74384844D01*
X91531532Y-74441593D01*
X91612567Y-74502528D01*
X91684146Y-74554002D01*
X91773874Y-74613491D01*
X91878147Y-74678872D01*
X91993359Y-74748025D01*
X92115905Y-74818826D01*
X92242182Y-74889154D01*
X92368584Y-74956886D01*
X92491506Y-75019900D01*
X92719279Y-75134495D01*
X92909425Y-75231646D01*
X93042069Y-75301095D01*
X93080616Y-75322224D01*
X93097334Y-75332581D01*
X93098303Y-75333933D01*
X93098735Y-75335710D01*
X93098641Y-75337898D01*
X93098032Y-75340487D01*
X93096920Y-75343463D01*
X93095317Y-75346815D01*
X93093233Y-75350529D01*
X93090680Y-75354594D01*
X93084213Y-75363726D01*
X93076009Y-75374111D01*
X93066158Y-75385652D01*
X93054752Y-75398250D01*
X93041884Y-75411804D01*
X93027643Y-75426218D01*
X93012123Y-75441392D01*
X92995415Y-75457227D01*
X92977611Y-75473625D01*
X92958801Y-75490487D01*
X92939078Y-75507713D01*
X92918533Y-75525206D01*
X92878653Y-75560120D01*
X92840895Y-75596009D01*
X92805259Y-75632869D01*
X92771746Y-75670699D01*
X92740357Y-75709493D01*
X92711091Y-75749250D01*
X92683949Y-75789964D01*
X92658932Y-75831634D01*
X92636040Y-75874255D01*
X92615274Y-75917824D01*
X92596633Y-75962339D01*
X92580120Y-76007794D01*
X92565733Y-76054187D01*
X92553474Y-76101515D01*
X92543343Y-76149774D01*
X92535340Y-76198960D01*
X92529467Y-76249071D01*
X92525722Y-76300103D01*
X92524108Y-76352052D01*
X92524624Y-76404916D01*
X92527271Y-76458690D01*
X92532049Y-76513371D01*
X92538959Y-76568956D01*
X92548001Y-76625442D01*
X92559176Y-76682825D01*
X92572484Y-76741101D01*
X92587926Y-76800268D01*
X92605502Y-76860321D01*
X92647059Y-76983075D01*
X92697158Y-77109335D01*
X92741340Y-77223708D01*
X92778359Y-77341237D01*
X92808433Y-77461386D01*
X92831783Y-77583622D01*
X92848625Y-77707410D01*
X92859180Y-77832216D01*
X92862301Y-78082744D01*
X92842894Y-78330931D01*
X92802712Y-78572502D01*
X92743502Y-78803183D01*
X92667016Y-79018699D01*
X92575003Y-79214775D01*
X92523721Y-79304187D01*
X92469214Y-79387137D01*
X92411699Y-79463088D01*
X92351397Y-79531508D01*
X92288526Y-79591862D01*
X92223304Y-79643616D01*
X92155951Y-79686235D01*
X92086685Y-79719184D01*
X92015724Y-79741930D01*
X91943288Y-79753939D01*
X91869595Y-79754675D01*
X91794865Y-79743605D01*
X91719315Y-79720194D01*
X91643165Y-79683907D01*
X91573284Y-79646006D01*
X91509076Y-79614089D01*
X91450380Y-79588197D01*
X91397036Y-79568371D01*
X91372320Y-79560746D01*
X91348883Y-79554652D01*
X91326703Y-79550096D01*
X91305760Y-79547081D01*
X91286035Y-79545614D01*
X91267507Y-79545700D01*
X91250156Y-79547342D01*
X91233963Y-79550548D01*
X91218906Y-79555321D01*
X91204967Y-79561667D01*
X91192124Y-79569591D01*
X91180358Y-79579098D01*
X91169649Y-79590194D01*
X91159976Y-79602883D01*
X91151320Y-79617170D01*
X91143661Y-79633061D01*
X91136978Y-79650560D01*
X91131251Y-79669674D01*
X91126460Y-79690406D01*
X91122585Y-79712763D01*
X91117504Y-79762369D01*
X91115846Y-79818532D01*
X91117290Y-79905168D01*
X91121595Y-79987926D01*
X91128719Y-80066704D01*
X91138622Y-80141397D01*
X91151261Y-80211900D01*
X91166596Y-80278111D01*
X91184584Y-80339924D01*
X91205186Y-80397237D01*
X91228358Y-80449944D01*
X91254061Y-80497942D01*
X91282253Y-80541128D01*
X91312891Y-80579396D01*
X91345936Y-80612644D01*
X91381345Y-80640766D01*
X91419078Y-80663660D01*
X91459093Y-80681220D01*
X91555120Y-80716645D01*
X91642298Y-80750693D01*
X91721687Y-80784261D01*
X91794349Y-80818249D01*
X91861343Y-80853554D01*
X91923732Y-80891073D01*
X91982576Y-80931705D01*
X92038936Y-80976348D01*
X92093873Y-81025900D01*
X92148449Y-81081259D01*
X92203724Y-81143322D01*
X92260759Y-81212987D01*
X92320616Y-81291154D01*
X92384355Y-81378718D01*
X92453037Y-81476579D01*
X92527723Y-81585635D01*
X92954993Y-82212235D01*
X93270145Y-82668067D01*
X93477930Y-82959924D01*
X93543044Y-83046485D01*
X93583098Y-83094600D01*
X93600449Y-83113673D01*
X93623879Y-83140676D01*
X93652356Y-83174359D01*
X93684850Y-83213472D01*
X93757768Y-83302987D01*
X93834388Y-83399220D01*
X93873058Y-83447538D01*
X93908436Y-83489824D01*
X93940764Y-83526132D01*
X93970285Y-83556516D01*
X93984068Y-83569503D01*
X93997241Y-83581030D01*
X94009834Y-83591102D01*
X94021876Y-83599726D01*
X94033399Y-83606909D01*
X94044432Y-83612658D01*
X94055006Y-83616980D01*
X94065151Y-83619881D01*
X94074898Y-83621367D01*
X94084277Y-83621446D01*
X94093318Y-83620125D01*
X94102051Y-83617409D01*
X94110508Y-83613306D01*
X94118717Y-83607823D01*
X94126710Y-83600965D01*
X94134517Y-83592740D01*
X94142169Y-83583154D01*
X94149694Y-83572215D01*
X94157125Y-83559928D01*
X94164491Y-83546301D01*
X94179150Y-83515052D01*
X94193913Y-83478521D01*
X94213477Y-83431413D01*
X94246777Y-83356222D01*
X94347365Y-83137109D01*
X94481237Y-82852224D01*
X94633951Y-82532608D01*
X94809975Y-82161716D01*
X94954781Y-81843135D01*
X95071608Y-81567763D01*
X95163689Y-81326497D01*
X95201462Y-81215810D01*
X95234263Y-81110236D01*
X95262495Y-81008638D01*
X95286564Y-80909877D01*
X95306873Y-80812816D01*
X95323828Y-80716317D01*
X95349293Y-80520455D01*
X95365544Y-80408426D01*
X95392523Y-80279589D01*
X95429457Y-80135856D01*
X95475566Y-79979139D01*
X95530075Y-79811349D01*
X95592208Y-79634398D01*
X95736236Y-79260661D01*
X95901437Y-78873220D01*
X96081599Y-78487367D01*
X96175348Y-78299816D01*
X96270508Y-78118397D01*
X96366301Y-77945022D01*
X96461951Y-77781603D01*
X96491760Y-77733934D01*
X96518285Y-77694898D01*
X96530301Y-77678568D01*
X96541477Y-77664336D01*
X96551809Y-77652181D01*
X96561289Y-77642085D01*
X96569911Y-77634026D01*
X96577670Y-77627985D01*
X96584559Y-77623942D01*
X96590572Y-77621876D01*
X96595703Y-77621767D01*
X96599947Y-77623595D01*
X96603296Y-77627341D01*
X96605745Y-77632983D01*
X96607287Y-77640502D01*
X96607918Y-77649878D01*
X96607630Y-77661090D01*
X96606417Y-77674119D01*
X96604273Y-77688944D01*
X96601193Y-77705546D01*
X96592198Y-77743997D01*
X96579382Y-77789312D01*
X96562697Y-77841329D01*
X96542095Y-77899888D01*
X96517526Y-77964828D01*
X96452670Y-78146690D01*
X96401046Y-78324170D01*
X96362243Y-78495499D01*
X96335854Y-78658905D01*
X96321470Y-78812618D01*
X96318683Y-78954867D01*
X96327084Y-79083883D01*
X96346265Y-79197895D01*
X96359771Y-79248720D01*
X96375818Y-79295131D01*
X96394356Y-79336905D01*
X96415333Y-79373822D01*
X96438699Y-79405660D01*
X96464403Y-79432197D01*
X96492393Y-79453213D01*
X96522619Y-79468486D01*
X96555029Y-79477794D01*
X96589572Y-79480917D01*
X96626198Y-79477634D01*
X96664855Y-79467722D01*
X96705492Y-79450960D01*
X96748058Y-79427128D01*
X96792503Y-79396003D01*
X96838774Y-79357366D01*
X96849760Y-79348019D01*
X96861213Y-79339314D01*
X96873087Y-79331250D01*
X96885336Y-79323824D01*
X96897912Y-79317036D01*
X96910770Y-79310883D01*
X96923863Y-79305364D01*
X96937144Y-79300478D01*
X96964086Y-79292597D01*
X96991224Y-79287228D01*
X97018185Y-79284359D01*
X97044598Y-79283977D01*
X97057482Y-79284715D01*
X97070091Y-79286070D01*
X97082376Y-79288040D01*
X97094291Y-79290625D01*
X97105791Y-79293822D01*
X97116828Y-79297630D01*
X97127356Y-79302048D01*
X97137328Y-79307074D01*
X97146698Y-79312706D01*
X97155420Y-79318943D01*
X97163447Y-79325783D01*
X97170732Y-79333225D01*
X97177230Y-79341267D01*
X97182892Y-79349908D01*
X97187674Y-79359147D01*
X97191528Y-79368980D01*
X97193588Y-79377408D01*
X97194319Y-79386452D01*
X97193683Y-79396153D01*
X97191637Y-79406549D01*
X97188141Y-79417682D01*
X97183153Y-79429590D01*
X97176632Y-79442314D01*
X97168538Y-79455894D01*
X97158830Y-79470369D01*
X97147466Y-79485779D01*
X97134406Y-79502163D01*
X97119608Y-79519563D01*
X97103032Y-79538017D01*
X97084636Y-79557566D01*
X97042221Y-79600106D01*
X96992036Y-79647502D01*
X96933754Y-79700073D01*
X96867044Y-79758137D01*
X96791581Y-79822013D01*
X96707034Y-79892019D01*
X96613078Y-79968474D01*
X96509383Y-80051698D01*
X96395621Y-80142007D01*
X96330862Y-80181147D01*
X96261820Y-80225175D01*
X96178919Y-80281157D01*
X96134753Y-80312610D01*
X96090097Y-80345829D01*
X96045946Y-80380404D01*
X96003291Y-80415927D01*
X95963124Y-80451991D01*
X95926438Y-80488188D01*
X95909710Y-80506209D01*
X95894225Y-80524110D01*
X95880105Y-80541840D01*
X95867476Y-80559348D01*
X95848666Y-80590241D01*
X95830972Y-80625493D01*
X95814409Y-80664229D01*
X95798989Y-80705572D01*
X95784726Y-80748646D01*
X95771633Y-80792572D01*
X95749010Y-80879480D01*
X95731229Y-80959283D01*
X95718396Y-81024967D01*
X95708001Y-81085930D01*
X95672566Y-81206763D01*
X95632944Y-81348587D01*
X95546487Y-81674472D01*
X95459315Y-82022108D01*
X95382116Y-82350015D01*
X95124224Y-83457560D01*
X95010183Y-83910259D01*
X94903589Y-84299014D01*
X94802579Y-84626404D01*
X94705285Y-84895008D01*
X94609843Y-85107405D01*
X94514387Y-85266174D01*
X94466070Y-85326254D01*
X94417050Y-85373894D01*
X94367093Y-85409417D01*
X94315967Y-85433144D01*
X94263438Y-85445399D01*
X94209272Y-85446503D01*
X94153238Y-85436780D01*
X94095100Y-85416550D01*
X94034627Y-85386138D01*
X93971585Y-85345864D01*
X93836861Y-85237023D01*
X93689062Y-85092607D01*
X93526323Y-84915195D01*
X93376452Y-84746454D01*
X93315585Y-84679470D01*
X93262936Y-84623672D01*
X93217634Y-84578756D01*
X93178808Y-84544419D01*
X93161551Y-84531122D01*
X93145586Y-84520356D01*
X93130804Y-84512083D01*
X93117097Y-84506265D01*
X93104356Y-84502864D01*
X93092471Y-84501842D01*
X93081334Y-84503161D01*
X93070835Y-84506783D01*
X93060867Y-84512670D01*
X93051320Y-84520784D01*
X93042085Y-84531088D01*
X93033053Y-84543542D01*
X93015164Y-84574754D01*
X92996782Y-84614114D01*
X92955053Y-84716070D01*
X92893486Y-84894158D01*
X92835005Y-85109844D01*
X92780143Y-85356764D01*
X92729430Y-85628556D01*
X92642576Y-86221300D01*
X92578696Y-86837169D01*
X92542039Y-87425257D01*
X92535247Y-87692974D01*
X92536856Y-87934656D01*
X92547396Y-88143938D01*
X92567398Y-88314459D01*
X92597394Y-88439854D01*
X92616306Y-88483641D01*
X92637915Y-88513760D01*
X92644168Y-88518984D01*
X92651456Y-88523095D01*
X92659849Y-88526055D01*
X92669417Y-88527827D01*
X92680228Y-88528374D01*
X92692353Y-88527657D01*
X92705861Y-88525639D01*
X92720822Y-88522283D01*
X92737306Y-88517551D01*
X92755382Y-88511405D01*
X92775120Y-88503808D01*
X92796589Y-88494723D01*
X92819860Y-88484111D01*
X92845001Y-88471935D01*
X92901174Y-88442742D01*
X92965666Y-88406844D01*
X93039033Y-88363938D01*
X93121832Y-88313726D01*
X93214622Y-88255906D01*
X93317958Y-88190179D01*
X93432398Y-88116243D01*
X93558499Y-88033798D01*
X93696818Y-87942543D01*
X94028427Y-87726155D01*
X94329617Y-87537032D01*
X94602426Y-87374939D01*
X94848888Y-87239643D01*
X95071041Y-87130909D01*
X95270920Y-87048503D01*
X95363144Y-87017100D01*
X95450562Y-86992191D01*
X95533430Y-86973747D01*
X95612002Y-86961738D01*
X95686533Y-86956136D01*
X95757278Y-86956911D01*
X95824490Y-86964034D01*
X95888424Y-86977475D01*
X95949335Y-86997206D01*
X96007477Y-87023197D01*
X96063106Y-87055418D01*
X96116474Y-87093841D01*
X96167838Y-87138435D01*
X96217450Y-87189173D01*
X96265567Y-87246024D01*
X96312442Y-87308960D01*
X96403486Y-87452967D01*
X96492618Y-87620960D01*
X96604444Y-87846901D01*
X96650563Y-87937104D01*
X96691830Y-88013231D01*
X96729502Y-88076111D01*
X96764838Y-88126573D01*
X96782023Y-88147405D01*
X96799096Y-88165444D01*
X96816213Y-88180791D01*
X96833532Y-88193551D01*
X96851211Y-88203828D01*
X96869406Y-88211724D01*
X96888275Y-88217344D01*
X96907975Y-88220790D01*
X96928663Y-88222167D01*
X96950496Y-88221577D01*
X96973632Y-88219125D01*
X96998228Y-88214913D01*
X97052429Y-88201626D01*
X97114356Y-88182545D01*
X97266420Y-88130308D01*
X97585045Y-88017888D01*
X97652216Y-87996846D01*
X97715478Y-87979906D01*
X97775375Y-87967706D01*
X97832449Y-87960886D01*
X97887243Y-87960082D01*
X97940301Y-87965935D01*
X97992166Y-87979082D01*
X98043380Y-88000163D01*
X98094486Y-88029814D01*
X98146028Y-88068675D01*
X98198548Y-88117385D01*
X98252590Y-88176581D01*
X98308696Y-88246902D01*
X98367409Y-88328987D01*
X98429272Y-88423475D01*
X98494829Y-88531002D01*
X98564622Y-88652209D01*
X98639194Y-88787734D01*
X98719088Y-88938214D01*
X98804847Y-89104289D01*
X98996133Y-89485776D01*
X99217396Y-89937302D01*
X99767224Y-91070904D01*
X99895860Y-91320160D01*
X100061123Y-91614464D01*
X100260091Y-91949185D01*
X100489840Y-92319691D01*
X100747448Y-92721352D01*
X101029991Y-93149536D01*
X101334548Y-93599613D01*
X101658194Y-94066950D01*
X101975795Y-94524932D01*
X102251643Y-94930598D01*
X102679699Y-95578034D01*
X102945599Y-95995349D01*
X103052580Y-96168633D01*
X103884170Y-97548718D01*
X103894426Y-97562186D01*
X103912243Y-97584041D01*
X103965887Y-97649056D01*
X103999373Y-97690286D01*
X104035742Y-97736045D01*
X104073824Y-97785370D01*
X104093142Y-97811067D01*
X104112450Y-97837294D01*
X104152326Y-97891196D01*
X104194109Y-97946060D01*
X104236558Y-98000357D01*
X104278431Y-98052559D01*
X104318485Y-98101140D01*
X104355478Y-98144570D01*
X104388168Y-98181323D01*
X104415313Y-98209870D01*
X104426954Y-98222004D01*
X104437889Y-98234411D01*
X104448077Y-98247002D01*
X104457477Y-98259686D01*
X104466050Y-98272371D01*
X104473755Y-98284969D01*
X104480551Y-98297388D01*
X104486399Y-98309539D01*
X104491257Y-98321330D01*
X104495086Y-98332671D01*
X104497844Y-98343473D01*
X104499492Y-98353644D01*
X104499989Y-98363095D01*
X104499794Y-98367522D01*
X104499295Y-98371735D01*
X104498489Y-98375722D01*
X104497369Y-98379473D01*
X104495932Y-98382975D01*
X104494171Y-98386219D01*
X104474808Y-98412763D01*
X104451927Y-98435666D01*
X104425675Y-98454986D01*
X104396198Y-98470784D01*
X104363643Y-98483118D01*
X104328156Y-98492048D01*
X104289884Y-98497633D01*
X104248973Y-98499931D01*
X104205570Y-98499004D01*
X104159820Y-98494909D01*
X104111871Y-98487705D01*
X104061869Y-98477453D01*
X104009960Y-98464212D01*
X103956290Y-98448040D01*
X103901007Y-98428997D01*
X103844257Y-98407142D01*
X103726940Y-98355234D01*
X103605510Y-98292790D01*
X103481140Y-98220283D01*
X103355001Y-98138188D01*
X103228265Y-98046980D01*
X103102102Y-97947130D01*
X102977685Y-97839115D01*
X102856185Y-97723408D01*
X102752228Y-97620392D01*
X102657676Y-97528738D01*
X102570753Y-97447500D01*
X102489684Y-97375732D01*
X102412692Y-97312488D01*
X102338002Y-97256823D01*
X102263838Y-97207790D01*
X102226399Y-97185465D01*
X102188425Y-97164443D01*
X102149695Y-97144606D01*
X102109986Y-97125837D01*
X102026746Y-97091025D01*
X101936929Y-97059062D01*
X101838760Y-97029002D01*
X101730462Y-96999899D01*
X101610260Y-96970806D01*
X101476378Y-96940779D01*
X101327040Y-96908872D01*
X100962995Y-96828818D01*
X100812812Y-96791440D01*
X100681775Y-96754107D01*
X100568324Y-96715528D01*
X100470899Y-96674412D01*
X100427709Y-96652500D01*
X100387940Y-96629470D01*
X100351398Y-96605160D01*
X100317887Y-96579410D01*
X100287213Y-96552057D01*
X100259180Y-96522942D01*
X100233593Y-96491901D01*
X100210258Y-96458775D01*
X100188979Y-96423401D01*
X100169561Y-96385619D01*
X100151810Y-96345267D01*
X100135530Y-96302183D01*
X100106604Y-96207177D01*
X100081224Y-96099309D01*
X100057828Y-95977291D01*
X100034858Y-95839829D01*
X99995801Y-95649332D01*
X99938579Y-95455364D01*
X99862424Y-95256978D01*
X99766567Y-95053224D01*
X99650240Y-94843155D01*
X99512675Y-94625821D01*
X99353103Y-94400273D01*
X99170757Y-94165563D01*
X98964868Y-93920742D01*
X98734668Y-93664861D01*
X98479390Y-93396972D01*
X98198264Y-93116126D01*
X97890522Y-92821373D01*
X97555398Y-92511766D01*
X97192121Y-92186356D01*
X96799924Y-91844193D01*
X96696431Y-91757959D01*
X96647324Y-91719924D01*
X96599554Y-91685406D01*
X96552804Y-91654502D01*
X96506757Y-91627308D01*
X96461096Y-91603920D01*
X96415503Y-91584435D01*
X96369661Y-91568949D01*
X96323253Y-91557559D01*
X96275963Y-91550361D01*
X96227472Y-91547452D01*
X96177464Y-91548928D01*
X96125622Y-91554885D01*
X96071628Y-91565420D01*
X96015165Y-91580630D01*
X95955917Y-91600610D01*
X95893565Y-91625458D01*
X95827794Y-91655269D01*
X95758285Y-91690141D01*
X95684722Y-91730169D01*
X95606788Y-91775451D01*
X95524164Y-91826082D01*
X95436535Y-91882158D01*
X95343583Y-91943778D01*
X95244991Y-92011036D01*
X95029617Y-92162854D01*
X94787878Y-92338385D01*
X94517235Y-92538401D01*
X94133596Y-92818463D01*
X93773500Y-93070467D01*
X93435368Y-93294945D01*
X93117619Y-93492427D01*
X92818675Y-93663445D01*
X92536957Y-93808530D01*
X92270885Y-93928213D01*
X92018881Y-94023025D01*
X91779364Y-94093498D01*
X91550756Y-94140161D01*
X91331477Y-94163547D01*
X91119949Y-94164187D01*
X90914591Y-94142611D01*
X90713825Y-94099351D01*
X90516072Y-94034938D01*
X90319751Y-93949903D01*
X90300366Y-93942002D01*
X90280272Y-93936644D01*
X90259550Y-93933687D01*
X90238280Y-93932986D01*
X90216545Y-93934401D01*
X90194425Y-93937787D01*
X90172001Y-93943002D01*
X90149355Y-93949903D01*
X90126567Y-93958348D01*
X90103719Y-93968193D01*
X90058167Y-93991513D01*
X90013347Y-94018722D01*
X89969910Y-94048676D01*
X89928503Y-94080232D01*
X89889776Y-94112249D01*
X89854378Y-94143584D01*
X89822959Y-94173093D01*
X89774650Y-94222067D01*
X89750043Y-94250029D01*
X89750043Y-80500100D01*
X89750837Y-80498277D01*
X89751997Y-80496373D01*
X89753501Y-80494399D01*
X89755324Y-80492363D01*
X89759828Y-80488135D01*
X89765319Y-80483758D01*
X89771601Y-80479299D01*
X89778483Y-80474824D01*
X89785772Y-80470401D01*
X89793274Y-80466097D01*
X89808147Y-80458114D01*
X89821558Y-80451412D01*
X89831963Y-80446529D01*
X89837818Y-80444000D01*
X89866919Y-80430832D01*
X89895166Y-80414070D01*
X89922480Y-80393894D01*
X89948784Y-80370481D01*
X89974001Y-80344008D01*
X89998053Y-80314653D01*
X90020863Y-80282594D01*
X90042353Y-80248008D01*
X90062445Y-80211073D01*
X90081063Y-80171966D01*
X90098128Y-80130865D01*
X90113564Y-80087948D01*
X90127293Y-80043392D01*
X90139237Y-79997376D01*
X90149318Y-79950075D01*
X90157460Y-79901669D01*
X90163585Y-79852335D01*
X90167615Y-79802249D01*
X90169474Y-79751591D01*
X90169082Y-79700538D01*
X90166364Y-79649266D01*
X90161241Y-79597955D01*
X90153636Y-79546781D01*
X90143472Y-79495921D01*
X90130670Y-79445555D01*
X90115155Y-79395859D01*
X90096847Y-79347010D01*
X90075670Y-79299187D01*
X90051546Y-79252567D01*
X90024398Y-79207328D01*
X89994148Y-79163648D01*
X89960718Y-79121703D01*
X89750019Y-78875103D01*
X89768183Y-76656270D01*
X89750019Y-74600116D01*
X89976743Y-74354083D01*
X90018057Y-74315819D01*
X90058712Y-74279858D01*
X90098780Y-74246206D01*
X90138336Y-74214869D01*
X90177453Y-74185855D01*
X90216206Y-74159170D01*
X90254669Y-74134821D01*
X90292916Y-74112814D01*
X90331019Y-74093157D01*
X90369055Y-74075856D01*
X90407095Y-74060917D01*
X90445215Y-74048348D01*
X90483489Y-74038155D01*
X90521989Y-74030344D01*
X90560791Y-74024923D01*
X90599968Y-74021899D01*
X90651008Y-74021541D01*
X90702947Y-74025170D01*
G37*
X90702947Y-74025170D02*
X90755944Y-74032800D01*
X90810154Y-74044444D01*
X90865736Y-74060118D01*
X90922845Y-74079835D01*
X90981641Y-74103609D01*
X91042278Y-74131456D01*
X91104915Y-74163388D01*
X91169710Y-74199421D01*
X91236818Y-74239569D01*
X91306397Y-74283846D01*
X91378604Y-74332266D01*
X91453597Y-74384844D01*
X91531532Y-74441593D01*
X91612567Y-74502528D01*
X91684146Y-74554002D01*
X91773874Y-74613491D01*
X91878147Y-74678872D01*
X91993359Y-74748025D01*
X92115905Y-74818826D01*
X92242182Y-74889154D01*
X92368584Y-74956886D01*
X92491506Y-75019900D01*
X92719279Y-75134495D01*
X92909425Y-75231646D01*
X93042069Y-75301095D01*
X93080616Y-75322224D01*
X93097334Y-75332581D01*
X93098303Y-75333933D01*
X93098735Y-75335710D01*
X93098641Y-75337898D01*
X93098032Y-75340487D01*
X93096920Y-75343463D01*
X93095317Y-75346815D01*
X93093233Y-75350529D01*
X93090680Y-75354594D01*
X93084213Y-75363726D01*
X93076009Y-75374111D01*
X93066158Y-75385652D01*
X93054752Y-75398250D01*
X93041884Y-75411804D01*
X93027643Y-75426218D01*
X93012123Y-75441392D01*
X92995415Y-75457227D01*
X92977611Y-75473625D01*
X92958801Y-75490487D01*
X92939078Y-75507713D01*
X92918533Y-75525206D01*
X92878653Y-75560120D01*
X92840895Y-75596009D01*
X92805259Y-75632869D01*
X92771746Y-75670699D01*
X92740357Y-75709493D01*
X92711091Y-75749250D01*
X92683949Y-75789964D01*
X92658932Y-75831634D01*
X92636040Y-75874255D01*
X92615274Y-75917824D01*
X92596633Y-75962339D01*
X92580120Y-76007794D01*
X92565733Y-76054187D01*
X92553474Y-76101515D01*
X92543343Y-76149774D01*
X92535340Y-76198960D01*
X92529467Y-76249071D01*
X92525722Y-76300103D01*
X92524108Y-76352052D01*
X92524624Y-76404916D01*
X92527271Y-76458690D01*
X92532049Y-76513371D01*
X92538959Y-76568956D01*
X92548001Y-76625442D01*
X92559176Y-76682825D01*
X92572484Y-76741101D01*
X92587926Y-76800268D01*
X92605502Y-76860321D01*
X92647059Y-76983075D01*
X92697158Y-77109335D01*
X92741340Y-77223708D01*
X92778359Y-77341237D01*
X92808433Y-77461386D01*
X92831783Y-77583622D01*
X92848625Y-77707410D01*
X92859180Y-77832216D01*
X92862301Y-78082744D01*
X92842894Y-78330931D01*
X92802712Y-78572502D01*
X92743502Y-78803183D01*
X92667016Y-79018699D01*
X92575003Y-79214775D01*
X92523721Y-79304187D01*
X92469214Y-79387137D01*
X92411699Y-79463088D01*
X92351397Y-79531508D01*
X92288526Y-79591862D01*
X92223304Y-79643616D01*
X92155951Y-79686235D01*
X92086685Y-79719184D01*
X92015724Y-79741930D01*
X91943288Y-79753939D01*
X91869595Y-79754675D01*
X91794865Y-79743605D01*
X91719315Y-79720194D01*
X91643165Y-79683907D01*
X91573284Y-79646006D01*
X91509076Y-79614089D01*
X91450380Y-79588197D01*
X91397036Y-79568371D01*
X91372320Y-79560746D01*
X91348883Y-79554652D01*
X91326703Y-79550096D01*
X91305760Y-79547081D01*
X91286035Y-79545614D01*
X91267507Y-79545700D01*
X91250156Y-79547342D01*
X91233963Y-79550548D01*
X91218906Y-79555321D01*
X91204967Y-79561667D01*
X91192124Y-79569591D01*
X91180358Y-79579098D01*
X91169649Y-79590194D01*
X91159976Y-79602883D01*
X91151320Y-79617170D01*
X91143661Y-79633061D01*
X91136978Y-79650560D01*
X91131251Y-79669674D01*
X91126460Y-79690406D01*
X91122585Y-79712763D01*
X91117504Y-79762369D01*
X91115846Y-79818532D01*
X91117290Y-79905168D01*
X91121595Y-79987926D01*
X91128719Y-80066704D01*
X91138622Y-80141397D01*
X91151261Y-80211900D01*
X91166596Y-80278111D01*
X91184584Y-80339924D01*
X91205186Y-80397237D01*
X91228358Y-80449944D01*
X91254061Y-80497942D01*
X91282253Y-80541128D01*
X91312891Y-80579396D01*
X91345936Y-80612644D01*
X91381345Y-80640766D01*
X91419078Y-80663660D01*
X91459093Y-80681220D01*
X91555120Y-80716645D01*
X91642298Y-80750693D01*
X91721687Y-80784261D01*
X91794349Y-80818249D01*
X91861343Y-80853554D01*
X91923732Y-80891073D01*
X91982576Y-80931705D01*
X92038936Y-80976348D01*
X92093873Y-81025900D01*
X92148449Y-81081259D01*
X92203724Y-81143322D01*
X92260759Y-81212987D01*
X92320616Y-81291154D01*
X92384355Y-81378718D01*
X92453037Y-81476579D01*
X92527723Y-81585635D01*
X92954993Y-82212235D01*
X93270145Y-82668067D01*
X93477930Y-82959924D01*
X93543044Y-83046485D01*
X93583098Y-83094600D01*
X93600449Y-83113673D01*
X93623879Y-83140676D01*
X93652356Y-83174359D01*
X93684850Y-83213472D01*
X93757768Y-83302987D01*
X93834388Y-83399220D01*
X93873058Y-83447538D01*
X93908436Y-83489824D01*
X93940764Y-83526132D01*
X93970285Y-83556516D01*
X93984068Y-83569503D01*
X93997241Y-83581030D01*
X94009834Y-83591102D01*
X94021876Y-83599726D01*
X94033399Y-83606909D01*
X94044432Y-83612658D01*
X94055006Y-83616980D01*
X94065151Y-83619881D01*
X94074898Y-83621367D01*
X94084277Y-83621446D01*
X94093318Y-83620125D01*
X94102051Y-83617409D01*
X94110508Y-83613306D01*
X94118717Y-83607823D01*
X94126710Y-83600965D01*
X94134517Y-83592740D01*
X94142169Y-83583154D01*
X94149694Y-83572215D01*
X94157125Y-83559928D01*
X94164491Y-83546301D01*
X94179150Y-83515052D01*
X94193913Y-83478521D01*
X94213477Y-83431413D01*
X94246777Y-83356222D01*
X94347365Y-83137109D01*
X94481237Y-82852224D01*
X94633951Y-82532608D01*
X94809975Y-82161716D01*
X94954781Y-81843135D01*
X95071608Y-81567763D01*
X95163689Y-81326497D01*
X95201462Y-81215810D01*
X95234263Y-81110236D01*
X95262495Y-81008638D01*
X95286564Y-80909877D01*
X95306873Y-80812816D01*
X95323828Y-80716317D01*
X95349293Y-80520455D01*
X95365544Y-80408426D01*
X95392523Y-80279589D01*
X95429457Y-80135856D01*
X95475566Y-79979139D01*
X95530075Y-79811349D01*
X95592208Y-79634398D01*
X95736236Y-79260661D01*
X95901437Y-78873220D01*
X96081599Y-78487367D01*
X96175348Y-78299816D01*
X96270508Y-78118397D01*
X96366301Y-77945022D01*
X96461951Y-77781603D01*
X96491760Y-77733934D01*
X96518285Y-77694898D01*
X96530301Y-77678568D01*
X96541477Y-77664336D01*
X96551809Y-77652181D01*
X96561289Y-77642085D01*
X96569911Y-77634026D01*
X96577670Y-77627985D01*
X96584559Y-77623942D01*
X96590572Y-77621876D01*
X96595703Y-77621767D01*
X96599947Y-77623595D01*
X96603296Y-77627341D01*
X96605745Y-77632983D01*
X96607287Y-77640502D01*
X96607918Y-77649878D01*
X96607630Y-77661090D01*
X96606417Y-77674119D01*
X96604273Y-77688944D01*
X96601193Y-77705546D01*
X96592198Y-77743997D01*
X96579382Y-77789312D01*
X96562697Y-77841329D01*
X96542095Y-77899888D01*
X96517526Y-77964828D01*
X96452670Y-78146690D01*
X96401046Y-78324170D01*
X96362243Y-78495499D01*
X96335854Y-78658905D01*
X96321470Y-78812618D01*
X96318683Y-78954867D01*
X96327084Y-79083883D01*
X96346265Y-79197895D01*
X96359771Y-79248720D01*
X96375818Y-79295131D01*
X96394356Y-79336905D01*
X96415333Y-79373822D01*
X96438699Y-79405660D01*
X96464403Y-79432197D01*
X96492393Y-79453213D01*
X96522619Y-79468486D01*
X96555029Y-79477794D01*
X96589572Y-79480917D01*
X96626198Y-79477634D01*
X96664855Y-79467722D01*
X96705492Y-79450960D01*
X96748058Y-79427128D01*
X96792503Y-79396003D01*
X96838774Y-79357366D01*
X96849760Y-79348019D01*
X96861213Y-79339314D01*
X96873087Y-79331250D01*
X96885336Y-79323824D01*
X96897912Y-79317036D01*
X96910770Y-79310883D01*
X96923863Y-79305364D01*
X96937144Y-79300478D01*
X96964086Y-79292597D01*
X96991224Y-79287228D01*
X97018185Y-79284359D01*
X97044598Y-79283977D01*
X97057482Y-79284715D01*
X97070091Y-79286070D01*
X97082376Y-79288040D01*
X97094291Y-79290625D01*
X97105791Y-79293822D01*
X97116828Y-79297630D01*
X97127356Y-79302048D01*
X97137328Y-79307074D01*
X97146698Y-79312706D01*
X97155420Y-79318943D01*
X97163447Y-79325783D01*
X97170732Y-79333225D01*
X97177230Y-79341267D01*
X97182892Y-79349908D01*
X97187674Y-79359147D01*
X97191528Y-79368980D01*
X97193588Y-79377408D01*
X97194319Y-79386452D01*
X97193683Y-79396153D01*
X97191637Y-79406549D01*
X97188141Y-79417682D01*
X97183153Y-79429590D01*
X97176632Y-79442314D01*
X97168538Y-79455894D01*
X97158830Y-79470369D01*
X97147466Y-79485779D01*
X97134406Y-79502163D01*
X97119608Y-79519563D01*
X97103032Y-79538017D01*
X97084636Y-79557566D01*
X97042221Y-79600106D01*
X96992036Y-79647502D01*
X96933754Y-79700073D01*
X96867044Y-79758137D01*
X96791581Y-79822013D01*
X96707034Y-79892019D01*
X96613078Y-79968474D01*
X96509383Y-80051698D01*
X96395621Y-80142007D01*
X96330862Y-80181147D01*
X96261820Y-80225175D01*
X96178919Y-80281157D01*
X96134753Y-80312610D01*
X96090097Y-80345829D01*
X96045946Y-80380404D01*
X96003291Y-80415927D01*
X95963124Y-80451991D01*
X95926438Y-80488188D01*
X95909710Y-80506209D01*
X95894225Y-80524110D01*
X95880105Y-80541840D01*
X95867476Y-80559348D01*
X95848666Y-80590241D01*
X95830972Y-80625493D01*
X95814409Y-80664229D01*
X95798989Y-80705572D01*
X95784726Y-80748646D01*
X95771633Y-80792572D01*
X95749010Y-80879480D01*
X95731229Y-80959283D01*
X95718396Y-81024967D01*
X95708001Y-81085930D01*
X95672566Y-81206763D01*
X95632944Y-81348587D01*
X95546487Y-81674472D01*
X95459315Y-82022108D01*
X95382116Y-82350015D01*
X95124224Y-83457560D01*
X95010183Y-83910259D01*
X94903589Y-84299014D01*
X94802579Y-84626404D01*
X94705285Y-84895008D01*
X94609843Y-85107405D01*
X94514387Y-85266174D01*
X94466070Y-85326254D01*
X94417050Y-85373894D01*
X94367093Y-85409417D01*
X94315967Y-85433144D01*
X94263438Y-85445399D01*
X94209272Y-85446503D01*
X94153238Y-85436780D01*
X94095100Y-85416550D01*
X94034627Y-85386138D01*
X93971585Y-85345864D01*
X93836861Y-85237023D01*
X93689062Y-85092607D01*
X93526323Y-84915195D01*
X93376452Y-84746454D01*
X93315585Y-84679470D01*
X93262936Y-84623672D01*
X93217634Y-84578756D01*
X93178808Y-84544419D01*
X93161551Y-84531122D01*
X93145586Y-84520356D01*
X93130804Y-84512083D01*
X93117097Y-84506265D01*
X93104356Y-84502864D01*
X93092471Y-84501842D01*
X93081334Y-84503161D01*
X93070835Y-84506783D01*
X93060867Y-84512670D01*
X93051320Y-84520784D01*
X93042085Y-84531088D01*
X93033053Y-84543542D01*
X93015164Y-84574754D01*
X92996782Y-84614114D01*
X92955053Y-84716070D01*
X92893486Y-84894158D01*
X92835005Y-85109844D01*
X92780143Y-85356764D01*
X92729430Y-85628556D01*
X92642576Y-86221300D01*
X92578696Y-86837169D01*
X92542039Y-87425257D01*
X92535247Y-87692974D01*
X92536856Y-87934656D01*
X92547396Y-88143938D01*
X92567398Y-88314459D01*
X92597394Y-88439854D01*
X92616306Y-88483641D01*
X92637915Y-88513760D01*
X92644168Y-88518984D01*
X92651456Y-88523095D01*
X92659849Y-88526055D01*
X92669417Y-88527827D01*
X92680228Y-88528374D01*
X92692353Y-88527657D01*
X92705861Y-88525639D01*
X92720822Y-88522283D01*
X92737306Y-88517551D01*
X92755382Y-88511405D01*
X92775120Y-88503808D01*
X92796589Y-88494723D01*
X92819860Y-88484111D01*
X92845001Y-88471935D01*
X92901174Y-88442742D01*
X92965666Y-88406844D01*
X93039033Y-88363938D01*
X93121832Y-88313726D01*
X93214622Y-88255906D01*
X93317958Y-88190179D01*
X93432398Y-88116243D01*
X93558499Y-88033798D01*
X93696818Y-87942543D01*
X94028427Y-87726155D01*
X94329617Y-87537032D01*
X94602426Y-87374939D01*
X94848888Y-87239643D01*
X95071041Y-87130909D01*
X95270920Y-87048503D01*
X95363144Y-87017100D01*
X95450562Y-86992191D01*
X95533430Y-86973747D01*
X95612002Y-86961738D01*
X95686533Y-86956136D01*
X95757278Y-86956911D01*
X95824490Y-86964034D01*
X95888424Y-86977475D01*
X95949335Y-86997206D01*
X96007477Y-87023197D01*
X96063106Y-87055418D01*
X96116474Y-87093841D01*
X96167838Y-87138435D01*
X96217450Y-87189173D01*
X96265567Y-87246024D01*
X96312442Y-87308960D01*
X96403486Y-87452967D01*
X96492618Y-87620960D01*
X96604444Y-87846901D01*
X96650563Y-87937104D01*
X96691830Y-88013231D01*
X96729502Y-88076111D01*
X96764838Y-88126573D01*
X96782023Y-88147405D01*
X96799096Y-88165444D01*
X96816213Y-88180791D01*
X96833532Y-88193551D01*
X96851211Y-88203828D01*
X96869406Y-88211724D01*
X96888275Y-88217344D01*
X96907975Y-88220790D01*
X96928663Y-88222167D01*
X96950496Y-88221577D01*
X96973632Y-88219125D01*
X96998228Y-88214913D01*
X97052429Y-88201626D01*
X97114356Y-88182545D01*
X97266420Y-88130308D01*
X97585045Y-88017888D01*
X97652216Y-87996846D01*
X97715478Y-87979906D01*
X97775375Y-87967706D01*
X97832449Y-87960886D01*
X97887243Y-87960082D01*
X97940301Y-87965935D01*
X97992166Y-87979082D01*
X98043380Y-88000163D01*
X98094486Y-88029814D01*
X98146028Y-88068675D01*
X98198548Y-88117385D01*
X98252590Y-88176581D01*
X98308696Y-88246902D01*
X98367409Y-88328987D01*
X98429272Y-88423475D01*
X98494829Y-88531002D01*
X98564622Y-88652209D01*
X98639194Y-88787734D01*
X98719088Y-88938214D01*
X98804847Y-89104289D01*
X98996133Y-89485776D01*
X99217396Y-89937302D01*
X99767224Y-91070904D01*
X99895860Y-91320160D01*
X100061123Y-91614464D01*
X100260091Y-91949185D01*
X100489840Y-92319691D01*
X100747448Y-92721352D01*
X101029991Y-93149536D01*
X101334548Y-93599613D01*
X101658194Y-94066950D01*
X101975795Y-94524932D01*
X102251643Y-94930598D01*
X102679699Y-95578034D01*
X102945599Y-95995349D01*
X103052580Y-96168633D01*
X103884170Y-97548718D01*
X103894426Y-97562186D01*
X103912243Y-97584041D01*
X103965887Y-97649056D01*
X103999373Y-97690286D01*
X104035742Y-97736045D01*
X104073824Y-97785370D01*
X104093142Y-97811067D01*
X104112450Y-97837294D01*
X104152326Y-97891196D01*
X104194109Y-97946060D01*
X104236558Y-98000357D01*
X104278431Y-98052559D01*
X104318485Y-98101140D01*
X104355478Y-98144570D01*
X104388168Y-98181323D01*
X104415313Y-98209870D01*
X104426954Y-98222004D01*
X104437889Y-98234411D01*
X104448077Y-98247002D01*
X104457477Y-98259686D01*
X104466050Y-98272371D01*
X104473755Y-98284969D01*
X104480551Y-98297388D01*
X104486399Y-98309539D01*
X104491257Y-98321330D01*
X104495086Y-98332671D01*
X104497844Y-98343473D01*
X104499492Y-98353644D01*
X104499989Y-98363095D01*
X104499794Y-98367522D01*
X104499295Y-98371735D01*
X104498489Y-98375722D01*
X104497369Y-98379473D01*
X104495932Y-98382975D01*
X104494171Y-98386219D01*
X104474808Y-98412763D01*
X104451927Y-98435666D01*
X104425675Y-98454986D01*
X104396198Y-98470784D01*
X104363643Y-98483118D01*
X104328156Y-98492048D01*
X104289884Y-98497633D01*
X104248973Y-98499931D01*
X104205570Y-98499004D01*
X104159820Y-98494909D01*
X104111871Y-98487705D01*
X104061869Y-98477453D01*
X104009960Y-98464212D01*
X103956290Y-98448040D01*
X103901007Y-98428997D01*
X103844257Y-98407142D01*
X103726940Y-98355234D01*
X103605510Y-98292790D01*
X103481140Y-98220283D01*
X103355001Y-98138188D01*
X103228265Y-98046980D01*
X103102102Y-97947130D01*
X102977685Y-97839115D01*
X102856185Y-97723408D01*
X102752228Y-97620392D01*
X102657676Y-97528738D01*
X102570753Y-97447500D01*
X102489684Y-97375732D01*
X102412692Y-97312488D01*
X102338002Y-97256823D01*
X102263838Y-97207790D01*
X102226399Y-97185465D01*
X102188425Y-97164443D01*
X102149695Y-97144606D01*
X102109986Y-97125837D01*
X102026746Y-97091025D01*
X101936929Y-97059062D01*
X101838760Y-97029002D01*
X101730462Y-96999899D01*
X101610260Y-96970806D01*
X101476378Y-96940779D01*
X101327040Y-96908872D01*
X100962995Y-96828818D01*
X100812812Y-96791440D01*
X100681775Y-96754107D01*
X100568324Y-96715528D01*
X100470899Y-96674412D01*
X100427709Y-96652500D01*
X100387940Y-96629470D01*
X100351398Y-96605160D01*
X100317887Y-96579410D01*
X100287213Y-96552057D01*
X100259180Y-96522942D01*
X100233593Y-96491901D01*
X100210258Y-96458775D01*
X100188979Y-96423401D01*
X100169561Y-96385619D01*
X100151810Y-96345267D01*
X100135530Y-96302183D01*
X100106604Y-96207177D01*
X100081224Y-96099309D01*
X100057828Y-95977291D01*
X100034858Y-95839829D01*
X99995801Y-95649332D01*
X99938579Y-95455364D01*
X99862424Y-95256978D01*
X99766567Y-95053224D01*
X99650240Y-94843155D01*
X99512675Y-94625821D01*
X99353103Y-94400273D01*
X99170757Y-94165563D01*
X98964868Y-93920742D01*
X98734668Y-93664861D01*
X98479390Y-93396972D01*
X98198264Y-93116126D01*
X97890522Y-92821373D01*
X97555398Y-92511766D01*
X97192121Y-92186356D01*
X96799924Y-91844193D01*
X96696431Y-91757959D01*
X96647324Y-91719924D01*
X96599554Y-91685406D01*
X96552804Y-91654502D01*
X96506757Y-91627308D01*
X96461096Y-91603920D01*
X96415503Y-91584435D01*
X96369661Y-91568949D01*
X96323253Y-91557559D01*
X96275963Y-91550361D01*
X96227472Y-91547452D01*
X96177464Y-91548928D01*
X96125622Y-91554885D01*
X96071628Y-91565420D01*
X96015165Y-91580630D01*
X95955917Y-91600610D01*
X95893565Y-91625458D01*
X95827794Y-91655269D01*
X95758285Y-91690141D01*
X95684722Y-91730169D01*
X95606788Y-91775451D01*
X95524164Y-91826082D01*
X95436535Y-91882158D01*
X95343583Y-91943778D01*
X95244991Y-92011036D01*
X95029617Y-92162854D01*
X94787878Y-92338385D01*
X94517235Y-92538401D01*
X94133596Y-92818463D01*
X93773500Y-93070467D01*
X93435368Y-93294945D01*
X93117619Y-93492427D01*
X92818675Y-93663445D01*
X92536957Y-93808530D01*
X92270885Y-93928213D01*
X92018881Y-94023025D01*
X91779364Y-94093498D01*
X91550756Y-94140161D01*
X91331477Y-94163547D01*
X91119949Y-94164187D01*
X90914591Y-94142611D01*
X90713825Y-94099351D01*
X90516072Y-94034938D01*
X90319751Y-93949903D01*
X90300366Y-93942002D01*
X90280272Y-93936644D01*
X90259550Y-93933687D01*
X90238280Y-93932986D01*
X90216545Y-93934401D01*
X90194425Y-93937787D01*
X90172001Y-93943002D01*
X90149355Y-93949903D01*
X90126567Y-93958348D01*
X90103719Y-93968193D01*
X90058167Y-93991513D01*
X90013347Y-94018722D01*
X89969910Y-94048676D01*
X89928503Y-94080232D01*
X89889776Y-94112249D01*
X89854378Y-94143584D01*
X89822959Y-94173093D01*
X89774650Y-94222067D01*
X89750043Y-94250029D01*
X89750043Y-80500100D01*
X89750837Y-80498277D01*
X89751997Y-80496373D01*
X89753501Y-80494399D01*
X89755324Y-80492363D01*
X89759828Y-80488135D01*
X89765319Y-80483758D01*
X89771601Y-80479299D01*
X89778483Y-80474824D01*
X89785772Y-80470401D01*
X89793274Y-80466097D01*
X89808147Y-80458114D01*
X89821558Y-80451412D01*
X89831963Y-80446529D01*
X89837818Y-80444000D01*
X89866919Y-80430832D01*
X89895166Y-80414070D01*
X89922480Y-80393894D01*
X89948784Y-80370481D01*
X89974001Y-80344008D01*
X89998053Y-80314653D01*
X90020863Y-80282594D01*
X90042353Y-80248008D01*
X90062445Y-80211073D01*
X90081063Y-80171966D01*
X90098128Y-80130865D01*
X90113564Y-80087948D01*
X90127293Y-80043392D01*
X90139237Y-79997376D01*
X90149318Y-79950075D01*
X90157460Y-79901669D01*
X90163585Y-79852335D01*
X90167615Y-79802249D01*
X90169474Y-79751591D01*
X90169082Y-79700538D01*
X90166364Y-79649266D01*
X90161241Y-79597955D01*
X90153636Y-79546781D01*
X90143472Y-79495921D01*
X90130670Y-79445555D01*
X90115155Y-79395859D01*
X90096847Y-79347010D01*
X90075670Y-79299187D01*
X90051546Y-79252567D01*
X90024398Y-79207328D01*
X89994148Y-79163648D01*
X89960718Y-79121703D01*
X89750019Y-78875103D01*
X89768183Y-76656270D01*
X89750019Y-74600116D01*
X89976743Y-74354083D01*
X90018057Y-74315819D01*
X90058712Y-74279858D01*
X90098780Y-74246206D01*
X90138336Y-74214869D01*
X90177453Y-74185855D01*
X90216206Y-74159170D01*
X90254669Y-74134821D01*
X90292916Y-74112814D01*
X90331019Y-74093157D01*
X90369055Y-74075856D01*
X90407095Y-74060917D01*
X90445215Y-74048348D01*
X90483489Y-74038155D01*
X90521989Y-74030344D01*
X90560791Y-74024923D01*
X90599968Y-74021899D01*
X90651008Y-74021541D01*
X90702947Y-74025170D01*
G36*
X84499988Y-73500108D02*
G01*
X84378781Y-74704298D01*
X84280313Y-75915139D01*
X84247996Y-76523993D01*
X84231430Y-77135638D01*
X84233971Y-77750450D01*
X84258974Y-78368804D01*
X84309795Y-78991078D01*
X84389789Y-79617646D01*
X84502311Y-80248884D01*
X84650718Y-80885170D01*
X84838364Y-81526879D01*
X85068604Y-82174386D01*
X85344796Y-82828068D01*
X85670292Y-83488301D01*
X85731564Y-83581694D01*
X85786860Y-83668822D01*
X85835104Y-83747777D01*
X85875217Y-83816652D01*
X85906123Y-83873540D01*
X85926743Y-83916533D01*
X85932860Y-83932224D01*
X85936002Y-83943725D01*
X85936034Y-83950800D01*
X85934841Y-83952603D01*
X85932821Y-83953209D01*
X85926216Y-83952527D01*
X85916294Y-83950534D01*
X85887303Y-83942884D01*
X85847452Y-83930795D01*
X85798347Y-83914803D01*
X85741592Y-83895443D01*
X85678792Y-83873250D01*
X85611552Y-83848760D01*
X85541478Y-83822509D01*
X85346453Y-83753191D01*
X85151257Y-83693251D01*
X84956014Y-83642642D01*
X84760848Y-83601316D01*
X84565882Y-83569225D01*
X84371241Y-83546322D01*
X84177050Y-83532559D01*
X83983430Y-83527887D01*
X83790508Y-83532260D01*
X83598407Y-83545630D01*
X83407250Y-83567948D01*
X83217162Y-83599168D01*
X83028267Y-83639242D01*
X82840688Y-83688121D01*
X82654550Y-83745759D01*
X82469977Y-83812107D01*
X82287092Y-83887118D01*
X82106021Y-83970744D01*
X81926885Y-84062937D01*
X81749811Y-84163651D01*
X81402340Y-84390445D01*
X81064599Y-84650746D01*
X80737580Y-84944171D01*
X80422276Y-85270340D01*
X80119678Y-85628870D01*
X79830778Y-86019380D01*
X79830778Y-86019394D01*
X79711035Y-86194303D01*
X79607104Y-86348162D01*
X79532316Y-86457804D01*
X79510016Y-86488803D01*
X79503368Y-86497080D01*
X79500000Y-86500060D01*
X79500012Y-73500071D01*
X79500012Y-73500070D01*
X84499988Y-73500108D01*
G37*
X84499988Y-73500108D02*
X84378781Y-74704298D01*
X84280313Y-75915139D01*
X84247996Y-76523993D01*
X84231430Y-77135638D01*
X84233971Y-77750450D01*
X84258974Y-78368804D01*
X84309795Y-78991078D01*
X84389789Y-79617646D01*
X84502311Y-80248884D01*
X84650718Y-80885170D01*
X84838364Y-81526879D01*
X85068604Y-82174386D01*
X85344796Y-82828068D01*
X85670292Y-83488301D01*
X85731564Y-83581694D01*
X85786860Y-83668822D01*
X85835104Y-83747777D01*
X85875217Y-83816652D01*
X85906123Y-83873540D01*
X85926743Y-83916533D01*
X85932860Y-83932224D01*
X85936002Y-83943725D01*
X85936034Y-83950800D01*
X85934841Y-83952603D01*
X85932821Y-83953209D01*
X85926216Y-83952527D01*
X85916294Y-83950534D01*
X85887303Y-83942884D01*
X85847452Y-83930795D01*
X85798347Y-83914803D01*
X85741592Y-83895443D01*
X85678792Y-83873250D01*
X85611552Y-83848760D01*
X85541478Y-83822509D01*
X85346453Y-83753191D01*
X85151257Y-83693251D01*
X84956014Y-83642642D01*
X84760848Y-83601316D01*
X84565882Y-83569225D01*
X84371241Y-83546322D01*
X84177050Y-83532559D01*
X83983430Y-83527887D01*
X83790508Y-83532260D01*
X83598407Y-83545630D01*
X83407250Y-83567948D01*
X83217162Y-83599168D01*
X83028267Y-83639242D01*
X82840688Y-83688121D01*
X82654550Y-83745759D01*
X82469977Y-83812107D01*
X82287092Y-83887118D01*
X82106021Y-83970744D01*
X81926885Y-84062937D01*
X81749811Y-84163651D01*
X81402340Y-84390445D01*
X81064599Y-84650746D01*
X80737580Y-84944171D01*
X80422276Y-85270340D01*
X80119678Y-85628870D01*
X79830778Y-86019380D01*
X79830778Y-86019394D01*
X79711035Y-86194303D01*
X79607104Y-86348162D01*
X79532316Y-86457804D01*
X79510016Y-86488803D01*
X79503368Y-86497080D01*
X79500000Y-86500060D01*
X79500012Y-73500071D01*
X79500012Y-73500070D01*
X84499988Y-73500108D01*
D11*
%TO.P,J6,1,Pin_1*%
%TO.N,+9V*%
X66749999Y-4749999D03*
D12*
%TO.P,J6,2,Pin_2*%
%TO.N,GND*%
X64209999Y-4749999D03*
%TD*%
D13*
%TO.P,J1,2,Pin_2*%
%TO.N,GND*%
X26749999Y-101999999D03*
%TD*%
D11*
%TO.P,J2,1,Pin_1*%
%TO.N,/~CS*%
X91749999Y-7249999D03*
D12*
%TO.P,J2,2,Pin_2*%
%TO.N,GND*%
X91749999Y-4709999D03*
%TO.P,J2,3,Pin_3*%
%TO.N,/~RD*%
X94289999Y-7249999D03*
%TO.P,J2,4,Pin_4*%
%TO.N,GND*%
X94289999Y-4709999D03*
%TO.P,J2,5,Pin_5*%
%TO.N,/~CONVST*%
X96829999Y-7249999D03*
%TO.P,J2,6,Pin_6*%
%TO.N,GND*%
X96829999Y-4709999D03*
%TO.P,J2,7,Pin_7*%
%TO.N,/~PWD_RST*%
X99369999Y-7249999D03*
%TO.P,J2,8,Pin_8*%
%TO.N,GND*%
X99369999Y-4709999D03*
%TO.P,J2,9,Pin_9*%
%TO.N,/~A_PWD*%
X101909999Y-7249999D03*
%TO.P,J2,10,Pin_10*%
%TO.N,GND*%
X101909999Y-4709999D03*
%TO.P,J2,11,Pin_11*%
%TO.N,/BUSY*%
X104449999Y-7249999D03*
%TO.P,J2,12,Pin_12*%
%TO.N,GND*%
X104449999Y-4709999D03*
%TD*%
D14*
%TO.P,H2,1,1*%
%TO.N,GND*%
X117000000Y-5500000D03*
X117878680Y-3378680D03*
X117878680Y-7621320D03*
X120000000Y-2500000D03*
D15*
X120000000Y-5500000D03*
D14*
X120000000Y-8500000D03*
X122121320Y-3378680D03*
X122121320Y-7621320D03*
X123000000Y-5500000D03*
%TD*%
D11*
%TO.P,J5,1,Pin_1*%
%TO.N,-9V*%
X55999999Y-4749999D03*
D12*
%TO.P,J5,2,Pin_2*%
%TO.N,GND*%
X58539999Y-4749999D03*
%TD*%
D11*
%TO.P,J4,1,Pin_1*%
%TO.N,/coil+*%
X45249999Y-4749999D03*
D12*
%TO.P,J4,2,Pin_2*%
%TO.N,GND*%
X42709999Y-4749999D03*
%TO.P,J4,3,Pin_3*%
%TO.N,/TR*%
X40169999Y-4749999D03*
%TO.P,J4,4,Pin_4*%
%TO.N,GND*%
X37629999Y-4749999D03*
%TD*%
D14*
%TO.P,H4,1,1*%
%TO.N,GND*%
X117000000Y-99000000D03*
X117878680Y-96878680D03*
X117878680Y-101121320D03*
X120000000Y-96000000D03*
D15*
X120000000Y-99000000D03*
D14*
X120000000Y-102000000D03*
X122121320Y-96878680D03*
X122121320Y-101121320D03*
X123000000Y-99000000D03*
%TD*%
%TO.P,H3,1,1*%
%TO.N,GND*%
X2500000Y-99000000D03*
X3378680Y-96878680D03*
X3378680Y-101121320D03*
X5500000Y-96000000D03*
D15*
X5500000Y-99000000D03*
D14*
X5500000Y-102000000D03*
X7621320Y-96878680D03*
X7621320Y-101121320D03*
X8500000Y-99000000D03*
%TD*%
D11*
%TO.P,J3,1,Pin_1*%
%TO.N,/DB0*%
X118249999Y-40879999D03*
D12*
%TO.P,J3,2,Pin_2*%
%TO.N,GND*%
X120789999Y-40879999D03*
%TO.P,J3,3,Pin_3*%
%TO.N,/DB1*%
X118249999Y-43419999D03*
%TO.P,J3,4,Pin_4*%
%TO.N,GND*%
X120789999Y-43419999D03*
%TO.P,J3,5,Pin_5*%
%TO.N,/DB2*%
X118249999Y-45959999D03*
%TO.P,J3,6,Pin_6*%
%TO.N,GND*%
X120789999Y-45959999D03*
%TO.P,J3,7,Pin_7*%
%TO.N,/DB3*%
X118249999Y-48499999D03*
%TO.P,J3,8,Pin_8*%
%TO.N,GND*%
X120789999Y-48499999D03*
%TO.P,J3,9,Pin_9*%
%TO.N,/DB4*%
X118249999Y-51039999D03*
%TO.P,J3,10,Pin_10*%
%TO.N,GND*%
X120789999Y-51039999D03*
%TO.P,J3,11,Pin_11*%
%TO.N,/DB5*%
X118249999Y-53579999D03*
%TO.P,J3,12,Pin_12*%
%TO.N,GND*%
X120789999Y-53579999D03*
%TO.P,J3,13,Pin_13*%
%TO.N,/DB6*%
X118249999Y-56119999D03*
%TO.P,J3,14,Pin_14*%
%TO.N,GND*%
X120789999Y-56119999D03*
%TO.P,J3,15,Pin_15*%
%TO.N,/DB7*%
X118249999Y-58659999D03*
%TO.P,J3,16,Pin_16*%
%TO.N,GND*%
X120789999Y-58659999D03*
%TO.P,J3,17,Pin_17*%
%TO.N,/DB8*%
X118249999Y-61199999D03*
%TO.P,J3,18,Pin_18*%
%TO.N,GND*%
X120789999Y-61199999D03*
%TO.P,J3,19,Pin_19*%
%TO.N,/DB9*%
X118249999Y-63739999D03*
%TO.P,J3,20,Pin_20*%
%TO.N,GND*%
X120789999Y-63739999D03*
%TO.P,J3,21,Pin_21*%
%TO.N,/DB10*%
X118249999Y-66279999D03*
%TO.P,J3,22,Pin_22*%
%TO.N,GND*%
X120789999Y-66279999D03*
%TO.P,J3,23,Pin_23*%
%TO.N,/DB11*%
X118249999Y-68819999D03*
%TO.P,J3,24,Pin_24*%
%TO.N,GND*%
X120789999Y-68819999D03*
%TD*%
D16*
%TO.P,U1,1,Vcc*%
%TO.N,+5V*%
X56002500Y-69390000D03*
%TO.P,U1,2,GND*%
%TO.N,GND*%
X43302500Y-69390000D03*
%TO.P,U1,3,Vprogram*%
%TO.N,/Vprogram*%
X62352500Y-73200000D03*
%TO.P,U1,4,HV*%
%TO.N,/HV*%
X62352500Y-94790000D03*
%TO.P,U1,5,Case_GND*%
%TO.N,GND*%
X53462500Y-60500000D03*
%TD*%
D14*
%TO.P,H1,1,1*%
%TO.N,GND*%
X2500000Y-5500000D03*
X3378680Y-3378680D03*
X3378680Y-7621320D03*
X5500000Y-2500000D03*
D15*
X5500000Y-5500000D03*
D14*
X5500000Y-8500000D03*
X7621320Y-3378680D03*
X7621320Y-7621320D03*
X8500000Y-5500000D03*
%TD*%
D17*
%TO.N,+5V*%
X90750000Y-62500000D03*
X90750000Y-53500000D03*
X67000000Y-40250000D03*
X63750000Y-17000000D03*
X90750000Y-52000000D03*
X90750000Y-50500000D03*
X92500000Y-36000000D03*
X90750000Y-59500000D03*
X89000000Y-40250000D03*
X90750000Y-58000000D03*
X90750000Y-46000000D03*
X75250000Y-39000000D03*
X60750000Y-18500000D03*
X37250000Y-24500000D03*
X89250000Y-46000000D03*
X90750000Y-47500000D03*
X90750000Y-56500000D03*
X60750000Y-21500000D03*
X60750000Y-20000000D03*
X90750000Y-61000000D03*
X36000000Y-22500000D03*
X94000000Y-36000000D03*
X60750000Y-17000000D03*
X36000000Y-19250000D03*
X90750000Y-55000000D03*
X62250000Y-15500000D03*
X90750000Y-49000000D03*
X37250000Y-17250000D03*
X29000000Y-19500000D03*
X62250000Y-17000000D03*
%TO.N,GND*%
X125000000Y-98000000D03*
X49227171Y-24698771D03*
X125000000Y-90500000D03*
X94250000Y-52250000D03*
X39500000Y-72500000D03*
X500000Y-23000000D03*
X16813301Y-36934646D03*
X54452302Y-35936080D03*
X500000Y-80000000D03*
X14000000Y-104000000D03*
X57500000Y-500000D03*
X125000000Y-500000D03*
X66500000Y-83000000D03*
X100000000Y-85250000D03*
X53000000Y-500000D03*
X119000000Y-104000000D03*
X63750000Y-54500000D03*
X39500000Y-56000000D03*
X56000000Y-83000000D03*
X116000000Y-104000000D03*
X74000000Y-90500000D03*
X500000Y-38000000D03*
X114500000Y-104000000D03*
X46803956Y-71738261D03*
X108000000Y-42250000D03*
X71750000Y-43000000D03*
X98000000Y-500000D03*
X125000000Y-68000000D03*
X101000000Y-500000D03*
X41963380Y-18036806D03*
X4840395Y-91154733D03*
X46750000Y-41000000D03*
X77307929Y-5824875D03*
X500000Y-68000000D03*
X37144914Y-41119286D03*
X38000000Y-46250000D03*
X125000000Y-62000000D03*
X108750000Y-62500000D03*
X125000000Y-89000000D03*
X8000000Y-104000000D03*
X125000000Y-81500000D03*
X15500000Y-46250000D03*
X125000000Y-51500000D03*
X113000000Y-104000000D03*
X26000000Y-43250000D03*
X32000000Y-39250000D03*
X2000000Y-500000D03*
X39500000Y-68000000D03*
X50000000Y-83000000D03*
X120500000Y-104000000D03*
X12500000Y-104000000D03*
X90250000Y-16500000D03*
X15500000Y-500000D03*
X125000000Y-102500000D03*
X42783595Y-29791740D03*
X14000000Y-74000000D03*
X56000000Y-500000D03*
X32000000Y-46250000D03*
X41000000Y-83000000D03*
X39500000Y-83000000D03*
X120645407Y-30059591D03*
X53807171Y-28388455D03*
X125000000Y-80000000D03*
X110250000Y-60000000D03*
X14000000Y-87500000D03*
X500000Y-69500000D03*
X107500000Y-54750000D03*
X114370111Y-31139952D03*
X500000Y-57500000D03*
X125000000Y-32000000D03*
X108611799Y-4753106D03*
X109000000Y-57250000D03*
X92000000Y-104000000D03*
X82250000Y-14500000D03*
X85500000Y-43500000D03*
X105000000Y-38000000D03*
X10452337Y-73062120D03*
X14000000Y-46250000D03*
X62000000Y-500000D03*
X12295835Y-37167572D03*
X500000Y-59000000D03*
X107750000Y-44750000D03*
X74000000Y-92000000D03*
X109000000Y-52250000D03*
X29000000Y-46250000D03*
X500000Y-99500000D03*
X80500000Y-48000000D03*
X500000Y-51500000D03*
X14000000Y-98000000D03*
X125000000Y-50000000D03*
X74000000Y-99500000D03*
X26000000Y-500000D03*
X125000000Y-77000000D03*
X21500000Y-46250000D03*
X52394747Y-77421237D03*
X125000000Y-18500000D03*
X78500000Y-500000D03*
X78924217Y-31073442D03*
X500000Y-96500000D03*
X5431262Y-22905314D03*
X28685594Y-6252394D03*
X26000000Y-46250000D03*
X71000000Y-500000D03*
X102500000Y-500000D03*
X62000000Y-83000000D03*
X14000000Y-92000000D03*
X93500000Y-38750000D03*
X109237333Y-77501826D03*
X120968659Y-82811258D03*
X14000000Y-77000000D03*
X66549353Y-66767111D03*
X39500000Y-81500000D03*
X75500000Y-104000000D03*
X72317035Y-29225853D03*
X500000Y-32000000D03*
X104500000Y-84250000D03*
X56750000Y-38750000D03*
X107000000Y-104000000D03*
X78750000Y-95250000D03*
X125000000Y-84500000D03*
X125000000Y-47000000D03*
X46750000Y-44500000D03*
X500000Y-8000000D03*
X97000000Y-78500000D03*
X52302392Y-53181687D03*
X14000000Y-78500000D03*
X125000000Y-71000000D03*
X92500000Y-44750000D03*
X42192093Y-58871441D03*
X14000000Y-65000000D03*
X65250000Y-16750000D03*
X125000000Y-14000000D03*
X94250000Y-55500000D03*
X72866825Y-4721801D03*
X500000Y-101000000D03*
X108417931Y-10454885D03*
X14000000Y-69500000D03*
X102500000Y-47000000D03*
X66753680Y-59949549D03*
X30500000Y-46250000D03*
X69500000Y-500000D03*
X5792283Y-36204108D03*
X125000000Y-60500000D03*
X125000000Y-15500000D03*
X125000000Y-78500000D03*
X119994332Y-70879036D03*
X10364209Y-64632810D03*
X500000Y-83000000D03*
X125000000Y-24500000D03*
X27500000Y-500000D03*
X500000Y-2000000D03*
X87500000Y-49000000D03*
X125000000Y-93500000D03*
X74000000Y-104000000D03*
X85235451Y-36004256D03*
X47769859Y-54305314D03*
X66500000Y-500000D03*
X500000Y-71000000D03*
X41590737Y-41993058D03*
X39500000Y-500000D03*
X54500000Y-500000D03*
X8000000Y-500000D03*
X10681993Y-59124617D03*
X92500000Y-16500000D03*
X23000000Y-500000D03*
X66342404Y-78558139D03*
X29500000Y-25750000D03*
X113299002Y-88467230D03*
X24846976Y-6085432D03*
X500000Y-77000000D03*
X500000Y-14000000D03*
X14000000Y-96500000D03*
X500000Y-44000000D03*
X114500000Y-500000D03*
X39500000Y-46250000D03*
X500000Y-26000000D03*
X125000000Y-5000000D03*
X125000000Y-83000000D03*
X6486633Y-30845012D03*
X108096613Y-96131205D03*
X500000Y-42500000D03*
X14000000Y-54500000D03*
X125000000Y-75500000D03*
X94962210Y-70402370D03*
X125000000Y-48500000D03*
X35500000Y-49500000D03*
X500000Y-75500000D03*
X39000000Y-22500000D03*
X500000Y-29000000D03*
X500000Y-47000000D03*
X14000000Y-53000000D03*
X125000000Y-54500000D03*
X39500000Y-48500000D03*
X500000Y-33500000D03*
X500000Y-90500000D03*
X44000000Y-83000000D03*
X63500000Y-83000000D03*
X14000000Y-60500000D03*
X500000Y-62000000D03*
X14000000Y-47250000D03*
X10252227Y-89563052D03*
X125000000Y-39500000D03*
X74000000Y-500000D03*
X58624737Y-77880882D03*
X47231325Y-60252311D03*
X83000000Y-500000D03*
X12361791Y-85074449D03*
X68000000Y-500000D03*
X125000000Y-101000000D03*
X90750000Y-31250000D03*
X14000000Y-80000000D03*
X36662206Y-34438335D03*
X48500000Y-83000000D03*
X500000Y-54500000D03*
X35000000Y-500000D03*
X88346663Y-12788125D03*
X39500000Y-60500000D03*
X95000000Y-96250000D03*
X500000Y-56000000D03*
X125000000Y-36500000D03*
X3500000Y-500000D03*
X7217662Y-53364151D03*
X44000000Y-500000D03*
X65000000Y-500000D03*
X42671128Y-48491604D03*
X125000000Y-96500000D03*
X70562503Y-24716012D03*
X71229208Y-18175105D03*
X500000Y-50000000D03*
X29000000Y-44750000D03*
X24500000Y-46250000D03*
X118697135Y-17348397D03*
X33500000Y-500000D03*
X125000000Y-17000000D03*
X39500000Y-63500000D03*
X14000000Y-101000000D03*
X6500000Y-500000D03*
X125000000Y-9500000D03*
X57500000Y-83000000D03*
X87500000Y-52250000D03*
X42500000Y-500000D03*
X14000000Y-95000000D03*
X67500000Y-35500000D03*
X78668796Y-67201073D03*
X89000000Y-104000000D03*
X84500000Y-500000D03*
X82250000Y-52250000D03*
X125000000Y-56000000D03*
X111500000Y-500000D03*
X5000000Y-500000D03*
X99500000Y-104000000D03*
X119000000Y-500000D03*
X77000000Y-500000D03*
X95000000Y-20000000D03*
X32000000Y-9500000D03*
X36250000Y-29000000D03*
X107411906Y-89636253D03*
X125000000Y-99500000D03*
X116000000Y-500000D03*
X54500000Y-22500000D03*
X71765244Y-76809206D03*
X47345413Y-65545495D03*
X39500000Y-53000000D03*
X125000000Y-20000000D03*
X73500000Y-51750000D03*
X125000000Y-2000000D03*
X115236927Y-24022147D03*
X70924982Y-60625883D03*
X110750000Y-67750000D03*
X46750000Y-48000000D03*
X125000000Y-63500000D03*
X53000000Y-83000000D03*
X108250000Y-47250000D03*
X75500000Y-500000D03*
X104000000Y-104000000D03*
X125000000Y-38000000D03*
X125000000Y-42500000D03*
X14000000Y-90500000D03*
X112320505Y-77285515D03*
X32000000Y-41000000D03*
X79237815Y-71315592D03*
X91241343Y-71268093D03*
X59000000Y-500000D03*
X82276535Y-46273058D03*
X95890825Y-65328161D03*
X125000000Y-33500000D03*
X84227950Y-30525354D03*
X47000000Y-500000D03*
X74000000Y-96500000D03*
X500000Y-66500000D03*
X47000000Y-83000000D03*
X14000000Y-102500000D03*
X60750000Y-13500000D03*
X500000Y-102500000D03*
X99500000Y-500000D03*
X112545556Y-84420303D03*
X76500000Y-18500000D03*
X69750000Y-13500000D03*
X39500000Y-65000000D03*
X68000000Y-83000000D03*
X500000Y-5000000D03*
X29000000Y-500000D03*
X500000Y-86000000D03*
X12326657Y-101656175D03*
X45500000Y-83000000D03*
X14000000Y-57500000D03*
X122000000Y-104000000D03*
X125000000Y-26000000D03*
X14000000Y-75500000D03*
X77500000Y-16750000D03*
X36500000Y-500000D03*
X81500000Y-104000000D03*
X9500000Y-104000000D03*
X77942823Y-78827797D03*
X4673525Y-82950387D03*
X20000000Y-500000D03*
X112000000Y-65000000D03*
X39500000Y-80000000D03*
X83647537Y-55011061D03*
X93500000Y-500000D03*
X30500000Y-500000D03*
X65000000Y-83000000D03*
X39500000Y-54500000D03*
X24500000Y-43250000D03*
X500000Y-48500000D03*
X57750000Y-69250000D03*
X125000000Y-12500000D03*
X20000000Y-46250000D03*
X115017347Y-11310114D03*
X90750000Y-34500000D03*
X87500000Y-500000D03*
X500000Y-81500000D03*
X101000000Y-104000000D03*
X39500000Y-62000000D03*
X110000000Y-500000D03*
X14000000Y-93500000D03*
X14000000Y-51500000D03*
X500000Y-53000000D03*
X64250000Y-18500000D03*
X87500000Y-104000000D03*
X500000Y-104000000D03*
X39500000Y-71000000D03*
X14000000Y-83000000D03*
X90500000Y-500000D03*
X90250000Y-19750000D03*
X92000000Y-500000D03*
X500000Y-11000000D03*
X31750000Y-44000000D03*
X87500000Y-55500000D03*
X500000Y-74000000D03*
X11000000Y-104000000D03*
X73000000Y-13500000D03*
X39500000Y-59000000D03*
X500000Y-95000000D03*
X17000000Y-500000D03*
X76750000Y-51750000D03*
X26000000Y-22500000D03*
X71632633Y-72759081D03*
X110000000Y-104000000D03*
X93250000Y-35000000D03*
X119333462Y-88377303D03*
X97500000Y-44500000D03*
X96034374Y-41593928D03*
X14000000Y-50000000D03*
X113000000Y-500000D03*
X100693693Y-64276417D03*
X17000000Y-46250000D03*
X122000000Y-500000D03*
X107175220Y-70924333D03*
X55500000Y-18500000D03*
X500000Y-30500000D03*
X81500000Y-500000D03*
X66000000Y-40250000D03*
X60500000Y-83000000D03*
X48500000Y-500000D03*
X48826419Y-16801927D03*
X14000000Y-56000000D03*
X74000000Y-95000000D03*
X86000000Y-500000D03*
X47629785Y-34510381D03*
X125000000Y-66500000D03*
X123500000Y-104000000D03*
X91500000Y-41000000D03*
X125000000Y-72500000D03*
X39500000Y-74000000D03*
X90250000Y-23000000D03*
X96500000Y-500000D03*
X77000000Y-104000000D03*
X82783661Y-64456629D03*
X74000000Y-102500000D03*
X27500000Y-43250000D03*
X29000000Y-43250000D03*
X45500000Y-500000D03*
X11094794Y-77645950D03*
X101750000Y-38000000D03*
X112374710Y-94629168D03*
X14000000Y-72500000D03*
X71000000Y-83000000D03*
X59420338Y-60669233D03*
X74000000Y-84500000D03*
X125000000Y-69500000D03*
X39500000Y-75500000D03*
X14000000Y-68000000D03*
X80000000Y-104000000D03*
X42703489Y-54814247D03*
X14000000Y-63500000D03*
X106000000Y-16500000D03*
X32000000Y-36000000D03*
X5677527Y-48446478D03*
X500000Y-89000000D03*
X125000000Y-92000000D03*
X51500000Y-14500000D03*
X87500000Y-58750000D03*
X500000Y-72500000D03*
X3500000Y-104000000D03*
X108500000Y-500000D03*
X74000000Y-98000000D03*
X500000Y-63500000D03*
X78500000Y-104000000D03*
X125000000Y-30500000D03*
X43219945Y-35301240D03*
X39500000Y-51500000D03*
X102500000Y-104000000D03*
X100859432Y-70806281D03*
X125000000Y-59000000D03*
X125000000Y-87500000D03*
X123500000Y-500000D03*
X125000000Y-21500000D03*
X86000000Y-104000000D03*
X500000Y-84500000D03*
X111500000Y-104000000D03*
X11000000Y-500000D03*
X6793834Y-65931729D03*
X500000Y-41000000D03*
X78278329Y-82589176D03*
X125000000Y-53000000D03*
X23205318Y-16843302D03*
X29500000Y-29000000D03*
X59217532Y-64737305D03*
X51500000Y-500000D03*
X54500000Y-83000000D03*
X105500000Y-104000000D03*
X500000Y-45500000D03*
X74000000Y-83000000D03*
X14000000Y-59000000D03*
X104000000Y-500000D03*
X63500000Y-44000000D03*
X10380595Y-12112159D03*
X32000000Y-500000D03*
X14000000Y-62000000D03*
X101250000Y-78750000D03*
X85031376Y-58844443D03*
X500000Y-24500000D03*
X500000Y-12500000D03*
X500000Y-27500000D03*
X500000Y-9500000D03*
X90500000Y-104000000D03*
X500000Y-36500000D03*
X71142742Y-54718155D03*
X69500000Y-83000000D03*
X76250000Y-39000000D03*
X125000000Y-44000000D03*
X39500000Y-77000000D03*
X83000000Y-104000000D03*
X500000Y-20000000D03*
X41000000Y-500000D03*
X52868826Y-65974244D03*
X500000Y-98000000D03*
X54250000Y-46250000D03*
X70963519Y-67124227D03*
X96500000Y-104000000D03*
X39500000Y-69500000D03*
X84444842Y-72307650D03*
X97500000Y-23250000D03*
X42906055Y-66783012D03*
X42500000Y-83000000D03*
X12500000Y-500000D03*
X500000Y-15500000D03*
X125000000Y-57500000D03*
X17762264Y-42168910D03*
X17503895Y-5605648D03*
X21500000Y-500000D03*
X65224171Y-71294180D03*
X14000000Y-81500000D03*
X82431992Y-4947141D03*
X106000000Y-19750000D03*
X2000000Y-104000000D03*
X14000000Y-84500000D03*
X93500000Y-104000000D03*
X26000000Y-44750000D03*
X125000000Y-35000000D03*
X125000000Y-11000000D03*
X34250000Y-16000000D03*
X95000000Y-500000D03*
X14000000Y-99500000D03*
X500000Y-18500000D03*
X125000000Y-6500000D03*
X24500000Y-500000D03*
X98750000Y-16750000D03*
X91500000Y-44250000D03*
X5000000Y-104000000D03*
X107000000Y-500000D03*
X117500000Y-104000000D03*
X53500000Y-15500000D03*
X72500000Y-500000D03*
X80000000Y-500000D03*
X27500000Y-44750000D03*
X95000000Y-104000000D03*
X74000000Y-87500000D03*
X105500000Y-500000D03*
X60500000Y-500000D03*
X125000000Y-86000000D03*
X50000000Y-500000D03*
X14000000Y-48500000D03*
X76874680Y-100252453D03*
X500000Y-92000000D03*
X125000000Y-27500000D03*
X114590107Y-35364881D03*
X94250000Y-62000000D03*
X23000000Y-46250000D03*
X94250000Y-58750000D03*
X59000000Y-83000000D03*
X125000000Y-95000000D03*
X92000000Y-38750000D03*
X500000Y-35000000D03*
X125000000Y-74000000D03*
X105000000Y-76250000D03*
X14000000Y-71000000D03*
X125000000Y-29000000D03*
X72500000Y-83000000D03*
X74000000Y-89000000D03*
X36500000Y-46250000D03*
X16000000Y-17500000D03*
X47827052Y-29871732D03*
X500000Y-17000000D03*
X74000000Y-93500000D03*
X125000000Y-45500000D03*
X39000000Y-19250000D03*
X500000Y-65000000D03*
X77032071Y-60976442D03*
X118976596Y-35649902D03*
X500000Y-87500000D03*
X125000000Y-8000000D03*
X120500000Y-500000D03*
X125000000Y-23000000D03*
X117500000Y-500000D03*
X9500000Y-500000D03*
X96250000Y-38750000D03*
X500000Y-60500000D03*
X39500000Y-78500000D03*
X77444190Y-88848311D03*
X39500000Y-66500000D03*
X14000000Y-66500000D03*
X500000Y-21500000D03*
X4300020Y-78398149D03*
X14000000Y-86000000D03*
X31139820Y-36302949D03*
X24500000Y-44750000D03*
X109091495Y-83225548D03*
X125000000Y-104000000D03*
X38000000Y-500000D03*
X90365149Y-66533404D03*
X98000000Y-104000000D03*
X118368879Y-24350552D03*
X4461334Y-17910457D03*
X11505603Y-42585900D03*
X54194618Y-72068211D03*
X500000Y-6500000D03*
X61000000Y-73000000D03*
X500000Y-500000D03*
X5841654Y-42295628D03*
X65500000Y-45250000D03*
X14000000Y-89000000D03*
X6500000Y-104000000D03*
X18500000Y-46250000D03*
X18500000Y-500000D03*
X97500000Y-39500000D03*
X63500000Y-500000D03*
X89000000Y-500000D03*
X39500000Y-57500000D03*
X500000Y-93500000D03*
X4473031Y-60303096D03*
X500000Y-39500000D03*
X47754976Y-6558486D03*
X500000Y-3500000D03*
X125000000Y-41000000D03*
X35940929Y-5879348D03*
X84500000Y-104000000D03*
X500000Y-78500000D03*
X48968336Y-76474805D03*
X101250000Y-20000000D03*
X108500000Y-104000000D03*
X51500000Y-83000000D03*
X14000000Y-500000D03*
X114020724Y-70907393D03*
X125000000Y-3500000D03*
X74000000Y-101000000D03*
X120095248Y-76650448D03*
X49000000Y-47000000D03*
X125000000Y-65000000D03*
X5566442Y-70767287D03*
X27500000Y-46250000D03*
X40318398Y-24494937D03*
X74000000Y-86000000D03*
X98500000Y-74250000D03*
X10383340Y-17625580D03*
%TO.N,+3V3*%
X110000000Y-19250000D03*
X111500000Y-19250000D03*
X83500000Y-17500000D03*
X79000000Y-23500000D03*
X82000000Y-19000000D03*
X103500000Y-40000000D03*
X80500000Y-17500000D03*
X82000000Y-25000000D03*
X79000000Y-19000000D03*
X85000000Y-17500000D03*
X79000000Y-20500000D03*
X80500000Y-22000000D03*
X111000000Y-20750000D03*
X82000000Y-23500000D03*
X83500000Y-23500000D03*
X98250000Y-46000000D03*
X111000000Y-17500000D03*
X83500000Y-25000000D03*
X85000000Y-22000000D03*
X79000000Y-25000000D03*
X79000000Y-22000000D03*
X85000000Y-20500000D03*
X80500000Y-20500000D03*
X80500000Y-23500000D03*
X80500000Y-19000000D03*
X83500000Y-19000000D03*
X85000000Y-19000000D03*
X79000000Y-17500000D03*
X100250000Y-40000000D03*
X85000000Y-25000000D03*
X83500000Y-22000000D03*
X99250000Y-47000000D03*
X85000000Y-23500000D03*
X82000000Y-20500000D03*
X82000000Y-22000000D03*
X80500000Y-25000000D03*
X83500000Y-20500000D03*
X82000000Y-17500000D03*
D18*
%TO.N,/A_out_1*%
X50250000Y-47000000D03*
X57500000Y-39750000D03*
D17*
%TO.N,-5V*%
X63500000Y-45500000D03*
X59250000Y-20000000D03*
X59250000Y-21500000D03*
X59250000Y-15500000D03*
X59250000Y-18500000D03*
X71750000Y-44000000D03*
X59250000Y-17000000D03*
%TO.N,/~CS*%
X91750000Y-17500000D03*
X90250000Y-17500000D03*
%TO.N,/~RD*%
X90250000Y-20750000D03*
X94250000Y-20750000D03*
%TO.N,/~CONVST*%
X90250000Y-24000000D03*
X96750000Y-24000000D03*
%TO.N,/~PWD_RST*%
X99500000Y-17500000D03*
X106000000Y-17500000D03*
%TO.N,/~A_PWD*%
X106000000Y-20750000D03*
X102000000Y-20750000D03*
%TD*%
D19*
%TO.N,GND*%
X500000Y-95000000D02*
X5500000Y-95000000D01*
X5500000Y-9500000D02*
X600000Y-9500000D01*
X125000000Y-9500000D02*
X120000000Y-9500000D01*
X9500000Y-99000000D02*
X9500000Y-103900000D01*
X116000000Y-5500000D02*
X116000000Y-600000D01*
X116000000Y-104000000D02*
X116000000Y-99000000D01*
X9500000Y-500000D02*
X9500000Y-5500000D01*
X120000000Y-95000000D02*
X124900000Y-95000000D01*
X9500000Y-99000000D02*
G75*
G03*
X5500000Y-95000000I-4000000J0D01*
G01*
X120000000Y-95000000D02*
G75*
G03*
X116000000Y-99000000I0J-4000000D01*
G01*
X5500000Y-9500000D02*
G75*
G03*
X9500000Y-5500000I0J4000000D01*
G01*
X116000000Y-5500000D02*
G75*
G03*
X120000000Y-9500000I4000000J0D01*
G01*
%TO.N,/A_out_1*%
X50250000Y-42250000D02*
X52750000Y-39750000D01*
X52750000Y-39750000D02*
X57500000Y-39750000D01*
X50250000Y-47000000D02*
X50250000Y-42250000D01*
D20*
%TO.N,/~CS*%
X90250000Y-17500000D02*
X91750000Y-17500000D01*
%TO.N,/~RD*%
X90250000Y-20750000D02*
X94250000Y-20750000D01*
%TO.N,/~CONVST*%
X90250000Y-24000000D02*
X96750000Y-24000000D01*
%TO.N,/~PWD_RST*%
X106000000Y-17500000D02*
X99500000Y-17500000D01*
%TO.N,/~A_PWD*%
X106000000Y-20750000D02*
X102000000Y-20750000D01*
%TD*%
%TA.AperFunction,Conductor*%
%TO.N,GND*%
G36*
X125496132Y-3868D02*
G01*
X125499500Y-12000D01*
X125499500Y-104488000D01*
X125496132Y-104496132D01*
X125488000Y-104499500D01*
X73511500Y-104499500D01*
X73503368Y-104496132D01*
X73500000Y-104488000D01*
X73500000Y-83502287D01*
X73500000Y-83500000D01*
X73497713Y-83500000D01*
X39011500Y-83500000D01*
X39003368Y-83496632D01*
X39000000Y-83488500D01*
X39000000Y-46752287D01*
X39000000Y-46750000D01*
X38997713Y-46750000D01*
X29252287Y-46750000D01*
X29250000Y-46750000D01*
X29250000Y-45750000D01*
X29252287Y-45750000D01*
X39988500Y-45750000D01*
X39996632Y-45753368D01*
X40000000Y-45761500D01*
X40000000Y-82500000D01*
X74488500Y-82500000D01*
X74496632Y-82503368D01*
X74500000Y-82511500D01*
X74500000Y-103500000D01*
X74502287Y-103500000D01*
X115997713Y-103500000D01*
X116000000Y-103500000D01*
X116000000Y-99000955D01*
X116000156Y-98999064D01*
X116000156Y-98999063D01*
X116249594Y-97502430D01*
X116251367Y-97497948D01*
X117248306Y-96002540D01*
X117252732Y-95998634D01*
X118748622Y-95250689D01*
X118751510Y-95249698D01*
X119998885Y-95000223D01*
X120001140Y-95000000D01*
X124497713Y-95000000D01*
X124500000Y-95000000D01*
X124500000Y-9500000D01*
X124497713Y-9500000D01*
X119251867Y-9500000D01*
X119248230Y-9499410D01*
X117752575Y-9000858D01*
X117748080Y-8998080D01*
X116751565Y-8001565D01*
X116749127Y-7997963D01*
X116000930Y-6252170D01*
X116000000Y-6247640D01*
X116000000Y-1002287D01*
X116000000Y-1000000D01*
X115997713Y-1000000D01*
X9502287Y-1000000D01*
X9500000Y-1000000D01*
X9500000Y-1002287D01*
X9500000Y-5499186D01*
X9499884Y-5500812D01*
X9250416Y-7247082D01*
X9248232Y-7252356D01*
X8500876Y-8248832D01*
X8498860Y-8250912D01*
X7252450Y-9248040D01*
X7246892Y-9250444D01*
X5500812Y-9499884D01*
X5499186Y-9500000D01*
X1000000Y-9500000D01*
X1000000Y-95000000D01*
X6497285Y-95000000D01*
X6502428Y-95001214D01*
X7998330Y-95749165D01*
X8001319Y-95751319D01*
X8998681Y-96748681D01*
X9000835Y-96751670D01*
X9498786Y-97747572D01*
X9500000Y-97752715D01*
X9500000Y-103500000D01*
X9502287Y-103500000D01*
X13497713Y-103500000D01*
X13500000Y-103500000D01*
X13500000Y-45761500D01*
X13503368Y-45753368D01*
X13511500Y-45750000D01*
X24247713Y-45750000D01*
X24250000Y-45750000D01*
X24250000Y-46750000D01*
X24247713Y-46750000D01*
X14502287Y-46750000D01*
X14500000Y-46750000D01*
X14500000Y-46752287D01*
X14500000Y-104488000D01*
X14496632Y-104496132D01*
X14488500Y-104499500D01*
X12000Y-104499500D01*
X3868Y-104496132D01*
X500Y-104488000D01*
X500Y-12000D01*
X3868Y-3868D01*
X12000Y-500D01*
X125488000Y-500D01*
X125496132Y-3868D01*
G37*
%TD.AperFunction*%
%TD*%
%TA.AperFunction,Conductor*%
%TO.N,GND*%
G36*
X29158020Y-43011342D02*
G01*
X29206359Y-43043641D01*
X29238658Y-43091980D01*
X29250000Y-43149000D01*
X29250000Y-46750000D01*
X29250000Y-46764675D01*
X29250000Y-101851000D01*
X29238658Y-101908020D01*
X29206359Y-101956359D01*
X29158020Y-101988658D01*
X29101000Y-102000000D01*
X24399000Y-102000000D01*
X24341980Y-101988658D01*
X24293641Y-101956359D01*
X24261342Y-101908020D01*
X24250000Y-101851000D01*
X24250000Y-46764675D01*
X24250000Y-43149000D01*
X24261342Y-43091980D01*
X24293641Y-43043641D01*
X24341980Y-43011342D01*
X24399000Y-43000000D01*
X29101000Y-43000000D01*
X29158020Y-43011342D01*
G37*
%TD.AperFunction*%
%TD*%
%TA.AperFunction,Conductor*%
%TO.N,-5V*%
G36*
X59259684Y-14751274D02*
G01*
X59359962Y-14764476D01*
X59397529Y-14774542D01*
X59481878Y-14809480D01*
X59515560Y-14828927D01*
X59587994Y-14884508D01*
X59615491Y-14912005D01*
X59671071Y-14984437D01*
X59690519Y-15018122D01*
X59725456Y-15102467D01*
X59735523Y-15140038D01*
X59748725Y-15240314D01*
X59750000Y-15259763D01*
X59750000Y-33750000D01*
X59767037Y-33879410D01*
X59770771Y-33888426D01*
X59770773Y-33888431D01*
X59811055Y-33985680D01*
X59816987Y-34000000D01*
X59896447Y-34103553D01*
X60000000Y-34183013D01*
X60120590Y-34232963D01*
X60250000Y-34250000D01*
X62240237Y-34250000D01*
X62259684Y-34251274D01*
X62359962Y-34264476D01*
X62397529Y-34274542D01*
X62481878Y-34309480D01*
X62515560Y-34328927D01*
X62587994Y-34384508D01*
X62615491Y-34412005D01*
X62671071Y-34484437D01*
X62690519Y-34518122D01*
X62725456Y-34602467D01*
X62735523Y-34640038D01*
X62748725Y-34740314D01*
X62750000Y-34759763D01*
X62750000Y-43250000D01*
X62767037Y-43379410D01*
X62770771Y-43388426D01*
X62770773Y-43388431D01*
X62811055Y-43485680D01*
X62816987Y-43500000D01*
X62896447Y-43603553D01*
X62904196Y-43609499D01*
X62909866Y-43615169D01*
X62942165Y-43663508D01*
X62953507Y-43720527D01*
X62942165Y-43777547D01*
X62914956Y-43843238D01*
X62913681Y-43852917D01*
X62913681Y-43852920D01*
X62896367Y-43984437D01*
X62894318Y-44000000D01*
X62914956Y-44156762D01*
X62918690Y-44165778D01*
X62918692Y-44165783D01*
X62949564Y-44240314D01*
X62975464Y-44302841D01*
X63071718Y-44428282D01*
X63197159Y-44524536D01*
X63343238Y-44585044D01*
X63500000Y-44605682D01*
X63656762Y-44585044D01*
X63802841Y-44524536D01*
X63928282Y-44428282D01*
X64024536Y-44302841D01*
X64085044Y-44156762D01*
X64105682Y-44000000D01*
X64103633Y-43984437D01*
X64094946Y-43918447D01*
X64100087Y-43855747D01*
X64130647Y-43800757D01*
X64181178Y-43763281D01*
X64242671Y-43750000D01*
X71740237Y-43750000D01*
X71759684Y-43751274D01*
X71859962Y-43764476D01*
X71897529Y-43774542D01*
X71981878Y-43809480D01*
X72015560Y-43828927D01*
X72087994Y-43884508D01*
X72115491Y-43912005D01*
X72171071Y-43984437D01*
X72190519Y-44018122D01*
X72225456Y-44102467D01*
X72235523Y-44140038D01*
X72248725Y-44240314D01*
X72250000Y-44259763D01*
X72250000Y-45490237D01*
X72248725Y-45509686D01*
X72235523Y-45609961D01*
X72225456Y-45647532D01*
X72190519Y-45731877D01*
X72171071Y-45765562D01*
X72115495Y-45837990D01*
X72087990Y-45865495D01*
X72015562Y-45921071D01*
X71981877Y-45940519D01*
X71897532Y-45975456D01*
X71859961Y-45985523D01*
X71786184Y-45995236D01*
X71759683Y-45998725D01*
X71740237Y-46000000D01*
X65947951Y-46000000D01*
X65876854Y-45981944D01*
X65822989Y-45932151D01*
X65799410Y-45862691D01*
X65811833Y-45790396D01*
X65857244Y-45732791D01*
X65928282Y-45678282D01*
X66024536Y-45552841D01*
X66085044Y-45406762D01*
X66105682Y-45250000D01*
X66085044Y-45093238D01*
X66024536Y-44947159D01*
X65928282Y-44821718D01*
X65802841Y-44725464D01*
X65789203Y-44719815D01*
X65665783Y-44668692D01*
X65665778Y-44668690D01*
X65656762Y-44664956D01*
X65647080Y-44663681D01*
X65647079Y-44663681D01*
X65509685Y-44645593D01*
X65500000Y-44644318D01*
X65490315Y-44645593D01*
X65352920Y-44663681D01*
X65352917Y-44663681D01*
X65343238Y-44664956D01*
X65334223Y-44668690D01*
X65334216Y-44668692D01*
X65206182Y-44721726D01*
X65206178Y-44721727D01*
X65197159Y-44725464D01*
X65189415Y-44731405D01*
X65189410Y-44731409D01*
X65079467Y-44815771D01*
X65079462Y-44815775D01*
X65071718Y-44821718D01*
X65065775Y-44829462D01*
X65065771Y-44829467D01*
X64981409Y-44939410D01*
X64981405Y-44939415D01*
X64975464Y-44947159D01*
X64971727Y-44956178D01*
X64971726Y-44956182D01*
X64918692Y-45084216D01*
X64918690Y-45084223D01*
X64914956Y-45093238D01*
X64913681Y-45102917D01*
X64913681Y-45102920D01*
X64907724Y-45148171D01*
X64894318Y-45250000D01*
X64914956Y-45406762D01*
X64918690Y-45415778D01*
X64918692Y-45415783D01*
X64971726Y-45543817D01*
X64975464Y-45552841D01*
X64981408Y-45560587D01*
X64981409Y-45560589D01*
X65065771Y-45670532D01*
X65071718Y-45678282D01*
X65142755Y-45732791D01*
X65188167Y-45790396D01*
X65200590Y-45862691D01*
X65177011Y-45932151D01*
X65123146Y-45981944D01*
X65052049Y-46000000D01*
X61009763Y-46000000D01*
X60990316Y-45998725D01*
X60957235Y-45994370D01*
X60890038Y-45985523D01*
X60852467Y-45975456D01*
X60768122Y-45940519D01*
X60734437Y-45921071D01*
X60662005Y-45865491D01*
X60634508Y-45837994D01*
X60578927Y-45765560D01*
X60559480Y-45731877D01*
X60524542Y-45647529D01*
X60514476Y-45609962D01*
X60501274Y-45509684D01*
X60500000Y-45490237D01*
X60500000Y-37004881D01*
X60500000Y-37000000D01*
X60482963Y-36870590D01*
X60433013Y-36750000D01*
X60353553Y-36646447D01*
X60250000Y-36566987D01*
X60235680Y-36561055D01*
X60138431Y-36520773D01*
X60138426Y-36520771D01*
X60129410Y-36517037D01*
X60119728Y-36515762D01*
X60119727Y-36515762D01*
X60004841Y-36500637D01*
X60004836Y-36500636D01*
X60000000Y-36500000D01*
X59995119Y-36500000D01*
X58009763Y-36500000D01*
X57990316Y-36498725D01*
X57957235Y-36494370D01*
X57890038Y-36485523D01*
X57852467Y-36475456D01*
X57768122Y-36440519D01*
X57734437Y-36421071D01*
X57662005Y-36365491D01*
X57634508Y-36337994D01*
X57578927Y-36265560D01*
X57559480Y-36231877D01*
X57524543Y-36147532D01*
X57514476Y-36109960D01*
X57501275Y-36009685D01*
X57500000Y-35990237D01*
X57500000Y-15259763D01*
X57501275Y-15240315D01*
X57501275Y-15240314D01*
X57514477Y-15140035D01*
X57524541Y-15102472D01*
X57559482Y-15018118D01*
X57578924Y-14984442D01*
X57634511Y-14912001D01*
X57662001Y-14884511D01*
X57734442Y-14828924D01*
X57768118Y-14809482D01*
X57852472Y-14774541D01*
X57890035Y-14764477D01*
X57990315Y-14751274D01*
X58009763Y-14750000D01*
X59240237Y-14750000D01*
X59259684Y-14751274D01*
G37*
%TD.AperFunction*%
%TD*%
%TA.AperFunction,Conductor*%
%TO.N,+5V*%
G36*
X63758059Y-9501061D02*
G01*
X63863223Y-9514906D01*
X63894491Y-9523284D01*
X63984918Y-9560740D01*
X64012952Y-9576925D01*
X64090602Y-9636509D01*
X64113491Y-9659398D01*
X64173074Y-9737048D01*
X64189259Y-9765081D01*
X64226715Y-9855508D01*
X64235093Y-9886775D01*
X64248939Y-9991940D01*
X64250000Y-10008126D01*
X64250000Y-17241874D01*
X64248939Y-17258060D01*
X64235093Y-17363224D01*
X64226715Y-17394491D01*
X64189259Y-17484918D01*
X64173074Y-17512951D01*
X64113491Y-17590601D01*
X64090601Y-17613491D01*
X64012951Y-17673074D01*
X63984918Y-17689259D01*
X63894491Y-17726715D01*
X63863224Y-17735093D01*
X63769398Y-17747446D01*
X63758058Y-17748939D01*
X63741874Y-17750000D01*
X63000000Y-17750000D01*
X62995984Y-17750528D01*
X62995979Y-17750529D01*
X62878649Y-17765975D01*
X62878641Y-17765977D01*
X62870590Y-17767037D01*
X62863085Y-17770145D01*
X62863080Y-17770147D01*
X62757509Y-17813876D01*
X62757504Y-17813878D01*
X62750000Y-17816987D01*
X62743556Y-17821930D01*
X62743550Y-17821935D01*
X62652894Y-17891499D01*
X62652889Y-17891503D01*
X62646447Y-17896447D01*
X62641503Y-17902889D01*
X62641499Y-17902894D01*
X62571935Y-17993550D01*
X62571930Y-17993556D01*
X62566987Y-18000000D01*
X62563878Y-18007504D01*
X62563876Y-18007509D01*
X62520147Y-18113080D01*
X62520145Y-18113085D01*
X62517037Y-18120590D01*
X62515977Y-18128641D01*
X62515975Y-18128649D01*
X62500529Y-18245979D01*
X62500000Y-18250000D01*
X62500000Y-22000000D01*
X62500528Y-22004016D01*
X62500529Y-22004020D01*
X62515975Y-22121350D01*
X62515976Y-22121356D01*
X62517037Y-22129410D01*
X62566987Y-22250000D01*
X62571933Y-22256446D01*
X62571935Y-22256449D01*
X62641499Y-22347105D01*
X62646447Y-22353553D01*
X62750000Y-22433013D01*
X62870590Y-22482963D01*
X63000000Y-22500000D01*
X66241874Y-22500000D01*
X66258059Y-22501061D01*
X66363223Y-22514906D01*
X66394491Y-22523284D01*
X66484918Y-22560740D01*
X66512952Y-22576925D01*
X66590602Y-22636509D01*
X66613491Y-22659398D01*
X66673074Y-22737048D01*
X66689259Y-22765081D01*
X66726715Y-22855508D01*
X66735093Y-22886775D01*
X66748939Y-22991940D01*
X66750000Y-23008126D01*
X66750000Y-38000000D01*
X66750528Y-38004016D01*
X66750529Y-38004020D01*
X66765975Y-38121350D01*
X66765976Y-38121356D01*
X66767037Y-38129410D01*
X66816987Y-38250000D01*
X66821933Y-38256446D01*
X66821935Y-38256449D01*
X66891499Y-38347105D01*
X66896447Y-38353553D01*
X67000000Y-38433013D01*
X67120590Y-38482963D01*
X67250000Y-38500000D01*
X67254053Y-38500000D01*
X75625744Y-38500000D01*
X75687744Y-38516613D01*
X75733131Y-38561999D01*
X75749744Y-38623999D01*
X75733132Y-38685999D01*
X75730410Y-38690712D01*
X75725464Y-38697159D01*
X75722355Y-38704663D01*
X75722353Y-38704668D01*
X75668066Y-38835728D01*
X75668064Y-38835733D01*
X75664956Y-38843238D01*
X75663896Y-38851289D01*
X75663894Y-38851297D01*
X75650966Y-38949500D01*
X75644318Y-39000000D01*
X75645379Y-39008059D01*
X75663894Y-39148702D01*
X75663895Y-39148708D01*
X75664956Y-39156762D01*
X75668065Y-39164268D01*
X75668066Y-39164271D01*
X75713740Y-39274536D01*
X75725464Y-39302841D01*
X75821718Y-39428282D01*
X75947159Y-39524536D01*
X76093238Y-39585044D01*
X76250000Y-39605682D01*
X76406762Y-39585044D01*
X76552841Y-39524536D01*
X76678282Y-39428282D01*
X76774536Y-39302841D01*
X76835044Y-39156762D01*
X76855682Y-39000000D01*
X76835044Y-38843238D01*
X76774536Y-38697159D01*
X76769588Y-38690711D01*
X76766868Y-38685999D01*
X76750256Y-38623999D01*
X76766869Y-38561999D01*
X76812256Y-38516613D01*
X76874256Y-38500000D01*
X86745947Y-38500000D01*
X86750000Y-38500000D01*
X86879410Y-38482963D01*
X87000000Y-38433013D01*
X87103553Y-38353553D01*
X87183013Y-38250000D01*
X87232963Y-38129410D01*
X87250000Y-38000000D01*
X87250000Y-36008126D01*
X87251061Y-35991941D01*
X87264906Y-35886776D01*
X87273284Y-35855508D01*
X87310740Y-35765081D01*
X87326923Y-35737050D01*
X87386513Y-35659392D01*
X87409392Y-35636513D01*
X87487050Y-35576923D01*
X87515079Y-35560740D01*
X87605509Y-35523283D01*
X87636775Y-35514906D01*
X87741940Y-35501061D01*
X87758126Y-35500000D01*
X92873557Y-35500000D01*
X92935557Y-35516613D01*
X92940712Y-35519589D01*
X92947159Y-35524536D01*
X93093238Y-35585044D01*
X93250000Y-35605682D01*
X93406762Y-35585044D01*
X93552841Y-35524536D01*
X93559288Y-35519588D01*
X93564443Y-35516613D01*
X93626443Y-35500000D01*
X93741874Y-35500000D01*
X93758059Y-35501061D01*
X93863223Y-35514906D01*
X93894491Y-35523284D01*
X93984918Y-35560740D01*
X94012952Y-35576925D01*
X94090602Y-35636509D01*
X94113491Y-35659398D01*
X94173074Y-35737048D01*
X94189259Y-35765081D01*
X94226715Y-35855508D01*
X94235093Y-35886775D01*
X94248939Y-35991940D01*
X94250000Y-36008126D01*
X94250000Y-37241874D01*
X94248939Y-37258060D01*
X94235093Y-37363224D01*
X94226715Y-37394491D01*
X94189259Y-37484918D01*
X94173074Y-37512951D01*
X94113491Y-37590601D01*
X94090601Y-37613491D01*
X94012951Y-37673074D01*
X93984918Y-37689259D01*
X93894491Y-37726715D01*
X93863224Y-37735093D01*
X93769398Y-37747446D01*
X93758058Y-37748939D01*
X93741874Y-37750000D01*
X90000000Y-37750000D01*
X89995984Y-37750528D01*
X89995979Y-37750529D01*
X89878649Y-37765975D01*
X89878641Y-37765977D01*
X89870590Y-37767037D01*
X89863085Y-37770145D01*
X89863080Y-37770147D01*
X89757509Y-37813876D01*
X89757504Y-37813878D01*
X89750000Y-37816987D01*
X89743556Y-37821930D01*
X89743550Y-37821935D01*
X89652894Y-37891499D01*
X89652889Y-37891503D01*
X89646447Y-37896447D01*
X89641503Y-37902889D01*
X89641499Y-37902894D01*
X89571935Y-37993550D01*
X89571930Y-37993556D01*
X89566987Y-38000000D01*
X89563878Y-38007504D01*
X89563876Y-38007509D01*
X89520147Y-38113080D01*
X89520145Y-38113085D01*
X89517037Y-38120590D01*
X89515977Y-38128641D01*
X89515975Y-38128649D01*
X89500529Y-38245979D01*
X89500000Y-38250000D01*
X89500000Y-44500000D01*
X89500528Y-44504016D01*
X89500529Y-44504020D01*
X89515975Y-44621350D01*
X89515976Y-44621356D01*
X89517037Y-44629410D01*
X89566987Y-44750000D01*
X89571933Y-44756446D01*
X89571935Y-44756449D01*
X89641499Y-44847105D01*
X89646447Y-44853553D01*
X89750000Y-44933013D01*
X89870590Y-44982963D01*
X90000000Y-45000000D01*
X91241874Y-45000000D01*
X91258059Y-45001061D01*
X91363223Y-45014906D01*
X91394491Y-45023284D01*
X91484918Y-45060740D01*
X91512952Y-45076925D01*
X91590602Y-45136509D01*
X91613491Y-45159398D01*
X91673074Y-45237048D01*
X91689259Y-45265081D01*
X91726715Y-45355508D01*
X91735093Y-45386775D01*
X91748939Y-45491940D01*
X91750000Y-45508126D01*
X91750000Y-62491874D01*
X91748939Y-62508060D01*
X91735093Y-62613224D01*
X91726715Y-62644491D01*
X91689259Y-62734918D01*
X91673074Y-62762951D01*
X91613491Y-62840601D01*
X91590601Y-62863491D01*
X91512951Y-62923074D01*
X91484918Y-62939259D01*
X91394491Y-62976715D01*
X91363224Y-62985093D01*
X91269398Y-62997446D01*
X91258058Y-62998939D01*
X91241874Y-63000000D01*
X90008126Y-63000000D01*
X89991941Y-62998939D01*
X89978917Y-62997224D01*
X89886775Y-62985093D01*
X89855508Y-62976715D01*
X89765081Y-62939259D01*
X89737048Y-62923074D01*
X89659398Y-62863491D01*
X89636508Y-62840601D01*
X89576925Y-62762951D01*
X89560740Y-62734918D01*
X89523284Y-62644491D01*
X89514906Y-62613223D01*
X89501061Y-62508059D01*
X89500000Y-62491874D01*
X89500000Y-47754053D01*
X89500000Y-47750000D01*
X89482963Y-47620590D01*
X89433013Y-47500000D01*
X89353553Y-47396447D01*
X89347105Y-47391499D01*
X89256449Y-47321935D01*
X89256446Y-47321933D01*
X89250000Y-47316987D01*
X89242491Y-47313876D01*
X89242490Y-47313876D01*
X89136919Y-47270147D01*
X89136916Y-47270146D01*
X89129410Y-47267037D01*
X89121356Y-47265976D01*
X89121350Y-47265975D01*
X89004020Y-47250529D01*
X89004016Y-47250528D01*
X89000000Y-47250000D01*
X88995947Y-47250000D01*
X87758126Y-47250000D01*
X87741941Y-47248939D01*
X87728917Y-47247224D01*
X87636775Y-47235093D01*
X87605508Y-47226715D01*
X87515081Y-47189259D01*
X87487048Y-47173074D01*
X87409398Y-47113491D01*
X87386508Y-47090601D01*
X87326925Y-47012951D01*
X87310740Y-46984918D01*
X87273284Y-46894491D01*
X87264906Y-46863223D01*
X87251061Y-46758059D01*
X87250000Y-46741874D01*
X87250000Y-41254053D01*
X87250000Y-41250000D01*
X87232963Y-41120590D01*
X87183013Y-41000000D01*
X87103553Y-40896447D01*
X87097105Y-40891499D01*
X87006449Y-40821935D01*
X87006446Y-40821933D01*
X87000000Y-40816987D01*
X86992491Y-40813876D01*
X86992490Y-40813876D01*
X86886919Y-40770147D01*
X86886916Y-40770146D01*
X86879410Y-40767037D01*
X86871356Y-40765976D01*
X86871350Y-40765975D01*
X86754020Y-40750529D01*
X86754016Y-40750528D01*
X86750000Y-40750000D01*
X86745947Y-40750000D01*
X77254053Y-40750000D01*
X77250000Y-40750000D01*
X77245984Y-40750528D01*
X77245979Y-40750529D01*
X77128649Y-40765975D01*
X77128641Y-40765977D01*
X77120590Y-40767037D01*
X77113085Y-40770145D01*
X77113080Y-40770147D01*
X77007509Y-40813876D01*
X77007504Y-40813878D01*
X77000000Y-40816987D01*
X76993556Y-40821930D01*
X76993550Y-40821935D01*
X76902894Y-40891499D01*
X76902889Y-40891503D01*
X76896447Y-40896447D01*
X76891503Y-40902889D01*
X76891499Y-40902894D01*
X76821935Y-40993550D01*
X76821930Y-40993556D01*
X76816987Y-41000000D01*
X76813878Y-41007504D01*
X76813876Y-41007509D01*
X76770147Y-41113080D01*
X76770145Y-41113085D01*
X76767037Y-41120590D01*
X76765977Y-41128641D01*
X76765975Y-41128649D01*
X76750529Y-41245979D01*
X76750000Y-41250000D01*
X76750000Y-41254053D01*
X76750000Y-49991874D01*
X76748939Y-50008060D01*
X76735093Y-50113224D01*
X76726715Y-50144491D01*
X76689259Y-50234918D01*
X76673074Y-50262951D01*
X76613491Y-50340601D01*
X76590601Y-50363491D01*
X76512951Y-50423074D01*
X76484918Y-50439259D01*
X76394491Y-50476715D01*
X76363224Y-50485093D01*
X76269398Y-50497446D01*
X76258058Y-50498939D01*
X76241874Y-50500000D01*
X57750000Y-50500000D01*
X57745984Y-50500528D01*
X57745979Y-50500529D01*
X57628649Y-50515975D01*
X57628641Y-50515977D01*
X57620590Y-50517037D01*
X57613085Y-50520145D01*
X57613080Y-50520147D01*
X57507509Y-50563876D01*
X57507504Y-50563878D01*
X57500000Y-50566987D01*
X57493556Y-50571930D01*
X57493550Y-50571935D01*
X57402894Y-50641499D01*
X57402889Y-50641503D01*
X57396447Y-50646447D01*
X57391503Y-50652889D01*
X57391499Y-50652894D01*
X57321935Y-50743550D01*
X57321930Y-50743556D01*
X57316987Y-50750000D01*
X57313878Y-50757504D01*
X57313876Y-50757509D01*
X57270147Y-50863080D01*
X57270145Y-50863085D01*
X57267037Y-50870590D01*
X57265977Y-50878641D01*
X57265975Y-50878649D01*
X57250529Y-50995979D01*
X57250000Y-51000000D01*
X57250000Y-51004053D01*
X57250000Y-68873557D01*
X57233387Y-68935557D01*
X57230409Y-68940713D01*
X57225464Y-68947159D01*
X57222355Y-68954662D01*
X57222354Y-68954666D01*
X57168066Y-69085728D01*
X57168064Y-69085733D01*
X57164956Y-69093238D01*
X57163896Y-69101289D01*
X57163894Y-69101297D01*
X57145702Y-69239482D01*
X57144318Y-69250000D01*
X57145379Y-69258059D01*
X57163894Y-69398702D01*
X57163895Y-69398708D01*
X57164956Y-69406762D01*
X57168065Y-69414268D01*
X57168066Y-69414271D01*
X57222354Y-69545333D01*
X57225464Y-69552841D01*
X57230410Y-69559287D01*
X57233387Y-69564443D01*
X57250000Y-69626443D01*
X57250000Y-69741874D01*
X57248939Y-69758060D01*
X57235093Y-69863224D01*
X57226715Y-69894491D01*
X57189259Y-69984918D01*
X57173074Y-70012951D01*
X57113491Y-70090601D01*
X57090601Y-70113491D01*
X57012951Y-70173074D01*
X56984918Y-70189259D01*
X56894491Y-70226715D01*
X56863224Y-70235093D01*
X56769398Y-70247446D01*
X56758058Y-70248939D01*
X56741874Y-70250000D01*
X55508126Y-70250000D01*
X55491941Y-70248939D01*
X55478917Y-70247224D01*
X55386775Y-70235093D01*
X55355508Y-70226715D01*
X55265081Y-70189259D01*
X55237048Y-70173074D01*
X55159398Y-70113491D01*
X55136508Y-70090601D01*
X55076925Y-70012951D01*
X55060740Y-69984918D01*
X55023284Y-69894491D01*
X55014906Y-69863223D01*
X55001061Y-69758059D01*
X55000000Y-69741874D01*
X55000000Y-48758126D01*
X55001061Y-48741941D01*
X55014906Y-48636776D01*
X55023284Y-48605508D01*
X55060740Y-48515081D01*
X55076923Y-48487050D01*
X55136513Y-48409392D01*
X55159392Y-48386513D01*
X55237050Y-48326923D01*
X55265079Y-48310740D01*
X55355509Y-48273283D01*
X55386775Y-48264906D01*
X55491940Y-48251061D01*
X55508126Y-48250000D01*
X73995947Y-48250000D01*
X74000000Y-48250000D01*
X74129410Y-48232963D01*
X74250000Y-48183013D01*
X74353553Y-48103553D01*
X74433013Y-48000000D01*
X74482963Y-47879410D01*
X74500000Y-47750000D01*
X74500000Y-41250000D01*
X74482963Y-41120590D01*
X74433013Y-41000000D01*
X74353553Y-40896447D01*
X74347105Y-40891499D01*
X74256449Y-40821935D01*
X74256446Y-40821933D01*
X74250000Y-40816987D01*
X74242491Y-40813876D01*
X74242490Y-40813876D01*
X74136919Y-40770147D01*
X74136916Y-40770146D01*
X74129410Y-40767037D01*
X74121356Y-40765976D01*
X74121350Y-40765975D01*
X74004020Y-40750529D01*
X74004016Y-40750528D01*
X74000000Y-40750000D01*
X73995947Y-40750000D01*
X66624256Y-40750000D01*
X66562256Y-40733387D01*
X66516869Y-40688001D01*
X66500256Y-40626001D01*
X66516868Y-40564001D01*
X66519587Y-40559289D01*
X66524536Y-40552841D01*
X66585044Y-40406762D01*
X66605682Y-40250000D01*
X66585044Y-40093238D01*
X66524536Y-39947159D01*
X66428282Y-39821718D01*
X66302841Y-39725464D01*
X66188934Y-39678282D01*
X66164271Y-39668066D01*
X66164268Y-39668065D01*
X66156762Y-39664956D01*
X66148708Y-39663895D01*
X66148702Y-39663894D01*
X66008059Y-39645379D01*
X66000000Y-39644318D01*
X65991941Y-39645379D01*
X65851297Y-39663894D01*
X65851289Y-39663896D01*
X65843238Y-39664956D01*
X65835733Y-39668064D01*
X65835728Y-39668066D01*
X65704666Y-39722354D01*
X65704662Y-39722355D01*
X65697159Y-39725464D01*
X65690714Y-39730408D01*
X65690711Y-39730411D01*
X65578164Y-39816771D01*
X65578160Y-39816774D01*
X65571718Y-39821718D01*
X65566774Y-39828160D01*
X65566771Y-39828164D01*
X65480411Y-39940711D01*
X65480408Y-39940714D01*
X65475464Y-39947159D01*
X65472355Y-39954662D01*
X65472354Y-39954666D01*
X65418066Y-40085728D01*
X65418064Y-40085733D01*
X65414956Y-40093238D01*
X65413896Y-40101289D01*
X65413894Y-40101297D01*
X65395702Y-40239482D01*
X65394318Y-40250000D01*
X65395379Y-40258059D01*
X65413894Y-40398702D01*
X65413895Y-40398708D01*
X65414956Y-40406762D01*
X65418065Y-40414268D01*
X65418066Y-40414271D01*
X65467760Y-40534242D01*
X65475464Y-40552841D01*
X65480411Y-40559288D01*
X65483132Y-40564001D01*
X65499744Y-40626001D01*
X65483131Y-40688001D01*
X65437744Y-40733387D01*
X65375744Y-40750000D01*
X65008126Y-40750000D01*
X64991941Y-40748939D01*
X64978917Y-40747224D01*
X64886775Y-40735093D01*
X64855508Y-40726715D01*
X64765081Y-40689259D01*
X64737048Y-40673074D01*
X64659398Y-40613491D01*
X64636508Y-40590601D01*
X64576925Y-40512951D01*
X64560740Y-40484918D01*
X64523284Y-40394491D01*
X64514906Y-40363223D01*
X64501061Y-40258059D01*
X64500000Y-40241874D01*
X64500000Y-25254053D01*
X64500000Y-25250000D01*
X64482963Y-25120590D01*
X64433013Y-25000000D01*
X64353553Y-24896447D01*
X64347105Y-24891499D01*
X64256449Y-24821935D01*
X64256446Y-24821933D01*
X64250000Y-24816987D01*
X64242491Y-24813876D01*
X64242490Y-24813876D01*
X64136919Y-24770147D01*
X64136916Y-24770146D01*
X64129410Y-24767037D01*
X64121356Y-24765976D01*
X64121350Y-24765975D01*
X64004020Y-24750529D01*
X64004016Y-24750528D01*
X64000000Y-24750000D01*
X63995947Y-24750000D01*
X60758126Y-24750000D01*
X60741941Y-24748939D01*
X60728917Y-24747224D01*
X60636775Y-24735093D01*
X60605508Y-24726715D01*
X60515081Y-24689259D01*
X60487048Y-24673074D01*
X60409398Y-24613491D01*
X60386508Y-24590601D01*
X60326925Y-24512951D01*
X60310740Y-24484918D01*
X60273284Y-24394491D01*
X60264906Y-24363223D01*
X60251061Y-24258059D01*
X60250000Y-24241874D01*
X60250000Y-15258126D01*
X60251061Y-15241941D01*
X60264906Y-15136776D01*
X60273284Y-15105508D01*
X60310740Y-15015081D01*
X60326923Y-14987050D01*
X60386513Y-14909392D01*
X60409392Y-14886513D01*
X60487050Y-14826923D01*
X60515079Y-14810740D01*
X60605509Y-14773283D01*
X60636775Y-14764906D01*
X60741940Y-14751061D01*
X60758126Y-14750000D01*
X61495947Y-14750000D01*
X61500000Y-14750000D01*
X61629410Y-14732963D01*
X61750000Y-14683013D01*
X61853553Y-14603553D01*
X61933013Y-14500000D01*
X61982963Y-14379410D01*
X62000000Y-14250000D01*
X62000000Y-12250000D01*
X61982963Y-12120590D01*
X61933013Y-12000000D01*
X61853553Y-11896447D01*
X61847105Y-11891499D01*
X61756449Y-11821935D01*
X61756446Y-11821933D01*
X61750000Y-11816987D01*
X61742491Y-11813876D01*
X61742490Y-11813876D01*
X61636919Y-11770147D01*
X61636916Y-11770146D01*
X61629410Y-11767037D01*
X61621356Y-11765976D01*
X61621350Y-11765975D01*
X61504020Y-11750529D01*
X61504016Y-11750528D01*
X61500000Y-11750000D01*
X61495947Y-11750000D01*
X38754053Y-11750000D01*
X38750000Y-11750000D01*
X38745984Y-11750528D01*
X38745979Y-11750529D01*
X38628649Y-11765975D01*
X38628641Y-11765977D01*
X38620590Y-11767037D01*
X38613085Y-11770145D01*
X38613080Y-11770147D01*
X38507509Y-11813876D01*
X38507504Y-11813878D01*
X38500000Y-11816987D01*
X38493556Y-11821930D01*
X38493550Y-11821935D01*
X38402894Y-11891499D01*
X38402889Y-11891503D01*
X38396447Y-11896447D01*
X38391503Y-11902889D01*
X38391499Y-11902894D01*
X38321935Y-11993550D01*
X38321930Y-11993556D01*
X38316987Y-12000000D01*
X38313878Y-12007504D01*
X38313876Y-12007509D01*
X38270147Y-12113080D01*
X38270145Y-12113085D01*
X38267037Y-12120590D01*
X38265977Y-12128641D01*
X38265975Y-12128649D01*
X38250529Y-12245979D01*
X38250000Y-12250000D01*
X38250000Y-12254053D01*
X38250000Y-26241874D01*
X38248939Y-26258060D01*
X38235093Y-26363224D01*
X38226715Y-26394491D01*
X38189259Y-26484918D01*
X38173074Y-26512951D01*
X38113491Y-26590601D01*
X38090601Y-26613491D01*
X38012951Y-26673074D01*
X37984918Y-26689259D01*
X37894491Y-26726715D01*
X37863224Y-26735093D01*
X37769398Y-26747446D01*
X37758058Y-26748939D01*
X37741874Y-26750000D01*
X36508126Y-26750000D01*
X36491941Y-26748939D01*
X36478917Y-26747224D01*
X36386775Y-26735093D01*
X36355508Y-26726715D01*
X36265081Y-26689259D01*
X36237048Y-26673074D01*
X36159398Y-26613491D01*
X36136508Y-26590601D01*
X36076925Y-26512951D01*
X36060740Y-26484918D01*
X36023284Y-26394491D01*
X36014906Y-26363223D01*
X36001061Y-26258059D01*
X36000000Y-26241874D01*
X36000000Y-24254053D01*
X36000000Y-24250000D01*
X35982963Y-24120590D01*
X35933013Y-24000000D01*
X35853553Y-23896447D01*
X35847105Y-23891499D01*
X35756449Y-23821935D01*
X35756446Y-23821933D01*
X35750000Y-23816987D01*
X35742491Y-23813876D01*
X35742490Y-23813876D01*
X35636919Y-23770147D01*
X35636916Y-23770146D01*
X35629410Y-23767037D01*
X35621356Y-23765976D01*
X35621350Y-23765975D01*
X35504020Y-23750529D01*
X35504016Y-23750528D01*
X35500000Y-23750000D01*
X35495947Y-23750000D01*
X34258126Y-23750000D01*
X34241941Y-23748939D01*
X34228917Y-23747224D01*
X34136775Y-23735093D01*
X34105508Y-23726715D01*
X34015081Y-23689259D01*
X33987048Y-23673074D01*
X33909398Y-23613491D01*
X33886508Y-23590601D01*
X33826925Y-23512951D01*
X33810740Y-23484918D01*
X33773284Y-23394491D01*
X33764906Y-23363223D01*
X33751061Y-23258059D01*
X33750000Y-23241874D01*
X33750000Y-20754053D01*
X33750000Y-20750000D01*
X33732963Y-20620590D01*
X33683013Y-20500000D01*
X33603553Y-20396447D01*
X33597105Y-20391499D01*
X33506449Y-20321935D01*
X33506446Y-20321933D01*
X33500000Y-20316987D01*
X33492491Y-20313876D01*
X33492490Y-20313876D01*
X33386919Y-20270147D01*
X33386916Y-20270146D01*
X33379410Y-20267037D01*
X33371356Y-20265976D01*
X33371350Y-20265975D01*
X33254020Y-20250529D01*
X33254016Y-20250528D01*
X33250000Y-20250000D01*
X33245947Y-20250000D01*
X27258126Y-20250000D01*
X27241941Y-20248939D01*
X27228917Y-20247224D01*
X27136775Y-20235093D01*
X27105508Y-20226715D01*
X27015081Y-20189259D01*
X26987048Y-20173074D01*
X26909398Y-20113491D01*
X26886508Y-20090601D01*
X26826925Y-20012951D01*
X26810740Y-19984918D01*
X26773284Y-19894491D01*
X26764906Y-19863223D01*
X26751061Y-19758059D01*
X26750000Y-19741874D01*
X26750000Y-19258126D01*
X26751061Y-19241941D01*
X26764906Y-19136776D01*
X26773284Y-19105508D01*
X26810740Y-19015081D01*
X26826923Y-18987050D01*
X26886513Y-18909392D01*
X26909392Y-18886513D01*
X26987050Y-18826923D01*
X27015079Y-18810740D01*
X27105509Y-18773283D01*
X27136775Y-18764906D01*
X27241940Y-18751061D01*
X27258126Y-18750000D01*
X35495947Y-18750000D01*
X35500000Y-18750000D01*
X35629410Y-18732963D01*
X35750000Y-18683013D01*
X35853553Y-18603553D01*
X35933013Y-18500000D01*
X35982963Y-18379410D01*
X36000000Y-18250000D01*
X36000000Y-10008126D01*
X36001061Y-9991941D01*
X36014906Y-9886776D01*
X36023284Y-9855508D01*
X36060740Y-9765081D01*
X36076923Y-9737050D01*
X36136513Y-9659392D01*
X36159392Y-9636513D01*
X36237050Y-9576923D01*
X36265079Y-9560740D01*
X36355509Y-9523283D01*
X36386775Y-9514906D01*
X36491940Y-9501061D01*
X36508126Y-9500000D01*
X63741874Y-9500000D01*
X63758059Y-9501061D01*
G37*
%TD.AperFunction*%
%TD*%
%TA.AperFunction,Conductor*%
%TO.N,+3V3*%
G36*
X89582450Y-16516836D02*
G01*
X89635703Y-16563538D01*
X89661373Y-16629552D01*
X89664956Y-16656762D01*
X89668690Y-16665778D01*
X89668692Y-16665783D01*
X89711081Y-16768118D01*
X89725464Y-16802841D01*
X89731408Y-16810587D01*
X89731409Y-16810589D01*
X89807148Y-16909295D01*
X89834406Y-16967751D01*
X89834406Y-17032249D01*
X89807148Y-17090705D01*
X89731409Y-17189410D01*
X89731405Y-17189415D01*
X89725464Y-17197159D01*
X89721727Y-17206178D01*
X89721726Y-17206182D01*
X89668692Y-17334216D01*
X89668690Y-17334223D01*
X89664956Y-17343238D01*
X89663681Y-17352917D01*
X89663681Y-17352920D01*
X89661992Y-17365749D01*
X89644318Y-17500000D01*
X89664956Y-17656762D01*
X89668690Y-17665778D01*
X89668692Y-17665783D01*
X89714585Y-17776578D01*
X89725464Y-17802841D01*
X89731408Y-17810587D01*
X89731409Y-17810589D01*
X89811866Y-17915443D01*
X89821718Y-17928282D01*
X89947159Y-18024536D01*
X90093238Y-18085044D01*
X90250000Y-18105682D01*
X90406762Y-18085044D01*
X90462776Y-18061841D01*
X90519796Y-18050500D01*
X91480204Y-18050500D01*
X91537223Y-18061841D01*
X91593238Y-18085044D01*
X91750000Y-18105682D01*
X91906762Y-18085044D01*
X92052841Y-18024536D01*
X92178282Y-17928282D01*
X92274536Y-17802841D01*
X92335044Y-17656762D01*
X92355682Y-17500000D01*
X92335044Y-17343238D01*
X92320215Y-17307438D01*
X92308925Y-17246521D01*
X92323389Y-17186275D01*
X92361107Y-17137120D01*
X92415557Y-17107556D01*
X92477321Y-17102696D01*
X92500000Y-17105682D01*
X92656762Y-17085044D01*
X92802841Y-17024536D01*
X92928282Y-16928282D01*
X93024536Y-16802841D01*
X93085044Y-16656762D01*
X93088626Y-16629552D01*
X93114297Y-16563538D01*
X93167550Y-16516836D01*
X93236351Y-16500000D01*
X98007329Y-16500000D01*
X98068822Y-16513281D01*
X98119353Y-16550757D01*
X98149913Y-16605747D01*
X98155054Y-16668447D01*
X98151880Y-16692559D01*
X98144318Y-16750000D01*
X98145593Y-16759685D01*
X98163485Y-16895593D01*
X98164956Y-16906762D01*
X98168690Y-16915778D01*
X98168692Y-16915783D01*
X98221726Y-17043817D01*
X98225464Y-17052841D01*
X98231408Y-17060587D01*
X98231409Y-17060589D01*
X98250174Y-17085044D01*
X98321718Y-17178282D01*
X98447159Y-17274536D01*
X98593238Y-17335044D01*
X98750000Y-17355682D01*
X98751806Y-17355444D01*
X98803613Y-17365749D01*
X98851952Y-17398048D01*
X98884251Y-17446387D01*
X98894555Y-17498193D01*
X98894318Y-17500000D01*
X98914956Y-17656762D01*
X98918690Y-17665778D01*
X98918692Y-17665783D01*
X98964585Y-17776578D01*
X98975464Y-17802841D01*
X98981408Y-17810587D01*
X98981409Y-17810589D01*
X99061866Y-17915443D01*
X99071718Y-17928282D01*
X99197159Y-18024536D01*
X99343238Y-18085044D01*
X99500000Y-18105682D01*
X99656762Y-18085044D01*
X99712776Y-18061841D01*
X99769796Y-18050500D01*
X105730204Y-18050500D01*
X105787223Y-18061841D01*
X105843238Y-18085044D01*
X106000000Y-18105682D01*
X106156762Y-18085044D01*
X106302841Y-18024536D01*
X106428282Y-17928282D01*
X106524536Y-17802841D01*
X106585044Y-17656762D01*
X106605682Y-17500000D01*
X106585044Y-17343238D01*
X106524536Y-17197159D01*
X106442850Y-17090704D01*
X106415593Y-17032249D01*
X106415593Y-16967751D01*
X106442851Y-16909295D01*
X106454343Y-16894318D01*
X106524536Y-16802841D01*
X106585044Y-16656762D01*
X106588626Y-16629552D01*
X106614297Y-16563538D01*
X106667550Y-16516836D01*
X106736351Y-16500000D01*
X111740237Y-16500000D01*
X111759684Y-16501274D01*
X111859962Y-16514476D01*
X111897529Y-16524542D01*
X111981878Y-16559480D01*
X112015560Y-16578927D01*
X112087994Y-16634508D01*
X112115491Y-16662005D01*
X112171071Y-16734437D01*
X112190519Y-16768122D01*
X112225456Y-16852467D01*
X112235523Y-16890038D01*
X112248725Y-16990314D01*
X112250000Y-17009763D01*
X112250000Y-46740237D01*
X112248725Y-46759686D01*
X112235523Y-46859961D01*
X112225456Y-46897532D01*
X112190519Y-46981877D01*
X112171071Y-47015562D01*
X112115495Y-47087990D01*
X112087990Y-47115495D01*
X112015562Y-47171071D01*
X111981877Y-47190519D01*
X111897532Y-47225456D01*
X111859961Y-47235523D01*
X111786184Y-47245236D01*
X111759683Y-47248725D01*
X111740237Y-47250000D01*
X108986351Y-47250000D01*
X108917550Y-47233164D01*
X108864297Y-47186462D01*
X108838626Y-47120447D01*
X108837974Y-47115495D01*
X108835044Y-47093238D01*
X108774536Y-46947159D01*
X108678282Y-46821718D01*
X108646843Y-46797594D01*
X108560589Y-46731409D01*
X108560587Y-46731408D01*
X108552841Y-46725464D01*
X108543817Y-46721726D01*
X108415783Y-46668692D01*
X108415778Y-46668690D01*
X108406762Y-46664956D01*
X108397080Y-46663681D01*
X108397079Y-46663681D01*
X108259685Y-46645593D01*
X108250000Y-46644318D01*
X108240315Y-46645593D01*
X108102920Y-46663681D01*
X108102917Y-46663681D01*
X108093238Y-46664956D01*
X108084223Y-46668690D01*
X108084216Y-46668692D01*
X107956182Y-46721726D01*
X107956178Y-46721727D01*
X107947159Y-46725464D01*
X107939415Y-46731405D01*
X107939410Y-46731409D01*
X107829467Y-46815771D01*
X107829462Y-46815775D01*
X107821718Y-46821718D01*
X107815775Y-46829462D01*
X107815771Y-46829467D01*
X107731409Y-46939410D01*
X107731405Y-46939415D01*
X107725464Y-46947159D01*
X107721727Y-46956178D01*
X107721726Y-46956182D01*
X107668692Y-47084216D01*
X107668690Y-47084223D01*
X107664956Y-47093238D01*
X107663681Y-47102919D01*
X107663681Y-47102921D01*
X107661374Y-47120447D01*
X107635703Y-47186462D01*
X107582450Y-47233164D01*
X107513649Y-47250000D01*
X103242671Y-47250000D01*
X103181178Y-47236719D01*
X103130647Y-47199243D01*
X103100087Y-47144253D01*
X103094946Y-47081553D01*
X103104407Y-47009686D01*
X103104407Y-47009685D01*
X103105682Y-47000000D01*
X103085044Y-46843238D01*
X103024536Y-46697159D01*
X102928282Y-46571718D01*
X102802841Y-46475464D01*
X102793817Y-46471726D01*
X102665783Y-46418692D01*
X102665778Y-46418690D01*
X102656762Y-46414956D01*
X102647080Y-46413681D01*
X102647079Y-46413681D01*
X102509685Y-46395593D01*
X102500000Y-46394318D01*
X102490315Y-46395593D01*
X102352920Y-46413681D01*
X102352917Y-46413681D01*
X102343238Y-46414956D01*
X102334223Y-46418690D01*
X102334216Y-46418692D01*
X102206182Y-46471726D01*
X102206178Y-46471727D01*
X102197159Y-46475464D01*
X102189415Y-46481405D01*
X102189410Y-46481409D01*
X102079467Y-46565771D01*
X102079462Y-46565775D01*
X102071718Y-46571718D01*
X102065775Y-46579462D01*
X102065771Y-46579467D01*
X101981409Y-46689410D01*
X101981405Y-46689415D01*
X101975464Y-46697159D01*
X101971727Y-46706178D01*
X101971726Y-46706182D01*
X101918692Y-46834216D01*
X101918690Y-46834223D01*
X101914956Y-46843238D01*
X101913681Y-46852917D01*
X101913681Y-46852920D01*
X101900087Y-46956182D01*
X101894318Y-47000000D01*
X101895593Y-47009685D01*
X101895593Y-47009686D01*
X101905054Y-47081553D01*
X101899913Y-47144253D01*
X101869353Y-47199243D01*
X101818822Y-47236719D01*
X101757329Y-47250000D01*
X97509763Y-47250000D01*
X97490316Y-47248725D01*
X97457235Y-47244370D01*
X97390038Y-47235523D01*
X97352467Y-47225456D01*
X97268122Y-47190519D01*
X97234437Y-47171071D01*
X97162005Y-47115491D01*
X97134508Y-47087994D01*
X97078927Y-47015560D01*
X97059480Y-46981877D01*
X97024543Y-46897532D01*
X97014476Y-46859962D01*
X97001274Y-46759684D01*
X97000000Y-46740237D01*
X97000000Y-45165864D01*
X97017594Y-45095626D01*
X97066220Y-45041975D01*
X97134396Y-45017581D01*
X97206018Y-45028205D01*
X97343238Y-45085044D01*
X97500000Y-45105682D01*
X97656762Y-45085044D01*
X97802841Y-45024536D01*
X97928282Y-44928282D01*
X98024536Y-44802841D01*
X98046423Y-44750000D01*
X107144318Y-44750000D01*
X107145593Y-44759685D01*
X107150086Y-44793817D01*
X107164956Y-44906762D01*
X107168690Y-44915778D01*
X107168692Y-44915783D01*
X107220963Y-45041975D01*
X107225464Y-45052841D01*
X107231408Y-45060587D01*
X107231409Y-45060589D01*
X107249601Y-45084297D01*
X107321718Y-45178282D01*
X107447159Y-45274536D01*
X107593238Y-45335044D01*
X107750000Y-45355682D01*
X107906762Y-45335044D01*
X108052841Y-45274536D01*
X108178282Y-45178282D01*
X108274536Y-45052841D01*
X108335044Y-44906762D01*
X108355682Y-44750000D01*
X108335044Y-44593238D01*
X108274536Y-44447159D01*
X108178282Y-44321718D01*
X108151004Y-44300787D01*
X108060589Y-44231409D01*
X108060587Y-44231408D01*
X108052841Y-44225464D01*
X108043817Y-44221726D01*
X107915783Y-44168692D01*
X107915778Y-44168690D01*
X107906762Y-44164956D01*
X107897080Y-44163681D01*
X107897079Y-44163681D01*
X107759685Y-44145593D01*
X107750000Y-44144318D01*
X107740315Y-44145593D01*
X107602920Y-44163681D01*
X107602917Y-44163681D01*
X107593238Y-44164956D01*
X107584223Y-44168690D01*
X107584216Y-44168692D01*
X107456182Y-44221726D01*
X107456178Y-44221727D01*
X107447159Y-44225464D01*
X107439415Y-44231405D01*
X107439410Y-44231409D01*
X107329467Y-44315771D01*
X107329462Y-44315775D01*
X107321718Y-44321718D01*
X107315775Y-44329462D01*
X107315771Y-44329467D01*
X107231409Y-44439410D01*
X107231405Y-44439415D01*
X107225464Y-44447159D01*
X107221727Y-44456178D01*
X107221726Y-44456182D01*
X107168692Y-44584216D01*
X107168690Y-44584223D01*
X107164956Y-44593238D01*
X107163681Y-44602917D01*
X107163681Y-44602920D01*
X107156593Y-44656762D01*
X107144318Y-44750000D01*
X98046423Y-44750000D01*
X98085044Y-44656762D01*
X98105682Y-44500000D01*
X98085044Y-44343238D01*
X98024536Y-44197159D01*
X97928282Y-44071718D01*
X97866793Y-44024536D01*
X97810589Y-43981409D01*
X97810587Y-43981408D01*
X97802841Y-43975464D01*
X97760740Y-43958025D01*
X97665783Y-43918692D01*
X97665778Y-43918690D01*
X97656762Y-43914956D01*
X97647080Y-43913681D01*
X97647079Y-43913681D01*
X97509685Y-43895593D01*
X97500000Y-43894318D01*
X97490315Y-43895593D01*
X97352920Y-43913681D01*
X97352917Y-43913681D01*
X97343238Y-43914956D01*
X97334223Y-43918690D01*
X97334216Y-43918692D01*
X97239260Y-43958025D01*
X97206018Y-43971794D01*
X97134396Y-43982419D01*
X97066220Y-43958025D01*
X97017594Y-43904374D01*
X97000000Y-43834136D01*
X97000000Y-42250000D01*
X107394318Y-42250000D01*
X107414956Y-42406762D01*
X107418690Y-42415778D01*
X107418692Y-42415783D01*
X107471726Y-42543817D01*
X107475464Y-42552841D01*
X107481408Y-42560587D01*
X107481409Y-42560589D01*
X107565771Y-42670532D01*
X107571718Y-42678282D01*
X107697159Y-42774536D01*
X107843238Y-42835044D01*
X108000000Y-42855682D01*
X108156762Y-42835044D01*
X108302841Y-42774536D01*
X108428282Y-42678282D01*
X108524536Y-42552841D01*
X108585044Y-42406762D01*
X108605682Y-42250000D01*
X108585044Y-42093238D01*
X108524536Y-41947159D01*
X108428282Y-41821718D01*
X108367221Y-41774864D01*
X108310589Y-41731409D01*
X108310587Y-41731408D01*
X108302841Y-41725464D01*
X108293817Y-41721726D01*
X108165783Y-41668692D01*
X108165778Y-41668690D01*
X108156762Y-41664956D01*
X108147080Y-41663681D01*
X108147079Y-41663681D01*
X108009685Y-41645593D01*
X108000000Y-41644318D01*
X107990315Y-41645593D01*
X107852920Y-41663681D01*
X107852917Y-41663681D01*
X107843238Y-41664956D01*
X107834223Y-41668690D01*
X107834216Y-41668692D01*
X107706182Y-41721726D01*
X107706178Y-41721727D01*
X107697159Y-41725464D01*
X107689415Y-41731405D01*
X107689410Y-41731409D01*
X107579467Y-41815771D01*
X107579462Y-41815775D01*
X107571718Y-41821718D01*
X107565775Y-41829462D01*
X107565771Y-41829467D01*
X107481409Y-41939410D01*
X107481405Y-41939415D01*
X107475464Y-41947159D01*
X107471727Y-41956178D01*
X107471726Y-41956182D01*
X107418692Y-42084216D01*
X107418690Y-42084223D01*
X107414956Y-42093238D01*
X107394318Y-42250000D01*
X97000000Y-42250000D01*
X97000000Y-40165864D01*
X97017594Y-40095626D01*
X97066220Y-40041975D01*
X97134396Y-40017581D01*
X97206018Y-40028205D01*
X97343238Y-40085044D01*
X97500000Y-40105682D01*
X97656762Y-40085044D01*
X97802841Y-40024536D01*
X97928282Y-39928282D01*
X98024536Y-39802841D01*
X98085044Y-39656762D01*
X98105682Y-39500000D01*
X98085044Y-39343238D01*
X98024536Y-39197159D01*
X97928282Y-39071718D01*
X97802841Y-38975464D01*
X97760740Y-38958025D01*
X97665783Y-38918692D01*
X97665778Y-38918690D01*
X97656762Y-38914956D01*
X97647080Y-38913681D01*
X97647079Y-38913681D01*
X97509685Y-38895593D01*
X97500000Y-38894318D01*
X97490315Y-38895593D01*
X97352920Y-38913681D01*
X97352917Y-38913681D01*
X97343238Y-38914956D01*
X97334223Y-38918690D01*
X97334216Y-38918692D01*
X97239260Y-38958025D01*
X97206018Y-38971794D01*
X97134396Y-38982419D01*
X97066220Y-38958025D01*
X97017594Y-38904374D01*
X97000000Y-38834136D01*
X97000000Y-38000000D01*
X101144318Y-38000000D01*
X101145593Y-38009685D01*
X101151538Y-38054846D01*
X101164956Y-38156762D01*
X101168690Y-38165778D01*
X101168692Y-38165783D01*
X101191781Y-38221523D01*
X101225464Y-38302841D01*
X101231408Y-38310587D01*
X101231409Y-38310589D01*
X101315771Y-38420532D01*
X101321718Y-38428282D01*
X101447159Y-38524536D01*
X101593238Y-38585044D01*
X101750000Y-38605682D01*
X101906762Y-38585044D01*
X102052841Y-38524536D01*
X102178282Y-38428282D01*
X102274536Y-38302841D01*
X102335044Y-38156762D01*
X102355682Y-38000000D01*
X104394318Y-38000000D01*
X104395593Y-38009685D01*
X104401538Y-38054846D01*
X104414956Y-38156762D01*
X104418690Y-38165778D01*
X104418692Y-38165783D01*
X104441781Y-38221523D01*
X104475464Y-38302841D01*
X104481408Y-38310587D01*
X104481409Y-38310589D01*
X104565771Y-38420532D01*
X104571718Y-38428282D01*
X104697159Y-38524536D01*
X104843238Y-38585044D01*
X105000000Y-38605682D01*
X105156762Y-38585044D01*
X105302841Y-38524536D01*
X105428282Y-38428282D01*
X105524536Y-38302841D01*
X105585044Y-38156762D01*
X105605682Y-38000000D01*
X105585044Y-37843238D01*
X105579358Y-37829512D01*
X105528273Y-37706182D01*
X105524536Y-37697159D01*
X105428282Y-37571718D01*
X105302841Y-37475464D01*
X105293817Y-37471726D01*
X105165783Y-37418692D01*
X105165778Y-37418690D01*
X105156762Y-37414956D01*
X105147080Y-37413681D01*
X105147079Y-37413681D01*
X105009685Y-37395593D01*
X105000000Y-37394318D01*
X104990315Y-37395593D01*
X104852920Y-37413681D01*
X104852917Y-37413681D01*
X104843238Y-37414956D01*
X104834223Y-37418690D01*
X104834216Y-37418692D01*
X104706182Y-37471726D01*
X104706178Y-37471727D01*
X104697159Y-37475464D01*
X104689415Y-37481405D01*
X104689410Y-37481409D01*
X104579467Y-37565771D01*
X104579462Y-37565775D01*
X104571718Y-37571718D01*
X104565775Y-37579462D01*
X104565771Y-37579467D01*
X104481409Y-37689410D01*
X104481405Y-37689415D01*
X104475464Y-37697159D01*
X104471727Y-37706178D01*
X104471726Y-37706182D01*
X104418692Y-37834216D01*
X104418690Y-37834223D01*
X104414956Y-37843238D01*
X104413681Y-37852917D01*
X104413681Y-37852920D01*
X104396954Y-37979980D01*
X104394318Y-38000000D01*
X102355682Y-38000000D01*
X102335044Y-37843238D01*
X102329358Y-37829512D01*
X102278273Y-37706182D01*
X102274536Y-37697159D01*
X102178282Y-37571718D01*
X102052841Y-37475464D01*
X102043817Y-37471726D01*
X101915783Y-37418692D01*
X101915778Y-37418690D01*
X101906762Y-37414956D01*
X101897080Y-37413681D01*
X101897079Y-37413681D01*
X101759685Y-37395593D01*
X101750000Y-37394318D01*
X101740315Y-37395593D01*
X101602920Y-37413681D01*
X101602917Y-37413681D01*
X101593238Y-37414956D01*
X101584223Y-37418690D01*
X101584216Y-37418692D01*
X101456182Y-37471726D01*
X101456178Y-37471727D01*
X101447159Y-37475464D01*
X101439415Y-37481405D01*
X101439410Y-37481409D01*
X101329467Y-37565771D01*
X101329462Y-37565775D01*
X101321718Y-37571718D01*
X101315775Y-37579462D01*
X101315771Y-37579467D01*
X101231409Y-37689410D01*
X101231405Y-37689415D01*
X101225464Y-37697159D01*
X101221727Y-37706178D01*
X101221726Y-37706182D01*
X101168692Y-37834216D01*
X101168690Y-37834223D01*
X101164956Y-37843238D01*
X101163681Y-37852917D01*
X101163681Y-37852920D01*
X101146954Y-37979980D01*
X101144318Y-38000000D01*
X97000000Y-38000000D01*
X97000000Y-26004881D01*
X97000000Y-26000000D01*
X96982963Y-25870590D01*
X96933013Y-25750000D01*
X96853553Y-25646447D01*
X96750000Y-25566987D01*
X96735680Y-25561055D01*
X96638431Y-25520773D01*
X96638426Y-25520771D01*
X96629410Y-25517037D01*
X96619728Y-25515762D01*
X96619727Y-25515762D01*
X96504841Y-25500637D01*
X96504836Y-25500636D01*
X96500000Y-25500000D01*
X96495119Y-25500000D01*
X79009763Y-25500000D01*
X78990316Y-25498725D01*
X78957235Y-25494370D01*
X78890038Y-25485523D01*
X78852467Y-25475456D01*
X78768122Y-25440519D01*
X78734437Y-25421071D01*
X78662005Y-25365491D01*
X78634508Y-25337994D01*
X78578927Y-25265560D01*
X78559480Y-25231877D01*
X78524543Y-25147532D01*
X78514476Y-25109960D01*
X78501275Y-25009685D01*
X78500000Y-24990237D01*
X78500000Y-24000000D01*
X89644318Y-24000000D01*
X89645593Y-24009685D01*
X89651538Y-24054846D01*
X89664956Y-24156762D01*
X89668690Y-24165778D01*
X89668692Y-24165783D01*
X89683007Y-24200342D01*
X89725464Y-24302841D01*
X89821718Y-24428282D01*
X89947159Y-24524536D01*
X90093238Y-24585044D01*
X90250000Y-24605682D01*
X90406762Y-24585044D01*
X90462776Y-24561841D01*
X90519796Y-24550500D01*
X96480204Y-24550500D01*
X96537223Y-24561841D01*
X96593238Y-24585044D01*
X96750000Y-24605682D01*
X96906762Y-24585044D01*
X97052841Y-24524536D01*
X97178282Y-24428282D01*
X97274536Y-24302841D01*
X97335044Y-24156762D01*
X97355682Y-24000000D01*
X97355444Y-23998193D01*
X97365749Y-23946387D01*
X97398048Y-23898048D01*
X97446387Y-23865749D01*
X97498193Y-23855444D01*
X97500000Y-23855682D01*
X97656762Y-23835044D01*
X97802841Y-23774536D01*
X97928282Y-23678282D01*
X98024536Y-23552841D01*
X98085044Y-23406762D01*
X98105682Y-23250000D01*
X98085044Y-23093238D01*
X98024536Y-22947159D01*
X97928282Y-22821718D01*
X97802841Y-22725464D01*
X97793817Y-22721726D01*
X97665783Y-22668692D01*
X97665778Y-22668690D01*
X97656762Y-22664956D01*
X97647080Y-22663681D01*
X97647079Y-22663681D01*
X97509685Y-22645593D01*
X97500000Y-22644318D01*
X97490315Y-22645593D01*
X97352920Y-22663681D01*
X97352917Y-22663681D01*
X97343238Y-22664956D01*
X97334223Y-22668690D01*
X97334216Y-22668692D01*
X97206182Y-22721726D01*
X97206178Y-22721727D01*
X97197159Y-22725464D01*
X97189415Y-22731405D01*
X97189410Y-22731409D01*
X97079467Y-22815771D01*
X97079462Y-22815775D01*
X97071718Y-22821718D01*
X97065775Y-22829462D01*
X97065771Y-22829467D01*
X96981409Y-22939410D01*
X96981405Y-22939415D01*
X96975464Y-22947159D01*
X96971727Y-22956178D01*
X96971726Y-22956182D01*
X96918692Y-23084216D01*
X96918690Y-23084223D01*
X96914956Y-23093238D01*
X96913681Y-23102917D01*
X96913681Y-23102920D01*
X96906593Y-23156762D01*
X96894318Y-23250000D01*
X96894555Y-23251806D01*
X96884251Y-23303613D01*
X96851952Y-23351952D01*
X96803613Y-23384251D01*
X96751806Y-23394555D01*
X96750000Y-23394318D01*
X96740315Y-23395593D01*
X96602920Y-23413681D01*
X96602917Y-23413681D01*
X96593238Y-23414956D01*
X96584223Y-23418690D01*
X96584216Y-23418692D01*
X96537224Y-23438158D01*
X96480204Y-23449500D01*
X90936782Y-23449500D01*
X90866544Y-23431906D01*
X90812893Y-23383280D01*
X90788499Y-23315104D01*
X90799124Y-23243480D01*
X90831307Y-23165783D01*
X90835044Y-23156762D01*
X90855682Y-23000000D01*
X90835044Y-22843238D01*
X90774536Y-22697159D01*
X90678282Y-22571718D01*
X90670532Y-22565771D01*
X90560589Y-22481409D01*
X90560587Y-22481408D01*
X90552841Y-22475464D01*
X90543817Y-22471726D01*
X90415783Y-22418692D01*
X90415778Y-22418690D01*
X90406762Y-22414956D01*
X90397080Y-22413681D01*
X90397079Y-22413681D01*
X90259685Y-22395593D01*
X90250000Y-22394318D01*
X90240315Y-22395593D01*
X90102920Y-22413681D01*
X90102917Y-22413681D01*
X90093238Y-22414956D01*
X90084223Y-22418690D01*
X90084216Y-22418692D01*
X89956182Y-22471726D01*
X89956178Y-22471727D01*
X89947159Y-22475464D01*
X89939415Y-22481405D01*
X89939410Y-22481409D01*
X89829467Y-22565771D01*
X89829462Y-22565775D01*
X89821718Y-22571718D01*
X89815775Y-22579462D01*
X89815771Y-22579467D01*
X89731409Y-22689410D01*
X89731405Y-22689415D01*
X89725464Y-22697159D01*
X89721727Y-22706178D01*
X89721726Y-22706182D01*
X89668692Y-22834216D01*
X89668690Y-22834223D01*
X89664956Y-22843238D01*
X89663681Y-22852917D01*
X89663681Y-22852920D01*
X89650629Y-22952062D01*
X89644318Y-23000000D01*
X89645593Y-23009685D01*
X89657867Y-23102920D01*
X89664956Y-23156762D01*
X89668690Y-23165778D01*
X89668692Y-23165783D01*
X89707588Y-23259685D01*
X89725464Y-23302841D01*
X89731408Y-23310587D01*
X89731409Y-23310589D01*
X89807148Y-23409295D01*
X89834406Y-23467751D01*
X89834406Y-23532249D01*
X89807148Y-23590705D01*
X89731409Y-23689410D01*
X89731405Y-23689415D01*
X89725464Y-23697159D01*
X89721727Y-23706178D01*
X89721726Y-23706182D01*
X89668692Y-23834216D01*
X89668690Y-23834223D01*
X89664956Y-23843238D01*
X89663681Y-23852917D01*
X89663681Y-23852920D01*
X89645593Y-23990315D01*
X89644318Y-24000000D01*
X78500000Y-24000000D01*
X78500000Y-20750000D01*
X89644318Y-20750000D01*
X89664956Y-20906762D01*
X89668690Y-20915778D01*
X89668692Y-20915783D01*
X89721726Y-21043817D01*
X89725464Y-21052841D01*
X89821718Y-21178282D01*
X89947159Y-21274536D01*
X90093238Y-21335044D01*
X90250000Y-21355682D01*
X90406762Y-21335044D01*
X90462776Y-21311841D01*
X90519796Y-21300500D01*
X93980204Y-21300500D01*
X94037223Y-21311841D01*
X94093238Y-21335044D01*
X94250000Y-21355682D01*
X94406762Y-21335044D01*
X94552841Y-21274536D01*
X94678282Y-21178282D01*
X94774536Y-21052841D01*
X94835044Y-20906762D01*
X94855682Y-20750000D01*
X94855444Y-20748193D01*
X94865749Y-20696387D01*
X94898048Y-20648048D01*
X94946387Y-20615749D01*
X94998193Y-20605444D01*
X95000000Y-20605682D01*
X95156762Y-20585044D01*
X95302841Y-20524536D01*
X95428282Y-20428282D01*
X95524536Y-20302841D01*
X95585044Y-20156762D01*
X95605682Y-20000000D01*
X100644318Y-20000000D01*
X100645593Y-20009685D01*
X100663485Y-20145593D01*
X100664956Y-20156762D01*
X100668690Y-20165778D01*
X100668692Y-20165783D01*
X100714585Y-20276578D01*
X100725464Y-20302841D01*
X100821718Y-20428282D01*
X100947159Y-20524536D01*
X101093238Y-20585044D01*
X101250000Y-20605682D01*
X101251806Y-20605444D01*
X101303613Y-20615749D01*
X101351952Y-20648048D01*
X101384251Y-20696387D01*
X101394555Y-20748193D01*
X101394318Y-20750000D01*
X101414956Y-20906762D01*
X101418690Y-20915778D01*
X101418692Y-20915783D01*
X101471726Y-21043817D01*
X101475464Y-21052841D01*
X101571718Y-21178282D01*
X101697159Y-21274536D01*
X101843238Y-21335044D01*
X102000000Y-21355682D01*
X102156762Y-21335044D01*
X102212776Y-21311841D01*
X102269796Y-21300500D01*
X105730204Y-21300500D01*
X105787223Y-21311841D01*
X105843238Y-21335044D01*
X106000000Y-21355682D01*
X106156762Y-21335044D01*
X106302841Y-21274536D01*
X106428282Y-21178282D01*
X106524536Y-21052841D01*
X106585044Y-20906762D01*
X106605682Y-20750000D01*
X106585044Y-20593238D01*
X106524536Y-20447159D01*
X106510051Y-20428282D01*
X106442851Y-20340704D01*
X106415593Y-20282248D01*
X106415593Y-20217749D01*
X106442852Y-20159294D01*
X106524536Y-20052841D01*
X106585044Y-19906762D01*
X106605682Y-19750000D01*
X106585044Y-19593238D01*
X106524536Y-19447159D01*
X106428282Y-19321718D01*
X106345407Y-19258126D01*
X106310589Y-19231409D01*
X106310587Y-19231408D01*
X106302841Y-19225464D01*
X106293817Y-19221726D01*
X106165783Y-19168692D01*
X106165778Y-19168690D01*
X106156762Y-19164956D01*
X106147080Y-19163681D01*
X106147079Y-19163681D01*
X106009685Y-19145593D01*
X106000000Y-19144318D01*
X105990315Y-19145593D01*
X105852920Y-19163681D01*
X105852917Y-19163681D01*
X105843238Y-19164956D01*
X105834223Y-19168690D01*
X105834216Y-19168692D01*
X105706182Y-19221726D01*
X105706178Y-19221727D01*
X105697159Y-19225464D01*
X105689415Y-19231405D01*
X105689410Y-19231409D01*
X105579467Y-19315771D01*
X105579462Y-19315775D01*
X105571718Y-19321718D01*
X105565775Y-19329462D01*
X105565771Y-19329467D01*
X105481409Y-19439410D01*
X105481405Y-19439415D01*
X105475464Y-19447159D01*
X105471727Y-19456178D01*
X105471726Y-19456182D01*
X105418692Y-19584216D01*
X105418690Y-19584223D01*
X105414956Y-19593238D01*
X105413681Y-19602917D01*
X105413681Y-19602920D01*
X105400087Y-19706182D01*
X105394318Y-19750000D01*
X105395593Y-19759685D01*
X105407867Y-19852920D01*
X105414956Y-19906762D01*
X105418690Y-19915778D01*
X105418692Y-19915783D01*
X105450876Y-19993480D01*
X105461501Y-20065104D01*
X105437107Y-20133280D01*
X105383456Y-20181906D01*
X105313218Y-20199500D01*
X102269796Y-20199500D01*
X102212776Y-20188158D01*
X102165783Y-20168692D01*
X102165778Y-20168690D01*
X102156762Y-20164956D01*
X102147080Y-20163681D01*
X102147079Y-20163681D01*
X102009685Y-20145593D01*
X102000000Y-20144318D01*
X101998193Y-20144555D01*
X101946387Y-20134251D01*
X101898048Y-20101952D01*
X101865749Y-20053613D01*
X101855444Y-20001806D01*
X101855682Y-20000000D01*
X101835044Y-19843238D01*
X101774536Y-19697159D01*
X101678282Y-19571718D01*
X101552841Y-19475464D01*
X101543817Y-19471726D01*
X101415783Y-19418692D01*
X101415778Y-19418690D01*
X101406762Y-19414956D01*
X101397080Y-19413681D01*
X101397079Y-19413681D01*
X101259685Y-19395593D01*
X101250000Y-19394318D01*
X101240315Y-19395593D01*
X101102920Y-19413681D01*
X101102917Y-19413681D01*
X101093238Y-19414956D01*
X101084223Y-19418690D01*
X101084216Y-19418692D01*
X100956182Y-19471726D01*
X100956178Y-19471727D01*
X100947159Y-19475464D01*
X100939415Y-19481405D01*
X100939410Y-19481409D01*
X100829467Y-19565771D01*
X100829462Y-19565775D01*
X100821718Y-19571718D01*
X100815775Y-19579462D01*
X100815771Y-19579467D01*
X100731409Y-19689410D01*
X100731405Y-19689415D01*
X100725464Y-19697159D01*
X100721727Y-19706178D01*
X100721726Y-19706182D01*
X100668692Y-19834216D01*
X100668690Y-19834223D01*
X100664956Y-19843238D01*
X100663681Y-19852917D01*
X100663681Y-19852920D01*
X100647799Y-19973558D01*
X100644318Y-20000000D01*
X95605682Y-20000000D01*
X95585044Y-19843238D01*
X95524536Y-19697159D01*
X95428282Y-19571718D01*
X95302841Y-19475464D01*
X95293817Y-19471726D01*
X95165783Y-19418692D01*
X95165778Y-19418690D01*
X95156762Y-19414956D01*
X95147080Y-19413681D01*
X95147079Y-19413681D01*
X95009685Y-19395593D01*
X95000000Y-19394318D01*
X94990315Y-19395593D01*
X94852920Y-19413681D01*
X94852917Y-19413681D01*
X94843238Y-19414956D01*
X94834223Y-19418690D01*
X94834216Y-19418692D01*
X94706182Y-19471726D01*
X94706178Y-19471727D01*
X94697159Y-19475464D01*
X94689415Y-19481405D01*
X94689410Y-19481409D01*
X94579467Y-19565771D01*
X94579462Y-19565775D01*
X94571718Y-19571718D01*
X94565775Y-19579462D01*
X94565771Y-19579467D01*
X94481409Y-19689410D01*
X94481405Y-19689415D01*
X94475464Y-19697159D01*
X94471727Y-19706178D01*
X94471726Y-19706182D01*
X94418692Y-19834216D01*
X94418690Y-19834223D01*
X94414956Y-19843238D01*
X94413681Y-19852917D01*
X94413681Y-19852920D01*
X94397799Y-19973558D01*
X94394318Y-20000000D01*
X94394555Y-20001806D01*
X94384251Y-20053613D01*
X94351952Y-20101952D01*
X94303613Y-20134251D01*
X94251806Y-20144555D01*
X94250000Y-20144318D01*
X94240315Y-20145593D01*
X94102920Y-20163681D01*
X94102917Y-20163681D01*
X94093238Y-20164956D01*
X94084223Y-20168690D01*
X94084216Y-20168692D01*
X94037224Y-20188158D01*
X93980204Y-20199500D01*
X90936782Y-20199500D01*
X90866544Y-20181906D01*
X90812893Y-20133280D01*
X90788499Y-20065104D01*
X90799124Y-19993480D01*
X90807376Y-19973558D01*
X90835044Y-19906762D01*
X90855682Y-19750000D01*
X90835044Y-19593238D01*
X90774536Y-19447159D01*
X90678282Y-19321718D01*
X90595407Y-19258126D01*
X90560589Y-19231409D01*
X90560587Y-19231408D01*
X90552841Y-19225464D01*
X90543817Y-19221726D01*
X90415783Y-19168692D01*
X90415778Y-19168690D01*
X90406762Y-19164956D01*
X90397080Y-19163681D01*
X90397079Y-19163681D01*
X90259685Y-19145593D01*
X90250000Y-19144318D01*
X90240315Y-19145593D01*
X90102920Y-19163681D01*
X90102917Y-19163681D01*
X90093238Y-19164956D01*
X90084223Y-19168690D01*
X90084216Y-19168692D01*
X89956182Y-19221726D01*
X89956178Y-19221727D01*
X89947159Y-19225464D01*
X89939415Y-19231405D01*
X89939410Y-19231409D01*
X89829467Y-19315771D01*
X89829462Y-19315775D01*
X89821718Y-19321718D01*
X89815775Y-19329462D01*
X89815771Y-19329467D01*
X89731409Y-19439410D01*
X89731405Y-19439415D01*
X89725464Y-19447159D01*
X89721727Y-19456178D01*
X89721726Y-19456182D01*
X89668692Y-19584216D01*
X89668690Y-19584223D01*
X89664956Y-19593238D01*
X89663681Y-19602917D01*
X89663681Y-19602920D01*
X89650087Y-19706182D01*
X89644318Y-19750000D01*
X89645593Y-19759685D01*
X89657867Y-19852920D01*
X89664956Y-19906762D01*
X89668690Y-19915778D01*
X89668692Y-19915783D01*
X89707588Y-20009685D01*
X89725464Y-20052841D01*
X89731408Y-20060587D01*
X89731409Y-20060589D01*
X89807148Y-20159294D01*
X89834406Y-20217749D01*
X89834406Y-20282248D01*
X89807149Y-20340703D01*
X89731409Y-20439410D01*
X89731405Y-20439415D01*
X89725464Y-20447159D01*
X89721727Y-20456178D01*
X89721726Y-20456182D01*
X89668692Y-20584216D01*
X89668690Y-20584223D01*
X89664956Y-20593238D01*
X89663681Y-20602917D01*
X89663681Y-20602920D01*
X89645593Y-20740315D01*
X89644318Y-20750000D01*
X78500000Y-20750000D01*
X78500000Y-17009763D01*
X78501275Y-16990315D01*
X78501275Y-16990314D01*
X78514477Y-16890035D01*
X78524541Y-16852472D01*
X78559482Y-16768118D01*
X78578924Y-16734442D01*
X78634511Y-16662001D01*
X78662001Y-16634511D01*
X78734442Y-16578924D01*
X78768118Y-16559482D01*
X78852472Y-16524541D01*
X78890035Y-16514477D01*
X78990315Y-16501274D01*
X79009763Y-16500000D01*
X89513649Y-16500000D01*
X89582450Y-16516836D01*
G37*
%TD.AperFunction*%
%TD*%
M02*
